<svg fill="none" height="100%" width="100%" viewBox="0 0 1080 1080" xmlns:xlink="http://www.w3.org/1999/xlink" xmlns="http://www.w3.org/2000/svg"><g transform="matrix(1,0,0,1,0,0)" id="i0"><rect y="0" x="0" fill="#ffffff" height="1080" width="1080" /></g><g id="i1"><g transform="translate(540,540)"><animateMotion repeatCount="indefinite" dur="5s" begin="0s" calcMode="spline" keyTimes="0; 1; 1" keySplines="0.167 0 0.833 1; 0.167 0 0.833 1" keyPoints="0; 0.846; 1" path="M0 0 C-426.667 0 -2055.833 0 -2560 0 C-3064.167 0 -2947.5 0 -3025 0" fill="freeze" /><g transform="scale(1,1) translate(0,0)"><g transform="matrix(1,0,0,1,2060.074,-192.497)" id="i2"><g id="i3" transform="matrix(1,0,0,1,91.148,31.556)"><path stroke-miterlimit="10" stroke-width="2" stroke="#000000" d="M-66.089,22.58C-66.089,22.58,-62.397,22.58,-62.397,22.58C-62.397,22.58,-62.397,26.556,-62.397,26.556C-62.397,26.556,86.148,26.556,86.148,26.556C86.148,26.556,86.148,20.627,86.148,20.627C86.148,20.627,81.71,20.627,81.71,20.627C81.71,20.627,81.71,12.958,81.71,12.958C81.71,12.958,73.722,12.958,73.722,12.958C73.722,12.958,73.722,4.971,73.722,4.971C73.722,4.971,62.538,4.971,62.538,4.971C62.538,4.971,62.538,-3.87,62.538,-3.87C62.538,-3.87,41.023,-3.87,41.023,-3.87C41.023,-3.87,41.023,-8.45,41.023,-8.45C41.023,-8.45,28.029,-8.45,28.029,-8.45C28.029,-8.45,28.029,-15.16,28.029,-15.16C28.029,-15.16,23.343,-15.16,23.343,-15.16C23.343,-15.16,23.343,-21.124,23.343,-21.124C23.343,-21.124,16.1,-21.124,16.1,-21.124C16.1,-21.124,16.1,-26.556,16.1,-26.556C16.1,-26.556,3.426,-26.556,3.426,-26.556C3.426,-26.556,3.426,-22.509,3.426,-22.509C3.426,-22.509,-17.024,-22.509,-17.024,-22.509C-17.024,-22.509,-17.024,-17.397,-17.024,-17.397C-17.024,-17.397,-22.03,-17.397,-22.03,-17.397C-22.03,-17.397,-22.03,-13.562,-22.03,-13.562C-22.03,-13.562,-30.87,-13.562,-30.87,-13.562C-30.87,-13.562,-30.87,-0.781,-30.87,-0.781C-30.87,-0.781,-44.397,-0.781,-44.397,-0.781C-44.397,-0.781,-44.397,3.16,-44.397,3.16C-44.397,3.16,-48.87,3.16,-48.87,3.16C-48.87,3.16,-48.87,7.313,-48.87,7.313C-48.87,7.313,-76.669,7.313,-76.669,7.313C-76.669,7.313,-76.669,12.106,-76.669,12.106C-76.669,12.106,-80.397,12.106,-80.397,12.106C-80.397,12.106,-80.397,22.012,-80.397,22.012C-80.397,22.012,-86.148,22.012,-86.148,22.012" /></g></g></g></g></g><g id="i1"><g transform="translate(540,540)"><animateMotion repeatCount="indefinite" dur="5s" begin="0s" calcMode="spline" keyTimes="0; 1; 1" keySplines="0.167 0 0.833 1; 0.167 0 0.833 1" keyPoints="0; 0.846; 1" path="M0 0 C-426.667 0 -2055.833 0 -2560 0 C-3064.167 0 -2947.5 0 -3025 0" fill="freeze" /><g transform="scale(1,1) translate(0,0)"><g transform="matrix(1.5,0,0,1.5,2468.5,-358.275)" id="i4"><g id="i3" transform="matrix(1,0,0,1,91.148,31.556)"><path stroke-miterlimit="10" stroke-width="2" stroke="#000000" d="M-66.089,22.58C-66.089,22.58,-62.397,22.58,-62.397,22.58C-62.397,22.58,-62.397,26.556,-62.397,26.556C-62.397,26.556,86.148,26.556,86.148,26.556C86.148,26.556,86.148,20.627,86.148,20.627C86.148,20.627,81.71,20.627,81.71,20.627C81.71,20.627,81.71,12.958,81.71,12.958C81.71,12.958,73.722,12.958,73.722,12.958C73.722,12.958,73.722,4.971,73.722,4.971C73.722,4.971,62.538,4.971,62.538,4.971C62.538,4.971,62.538,-3.87,62.538,-3.87C62.538,-3.87,41.023,-3.87,41.023,-3.87C41.023,-3.87,41.023,-8.45,41.023,-8.45C41.023,-8.45,28.029,-8.45,28.029,-8.45C28.029,-8.45,28.029,-15.16,28.029,-15.16C28.029,-15.16,23.343,-15.16,23.343,-15.16C23.343,-15.16,23.343,-21.124,23.343,-21.124C23.343,-21.124,16.1,-21.124,16.1,-21.124C16.1,-21.124,16.1,-26.556,16.1,-26.556C16.1,-26.556,3.426,-26.556,3.426,-26.556C3.426,-26.556,3.426,-22.509,3.426,-22.509C3.426,-22.509,-17.024,-22.509,-17.024,-22.509C-17.024,-22.509,-17.024,-17.397,-17.024,-17.397C-17.024,-17.397,-22.03,-17.397,-22.03,-17.397C-22.03,-17.397,-22.03,-13.562,-22.03,-13.562C-22.03,-13.562,-30.87,-13.562,-30.87,-13.562C-30.87,-13.562,-30.87,-0.781,-30.87,-0.781C-30.87,-0.781,-44.397,-0.781,-44.397,-0.781C-44.397,-0.781,-44.397,3.16,-44.397,3.16C-44.397,3.16,-48.87,3.16,-48.87,3.16C-48.87,3.16,-48.87,7.313,-48.87,7.313C-48.87,7.313,-76.669,7.313,-76.669,7.313C-76.669,7.313,-76.669,12.106,-76.669,12.106C-76.669,12.106,-80.397,12.106,-80.397,12.106C-80.397,12.106,-80.397,22.012,-80.397,22.012C-80.397,22.012,-86.148,22.012,-86.148,22.012" /></g></g></g></g></g><g id="i1"><g transform="translate(540,540)"><animateMotion repeatCount="indefinite" dur="5s" begin="0s" calcMode="spline" keyTimes="0; 1; 1" keySplines="0.167 0 0.833 1; 0.167 0 0.833 1" keyPoints="0; 0.846; 1" path="M0 0 C-426.667 0 -2055.833 0 -2560 0 C-3064.167 0 -2947.5 0 -3025 0" fill="freeze" /><g transform="scale(1,1) translate(0,0)"><g transform="matrix(1.5,0,0,1.5,2874.5,-204.275)" id="i5"><g id="i3" transform="matrix(1,0,0,1,91.148,31.556)"><path stroke-miterlimit="10" stroke-width="2" stroke="#000000" d="M-66.089,22.58C-66.089,22.58,-62.397,22.58,-62.397,22.58C-62.397,22.58,-62.397,26.556,-62.397,26.556C-62.397,26.556,86.148,26.556,86.148,26.556C86.148,26.556,86.148,20.627,86.148,20.627C86.148,20.627,81.71,20.627,81.71,20.627C81.71,20.627,81.71,12.958,81.71,12.958C81.71,12.958,73.722,12.958,73.722,12.958C73.722,12.958,73.722,4.971,73.722,4.971C73.722,4.971,62.538,4.971,62.538,4.971C62.538,4.971,62.538,-3.87,62.538,-3.87C62.538,-3.87,41.023,-3.87,41.023,-3.87C41.023,-3.87,41.023,-8.45,41.023,-8.45C41.023,-8.45,28.029,-8.45,28.029,-8.45C28.029,-8.45,28.029,-15.16,28.029,-15.16C28.029,-15.16,23.343,-15.16,23.343,-15.16C23.343,-15.16,23.343,-21.124,23.343,-21.124C23.343,-21.124,16.1,-21.124,16.1,-21.124C16.1,-21.124,16.1,-26.556,16.1,-26.556C16.1,-26.556,3.426,-26.556,3.426,-26.556C3.426,-26.556,3.426,-22.509,3.426,-22.509C3.426,-22.509,-17.024,-22.509,-17.024,-22.509C-17.024,-22.509,-17.024,-17.397,-17.024,-17.397C-17.024,-17.397,-22.03,-17.397,-22.03,-17.397C-22.03,-17.397,-22.03,-13.562,-22.03,-13.562C-22.03,-13.562,-30.87,-13.562,-30.87,-13.562C-30.87,-13.562,-30.87,-0.781,-30.87,-0.781C-30.87,-0.781,-44.397,-0.781,-44.397,-0.781C-44.397,-0.781,-44.397,3.16,-44.397,3.16C-44.397,3.16,-48.87,3.16,-48.87,3.16C-48.87,3.16,-48.87,7.313,-48.87,7.313C-48.87,7.313,-76.669,7.313,-76.669,7.313C-76.669,7.313,-76.669,12.106,-76.669,12.106C-76.669,12.106,-80.397,12.106,-80.397,12.106C-80.397,12.106,-80.397,22.012,-80.397,22.012C-80.397,22.012,-86.148,22.012,-86.148,22.012" /></g></g></g></g></g><g id="i1"><g transform="translate(540,540)"><animateMotion repeatCount="indefinite" dur="5s" begin="0s" calcMode="spline" keyTimes="0; 1; 1" keySplines="0.167 0 0.833 1; 0.167 0 0.833 1" keyPoints="0; 0.846; 1" path="M0 0 C-426.667 0 -2055.833 0 -2560 0 C-3064.167 0 -2947.5 0 -3025 0" fill="freeze" /><g transform="scale(1,1) translate(0,0)"><g transform="matrix(1,0,0,1,-545.491,131.077)" id="i6"><g id="i7" transform="matrix(1,0,0,1,513.79,13.947)"><path stroke-miterlimit="10" stroke-width="2" stroke="#000000" d="M-508.79,-0.214C-508.79,-0.214,-478.121,-0.214,-478.121,-0.214C-478.121,-0.214,-478.121,-4.048,-478.121,-4.048C-478.121,-4.048,-471.837,-4.048,-471.837,-4.048C-471.837,-4.048,-471.837,-8.946,-471.837,-8.946C-471.837,-8.946,-416.56,-8.946,-416.56,-8.946C-416.56,-8.946,-416.56,-4.58,-416.56,-4.58C-416.56,-4.58,-410.169,-4.58,-410.169,-4.58C-410.169,-4.58,-410.169,-0.214,-410.169,-0.214C-410.169,-0.214,-352.654,-0.214,-352.654,-0.214C-352.654,-0.214,-352.654,5.111,-352.654,5.111C-352.654,5.111,-347.328,5.111,-347.328,5.111C-347.328,5.111,-347.328,8.946,-347.328,8.946C-347.328,8.946,-296.843,8.946,-296.843,8.946C-296.843,8.946,-296.843,4.367,-296.843,4.367C-296.843,4.367,-290.453,4.367,-290.453,4.367C-290.453,4.367,-290.453,-0.214,-290.453,-0.214C-290.453,-0.214,508.79,-0.214,508.79,-0.214" /></g><g id="i8"><path stroke-miterlimit="10" stroke-width="2" stroke="#000000" d="M676,39.934C676,39.934,693.468,39.934,693.468,39.934" /></g><g id="i9"><path stroke-miterlimit="10" stroke-width="2" stroke="#000000" d="M755.456,45.259C755.456,45.259,771.432,45.259,771.432,45.259" /></g><g id="i10"><path stroke-miterlimit="10" stroke-width="2" stroke="#000000" d="M779.101,31.627C779.101,31.627,796.781,31.627,796.781,31.627" /></g><g id="i11"><path stroke-miterlimit="10" stroke-width="2" stroke="#000000" d="M751.195,36.1C751.195,36.1,754.603,36.1,754.603,36.1" /></g><g id="i12"><path stroke-miterlimit="10" stroke-width="2" stroke="#000000" d="M813.822,45.259C813.822,45.259,821.704,45.259,821.704,45.259" /></g><g id="i13"><path stroke-miterlimit="10" stroke-width="2" stroke="#000000" d="M984.45,27.153C984.45,27.153,998.509,27.153,998.509,27.153" /></g><g id="i14"><path stroke-miterlimit="10" stroke-width="2" stroke="#000000" d="M964.213,44.124C964.213,44.124,973.799,44.124,973.799,44.124" /></g><g id="i15"><path stroke-miterlimit="10" stroke-width="2" stroke="#000000" d="M927.361,39.295C927.361,39.295,931.195,39.295,931.195,39.295" /></g><g id="i16"><path stroke-miterlimit="10" stroke-width="2" stroke="#000000" d="M611.669,39.934C611.669,39.934,619.977,39.934,619.977,39.934" /></g><g id="i17"><path stroke-miterlimit="10" stroke-width="2" stroke="#000000" d="M594.414,39.934C594.414,39.934,598.888,39.934,598.888,39.934" /></g><g id="i18"><path stroke-miterlimit="10" stroke-width="2" stroke="#000000" d="M443.172,26.514C443.172,26.514,455.314,26.514,455.314,26.514" /></g><g id="i19"><path stroke-miterlimit="10" stroke-width="2" stroke="#000000" d="M464.261,35.675C464.261,35.675,468.734,35.675,468.734,35.675" /></g><g id="i20"><path stroke-miterlimit="10" stroke-width="2" stroke="#000000" d="M526.888,31.839C526.888,31.839,532.639,31.839,532.639,31.839" /></g><g id="i21"><path stroke-miterlimit="10" stroke-width="2" stroke="#000000" d="M397.16,30.988C397.16,30.988,400.994,30.988,400.994,30.988" /></g><g id="i22"><path stroke-miterlimit="10" stroke-width="2" stroke="#000000" d="M282.344,40.36C282.344,40.36,297.468,40.36,297.468,40.36" /></g><g id="i23"><path stroke-miterlimit="10" stroke-width="2" stroke="#000000" d="M257.42,30.988C257.42,30.988,268.071,30.988,268.071,30.988" /></g><g id="i24"><path stroke-miterlimit="10" stroke-width="2" stroke="#000000" d="M242.935,38.656C242.935,38.656,245.066,38.656,245.066,38.656" /></g><g id="i25"><path stroke-miterlimit="10" stroke-width="2" stroke="#000000" d="M68.687,39.508C68.687,39.508,76.781,39.508,76.781,39.508" /></g><g id="i3"><path stroke-miterlimit="10" stroke-width="2" stroke="#000000" d="M5,43.982C5,43.982,10.746,43.982,10.746,43.982" /></g></g></g></g></g><g id="i1"><g transform="translate(540,540)"><animateMotion repeatCount="indefinite" dur="5s" begin="0s" calcMode="spline" keyTimes="0; 1; 1" keySplines="0.167 0 0.833 1; 0.167 0 0.833 1" keyPoints="0; 0.846; 1" path="M0 0 C-426.667 0 -2055.833 0 -2560 0 C-3064.167 0 -2947.5 0 -3025 0" fill="freeze" /><g transform="scale(1,1) translate(0,0)"><g transform="matrix(1,0,0,1,471.509,131.077)" id="i26"><g id="i7" transform="matrix(1,0,0,1,513.79,13.947)"><path stroke-miterlimit="10" stroke-width="2" stroke="#000000" d="M-508.79,-0.214C-508.79,-0.214,-478.121,-0.214,-478.121,-0.214C-478.121,-0.214,-478.121,-4.048,-478.121,-4.048C-478.121,-4.048,-471.837,-4.048,-471.837,-4.048C-471.837,-4.048,-471.837,-8.946,-471.837,-8.946C-471.837,-8.946,-416.56,-8.946,-416.56,-8.946C-416.56,-8.946,-416.56,-4.58,-416.56,-4.58C-416.56,-4.58,-410.169,-4.58,-410.169,-4.58C-410.169,-4.58,-410.169,-0.214,-410.169,-0.214C-410.169,-0.214,-352.654,-0.214,-352.654,-0.214C-352.654,-0.214,-352.654,5.111,-352.654,5.111C-352.654,5.111,-347.328,5.111,-347.328,5.111C-347.328,5.111,-347.328,8.946,-347.328,8.946C-347.328,8.946,-296.843,8.946,-296.843,8.946C-296.843,8.946,-296.843,4.367,-296.843,4.367C-296.843,4.367,-290.453,4.367,-290.453,4.367C-290.453,4.367,-290.453,-0.214,-290.453,-0.214C-290.453,-0.214,508.79,-0.214,508.79,-0.214" /></g><g id="i8"><path stroke-miterlimit="10" stroke-width="2" stroke="#000000" d="M676,39.934C676,39.934,693.468,39.934,693.468,39.934" /></g><g id="i9"><path stroke-miterlimit="10" stroke-width="2" stroke="#000000" d="M755.456,45.259C755.456,45.259,771.432,45.259,771.432,45.259" /></g><g id="i10"><path stroke-miterlimit="10" stroke-width="2" stroke="#000000" d="M779.101,31.627C779.101,31.627,796.781,31.627,796.781,31.627" /></g><g id="i11"><path stroke-miterlimit="10" stroke-width="2" stroke="#000000" d="M751.195,36.1C751.195,36.1,754.603,36.1,754.603,36.1" /></g><g id="i12"><path stroke-miterlimit="10" stroke-width="2" stroke="#000000" d="M813.822,45.259C813.822,45.259,821.704,45.259,821.704,45.259" /></g><g id="i13"><path stroke-miterlimit="10" stroke-width="2" stroke="#000000" d="M984.45,27.153C984.45,27.153,998.509,27.153,998.509,27.153" /></g><g id="i14"><path stroke-miterlimit="10" stroke-width="2" stroke="#000000" d="M964.213,44.124C964.213,44.124,973.799,44.124,973.799,44.124" /></g><g id="i15"><path stroke-miterlimit="10" stroke-width="2" stroke="#000000" d="M927.361,39.295C927.361,39.295,931.195,39.295,931.195,39.295" /></g><g id="i16"><path stroke-miterlimit="10" stroke-width="2" stroke="#000000" d="M611.669,39.934C611.669,39.934,619.977,39.934,619.977,39.934" /></g><g id="i17"><path stroke-miterlimit="10" stroke-width="2" stroke="#000000" d="M594.414,39.934C594.414,39.934,598.888,39.934,598.888,39.934" /></g><g id="i18"><path stroke-miterlimit="10" stroke-width="2" stroke="#000000" d="M443.172,26.514C443.172,26.514,455.314,26.514,455.314,26.514" /></g><g id="i19"><path stroke-miterlimit="10" stroke-width="2" stroke="#000000" d="M464.261,35.675C464.261,35.675,468.734,35.675,468.734,35.675" /></g><g id="i20"><path stroke-miterlimit="10" stroke-width="2" stroke="#000000" d="M526.888,31.839C526.888,31.839,532.639,31.839,532.639,31.839" /></g><g id="i21"><path stroke-miterlimit="10" stroke-width="2" stroke="#000000" d="M397.16,30.988C397.16,30.988,400.994,30.988,400.994,30.988" /></g><g id="i22"><path stroke-miterlimit="10" stroke-width="2" stroke="#000000" d="M282.344,40.36C282.344,40.36,297.468,40.36,297.468,40.36" /></g><g id="i23"><path stroke-miterlimit="10" stroke-width="2" stroke="#000000" d="M257.42,30.988C257.42,30.988,268.071,30.988,268.071,30.988" /></g><g id="i24"><path stroke-miterlimit="10" stroke-width="2" stroke="#000000" d="M242.935,38.656C242.935,38.656,245.066,38.656,245.066,38.656" /></g><g id="i25"><path stroke-miterlimit="10" stroke-width="2" stroke="#000000" d="M68.687,39.508C68.687,39.508,76.781,39.508,76.781,39.508" /></g><g id="i3"><path stroke-miterlimit="10" stroke-width="2" stroke="#000000" d="M5,43.982C5,43.982,10.746,43.982,10.746,43.982" /></g></g></g></g></g><g id="i1"><g transform="translate(540,540)"><animateMotion repeatCount="indefinite" dur="5s" begin="0s" calcMode="spline" keyTimes="0; 1; 1" keySplines="0.167 0 0.833 1; 0.167 0 0.833 1" keyPoints="0; 0.846; 1" path="M0 0 C-426.667 0 -2055.833 0 -2560 0 C-3064.167 0 -2947.5 0 -3025 0" fill="freeze" /><g transform="scale(1,1) translate(0,0)"><g transform="matrix(1,0,0,1,1488.509,131.077)" id="i27"><g id="i7" transform="matrix(1,0,0,1,513.79,13.947)"><path stroke-miterlimit="10" stroke-width="2" stroke="#000000" d="M-508.79,-0.214C-508.79,-0.214,-478.121,-0.214,-478.121,-0.214C-478.121,-0.214,-478.121,-4.048,-478.121,-4.048C-478.121,-4.048,-471.837,-4.048,-471.837,-4.048C-471.837,-4.048,-471.837,-8.946,-471.837,-8.946C-471.837,-8.946,-416.56,-8.946,-416.56,-8.946C-416.56,-8.946,-416.56,-4.58,-416.56,-4.58C-416.56,-4.58,-410.169,-4.58,-410.169,-4.58C-410.169,-4.58,-410.169,-0.214,-410.169,-0.214C-410.169,-0.214,-352.654,-0.214,-352.654,-0.214C-352.654,-0.214,-352.654,5.111,-352.654,5.111C-352.654,5.111,-347.328,5.111,-347.328,5.111C-347.328,5.111,-347.328,8.946,-347.328,8.946C-347.328,8.946,-296.843,8.946,-296.843,8.946C-296.843,8.946,-296.843,4.367,-296.843,4.367C-296.843,4.367,-290.453,4.367,-290.453,4.367C-290.453,4.367,-290.453,-0.214,-290.453,-0.214C-290.453,-0.214,508.79,-0.214,508.79,-0.214" /></g><g id="i8"><path stroke-miterlimit="10" stroke-width="2" stroke="#000000" d="M676,39.934C676,39.934,693.468,39.934,693.468,39.934" /></g><g id="i9"><path stroke-miterlimit="10" stroke-width="2" stroke="#000000" d="M755.456,45.259C755.456,45.259,771.432,45.259,771.432,45.259" /></g><g id="i10"><path stroke-miterlimit="10" stroke-width="2" stroke="#000000" d="M779.101,31.627C779.101,31.627,796.781,31.627,796.781,31.627" /></g><g id="i11"><path stroke-miterlimit="10" stroke-width="2" stroke="#000000" d="M751.195,36.1C751.195,36.1,754.603,36.1,754.603,36.1" /></g><g id="i12"><path stroke-miterlimit="10" stroke-width="2" stroke="#000000" d="M813.822,45.259C813.822,45.259,821.704,45.259,821.704,45.259" /></g><g id="i13"><path stroke-miterlimit="10" stroke-width="2" stroke="#000000" d="M984.45,27.153C984.45,27.153,998.509,27.153,998.509,27.153" /></g><g id="i14"><path stroke-miterlimit="10" stroke-width="2" stroke="#000000" d="M964.213,44.124C964.213,44.124,973.799,44.124,973.799,44.124" /></g><g id="i15"><path stroke-miterlimit="10" stroke-width="2" stroke="#000000" d="M927.361,39.295C927.361,39.295,931.195,39.295,931.195,39.295" /></g><g id="i16"><path stroke-miterlimit="10" stroke-width="2" stroke="#000000" d="M611.669,39.934C611.669,39.934,619.977,39.934,619.977,39.934" /></g><g id="i17"><path stroke-miterlimit="10" stroke-width="2" stroke="#000000" d="M594.414,39.934C594.414,39.934,598.888,39.934,598.888,39.934" /></g><g id="i18"><path stroke-miterlimit="10" stroke-width="2" stroke="#000000" d="M443.172,26.514C443.172,26.514,455.314,26.514,455.314,26.514" /></g><g id="i19"><path stroke-miterlimit="10" stroke-width="2" stroke="#000000" d="M464.261,35.675C464.261,35.675,468.734,35.675,468.734,35.675" /></g><g id="i20"><path stroke-miterlimit="10" stroke-width="2" stroke="#000000" d="M526.888,31.839C526.888,31.839,532.639,31.839,532.639,31.839" /></g><g id="i21"><path stroke-miterlimit="10" stroke-width="2" stroke="#000000" d="M397.16,30.988C397.16,30.988,400.994,30.988,400.994,30.988" /></g><g id="i22"><path stroke-miterlimit="10" stroke-width="2" stroke="#000000" d="M282.344,40.36C282.344,40.36,297.468,40.36,297.468,40.36" /></g><g id="i23"><path stroke-miterlimit="10" stroke-width="2" stroke="#000000" d="M257.42,30.988C257.42,30.988,268.071,30.988,268.071,30.988" /></g><g id="i24"><path stroke-miterlimit="10" stroke-width="2" stroke="#000000" d="M242.935,38.656C242.935,38.656,245.066,38.656,245.066,38.656" /></g><g id="i25"><path stroke-miterlimit="10" stroke-width="2" stroke="#000000" d="M68.687,39.508C68.687,39.508,76.781,39.508,76.781,39.508" /></g><g id="i3"><path stroke-miterlimit="10" stroke-width="2" stroke="#000000" d="M5,43.982C5,43.982,10.746,43.982,10.746,43.982" /></g></g></g></g></g><g id="i1"><g transform="translate(540,540)"><animateMotion repeatCount="indefinite" dur="5s" begin="0s" calcMode="spline" keyTimes="0; 1; 1" keySplines="0.167 0 0.833 1; 0.167 0 0.833 1" keyPoints="0; 0.846; 1" path="M0 0 C-426.667 0 -2055.833 0 -2560 0 C-3064.167 0 -2947.5 0 -3025 0" fill="freeze" /><g transform="scale(1,1) translate(0,0)"><g transform="matrix(1,0,0,1,2480.509,131.077)" id="i28"><g id="i7" transform="matrix(1,0,0,1,513.79,13.947)"><path stroke-miterlimit="10" stroke-width="2" stroke="#000000" d="M-508.79,-0.214C-508.79,-0.214,-478.121,-0.214,-478.121,-0.214C-478.121,-0.214,-478.121,-4.048,-478.121,-4.048C-478.121,-4.048,-471.837,-4.048,-471.837,-4.048C-471.837,-4.048,-471.837,-8.946,-471.837,-8.946C-471.837,-8.946,-416.56,-8.946,-416.56,-8.946C-416.56,-8.946,-416.56,-4.58,-416.56,-4.58C-416.56,-4.58,-410.169,-4.58,-410.169,-4.58C-410.169,-4.58,-410.169,-0.214,-410.169,-0.214C-410.169,-0.214,-352.654,-0.214,-352.654,-0.214C-352.654,-0.214,-352.654,5.111,-352.654,5.111C-352.654,5.111,-347.328,5.111,-347.328,5.111C-347.328,5.111,-347.328,8.946,-347.328,8.946C-347.328,8.946,-296.843,8.946,-296.843,8.946C-296.843,8.946,-296.843,4.367,-296.843,4.367C-296.843,4.367,-290.453,4.367,-290.453,4.367C-290.453,4.367,-290.453,-0.214,-290.453,-0.214C-290.453,-0.214,508.79,-0.214,508.79,-0.214" /></g><g id="i8"><path stroke-miterlimit="10" stroke-width="2" stroke="#000000" d="M676,39.934C676,39.934,693.468,39.934,693.468,39.934" /></g><g id="i9"><path stroke-miterlimit="10" stroke-width="2" stroke="#000000" d="M755.456,45.259C755.456,45.259,771.432,45.259,771.432,45.259" /></g><g id="i10"><path stroke-miterlimit="10" stroke-width="2" stroke="#000000" d="M779.101,31.627C779.101,31.627,796.781,31.627,796.781,31.627" /></g><g id="i11"><path stroke-miterlimit="10" stroke-width="2" stroke="#000000" d="M751.195,36.1C751.195,36.1,754.603,36.1,754.603,36.1" /></g><g id="i12"><path stroke-miterlimit="10" stroke-width="2" stroke="#000000" d="M813.822,45.259C813.822,45.259,821.704,45.259,821.704,45.259" /></g><g id="i13"><path stroke-miterlimit="10" stroke-width="2" stroke="#000000" d="M984.45,27.153C984.45,27.153,998.509,27.153,998.509,27.153" /></g><g id="i14"><path stroke-miterlimit="10" stroke-width="2" stroke="#000000" d="M964.213,44.124C964.213,44.124,973.799,44.124,973.799,44.124" /></g><g id="i15"><path stroke-miterlimit="10" stroke-width="2" stroke="#000000" d="M927.361,39.295C927.361,39.295,931.195,39.295,931.195,39.295" /></g><g id="i16"><path stroke-miterlimit="10" stroke-width="2" stroke="#000000" d="M611.669,39.934C611.669,39.934,619.977,39.934,619.977,39.934" /></g><g id="i17"><path stroke-miterlimit="10" stroke-width="2" stroke="#000000" d="M594.414,39.934C594.414,39.934,598.888,39.934,598.888,39.934" /></g><g id="i18"><path stroke-miterlimit="10" stroke-width="2" stroke="#000000" d="M443.172,26.514C443.172,26.514,455.314,26.514,455.314,26.514" /></g><g id="i19"><path stroke-miterlimit="10" stroke-width="2" stroke="#000000" d="M464.261,35.675C464.261,35.675,468.734,35.675,468.734,35.675" /></g><g id="i20"><path stroke-miterlimit="10" stroke-width="2" stroke="#000000" d="M526.888,31.839C526.888,31.839,532.639,31.839,532.639,31.839" /></g><g id="i21"><path stroke-miterlimit="10" stroke-width="2" stroke="#000000" d="M397.16,30.988C397.16,30.988,400.994,30.988,400.994,30.988" /></g><g id="i22"><path stroke-miterlimit="10" stroke-width="2" stroke="#000000" d="M282.344,40.36C282.344,40.36,297.468,40.36,297.468,40.36" /></g><g id="i23"><path stroke-miterlimit="10" stroke-width="2" stroke="#000000" d="M257.42,30.988C257.42,30.988,268.071,30.988,268.071,30.988" /></g><g id="i24"><path stroke-miterlimit="10" stroke-width="2" stroke="#000000" d="M242.935,38.656C242.935,38.656,245.066,38.656,245.066,38.656" /></g><g id="i25"><path stroke-miterlimit="10" stroke-width="2" stroke="#000000" d="M68.687,39.508C68.687,39.508,76.781,39.508,76.781,39.508" /></g><g id="i3"><path stroke-miterlimit="10" stroke-width="2" stroke="#000000" d="M5,43.982C5,43.982,10.746,43.982,10.746,43.982" /></g></g></g></g></g><g id="i1"><g transform="translate(540,540)"><animateMotion repeatCount="indefinite" dur="5s" begin="0s" calcMode="spline" keyTimes="0; 1; 1" keySplines="0.167 0 0.833 1; 0.167 0 0.833 1" keyPoints="0; 0.846; 1" path="M0 0 C-426.667 0 -2055.833 0 -2560 0 C-3064.167 0 -2947.5 0 -3025 0" fill="freeze" /><g transform="scale(1,1) translate(0,0)"><g transform="matrix(1,0,0,1,-500.165,-192.497)" id="i29"><g id="i3" transform="matrix(1,0,0,1,91.148,31.556)"><path stroke-miterlimit="10" stroke-width="2" stroke="#000000" d="M-66.089,22.58C-66.089,22.58,-62.397,22.58,-62.397,22.58C-62.397,22.58,-62.397,26.556,-62.397,26.556C-62.397,26.556,86.148,26.556,86.148,26.556C86.148,26.556,86.148,20.627,86.148,20.627C86.148,20.627,81.71,20.627,81.71,20.627C81.71,20.627,81.71,12.958,81.71,12.958C81.71,12.958,73.722,12.958,73.722,12.958C73.722,12.958,73.722,4.971,73.722,4.971C73.722,4.971,62.538,4.971,62.538,4.971C62.538,4.971,62.538,-3.87,62.538,-3.87C62.538,-3.87,41.023,-3.87,41.023,-3.87C41.023,-3.87,41.023,-8.45,41.023,-8.45C41.023,-8.45,28.029,-8.45,28.029,-8.45C28.029,-8.45,28.029,-15.16,28.029,-15.16C28.029,-15.16,23.343,-15.16,23.343,-15.16C23.343,-15.16,23.343,-21.124,23.343,-21.124C23.343,-21.124,16.1,-21.124,16.1,-21.124C16.1,-21.124,16.1,-26.556,16.1,-26.556C16.1,-26.556,3.426,-26.556,3.426,-26.556C3.426,-26.556,3.426,-22.509,3.426,-22.509C3.426,-22.509,-17.024,-22.509,-17.024,-22.509C-17.024,-22.509,-17.024,-17.397,-17.024,-17.397C-17.024,-17.397,-22.03,-17.397,-22.03,-17.397C-22.03,-17.397,-22.03,-13.562,-22.03,-13.562C-22.03,-13.562,-30.87,-13.562,-30.87,-13.562C-30.87,-13.562,-30.87,-0.781,-30.87,-0.781C-30.87,-0.781,-44.397,-0.781,-44.397,-0.781C-44.397,-0.781,-44.397,3.16,-44.397,3.16C-44.397,3.16,-48.87,3.16,-48.87,3.16C-48.87,3.16,-48.87,7.313,-48.87,7.313C-48.87,7.313,-76.669,7.313,-76.669,7.313C-76.669,7.313,-76.669,12.106,-76.669,12.106C-76.669,12.106,-80.397,12.106,-80.397,12.106C-80.397,12.106,-80.397,22.012,-80.397,22.012C-80.397,22.012,-86.148,22.012,-86.148,22.012" /></g></g></g></g></g><g id="i1"><g transform="translate(540,540)"><animateMotion repeatCount="indefinite" dur="5s" begin="0s" calcMode="spline" keyTimes="0; 1; 1" keySplines="0.167 0 0.833 1; 0.167 0 0.833 1" keyPoints="0; 0.846; 1" path="M0 0 C-426.667 0 -2055.833 0 -2560 0 C-3064.167 0 -2947.5 0 -3025 0" fill="freeze" /><g transform="scale(1,1) translate(0,0)"><g transform="matrix(1.5,0,0,1.5,-91.739,-358.275)" id="i30"><g id="i3" transform="matrix(1,0,0,1,91.148,31.556)"><path stroke-miterlimit="10" stroke-width="2" stroke="#000000" d="M-66.089,22.58C-66.089,22.58,-62.397,22.58,-62.397,22.58C-62.397,22.58,-62.397,26.556,-62.397,26.556C-62.397,26.556,86.148,26.556,86.148,26.556C86.148,26.556,86.148,20.627,86.148,20.627C86.148,20.627,81.71,20.627,81.71,20.627C81.71,20.627,81.71,12.958,81.71,12.958C81.71,12.958,73.722,12.958,73.722,12.958C73.722,12.958,73.722,4.971,73.722,4.971C73.722,4.971,62.538,4.971,62.538,4.971C62.538,4.971,62.538,-3.87,62.538,-3.87C62.538,-3.87,41.023,-3.87,41.023,-3.87C41.023,-3.87,41.023,-8.45,41.023,-8.45C41.023,-8.45,28.029,-8.45,28.029,-8.45C28.029,-8.45,28.029,-15.16,28.029,-15.16C28.029,-15.16,23.343,-15.16,23.343,-15.16C23.343,-15.16,23.343,-21.124,23.343,-21.124C23.343,-21.124,16.1,-21.124,16.1,-21.124C16.1,-21.124,16.1,-26.556,16.1,-26.556C16.1,-26.556,3.426,-26.556,3.426,-26.556C3.426,-26.556,3.426,-22.509,3.426,-22.509C3.426,-22.509,-17.024,-22.509,-17.024,-22.509C-17.024,-22.509,-17.024,-17.397,-17.024,-17.397C-17.024,-17.397,-22.03,-17.397,-22.03,-17.397C-22.03,-17.397,-22.03,-13.562,-22.03,-13.562C-22.03,-13.562,-30.87,-13.562,-30.87,-13.562C-30.87,-13.562,-30.87,-0.781,-30.87,-0.781C-30.87,-0.781,-44.397,-0.781,-44.397,-0.781C-44.397,-0.781,-44.397,3.16,-44.397,3.16C-44.397,3.16,-48.87,3.16,-48.87,3.16C-48.87,3.16,-48.87,7.313,-48.87,7.313C-48.87,7.313,-76.669,7.313,-76.669,7.313C-76.669,7.313,-76.669,12.106,-76.669,12.106C-76.669,12.106,-80.397,12.106,-80.397,12.106C-80.397,12.106,-80.397,22.012,-80.397,22.012C-80.397,22.012,-86.148,22.012,-86.148,22.012" /></g></g></g></g></g><g id="i1"><g transform="translate(540,540)"><animateMotion repeatCount="indefinite" dur="5s" begin="0s" calcMode="spline" keyTimes="0; 1; 1" keySplines="0.167 0 0.833 1; 0.167 0 0.833 1" keyPoints="0; 0.846; 1" path="M0 0 C-426.667 0 -2055.833 0 -2560 0 C-3064.167 0 -2947.5 0 -3025 0" fill="freeze" /><g transform="scale(1,1) translate(0,0)"><g transform="matrix(1.5,0,0,1.5,314.261,-204.275)" id="i31"><g id="i3" transform="matrix(1,0,0,1,91.148,31.556)"><path stroke-miterlimit="10" stroke-width="2" stroke="#000000" d="M-66.089,22.58C-66.089,22.58,-62.397,22.58,-62.397,22.58C-62.397,22.58,-62.397,26.556,-62.397,26.556C-62.397,26.556,86.148,26.556,86.148,26.556C86.148,26.556,86.148,20.627,86.148,20.627C86.148,20.627,81.71,20.627,81.71,20.627C81.71,20.627,81.71,12.958,81.71,12.958C81.71,12.958,73.722,12.958,73.722,12.958C73.722,12.958,73.722,4.971,73.722,4.971C73.722,4.971,62.538,4.971,62.538,4.971C62.538,4.971,62.538,-3.87,62.538,-3.87C62.538,-3.87,41.023,-3.87,41.023,-3.87C41.023,-3.87,41.023,-8.45,41.023,-8.45C41.023,-8.45,28.029,-8.45,28.029,-8.45C28.029,-8.45,28.029,-15.16,28.029,-15.16C28.029,-15.16,23.343,-15.16,23.343,-15.16C23.343,-15.16,23.343,-21.124,23.343,-21.124C23.343,-21.124,16.1,-21.124,16.1,-21.124C16.1,-21.124,16.1,-26.556,16.1,-26.556C16.1,-26.556,3.426,-26.556,3.426,-26.556C3.426,-26.556,3.426,-22.509,3.426,-22.509C3.426,-22.509,-17.024,-22.509,-17.024,-22.509C-17.024,-22.509,-17.024,-17.397,-17.024,-17.397C-17.024,-17.397,-22.03,-17.397,-22.03,-17.397C-22.03,-17.397,-22.03,-13.562,-22.03,-13.562C-22.03,-13.562,-30.87,-13.562,-30.87,-13.562C-30.87,-13.562,-30.87,-0.781,-30.87,-0.781C-30.87,-0.781,-44.397,-0.781,-44.397,-0.781C-44.397,-0.781,-44.397,3.16,-44.397,3.16C-44.397,3.16,-48.87,3.16,-48.87,3.16C-48.87,3.16,-48.87,7.313,-48.87,7.313C-48.87,7.313,-76.669,7.313,-76.669,7.313C-76.669,7.313,-76.669,12.106,-76.669,12.106C-76.669,12.106,-80.397,12.106,-80.397,12.106C-80.397,12.106,-80.397,22.012,-80.397,22.012C-80.397,22.012,-86.148,22.012,-86.148,22.012" /></g></g></g></g></g><g id="i1"><g transform="translate(540,540)"><animateMotion repeatCount="indefinite" dur="5s" begin="0s" calcMode="spline" keyTimes="0; 1; 1" keySplines="0.167 0 0.833 1; 0.167 0 0.833 1" keyPoints="0; 0.846; 1" path="M0 0 C-426.667 0 -2055.833 0 -2560 0 C-3064.167 0 -2947.5 0 -3025 0" fill="freeze" /><g transform="scale(1,1) translate(0,0)"><g transform="matrix(1,0,0,1,905.835,-298.497)" id="i32"><g id="i3" transform="matrix(1,0,0,1,91.148,31.556)"><path stroke-miterlimit="10" stroke-width="2" stroke="#000000" d="M-66.089,22.58C-66.089,22.58,-62.397,22.58,-62.397,22.58C-62.397,22.58,-62.397,26.556,-62.397,26.556C-62.397,26.556,86.148,26.556,86.148,26.556C86.148,26.556,86.148,20.627,86.148,20.627C86.148,20.627,81.71,20.627,81.71,20.627C81.71,20.627,81.71,12.958,81.71,12.958C81.71,12.958,73.722,12.958,73.722,12.958C73.722,12.958,73.722,4.971,73.722,4.971C73.722,4.971,62.538,4.971,62.538,4.971C62.538,4.971,62.538,-3.87,62.538,-3.87C62.538,-3.87,41.023,-3.87,41.023,-3.87C41.023,-3.87,41.023,-8.45,41.023,-8.45C41.023,-8.45,28.029,-8.45,28.029,-8.45C28.029,-8.45,28.029,-15.16,28.029,-15.16C28.029,-15.16,23.343,-15.16,23.343,-15.16C23.343,-15.16,23.343,-21.124,23.343,-21.124C23.343,-21.124,16.1,-21.124,16.1,-21.124C16.1,-21.124,16.1,-26.556,16.1,-26.556C16.1,-26.556,3.426,-26.556,3.426,-26.556C3.426,-26.556,3.426,-22.509,3.426,-22.509C3.426,-22.509,-17.024,-22.509,-17.024,-22.509C-17.024,-22.509,-17.024,-17.397,-17.024,-17.397C-17.024,-17.397,-22.03,-17.397,-22.03,-17.397C-22.03,-17.397,-22.03,-13.562,-22.03,-13.562C-22.03,-13.562,-30.87,-13.562,-30.87,-13.562C-30.87,-13.562,-30.87,-0.781,-30.87,-0.781C-30.87,-0.781,-44.397,-0.781,-44.397,-0.781C-44.397,-0.781,-44.397,3.16,-44.397,3.16C-44.397,3.16,-48.87,3.16,-48.87,3.16C-48.87,3.16,-48.87,7.313,-48.87,7.313C-48.87,7.313,-76.669,7.313,-76.669,7.313C-76.669,7.313,-76.669,12.106,-76.669,12.106C-76.669,12.106,-80.397,12.106,-80.397,12.106C-80.397,12.106,-80.397,22.012,-80.397,22.012C-80.397,22.012,-86.148,22.012,-86.148,22.012" /></g></g></g></g></g><g id="i1"><g transform="translate(540,540)"><animateMotion repeatCount="indefinite" dur="5s" begin="0s" calcMode="spline" keyTimes="0; 1; 1" keySplines="0.167 0 0.833 1; 0.167 0 0.833 1" keyPoints="0; 0.846; 1" path="M0 0 C-426.667 0 -2055.833 0 -2560 0 C-3064.167 0 -2947.5 0 -3025 0" fill="freeze" /><g transform="scale(1,1) translate(0,0)"><g transform="matrix(1.5,0,0,1.5,1289.261,-204.275)" id="i33"><g id="i3" transform="matrix(1,0,0,1,91.148,31.556)"><path stroke-miterlimit="10" stroke-width="2" stroke="#000000" d="M-66.089,22.58C-66.089,22.58,-62.397,22.58,-62.397,22.58C-62.397,22.58,-62.397,26.556,-62.397,26.556C-62.397,26.556,86.148,26.556,86.148,26.556C86.148,26.556,86.148,20.627,86.148,20.627C86.148,20.627,81.71,20.627,81.71,20.627C81.71,20.627,81.71,12.958,81.71,12.958C81.71,12.958,73.722,12.958,73.722,12.958C73.722,12.958,73.722,4.971,73.722,4.971C73.722,4.971,62.538,4.971,62.538,4.971C62.538,4.971,62.538,-3.87,62.538,-3.87C62.538,-3.87,41.023,-3.87,41.023,-3.87C41.023,-3.87,41.023,-8.45,41.023,-8.45C41.023,-8.45,28.029,-8.45,28.029,-8.45C28.029,-8.45,28.029,-15.16,28.029,-15.16C28.029,-15.16,23.343,-15.16,23.343,-15.16C23.343,-15.16,23.343,-21.124,23.343,-21.124C23.343,-21.124,16.1,-21.124,16.1,-21.124C16.1,-21.124,16.1,-26.556,16.1,-26.556C16.1,-26.556,3.426,-26.556,3.426,-26.556C3.426,-26.556,3.426,-22.509,3.426,-22.509C3.426,-22.509,-17.024,-22.509,-17.024,-22.509C-17.024,-22.509,-17.024,-17.397,-17.024,-17.397C-17.024,-17.397,-22.03,-17.397,-22.03,-17.397C-22.03,-17.397,-22.03,-13.562,-22.03,-13.562C-22.03,-13.562,-30.87,-13.562,-30.87,-13.562C-30.87,-13.562,-30.87,-0.781,-30.87,-0.781C-30.87,-0.781,-44.397,-0.781,-44.397,-0.781C-44.397,-0.781,-44.397,3.16,-44.397,3.16C-44.397,3.16,-48.87,3.16,-48.87,3.16C-48.87,3.16,-48.87,7.313,-48.87,7.313C-48.87,7.313,-76.669,7.313,-76.669,7.313C-76.669,7.313,-76.669,12.106,-76.669,12.106C-76.669,12.106,-80.397,12.106,-80.397,12.106C-80.397,12.106,-80.397,22.012,-80.397,22.012C-80.397,22.012,-86.148,22.012,-86.148,22.012" /></g></g></g></g></g><g id="i34"><g><g transform="translate(85.737,0)"><g transform="translate(0,650.392)"><animateTransform repeatCount="indefinite" type="translate" attributeName="transform" dur="5s" begin="0s" calcMode="spline" values="0 650.392; 0 650.392; 0 550.528; 0 479.669; 0 431.855; 0 413.392; 0 437.046; 0 494.161; 0 571.091; 0 650.392; 0 650.392; 0 650.392; 0 650.392; 0 650.392; 0 650.392; 0 650.392; 0 565.356; 0 485.674; 0 432.423; 0 413.392; 0 435.983; 0 487.218; 0 556.984; 0 650.392; 0 650.392; 0 650.392; 0 650.392; 0 650.392; 0 610.474; 0 522.871; 0 455.19; 0 418.22; 0 419.863; 0 458.935; 0 520.01; 0 598.498; 0 650.392; 0 650.392; 0 650.392; 0 650.392; 0 650.392; 0 565.356; 0 485.674; 0 432.423; 0 413.392; 0 435.983; 0 487.218; 0 556.984; 0 650.392; 0 650.392" keyTimes="0; 0.166667; 0.183334; 0.2; 0.216667; 0.233333; 0.25; 0.266667; 0.283333; 0.3; 0.316666; 0.333333; 0.35; 0.366667; 0.383333; 0.4; 0.416667; 0.433334; 0.45; 0.466667; 0.483333; 0.5; 0.516667; 0.533333; 0.55; 0.566666; 0.583333; 0.6; 0.616667; 0.633334; 0.65; 0.666667; 0.683333; 0.7; 0.716667; 0.733333; 0.75; 0.766666; 0.783333; 0.8; 0.816666; 0.833333; 0.85; 0.866667; 0.883334; 0.9; 0.916667; 0.933333; 0.95; 1" keySplines="0 0 1 1; 0 0 1 1; 0 0 1 1; 0 0 1 1; 0 0 1 1; 0 0 1 1; 0 0 1 1; 0 0 1 1; 0 0 1 1; 0 0 1 1; 0 0 1 1; 0 0 1 1; 0 0 1 1; 0 0 1 1; 0 0 1 1; 0 0 1 1; 0 0 1 1; 0 0 1 1; 0 0 1 1; 0 0 1 1; 0 0 1 1; 0 0 1 1; 0 0 1 1; 0 0 1 1; 0 0 1 1; 0 0 1 1; 0 0 1 1; 0 0 1 1; 0 0 1 1; 0 0 1 1; 0 0 1 1; 0 0 1 1; 0 0 1 1; 0 0 1 1; 0 0 1 1; 0 0 1 1; 0 0 1 1; 0 0 1 1; 0 0 1 1; 0 0 1 1; 0 0 1 1; 0 0 1 1; 0 0 1 1; 0 0 1 1; 0 0 1 1; 0 0 1 1; 0 0 1 1; 0 0 1 1; 0 0 1 1" fill="freeze" /><g transform="scale(1,1) translate(-60,-60)"><g id="i35"><g><g transform="translate(69.405,0)"><g transform="translate(0,39.283)"><animateTransform repeatCount="indefinite" type="translate" attributeName="transform" dur="5s" begin="0s" calcMode="spline" values="0 39.283; 0 43.537; 0 39.283; 0 43.537; 0 39.283; 0 43.537; 0 39.283; 0 43.537; 0 39.283; 0 43.537; 0 39.283; 0 43.537; 0 39.283; 0 43.537; 0 39.283; 0 43.537; 0 39.283; 0 43.537; 0 39.283; 0 43.537; 0 39.283; 0 43.537; 0 39.283; 0 43.537; 0 39.283" keyTimes="0; 0.05; 0.1; 0.15; 0.2; 0.25; 0.3; 0.35; 0.4; 0.45; 0.5; 0.55; 0.6; 0.65; 0.7; 0.75; 0.8; 0.85; 0.9; 0.95; 1; 1; 1; 1; 1" keySplines="0.195 0 0.717 1; 0.2 0 0.8 1; 0.195 0 0.717 1; 0.2 0 0.8 1; 0.195 0 0.717 1; 0.2 0 0.8 1; 0.195 0 0.717 1; 0.2 0 0.8 1; 0.195 0 0.717 1; 0.2 0 0.8 1; 0.195 0 0.717 1; 0.2 0 0.8 1; 0.195 0 0.717 1; 0.2 0 0.8 1; 0.195 0 0.717 1; 0.2 0 0.8 1; 0.195 0 0.717 1; 0.2 0 0.8 1; 0.195 0 0.717 1; 0.2 0 0.8 1; 0.195 0 0.717 1; 0.2 0 0.8 1; 0.195 0 0.717 1; 0.2 0 0.8 1" fill="freeze" /><g transform="scale(1,1) translate(-40.298,-46.652)"><g id="i36"><g transform="translate(63.684,16.934)"><g transform="rotate(0)"><animateTransform repeatCount="indefinite" type="rotate" attributeName="transform" dur="5s" begin="0s" calcMode="spline" values="0; 4; 0; 4; 0; 4; 0; 4; 0; 4; 0; 4; 0; 4; 0; 4; 0; 4; 0; 4; 0; 4; 0; 4; 0" keyTimes="0; 0.05; 0.1; 0.15; 0.2; 0.25; 0.3; 0.35; 0.4; 0.45; 0.5; 0.55; 0.6; 0.65; 0.7; 0.75; 0.8; 0.85; 0.9; 0.95; 1; 1; 1; 1; 1" keySplines="0.2 0 0.8 1; 0.2 0 0.8 1; 0.2 0 0.8 1; 0.2 0 0.8 1; 0.2 0 0.8 1; 0.2 0 0.8 1; 0.2 0 0.8 1; 0.2 0 0.8 1; 0.2 0 0.8 1; 0.2 0 0.8 1; 0.2 0 0.8 1; 0.2 0 0.8 1; 0.2 0 0.8 1; 0.2 0 0.8 1; 0.2 0 0.8 1; 0.2 0 0.8 1; 0.2 0 0.8 1; 0.2 0 0.8 1; 0.2 0 0.8 1; 0.2 0 0.8 1; 0.2 0 0.8 1; 0.2 0 0.8 1; 0.2 0 0.8 1; 0.2 0 0.8 1" fill="freeze" /><g transform="scale(1,1) translate(-15.683,-67.492)"><g id="i25" transform="matrix(1,0,0,1,41.433,37.742)"><path fill="#000000" d="M24.142,24.852C24.142,24.852,-9.799,24.852,-9.799,24.852C-9.799,24.852,-10.794,37.491,-25.279,37.491C-41.184,37.491,-40.616,24.852,-40.616,24.852C-40.616,24.852,-40.616,-28.97,-40.616,-28.97C-40.616,-28.97,-32.806,-28.97,-32.806,-28.97C-32.806,-28.97,-32.806,-37.491,-32.806,-37.491C-32.806,-37.491,32.094,-37.491,32.094,-37.491C32.094,-37.491,32.094,-29.707,32.094,-29.707C32.094,-29.707,41.184,-29.707,41.184,-29.707C41.184,-29.707,41.184,6.533,41.184,6.533C41.184,6.533,-0.995,6.533,-0.995,6.533C-0.995,6.533,-0.995,17.04,-0.995,17.04C-0.995,17.04,24.066,17.04,24.066,17.04C24.066,17.04,24.142,24.852,24.142,24.852Z" /></g><g id="i3" transform="matrix(1,0,0,1,20.185,16.208)"><path fill="#ffffff" d="M4.527,4.527C4.527,4.527,-4.527,4.527,-4.527,4.527C-4.527,4.527,-4.527,-4.527,-4.527,-4.527C-4.527,-4.527,4.527,-4.527,4.527,-4.527C4.527,-4.527,4.527,4.527,4.527,4.527Z" /></g></g></g></g></g></g></g></g></g></g></g></g></g></g></g><g id="i34"><g><g transform="translate(85.737,0)"><g transform="translate(0,650.392)"><animateTransform repeatCount="indefinite" type="translate" attributeName="transform" dur="5s" begin="0s" calcMode="spline" values="0 650.392; 0 650.392; 0 550.528; 0 479.669; 0 431.855; 0 413.392; 0 437.046; 0 494.161; 0 571.091; 0 650.392; 0 650.392; 0 650.392; 0 650.392; 0 650.392; 0 650.392; 0 650.392; 0 565.356; 0 485.674; 0 432.423; 0 413.392; 0 435.983; 0 487.218; 0 556.984; 0 650.392; 0 650.392; 0 650.392; 0 650.392; 0 650.392; 0 610.474; 0 522.871; 0 455.19; 0 418.22; 0 419.863; 0 458.935; 0 520.01; 0 598.498; 0 650.392; 0 650.392; 0 650.392; 0 650.392; 0 650.392; 0 565.356; 0 485.674; 0 432.423; 0 413.392; 0 435.983; 0 487.218; 0 556.984; 0 650.392; 0 650.392" keyTimes="0; 0.166667; 0.183334; 0.2; 0.216667; 0.233333; 0.25; 0.266667; 0.283333; 0.3; 0.316666; 0.333333; 0.35; 0.366667; 0.383333; 0.4; 0.416667; 0.433334; 0.45; 0.466667; 0.483333; 0.5; 0.516667; 0.533333; 0.55; 0.566666; 0.583333; 0.6; 0.616667; 0.633334; 0.65; 0.666667; 0.683333; 0.7; 0.716667; 0.733333; 0.75; 0.766666; 0.783333; 0.8; 0.816666; 0.833333; 0.85; 0.866667; 0.883334; 0.9; 0.916667; 0.933333; 0.95; 1" keySplines="0 0 1 1; 0 0 1 1; 0 0 1 1; 0 0 1 1; 0 0 1 1; 0 0 1 1; 0 0 1 1; 0 0 1 1; 0 0 1 1; 0 0 1 1; 0 0 1 1; 0 0 1 1; 0 0 1 1; 0 0 1 1; 0 0 1 1; 0 0 1 1; 0 0 1 1; 0 0 1 1; 0 0 1 1; 0 0 1 1; 0 0 1 1; 0 0 1 1; 0 0 1 1; 0 0 1 1; 0 0 1 1; 0 0 1 1; 0 0 1 1; 0 0 1 1; 0 0 1 1; 0 0 1 1; 0 0 1 1; 0 0 1 1; 0 0 1 1; 0 0 1 1; 0 0 1 1; 0 0 1 1; 0 0 1 1; 0 0 1 1; 0 0 1 1; 0 0 1 1; 0 0 1 1; 0 0 1 1; 0 0 1 1; 0 0 1 1; 0 0 1 1; 0 0 1 1; 0 0 1 1; 0 0 1 1; 0 0 1 1" fill="freeze" /><g transform="scale(1,1) translate(-60,-60)"><g id="i35"><g><g transform="translate(69.405,0)"><g transform="translate(0,39.283)"><animateTransform repeatCount="indefinite" type="translate" attributeName="transform" dur="5s" begin="0s" calcMode="spline" values="0 39.283; 0 43.537; 0 39.283; 0 43.537; 0 39.283; 0 43.537; 0 39.283; 0 43.537; 0 39.283; 0 43.537; 0 39.283; 0 43.537; 0 39.283; 0 43.537; 0 39.283; 0 43.537; 0 39.283; 0 43.537; 0 39.283; 0 43.537; 0 39.283; 0 43.537; 0 39.283; 0 43.537; 0 39.283" keyTimes="0; 0.05; 0.1; 0.15; 0.2; 0.25; 0.3; 0.35; 0.4; 0.45; 0.5; 0.55; 0.6; 0.65; 0.7; 0.75; 0.8; 0.85; 0.9; 0.95; 1; 1; 1; 1; 1" keySplines="0.195 0 0.717 1; 0.2 0 0.8 1; 0.195 0 0.717 1; 0.2 0 0.8 1; 0.195 0 0.717 1; 0.2 0 0.8 1; 0.195 0 0.717 1; 0.2 0 0.8 1; 0.195 0 0.717 1; 0.2 0 0.8 1; 0.195 0 0.717 1; 0.2 0 0.8 1; 0.195 0 0.717 1; 0.2 0 0.8 1; 0.195 0 0.717 1; 0.2 0 0.8 1; 0.195 0 0.717 1; 0.2 0 0.8 1; 0.195 0 0.717 1; 0.2 0 0.8 1; 0.195 0 0.717 1; 0.2 0 0.8 1; 0.195 0 0.717 1; 0.2 0 0.8 1" fill="freeze" /><g transform="scale(1,1) translate(-40.298,-46.652)"><g id="i37"><g transform="translate(76.648,33.707)"><g transform="rotate(0)"><animateTransform repeatCount="indefinite" type="rotate" attributeName="transform" dur="5s" begin="0s" calcMode="spline" values="0; 9.3; 0; 9.3; 0; 9.3; 0; 9.3; 0; 9.3; 0; 9.3; 0; 9.3; 0; 9.3; 0; 9.3; 0; 9.3; 0; 9.3; 0; 9.3; 0" keyTimes="0; 0.05; 0.1; 0.15; 0.2; 0.25; 0.3; 0.35; 0.4; 0.45; 0.5; 0.55; 0.6; 0.65; 0.7; 0.75; 0.8; 0.85; 0.9; 0.95; 1; 1; 1; 1; 1" keySplines="0.29 0 0.71 1; 0.29 0 0.833 1; 0.29 0 0.71 1; 0.29 0 0.833 1; 0.29 0 0.71 1; 0.29 0 0.833 1; 0.29 0 0.71 1; 0.29 0 0.833 1; 0.29 0 0.71 1; 0.29 0 0.833 1; 0.29 0 0.71 1; 0.29 0 0.833 1; 0.29 0 0.71 1; 0.29 0 0.833 1; 0.29 0 0.71 1; 0.29 0 0.833 1; 0.29 0 0.71 1; 0.29 0 0.833 1; 0.29 0 0.71 1; 0.29 0 0.833 1; 0.29 0 0.71 1; 0.29 0 0.833 1; 0.29 0 0.71 1; 0.29 0 0.833 1" fill="freeze" /><g transform="scale(1,1) translate(-1.488,-4.595)"><g id="i3" transform="matrix(1,0,0,1,11.238,8.345)"><path fill="#000000" d="M-6.337,-8.095C-6.337,-8.095,10.988,-8.095,10.988,-8.095C10.988,-8.095,10.988,8.095,10.988,8.095C10.988,8.095,3.32,8.095,3.32,8.095C3.32,8.095,3.32,-0.853,3.32,-0.853C3.32,-0.853,-6.337,-0.853,-6.337,-0.853C-6.337,-0.853,-10.988,-0.267,-10.988,-4.155C-10.988,-7.35,-6.337,-8.095,-6.337,-8.095Z" /></g></g></g></g></g></g></g></g></g></g></g></g></g></g></g><g id="i34"><g><g transform="translate(85.737,0)"><g transform="translate(0,650.392)"><animateTransform repeatCount="indefinite" type="translate" attributeName="transform" dur="5s" begin="0s" calcMode="spline" values="0 650.392; 0 650.392; 0 550.528; 0 479.669; 0 431.855; 0 413.392; 0 437.046; 0 494.161; 0 571.091; 0 650.392; 0 650.392; 0 650.392; 0 650.392; 0 650.392; 0 650.392; 0 650.392; 0 565.356; 0 485.674; 0 432.423; 0 413.392; 0 435.983; 0 487.218; 0 556.984; 0 650.392; 0 650.392; 0 650.392; 0 650.392; 0 650.392; 0 610.474; 0 522.871; 0 455.19; 0 418.22; 0 419.863; 0 458.935; 0 520.01; 0 598.498; 0 650.392; 0 650.392; 0 650.392; 0 650.392; 0 650.392; 0 565.356; 0 485.674; 0 432.423; 0 413.392; 0 435.983; 0 487.218; 0 556.984; 0 650.392; 0 650.392" keyTimes="0; 0.166667; 0.183334; 0.2; 0.216667; 0.233333; 0.25; 0.266667; 0.283333; 0.3; 0.316666; 0.333333; 0.35; 0.366667; 0.383333; 0.4; 0.416667; 0.433334; 0.45; 0.466667; 0.483333; 0.5; 0.516667; 0.533333; 0.55; 0.566666; 0.583333; 0.6; 0.616667; 0.633334; 0.65; 0.666667; 0.683333; 0.7; 0.716667; 0.733333; 0.75; 0.766666; 0.783333; 0.8; 0.816666; 0.833333; 0.85; 0.866667; 0.883334; 0.9; 0.916667; 0.933333; 0.95; 1" keySplines="0 0 1 1; 0 0 1 1; 0 0 1 1; 0 0 1 1; 0 0 1 1; 0 0 1 1; 0 0 1 1; 0 0 1 1; 0 0 1 1; 0 0 1 1; 0 0 1 1; 0 0 1 1; 0 0 1 1; 0 0 1 1; 0 0 1 1; 0 0 1 1; 0 0 1 1; 0 0 1 1; 0 0 1 1; 0 0 1 1; 0 0 1 1; 0 0 1 1; 0 0 1 1; 0 0 1 1; 0 0 1 1; 0 0 1 1; 0 0 1 1; 0 0 1 1; 0 0 1 1; 0 0 1 1; 0 0 1 1; 0 0 1 1; 0 0 1 1; 0 0 1 1; 0 0 1 1; 0 0 1 1; 0 0 1 1; 0 0 1 1; 0 0 1 1; 0 0 1 1; 0 0 1 1; 0 0 1 1; 0 0 1 1; 0 0 1 1; 0 0 1 1; 0 0 1 1; 0 0 1 1; 0 0 1 1; 0 0 1 1" fill="freeze" /><g transform="scale(1,1) translate(-60,-60)"><g id="i35"><g><g transform="translate(69.405,0)"><g transform="translate(0,39.283)"><animateTransform repeatCount="indefinite" type="translate" attributeName="transform" dur="5s" begin="0s" calcMode="spline" values="0 39.283; 0 43.537; 0 39.283; 0 43.537; 0 39.283; 0 43.537; 0 39.283; 0 43.537; 0 39.283; 0 43.537; 0 39.283; 0 43.537; 0 39.283; 0 43.537; 0 39.283; 0 43.537; 0 39.283; 0 43.537; 0 39.283; 0 43.537; 0 39.283; 0 43.537; 0 39.283; 0 43.537; 0 39.283" keyTimes="0; 0.05; 0.1; 0.15; 0.2; 0.25; 0.3; 0.35; 0.4; 0.45; 0.5; 0.55; 0.6; 0.65; 0.7; 0.75; 0.8; 0.85; 0.9; 0.95; 1; 1; 1; 1; 1" keySplines="0.195 0 0.717 1; 0.2 0 0.8 1; 0.195 0 0.717 1; 0.2 0 0.8 1; 0.195 0 0.717 1; 0.2 0 0.8 1; 0.195 0 0.717 1; 0.2 0 0.8 1; 0.195 0 0.717 1; 0.2 0 0.8 1; 0.195 0 0.717 1; 0.2 0 0.8 1; 0.195 0 0.717 1; 0.2 0 0.8 1; 0.195 0 0.717 1; 0.2 0 0.8 1; 0.195 0 0.717 1; 0.2 0 0.8 1; 0.195 0 0.717 1; 0.2 0 0.8 1; 0.195 0 0.717 1; 0.2 0 0.8 1; 0.195 0 0.717 1; 0.2 0 0.8 1" fill="freeze" /><g transform="scale(1,1) translate(-40.298,-46.652)"><g id="i3" transform="matrix(1,0,0,1,40.298,46.653)"><path fill="#000000" d="M40.048,-38.451C40.048,-38.451,40.048,18.781,40.048,18.781C40.048,18.781,31.81,18.781,31.81,18.781C31.81,18.781,31.81,31.279,31.81,31.279C31.81,31.279,23.005,31.279,23.005,31.279C23.005,31.279,23.005,40.225,23.005,40.225C23.005,40.225,15.621,40.225,15.621,40.225C15.621,40.225,15.621,46.402,15.621,46.402C15.621,46.402,-40.048,46.402,-40.048,46.402C-40.048,46.402,-40.048,0.617,-40.048,0.617C-40.048,0.617,-33.473,0.617,-33.473,0.617C-33.473,0.617,-33.473,-7.775,-33.473,-7.775C-33.473,-7.775,-25.562,-7.775,-25.562,-7.775C-25.562,-7.775,-25.562,-17.29,-25.562,-17.29C-25.562,-17.29,-13.207,-17.29,-13.207,-17.29C-13.207,-17.29,-13.207,-24.533,-13.207,-24.533C-13.207,-24.533,0.001,-24.533,0.001,-24.533C0.001,-24.533,0.001,-32.769,0.001,-32.769C0.001,-32.769,11.148,-32.769,11.148,-32.769C11.148,-32.769,17.893,-45.551,28.828,-45.976C39.763,-46.402,40.048,-38.451,40.048,-38.451Z" /></g></g></g></g></g></g></g></g></g></g></g><g id="i34"><g><g transform="translate(85.737,0)"><g transform="translate(0,650.392)"><animateTransform repeatCount="indefinite" type="translate" attributeName="transform" dur="5s" begin="0s" calcMode="spline" values="0 650.392; 0 650.392; 0 550.528; 0 479.669; 0 431.855; 0 413.392; 0 437.046; 0 494.161; 0 571.091; 0 650.392; 0 650.392; 0 650.392; 0 650.392; 0 650.392; 0 650.392; 0 650.392; 0 565.356; 0 485.674; 0 432.423; 0 413.392; 0 435.983; 0 487.218; 0 556.984; 0 650.392; 0 650.392; 0 650.392; 0 650.392; 0 650.392; 0 610.474; 0 522.871; 0 455.19; 0 418.22; 0 419.863; 0 458.935; 0 520.01; 0 598.498; 0 650.392; 0 650.392; 0 650.392; 0 650.392; 0 650.392; 0 565.356; 0 485.674; 0 432.423; 0 413.392; 0 435.983; 0 487.218; 0 556.984; 0 650.392; 0 650.392" keyTimes="0; 0.166667; 0.183334; 0.2; 0.216667; 0.233333; 0.25; 0.266667; 0.283333; 0.3; 0.316666; 0.333333; 0.35; 0.366667; 0.383333; 0.4; 0.416667; 0.433334; 0.45; 0.466667; 0.483333; 0.5; 0.516667; 0.533333; 0.55; 0.566666; 0.583333; 0.6; 0.616667; 0.633334; 0.65; 0.666667; 0.683333; 0.7; 0.716667; 0.733333; 0.75; 0.766666; 0.783333; 0.8; 0.816666; 0.833333; 0.85; 0.866667; 0.883334; 0.9; 0.916667; 0.933333; 0.95; 1" keySplines="0 0 1 1; 0 0 1 1; 0 0 1 1; 0 0 1 1; 0 0 1 1; 0 0 1 1; 0 0 1 1; 0 0 1 1; 0 0 1 1; 0 0 1 1; 0 0 1 1; 0 0 1 1; 0 0 1 1; 0 0 1 1; 0 0 1 1; 0 0 1 1; 0 0 1 1; 0 0 1 1; 0 0 1 1; 0 0 1 1; 0 0 1 1; 0 0 1 1; 0 0 1 1; 0 0 1 1; 0 0 1 1; 0 0 1 1; 0 0 1 1; 0 0 1 1; 0 0 1 1; 0 0 1 1; 0 0 1 1; 0 0 1 1; 0 0 1 1; 0 0 1 1; 0 0 1 1; 0 0 1 1; 0 0 1 1; 0 0 1 1; 0 0 1 1; 0 0 1 1; 0 0 1 1; 0 0 1 1; 0 0 1 1; 0 0 1 1; 0 0 1 1; 0 0 1 1; 0 0 1 1; 0 0 1 1; 0 0 1 1" fill="freeze" /><g transform="scale(1,1) translate(-60,-60)"><g id="i35"><g><g transform="translate(69.405,0)"><g transform="translate(0,39.283)"><animateTransform repeatCount="indefinite" type="translate" attributeName="transform" dur="5s" begin="0s" calcMode="spline" values="0 39.283; 0 43.537; 0 39.283; 0 43.537; 0 39.283; 0 43.537; 0 39.283; 0 43.537; 0 39.283; 0 43.537; 0 39.283; 0 43.537; 0 39.283; 0 43.537; 0 39.283; 0 43.537; 0 39.283; 0 43.537; 0 39.283; 0 43.537; 0 39.283; 0 43.537; 0 39.283; 0 43.537; 0 39.283" keyTimes="0; 0.05; 0.1; 0.15; 0.2; 0.25; 0.3; 0.35; 0.4; 0.45; 0.5; 0.55; 0.6; 0.65; 0.7; 0.75; 0.8; 0.85; 0.9; 0.95; 1; 1; 1; 1; 1" keySplines="0.195 0 0.717 1; 0.2 0 0.8 1; 0.195 0 0.717 1; 0.2 0 0.8 1; 0.195 0 0.717 1; 0.2 0 0.8 1; 0.195 0 0.717 1; 0.2 0 0.8 1; 0.195 0 0.717 1; 0.2 0 0.8 1; 0.195 0 0.717 1; 0.2 0 0.8 1; 0.195 0 0.717 1; 0.2 0 0.8 1; 0.195 0 0.717 1; 0.2 0 0.8 1; 0.195 0 0.717 1; 0.2 0 0.8 1; 0.195 0 0.717 1; 0.2 0 0.8 1; 0.195 0 0.717 1; 0.2 0 0.8 1; 0.195 0 0.717 1; 0.2 0 0.8 1" fill="freeze" /><g transform="scale(1,1) translate(-40.298,-46.652)"><g id="i38"><g transform="translate(9.634,72.477)"><g transform="rotate(0)"><animateTransform repeatCount="indefinite" type="rotate" attributeName="transform" dur="5s" begin="0s" calcMode="spline" values="0; -5.074; 0; -5.074; 0; -5.074; 0; -5.074; 0; -5.074; 0; -5.074; 0; -5.074; 0; -5.074; 0; -5.074; 0; -5.074; 0; -5.074; 0; -5.074; 0" keyTimes="0; 0.05; 0.1; 0.15; 0.2; 0.25; 0.3; 0.35; 0.4; 0.45; 0.5; 0.55; 0.6; 0.65; 0.7; 0.75; 0.8; 0.85; 0.9; 0.95; 1; 1; 1; 1; 1" keySplines="0.29 0 0.71 1; 0.29 0 0.71 1; 0.29 0 0.71 1; 0.29 0 0.71 1; 0.29 0 0.71 1; 0.29 0 0.71 1; 0.29 0 0.71 1; 0.29 0 0.71 1; 0.29 0 0.71 1; 0.29 0 0.71 1; 0.29 0 0.71 1; 0.29 0 0.71 1; 0.29 0 0.71 1; 0.29 0 0.71 1; 0.29 0 0.71 1; 0.29 0 0.71 1; 0.29 0 0.71 1; 0.29 0 0.71 1; 0.29 0 0.71 1; 0.29 0 0.71 1; 0.29 0 0.71 1; 0.29 0 0.71 1; 0.29 0 0.71 1; 0.29 0 0.71 1" fill="freeze" /><g transform="scale(1,1) translate(-45.988,-59.98)"><g id="i3" transform="matrix(1,0,0,1,26.238,42.481)"><path fill="#000000" d="M15.763,-7.722C15.763,-7.722,25.988,-8.491,25.988,16.135C25.988,42.23,15.763,40.563,15.763,40.563C15.763,40.563,8.662,40.563,8.662,40.563C8.662,40.563,8.662,31.615,8.662,31.615C8.662,31.615,-0.569,31.615,-0.569,31.615C-0.569,31.615,-0.569,22.242,-0.569,22.242C-0.569,22.242,-9.657,22.242,-9.657,22.242C-9.657,22.242,-9.657,15,-9.657,15C-9.657,15,-17.61,15,-17.61,15C-17.61,15,-17.61,6.763,-17.61,6.763C-17.61,6.763,-25.988,6.763,-25.988,6.763C-25.988,6.763,-25.988,-42.23,-25.988,-42.23C-25.988,-42.23,-18.604,-42.23,-18.604,-42.23C-18.604,-42.23,-18.604,-28.03,-18.604,-28.03C-18.604,-28.03,-9.515,-28.03,-9.515,-28.03C-9.515,-28.03,-9.515,-14.113,-9.515,-14.113C-9.515,-14.113,-2.131,-14.113,-2.131,-14.113C-2.131,-14.113,-2.131,-7.669,-2.131,-7.669C-2.131,-7.669,15.763,-7.722,15.763,-7.722Z" /></g></g></g></g></g></g></g></g></g></g></g></g></g></g></g><g id="i34"><g><g transform="translate(85.737,0)"><g transform="translate(0,650.392)"><animateTransform repeatCount="indefinite" type="translate" attributeName="transform" dur="5s" begin="0s" calcMode="spline" values="0 650.392; 0 650.392; 0 550.528; 0 479.669; 0 431.855; 0 413.392; 0 437.046; 0 494.161; 0 571.091; 0 650.392; 0 650.392; 0 650.392; 0 650.392; 0 650.392; 0 650.392; 0 650.392; 0 565.356; 0 485.674; 0 432.423; 0 413.392; 0 435.983; 0 487.218; 0 556.984; 0 650.392; 0 650.392; 0 650.392; 0 650.392; 0 650.392; 0 610.474; 0 522.871; 0 455.19; 0 418.22; 0 419.863; 0 458.935; 0 520.01; 0 598.498; 0 650.392; 0 650.392; 0 650.392; 0 650.392; 0 650.392; 0 565.356; 0 485.674; 0 432.423; 0 413.392; 0 435.983; 0 487.218; 0 556.984; 0 650.392; 0 650.392" keyTimes="0; 0.166667; 0.183334; 0.2; 0.216667; 0.233333; 0.25; 0.266667; 0.283333; 0.3; 0.316666; 0.333333; 0.35; 0.366667; 0.383333; 0.4; 0.416667; 0.433334; 0.45; 0.466667; 0.483333; 0.5; 0.516667; 0.533333; 0.55; 0.566666; 0.583333; 0.6; 0.616667; 0.633334; 0.65; 0.666667; 0.683333; 0.7; 0.716667; 0.733333; 0.75; 0.766666; 0.783333; 0.8; 0.816666; 0.833333; 0.85; 0.866667; 0.883334; 0.9; 0.916667; 0.933333; 0.95; 1" keySplines="0 0 1 1; 0 0 1 1; 0 0 1 1; 0 0 1 1; 0 0 1 1; 0 0 1 1; 0 0 1 1; 0 0 1 1; 0 0 1 1; 0 0 1 1; 0 0 1 1; 0 0 1 1; 0 0 1 1; 0 0 1 1; 0 0 1 1; 0 0 1 1; 0 0 1 1; 0 0 1 1; 0 0 1 1; 0 0 1 1; 0 0 1 1; 0 0 1 1; 0 0 1 1; 0 0 1 1; 0 0 1 1; 0 0 1 1; 0 0 1 1; 0 0 1 1; 0 0 1 1; 0 0 1 1; 0 0 1 1; 0 0 1 1; 0 0 1 1; 0 0 1 1; 0 0 1 1; 0 0 1 1; 0 0 1 1; 0 0 1 1; 0 0 1 1; 0 0 1 1; 0 0 1 1; 0 0 1 1; 0 0 1 1; 0 0 1 1; 0 0 1 1; 0 0 1 1; 0 0 1 1; 0 0 1 1; 0 0 1 1" fill="freeze" /><g transform="scale(1,1) translate(-60,-60)"><g id="i39"><g><g transform="translate(76.678,0)"><g transform="translate(0,80.717)"><animateTransform repeatCount="indefinite" type="translate" attributeName="transform" dur="5s" begin="0s" calcMode="spline" values="0 80.717; 0 80.717; 0 63.217; 0 80.716; 0 80.717; 0 80.717; 0 63.217; 0 80.716; 0 80.717; 0 80.717; 0 63.217; 0 80.716; 0 80.717; 0 80.717; 0 63.217; 0 80.716; 0 80.717; 0 80.717; 0 63.217; 0 80.716; 0 80.717; 0 80.717; 0 63.217; 0 80.716; 0 80.717; 0 80.717; 0 63.217; 0 80.716; 0 80.717; 0 80.717; 0 63.217; 0 80.716; 0 80.717; 0 80.717; 0 63.217; 0 80.716; 0 80.717; 0 80.717; 0 63.217; 0 80.716; 0 80.717; 0 80.717; 0 63.217; 0 80.716; 0 80.717; 0 80.717; 0 63.217; 0 80.716; 0 80.717" keyTimes="0; 0.025; 0.05; 0.075; 0.1; 0.125; 0.15; 0.175; 0.2; 0.225; 0.25; 0.275; 0.3; 0.325; 0.35; 0.375; 0.4; 0.425; 0.45; 0.475; 0.5; 0.525; 0.55; 0.575; 0.6; 0.625; 0.65; 0.675; 0.7; 0.725; 0.75; 0.775; 0.8; 0.825; 0.85; 0.875; 0.9; 0.925; 0.95; 0.975; 1; 1; 1; 1; 1; 1; 1; 1; 1" keySplines="0.167 0 0.833 1; 0.167 0.167 0.71 1; 0.29 0 0.833 0.833; 0 0 1 1; 0.167 0 0.833 1; 0.167 0.167 0.71 1; 0.29 0 0.833 0.833; 0 0 1 1; 0.167 0 0.833 1; 0.167 0.167 0.71 1; 0.29 0 0.833 0.833; 0 0 1 1; 0.167 0 0.833 1; 0.167 0.167 0.71 1; 0.29 0 0.833 0.833; 0 0 1 1; 0.167 0 0.833 1; 0.167 0.167 0.71 1; 0.29 0 0.833 0.833; 0 0 1 1; 0.167 0 0.833 1; 0.167 0.167 0.71 1; 0.29 0 0.833 0.833; 0 0 1 1; 0.167 0 0.833 1; 0.167 0.167 0.71 1; 0.29 0 0.833 0.833; 0 0 1 1; 0.167 0 0.833 1; 0.167 0.167 0.71 1; 0.29 0 0.833 0.833; 0 0 1 1; 0.167 0 0.833 1; 0.167 0.167 0.71 1; 0.29 0 0.833 0.833; 0 0 1 1; 0.167 0 0.833 1; 0.167 0.167 0.71 1; 0.29 0 0.833 0.833; 0 0 1 1; 0.167 0 0.833 1; 0.167 0.167 0.71 1; 0.29 0 0.833 0.833; 0 0 1 1; 0.167 0 0.833 1; 0.167 0.167 0.71 1; 0.29 0 0.833 0.833; 0 0 1 1" fill="freeze" /><g transform="scale(1,1) translate(-8.233,-5.576)"><g id="i3" transform="matrix(1,0,0,1,12.108,23.327)"><path fill="#000000" d="M-11.858,-11.717C-11.858,-11.717,-11.858,-2.485,-11.858,-2.485C-11.858,-2.485,-3.622,-2.485,-3.622,-2.485C-3.622,-2.485,-3.622,23.076,-3.622,23.076C-3.622,23.076,11.858,23.076,11.858,23.076C11.858,23.076,11.858,16.545,11.858,16.545C11.858,16.545,4.473,16.545,4.473,16.545C4.473,16.545,4.473,-18.248,4.473,-18.248C4.473,-18.248,2.166,-23.076,-4.9,-23.076C-10.722,-23.076,-11.858,-18.248,-11.858,-18.248C-11.858,-18.248,-11.858,-11.717,-11.858,-11.717Z" /></g></g></g></g></g></g></g></g></g></g></g><g id="i34"><g><g transform="translate(85.737,0)"><g transform="translate(0,650.392)"><animateTransform repeatCount="indefinite" type="translate" attributeName="transform" dur="5s" begin="0s" calcMode="spline" values="0 650.392; 0 650.392; 0 550.528; 0 479.669; 0 431.855; 0 413.392; 0 437.046; 0 494.161; 0 571.091; 0 650.392; 0 650.392; 0 650.392; 0 650.392; 0 650.392; 0 650.392; 0 650.392; 0 565.356; 0 485.674; 0 432.423; 0 413.392; 0 435.983; 0 487.218; 0 556.984; 0 650.392; 0 650.392; 0 650.392; 0 650.392; 0 650.392; 0 610.474; 0 522.871; 0 455.19; 0 418.22; 0 419.863; 0 458.935; 0 520.01; 0 598.498; 0 650.392; 0 650.392; 0 650.392; 0 650.392; 0 650.392; 0 565.356; 0 485.674; 0 432.423; 0 413.392; 0 435.983; 0 487.218; 0 556.984; 0 650.392; 0 650.392" keyTimes="0; 0.166667; 0.183334; 0.2; 0.216667; 0.233333; 0.25; 0.266667; 0.283333; 0.3; 0.316666; 0.333333; 0.35; 0.366667; 0.383333; 0.4; 0.416667; 0.433334; 0.45; 0.466667; 0.483333; 0.5; 0.516667; 0.533333; 0.55; 0.566666; 0.583333; 0.6; 0.616667; 0.633334; 0.65; 0.666667; 0.683333; 0.7; 0.716667; 0.733333; 0.75; 0.766666; 0.783333; 0.8; 0.816666; 0.833333; 0.85; 0.866667; 0.883334; 0.9; 0.916667; 0.933333; 0.95; 1" keySplines="0 0 1 1; 0 0 1 1; 0 0 1 1; 0 0 1 1; 0 0 1 1; 0 0 1 1; 0 0 1 1; 0 0 1 1; 0 0 1 1; 0 0 1 1; 0 0 1 1; 0 0 1 1; 0 0 1 1; 0 0 1 1; 0 0 1 1; 0 0 1 1; 0 0 1 1; 0 0 1 1; 0 0 1 1; 0 0 1 1; 0 0 1 1; 0 0 1 1; 0 0 1 1; 0 0 1 1; 0 0 1 1; 0 0 1 1; 0 0 1 1; 0 0 1 1; 0 0 1 1; 0 0 1 1; 0 0 1 1; 0 0 1 1; 0 0 1 1; 0 0 1 1; 0 0 1 1; 0 0 1 1; 0 0 1 1; 0 0 1 1; 0 0 1 1; 0 0 1 1; 0 0 1 1; 0 0 1 1; 0 0 1 1; 0 0 1 1; 0 0 1 1; 0 0 1 1; 0 0 1 1; 0 0 1 1; 0 0 1 1" fill="freeze" /><g transform="scale(1,1) translate(-60,-60)"><g id="i40"><g><g transform="translate(43.322,0)"><g transform="translate(0,63.717)"><animateTransform repeatCount="indefinite" type="translate" attributeName="transform" dur="5s" begin="0s" calcMode="spline" values="0 63.717; 0 80.217; 0 80.217; 0 63.717; 0 80.217; 0 80.217; 0 63.717; 0 80.217; 0 80.217; 0 63.717; 0 80.217; 0 80.217; 0 63.717; 0 80.217; 0 80.217; 0 63.717; 0 80.217; 0 80.217; 0 63.717; 0 80.217; 0 80.217; 0 63.717; 0 80.217; 0 80.217; 0 63.717; 0 80.217; 0 80.217; 0 63.717; 0 80.217; 0 80.217; 0 63.717; 0 80.217; 0 80.217; 0 63.717; 0 80.217; 0 80.217; 0 63.717" keyTimes="0; 0.025; 0.075; 0.1; 0.125; 0.175; 0.2; 0.225; 0.275; 0.3; 0.325; 0.375; 0.4; 0.425; 0.475; 0.5; 0.525; 0.575; 0.6; 0.625; 0.675; 0.7; 0.725; 0.775; 0.8; 0.825; 0.875; 0.9; 0.925; 0.975; 1; 1; 1; 1; 1; 1; 1" keySplines="0.29 0 0.71 1; 0.29 0 0.71 1; 0.29 0 0.71 1; 0.29 0 0.71 1; 0.29 0 0.71 1; 0.29 0 0.71 1; 0.29 0 0.71 1; 0.29 0 0.71 1; 0.29 0 0.71 1; 0.29 0 0.71 1; 0.29 0 0.71 1; 0.29 0 0.71 1; 0.29 0 0.71 1; 0.29 0 0.71 1; 0.29 0 0.71 1; 0.29 0 0.71 1; 0.29 0 0.71 1; 0.29 0 0.71 1; 0.29 0 0.71 1; 0.29 0 0.71 1; 0.29 0 0.71 1; 0.29 0 0.71 1; 0.29 0 0.71 1; 0.29 0 0.71 1; 0.29 0 0.71 1; 0.29 0 0.71 1; 0.29 0 0.71 1; 0.29 0 0.71 1; 0.29 0 0.71 1; 0.29 0 0.71 1; 0.29 0 0.71 1; 0.29 0 0.71 1; 0.29 0 0.71 1; 0.29 0 0.71 1; 0.29 0 0.71 1; 0.29 0 0.71 1" fill="freeze" /><g transform="scale(1,1) translate(-8.108,-5.076)"><g id="i3" transform="matrix(1,0,0,1,12.108,23.327)"><path fill="#000000" d="M-11.858,-11.717C-11.858,-11.717,-11.858,-2.485,-11.858,-2.485C-11.858,-2.485,-3.621,-2.485,-3.621,-2.485C-3.621,-2.485,-3.621,23.076,-3.621,23.076C-3.621,23.076,11.858,23.076,11.858,23.076C11.858,23.076,11.858,16.545,11.858,16.545C11.858,16.545,4.474,16.545,4.474,16.545C4.474,16.545,4.474,-18.248,4.474,-18.248C4.474,-18.248,2.166,-23.076,-4.9,-23.076C-10.722,-23.076,-11.858,-18.248,-11.858,-18.248C-11.858,-18.248,-11.858,-11.717,-11.858,-11.717Z" /></g></g></g></g></g></g></g></g></g></g></g><g opacity="0" id="i34"><g><g transform="translate(85.737,0)"><g transform="translate(0,650.392)"><animateTransform repeatCount="indefinite" type="translate" attributeName="transform" dur="5s" begin="0s" calcMode="spline" values="0 650.392; 0 650.392; 0 550.528; 0 479.669; 0 431.855; 0 413.392; 0 437.046; 0 494.161; 0 571.091; 0 650.392; 0 650.392; 0 650.392; 0 650.392; 0 650.392; 0 650.392; 0 650.392; 0 565.356; 0 485.674; 0 432.423; 0 413.392; 0 435.983; 0 487.218; 0 556.984; 0 650.392; 0 650.392; 0 650.392; 0 650.392; 0 650.392; 0 610.474; 0 522.871; 0 455.19; 0 418.22; 0 419.863; 0 458.935; 0 520.01; 0 598.498; 0 650.392; 0 650.392; 0 650.392; 0 650.392; 0 650.392; 0 565.356; 0 485.674; 0 432.423; 0 413.392; 0 435.983; 0 487.218; 0 556.984; 0 650.392; 0 650.392" keyTimes="0; 0.166667; 0.183334; 0.2; 0.216667; 0.233333; 0.25; 0.266667; 0.283333; 0.3; 0.316666; 0.333333; 0.35; 0.366667; 0.383333; 0.4; 0.416667; 0.433334; 0.45; 0.466667; 0.483333; 0.5; 0.516667; 0.533333; 0.55; 0.566666; 0.583333; 0.6; 0.616667; 0.633334; 0.65; 0.666667; 0.683333; 0.7; 0.716667; 0.733333; 0.75; 0.766666; 0.783333; 0.8; 0.816666; 0.833333; 0.85; 0.866667; 0.883334; 0.9; 0.916667; 0.933333; 0.95; 1" keySplines="0 0 1 1; 0 0 1 1; 0 0 1 1; 0 0 1 1; 0 0 1 1; 0 0 1 1; 0 0 1 1; 0 0 1 1; 0 0 1 1; 0 0 1 1; 0 0 1 1; 0 0 1 1; 0 0 1 1; 0 0 1 1; 0 0 1 1; 0 0 1 1; 0 0 1 1; 0 0 1 1; 0 0 1 1; 0 0 1 1; 0 0 1 1; 0 0 1 1; 0 0 1 1; 0 0 1 1; 0 0 1 1; 0 0 1 1; 0 0 1 1; 0 0 1 1; 0 0 1 1; 0 0 1 1; 0 0 1 1; 0 0 1 1; 0 0 1 1; 0 0 1 1; 0 0 1 1; 0 0 1 1; 0 0 1 1; 0 0 1 1; 0 0 1 1; 0 0 1 1; 0 0 1 1; 0 0 1 1; 0 0 1 1; 0 0 1 1; 0 0 1 1; 0 0 1 1; 0 0 1 1; 0 0 1 1; 0 0 1 1" fill="freeze" /><g transform="scale(1,1) translate(-60,-60)" /></g></g></g></g><g id="i1"><g transform="translate(540,540)"><animateMotion repeatCount="indefinite" dur="5s" begin="0s" calcMode="spline" keyTimes="0; 1; 1" keySplines="0.167 0 0.833 1; 0.167 0 0.833 1" keyPoints="0; 0.846; 1" path="M0 0 C-426.667 0 -2055.833 0 -2560 0 C-3064.167 0 -2947.5 0 -3025 0" fill="freeze" /><g transform="scale(1,1) translate(0,0)"><g transform="matrix(0.65,0,0,0.65,733.807,32.469)" id="i41"><g id="i3" transform="matrix(1,0,0,1,86.989,101.447)"><path fill="#000000" d="M57.827,43.369C57.827,43.369,57.827,101.196,57.827,101.196C57.827,101.196,0,101.196,0,101.196C0,101.196,0,43.369,0,43.369C0,43.369,-86.74,43.369,-86.74,43.369C-86.74,43.369,-86.74,-101.196,-86.74,-101.196C-86.74,-101.196,-57.827,-101.196,-57.827,-101.196C-57.827,-101.196,-57.827,14.456,-57.827,14.456C-57.827,14.456,0,14.456,0,14.456C0,14.456,0,-101.196,0,-101.196C0,-101.196,57.827,-101.196,57.827,-101.196C57.827,-101.196,57.827,14.456,57.827,14.456C57.827,14.456,86.74,14.456,86.74,14.456C86.74,14.456,86.74,43.369,86.74,43.369C86.74,43.369,57.827,43.369,57.827,43.369Z" /></g></g></g></g></g><g id="i1"><g transform="translate(540,540)"><animateMotion repeatCount="indefinite" dur="5s" begin="0s" calcMode="spline" keyTimes="0; 1; 1" keySplines="0.167 0 0.833 1; 0.167 0 0.833 1" keyPoints="0; 0.846; 1" path="M0 0 C-426.667 0 -2055.833 0 -2560 0 C-3064.167 0 -2947.5 0 -3025 0" fill="freeze" /><g transform="scale(1,1) translate(0,0)"><g transform="matrix(0.65,0,0,0.65,1261.098,32.469)" id="i42"><g id="i3" transform="matrix(1,0,0,1,86.99,101.447)"><path fill="#000000" d="M-57.827,72.284C-57.827,72.284,-86.74,72.284,-86.74,72.284C-86.74,72.284,-86.74,-72.283,-86.74,-72.283C-86.74,-72.283,-57.827,-72.283,-57.827,-72.283C-57.827,-72.283,-57.827,-101.197,-57.827,-101.197C-57.827,-101.197,57.828,-101.197,57.828,-101.197C57.828,-101.197,57.828,-72.283,57.828,-72.283C57.828,-72.283,86.74,-72.283,86.74,-72.283C86.74,-72.283,86.74,72.284,86.74,72.284C86.74,72.284,57.828,72.284,57.828,72.284C57.828,72.284,57.828,101.197,57.828,101.197C57.828,101.197,-57.827,101.197,-57.827,101.197C-57.827,101.197,-57.827,72.284,-57.827,72.284ZM28.913,-72.283C28.913,-72.283,-28.913,-72.283,-28.913,-72.283C-28.913,-72.283,-28.913,72.284,-28.913,72.284C-28.913,72.284,28.913,72.284,28.913,72.284C28.913,72.284,28.913,-72.283,28.913,-72.283Z" /></g></g></g></g></g><g id="i1"><g transform="translate(540,540)"><animateMotion repeatCount="indefinite" dur="5s" begin="0s" calcMode="spline" keyTimes="0; 1; 1" keySplines="0.167 0 0.833 1; 0.167 0 0.833 1" keyPoints="0; 0.846; 1" path="M0 0 C-426.667 0 -2055.833 0 -2560 0 C-3064.167 0 -2947.5 0 -3025 0" fill="freeze" /><g transform="scale(1,1) translate(0,0)"><g transform="matrix(0.65,0,0,0.65,1833.37,32.469)" id="i41"><g id="i3" transform="matrix(1,0,0,1,86.989,101.447)"><path fill="#000000" d="M57.827,43.369C57.827,43.369,57.827,101.196,57.827,101.196C57.827,101.196,0,101.196,0,101.196C0,101.196,0,43.369,0,43.369C0,43.369,-86.74,43.369,-86.74,43.369C-86.74,43.369,-86.74,-101.196,-86.74,-101.196C-86.74,-101.196,-57.826,-101.196,-57.826,-101.196C-57.826,-101.196,-57.826,14.456,-57.826,14.456C-57.826,14.456,0,14.456,0,14.456C0,14.456,0,-101.196,0,-101.196C0,-101.196,57.827,-101.196,57.827,-101.196C57.827,-101.196,57.827,14.456,57.827,14.456C57.827,14.456,86.74,14.456,86.74,14.456C86.74,14.456,86.74,43.369,86.74,43.369C86.74,43.369,57.827,43.369,57.827,43.369Z" /></g></g></g></g></g><g id="i1"><g transform="translate(540,540)"><animateMotion repeatCount="indefinite" dur="5s" begin="0s" calcMode="spline" keyTimes="0; 1; 1" keySplines="0.167 0 0.833 1; 0.167 0 0.833 1" keyPoints="0; 0.846; 1" path="M0 0 C-426.667 0 -2055.833 0 -2560 0 C-3064.167 0 -2947.5 0 -3025 0" fill="freeze" /><g transform="scale(1,1) translate(0,0)"><g transform="matrix(1,0,0,1,39.294,38.983)" id="i43"><g id="i3" transform="matrix(1,0,0,1,31.067,68.802)"><path fill="#000000" d="M-9.302,68.552C-9.302,68.552,-9.302,21.902,-9.302,21.902C-9.302,21.902,-21.444,21.902,-21.444,21.902C-21.444,21.902,-21.444,18.014,-21.444,18.014C-21.444,18.014,-26.13,18.014,-26.13,18.014C-26.13,18.014,-26.13,13.913,-26.13,13.913C-26.13,13.913,-30.817,13.913,-30.817,13.913C-30.817,13.913,-30.817,-31.087,-30.817,-31.087C-30.817,-31.087,-26.823,-31.087,-26.823,-31.087C-26.823,-31.087,-26.823,-35.719,-26.823,-35.719C-26.823,-35.719,-23.255,-35.719,-23.255,-35.719C-23.255,-35.719,-23.255,-31.247,-23.255,-31.247C-23.255,-31.247,-19.26,-31.247,-19.26,-31.247C-19.26,-31.247,-19.26,9.281,-19.26,9.281C-19.26,9.281,-17.344,9.281,-17.344,9.281C-17.344,9.281,-17.344,11.304,-17.344,11.304C-17.344,11.304,-9.302,11.304,-9.302,11.304C-9.302,11.304,-9.302,-64.158,-9.302,-64.158C-9.302,-64.158,-4.962,-64.158,-4.962,-64.158C-4.962,-64.158,-4.962,-68.552,-4.962,-68.552C-4.962,-68.552,5.689,-68.552,5.689,-68.552C5.689,-68.552,5.689,-64.078,5.689,-64.078C5.689,-64.078,10.722,-64.078,10.722,-64.078C10.722,-64.078,10.722,-7.282,10.722,-7.282C10.722,-7.282,20.307,-7.282,20.307,-7.282C20.307,-7.282,20.307,-47.329,20.307,-47.329C20.307,-47.329,23.574,-47.329,23.574,-47.329C23.574,-47.329,23.574,-52.3,23.574,-52.3C23.574,-52.3,27.124,-52.3,27.124,-52.3C27.124,-52.3,27.124,-47.613,27.124,-47.613C27.124,-47.613,30.817,-47.613,30.817,-47.613C30.817,-47.613,30.817,-4.371,30.817,-4.371C30.817,-4.371,27.124,-4.371,27.124,-4.371C27.124,-4.371,27.124,1.381,27.124,1.381C27.124,1.381,22.296,1.381,22.296,1.381C22.296,1.381,22.296,6.138,22.296,6.138C22.296,6.138,9.799,6.138,9.799,6.138C9.799,6.138,9.799,68.552,9.799,68.552C9.799,68.552,-9.302,68.552,-9.302,68.552Z" /></g></g></g></g></g><g id="i1"><g transform="translate(540,540)"><animateMotion repeatCount="indefinite" dur="5s" begin="0s" calcMode="spline" keyTimes="0; 1; 1" keySplines="0.167 0 0.833 1; 0.167 0 0.833 1" keyPoints="0; 0.846; 1" path="M0 0 C-426.667 0 -2055.833 0 -2560 0 C-3064.167 0 -2947.5 0 -3025 0" fill="freeze" /><g transform="scale(1,1) translate(0,0)"><g transform="matrix(1,0,0,1,2598.808,38.983)" id="i44"><g id="i3" transform="matrix(1,0,0,1,31.067,68.802)"><path fill="#000000" d="M-9.302,68.552C-9.302,68.552,-9.302,21.902,-9.302,21.902C-9.302,21.902,-21.444,21.902,-21.444,21.902C-21.444,21.902,-21.444,18.014,-21.444,18.014C-21.444,18.014,-26.13,18.014,-26.13,18.014C-26.13,18.014,-26.13,13.913,-26.13,13.913C-26.13,13.913,-30.817,13.913,-30.817,13.913C-30.817,13.913,-30.817,-31.087,-30.817,-31.087C-30.817,-31.087,-26.823,-31.087,-26.823,-31.087C-26.823,-31.087,-26.823,-35.719,-26.823,-35.719C-26.823,-35.719,-23.255,-35.719,-23.255,-35.719C-23.255,-35.719,-23.255,-31.247,-23.255,-31.247C-23.255,-31.247,-19.26,-31.247,-19.26,-31.247C-19.26,-31.247,-19.26,9.281,-19.26,9.281C-19.26,9.281,-17.344,9.281,-17.344,9.281C-17.344,9.281,-17.344,11.304,-17.344,11.304C-17.344,11.304,-9.302,11.304,-9.302,11.304C-9.302,11.304,-9.302,-64.158,-9.302,-64.158C-9.302,-64.158,-4.962,-64.158,-4.962,-64.158C-4.962,-64.158,-4.962,-68.552,-4.962,-68.552C-4.962,-68.552,5.689,-68.552,5.689,-68.552C5.689,-68.552,5.689,-64.078,5.689,-64.078C5.689,-64.078,10.722,-64.078,10.722,-64.078C10.722,-64.078,10.722,-7.282,10.722,-7.282C10.722,-7.282,20.307,-7.282,20.307,-7.282C20.307,-7.282,20.307,-47.329,20.307,-47.329C20.307,-47.329,23.574,-47.329,23.574,-47.329C23.574,-47.329,23.574,-52.3,23.574,-52.3C23.574,-52.3,27.124,-52.3,27.124,-52.3C27.124,-52.3,27.124,-47.613,27.124,-47.613C27.124,-47.613,30.817,-47.613,30.817,-47.613C30.817,-47.613,30.817,-4.371,30.817,-4.371C30.817,-4.371,27.124,-4.371,27.124,-4.371C27.124,-4.371,27.124,1.381,27.124,1.381C27.124,1.381,22.296,1.381,22.296,1.381C22.296,1.381,22.296,6.138,22.296,6.138C22.296,6.138,9.799,6.138,9.799,6.138C9.799,6.138,9.799,68.552,9.799,68.552C9.799,68.552,-9.302,68.552,-9.302,68.552Z" /></g></g></g></g></g><g id="i1"><g transform="translate(540,540)"><animateMotion repeatCount="indefinite" dur="5s" begin="0s" calcMode="spline" keyTimes="0; 1; 1" keySplines="0.167 0 0.833 1; 0.167 0 0.833 1" keyPoints="0; 0.846; 1" path="M0 0 C-426.667 0 -2055.833 0 -2560 0 C-3064.167 0 -2947.5 0 -3025 0" fill="freeze" /><g transform="scale(1,1) translate(0,0)"><g transform="matrix(0.7,0,0,0.7,945.268,295.583)" id="i45"><g id="i15" transform="matrix(1,0,0,1,38.568,44.954)"><path fill="#000000" d="M25.544,-6.387C25.544,-6.387,25.544,6.387,25.544,6.387C25.544,6.387,-12.773,6.387,-12.773,6.387C-12.773,6.387,-12.773,44.704,-12.773,44.704C-12.773,44.704,-38.318,44.704,-38.318,44.704C-38.318,44.704,-38.318,-44.704,-38.318,-44.704C-38.318,-44.704,25.544,-44.704,25.544,-44.704C25.544,-44.704,25.544,-31.932,25.544,-31.932C25.544,-31.932,38.318,-31.932,38.318,-31.932C38.318,-31.932,38.318,-6.387,38.318,-6.387C38.318,-6.387,25.544,-6.387,25.544,-6.387ZM12.772,-31.932C12.772,-31.932,-12.773,-31.932,-12.773,-31.932C-12.773,-31.932,-12.773,-6.387,-12.773,-6.387C-12.773,-6.387,12.772,-6.387,12.772,-6.387C12.772,-6.387,12.772,-31.932,12.772,-31.932Z" /></g><g id="i16" transform="matrix(1,0,0,1,127.974,44.954)"><path fill="#000000" d="M-12.773,19.159C-12.773,19.159,-12.773,44.704,-12.773,44.704C-12.773,44.704,-38.318,44.704,-38.318,44.704C-38.318,44.704,-38.318,-31.932,-38.318,-31.932C-38.318,-31.932,-25.545,-31.932,-25.545,-31.932C-25.545,-31.932,-25.545,-44.704,-25.545,-44.704C-25.545,-44.704,25.545,-44.704,25.545,-44.704C25.545,-44.704,25.545,-31.932,25.545,-31.932C25.545,-31.932,38.318,-31.932,38.318,-31.932C38.318,-31.932,38.318,44.704,38.318,44.704C38.318,44.704,12.772,44.704,12.772,44.704C12.772,44.704,12.772,19.159,12.772,19.159C12.772,19.159,-12.773,19.159,-12.773,19.159ZM12.772,-31.932C12.772,-31.932,-12.773,-31.932,-12.773,-31.932C-12.773,-31.932,-12.773,6.386,-12.773,6.386C-12.773,6.386,12.772,6.386,12.772,6.386C12.772,6.386,12.772,-31.932,12.772,-31.932Z" /></g><g id="i17" transform="matrix(1,0,0,1,217.381,44.954)"><path fill="#000000" d="M12.773,33.527C12.773,33.527,12.773,44.704,12.773,44.704C12.773,44.704,-25.544,44.704,-25.544,44.704C-25.544,44.704,-25.544,31.931,-25.544,31.931C-25.544,31.931,-38.318,31.931,-38.318,31.931C-38.318,31.931,-38.318,-31.932,-38.318,-31.932C-38.318,-31.932,-25.544,-31.932,-25.544,-31.932C-25.544,-31.932,-25.544,-44.704,-25.544,-44.704C-25.544,-44.704,38.318,-44.704,38.318,-44.704C38.318,-44.704,38.318,-19.16,38.318,-19.16C38.318,-19.16,25.545,-19.16,25.545,-19.16C25.545,-19.16,25.545,-31.932,25.545,-31.932C25.545,-31.932,-12.772,-31.932,-12.772,-31.932C-12.772,-31.932,-12.772,31.931,-12.772,31.931C-12.772,31.931,11.176,31.931,11.176,31.931C11.176,31.931,12.773,30.335,12.773,30.335C12.773,30.335,12.773,6.385,12.773,6.385C12.773,6.385,0,6.385,0,6.385C0,6.385,0,-6.387,0,-6.387C0,-6.387,38.318,-6.387,38.318,-6.387C38.318,-6.387,38.318,44.704,38.318,44.704C38.318,44.704,25.545,44.704,25.545,44.704C25.545,44.704,25.545,31.931,25.545,31.931C25.545,31.931,14.37,31.931,14.37,31.931C14.37,31.931,12.773,33.527,12.773,33.527Z" /></g><g id="i18" transform="matrix(1,0,0,1,300.402,44.954)"><path fill="#000000" d="M-31.931,44.704C-31.931,44.704,-31.931,-44.704,-31.931,-44.704C-31.931,-44.704,31.931,-44.704,31.931,-44.704C31.931,-44.704,31.931,-31.932,31.931,-31.932C31.931,-31.932,-6.386,-31.932,-6.386,-31.932C-6.386,-31.932,-6.386,-6.387,-6.386,-6.387C-6.386,-6.387,31.931,-6.387,31.931,-6.387C31.931,-6.387,31.931,6.387,31.931,6.387C31.931,6.387,-6.386,6.387,-6.386,6.387C-6.386,6.387,-6.386,31.932,-6.386,31.932C-6.386,31.932,31.931,31.932,31.931,31.932C31.931,31.932,31.931,44.704,31.931,44.704C31.931,44.704,-31.931,44.704,-31.931,44.704Z" /></g><g id="i19" transform="matrix(1,0,0,1,434.512,44.953)"><path fill="#000000" d="M-25.545,6.387C-25.545,6.387,-25.545,44.704,-25.545,44.704C-25.545,44.704,-38.317,44.704,-38.317,44.704C-38.317,44.704,-38.317,-44.704,-38.317,-44.704C-38.317,-44.704,-12.773,-44.704,-12.773,-44.704C-12.773,-44.704,-12.773,-19.159,-12.773,-19.159C-12.773,-19.159,0,-19.159,0,-19.159C0,-19.159,0,6.387,0,6.387C0,6.387,12.772,6.387,12.772,6.387C12.772,6.387,12.772,-44.704,12.772,-44.704C12.772,-44.704,38.317,-44.704,38.317,-44.704C38.317,-44.704,38.317,44.704,38.317,44.704C38.317,44.704,12.772,44.704,12.772,44.704C12.772,44.704,12.772,31.932,12.772,31.932C12.772,31.932,-12.773,31.932,-12.773,31.932C-12.773,31.932,-12.773,6.387,-12.773,6.387C-12.773,6.387,-25.545,6.387,-25.545,6.387Z" /></g><g id="i20" transform="matrix(1,0,0,1,523.918,44.954)"><path fill="#000000" d="M-25.545,31.932C-25.545,31.932,-38.317,31.932,-38.317,31.932C-38.317,31.932,-38.317,-31.932,-38.317,-31.932C-38.317,-31.932,-25.545,-31.932,-25.545,-31.932C-25.545,-31.932,-25.545,-44.704,-25.545,-44.704C-25.545,-44.704,25.545,-44.704,25.545,-44.704C25.545,-44.704,25.545,-31.932,25.545,-31.932C25.545,-31.932,38.317,-31.932,38.317,-31.932C38.317,-31.932,38.317,31.932,38.317,31.932C38.317,31.932,25.545,31.932,25.545,31.932C25.545,31.932,25.545,44.704,25.545,44.704C25.545,44.704,-25.545,44.704,-25.545,44.704C-25.545,44.704,-25.545,31.932,-25.545,31.932ZM12.772,-31.932C12.772,-31.932,-12.773,-31.932,-12.773,-31.932C-12.773,-31.932,-12.773,31.931,-12.773,31.931C-12.773,31.931,12.772,31.931,12.772,31.931C12.772,31.931,12.772,-31.932,12.772,-31.932Z" /></g><g id="i21" transform="matrix(1,0,0,1,613.325,44.954)"><path fill="#000000" d="M38.318,-44.704C38.318,-44.704,38.318,-31.932,38.318,-31.932C38.318,-31.932,12.772,-31.932,12.772,-31.932C12.772,-31.932,12.772,44.704,12.772,44.704C12.772,44.704,-12.773,44.704,-12.773,44.704C-12.773,44.704,-12.773,-31.932,-12.773,-31.932C-12.773,-31.932,-38.318,-31.932,-38.318,-31.932C-38.318,-31.932,-38.318,-44.704,-38.318,-44.704C-38.318,-44.704,38.318,-44.704,38.318,-44.704Z" /></g><g id="i22" transform="matrix(1,0,0,1,747.435,44.954)"><path fill="#000000" d="M31.931,-44.704C31.931,-44.704,31.931,-31.932,31.931,-31.932C31.931,-31.932,-6.386,-31.932,-6.386,-31.932C-6.386,-31.932,-6.386,-6.387,-6.386,-6.387C-6.386,-6.387,31.931,-6.387,31.931,-6.387C31.931,-6.387,31.931,6.387,31.931,6.387C31.931,6.387,-6.386,6.387,-6.386,6.387C-6.386,6.387,-6.386,44.704,-6.386,44.704C-6.386,44.704,-31.931,44.704,-31.931,44.704C-31.931,44.704,-31.931,-44.704,-31.931,-44.704C-31.931,-44.704,31.931,-44.704,31.931,-44.704Z" /></g><g id="i23" transform="matrix(1,0,0,1,830.456,44.954)"><path fill="#000000" d="M-25.545,31.932C-25.545,31.932,-38.317,31.932,-38.317,31.932C-38.317,31.932,-38.317,-31.932,-38.317,-31.932C-38.317,-31.932,-25.545,-31.932,-25.545,-31.932C-25.545,-31.932,-25.545,-44.704,-25.545,-44.704C-25.545,-44.704,25.545,-44.704,25.545,-44.704C25.545,-44.704,25.545,-31.932,25.545,-31.932C25.545,-31.932,38.317,-31.932,38.317,-31.932C38.317,-31.932,38.317,31.932,38.317,31.932C38.317,31.932,25.545,31.932,25.545,31.932C25.545,31.932,25.545,44.704,25.545,44.704C25.545,44.704,-25.545,44.704,-25.545,44.704C-25.545,44.704,-25.545,31.932,-25.545,31.932ZM12.773,-31.932C12.773,-31.932,-12.772,-31.932,-12.772,-31.932C-12.772,-31.932,-12.772,31.931,-12.772,31.931C-12.772,31.931,12.773,31.931,12.773,31.931C12.773,31.931,12.773,-31.932,12.773,-31.932Z" /></g><g id="i24" transform="matrix(1,0,0,1,919.862,44.954)"><path fill="#000000" d="M12.773,-44.704C12.773,-44.704,38.318,-44.704,38.318,-44.704C38.318,-44.704,38.318,44.704,38.318,44.704C38.318,44.704,-25.545,44.704,-25.545,44.704C-25.545,44.704,-25.545,31.932,-25.545,31.932C-25.545,31.932,-38.318,31.932,-38.318,31.932C-38.318,31.932,-38.318,-44.704,-38.318,-44.704C-38.318,-44.704,-12.773,-44.704,-12.773,-44.704C-12.773,-44.704,-12.773,31.932,-12.773,31.932C-12.773,31.932,12.773,31.932,12.773,31.932C12.773,31.932,12.773,-44.704,12.773,-44.704Z" /></g><g id="i25" transform="matrix(1,0,0,1,1009.268,44.953)"><path fill="#000000" d="M-25.545,6.387C-25.545,6.387,-25.545,44.704,-25.545,44.704C-25.545,44.704,-38.317,44.704,-38.317,44.704C-38.317,44.704,-38.317,-44.704,-38.317,-44.704C-38.317,-44.704,-12.773,-44.704,-12.773,-44.704C-12.773,-44.704,-12.773,-19.159,-12.773,-19.159C-12.773,-19.159,0,-19.159,0,-19.159C0,-19.159,0,6.387,0,6.387C0,6.387,12.772,6.387,12.772,6.387C12.772,6.387,12.772,-44.704,12.772,-44.704C12.772,-44.704,38.317,-44.704,38.317,-44.704C38.317,-44.704,38.317,44.704,38.317,44.704C38.317,44.704,12.772,44.704,12.772,44.704C12.772,44.704,12.772,31.932,12.772,31.932C12.772,31.932,-12.773,31.932,-12.773,31.932C-12.773,31.932,-12.773,6.387,-12.773,6.387C-12.773,6.387,-25.545,6.387,-25.545,6.387Z" /></g><g id="i3" transform="matrix(1,0,0,1,1098.675,44.954)"><path fill="#000000" d="M-38.318,44.704C-38.318,44.704,-38.318,-44.704,-38.318,-44.704C-38.318,-44.704,25.546,-44.704,25.546,-44.704C25.546,-44.704,25.546,-31.932,25.546,-31.932C25.546,-31.932,38.318,-31.932,38.318,-31.932C38.318,-31.932,38.318,31.932,38.318,31.932C38.318,31.932,25.546,31.932,25.546,31.932C25.546,31.932,25.546,44.704,25.546,44.704C25.546,44.704,-38.318,44.704,-38.318,44.704ZM12.773,-31.932C12.773,-31.932,-12.772,-31.932,-12.772,-31.932C-12.772,-31.932,-12.772,31.931,-12.772,31.931C-12.772,31.931,12.773,31.931,12.773,31.931C12.773,31.931,12.773,-31.932,12.773,-31.932Z" /></g></g></g></g></g><g opacity="0" id="i1"><g transform="translate(540,540)"><animateMotion repeatCount="indefinite" dur="5s" begin="0s" calcMode="spline" keyTimes="0; 1; 1" keySplines="0.167 0 0.833 1; 0.167 0 0.833 1" keyPoints="0; 0.846; 1" path="M0 0 C-426.667 0 -2055.833 0 -2560 0 C-3064.167 0 -2947.5 0 -3025 0" fill="freeze" /><g transform="scale(1,1) translate(0,0)" /></g></g></svg>