<svg fill="none" height="100%" width="100%" viewBox="0 0 500 500" xmlns:xlink="http://www.w3.org/1999/xlink" xmlns="http://www.w3.org/2000/svg"><g transform="matrix(5.941,0,0,5.941,250,250)" id="i0"><g id="i1"><rect height="100" width="100" y="-50" x="-50" fill-rule="evenodd" fill="#ff8eec" /></g></g><g transform="matrix(5.941,0,0,5.941,250,250)" visibility="hidden" id="i0"><animate repeatCount="indefinite" begin="0s" calcMode="discrete" dur="2.5s" values="hidden; visible; visible" keyTimes="0; 0.13; 1" attributeName="visibility" /><g id="i1"><rect height="100" width="100" y="-50" x="-50" fill-rule="evenodd" fill="#0b78c3" /></g></g><g transform="matrix(5.941,0,0,5.941,250,250)" visibility="hidden" id="i0"><animate repeatCount="indefinite" begin="0s" calcMode="discrete" dur="2.5s" values="hidden; visible; visible" keyTimes="0; 0.44; 1" attributeName="visibility" /><g id="i1"><rect height="100" width="100" y="-50" x="-50" fill-rule="evenodd" fill="#47ab62" /></g></g><g transform="matrix(5.941,0,0,5.941,250,250)" visibility="hidden" id="i0"><animate repeatCount="indefinite" begin="0s" calcMode="discrete" dur="2.5s" values="hidden; visible; visible" keyTimes="0; 0.75; 1" attributeName="visibility" /><g id="i1"><rect height="100" width="100" y="-50" x="-50" fill-rule="evenodd" fill="#ff8eec" /></g></g><g visibility="hidden" id="i2"><animate repeatCount="indefinite" begin="0s" calcMode="discrete" dur="2.5s" values="hidden; visible; hidden; hidden" keyTimes="0; 0.13; 0.23; 1" attributeName="visibility" /><g transform="translate(250,250)"><animateTransform repeatCount="indefinite" type="translate" attributeName="transform" dur="2.5s" begin="0s" calcMode="spline" values="250 250; 250 116; 250 250; 250 250" keyTimes="0; 0.126667; 0.233333; 1" keySplines="0 0 1 1; 0 0 1 1; 0 0 1 1" fill="freeze" /><g transform="rotate(0)"><animateTransform repeatCount="indefinite" type="rotate" attributeName="transform" dur="2.5s" begin="0s" calcMode="spline" values="0; 15; 0; 0" keyTimes="0; 0.126667; 0.233333; 1" keySplines="0 0 1 1; 0 0 1 1; 0 0 1 1" fill="freeze" /><g transform="scale(1,1)"><animateTransform repeatCount="indefinite" type="scale" attributeName="transform" dur="2.5s" begin="0s" calcMode="spline" values="1 1; 0.71 0.71; 0.71 0.71" keyTimes="0; 0.126667; 1" keySplines="0 0 1 1; 0 0 1 1" fill="freeze" /><g transform="translate(-183,-115.5)"><g id="i3"><rect ry="31" rx="31" height="231" width="366" y="0" x="0" fill="#ffffff" /></g><g id="i4"><path fill="#000000" d="M120.008,49.569C120.008,50.934,120.876,51.873,122.134,51.873C123.375,51.873,124.226,50.934,124.226,49.569C124.226,48.205,123.375,47.265,122.134,47.265C120.876,47.265,120.008,48.205,120.008,49.569C120.008,49.569,120.008,49.569,120.008,49.569ZM117.597,49.569C117.597,47.017,119.21,44.961,121.691,44.961C122.666,44.961,123.605,45.44,124.226,46.308C124.226,46.308,124.226,42.338,124.226,42.338C124.226,42.338,126.601,42.338,126.601,42.338C126.601,42.338,126.601,54,126.601,54C126.601,54,124.226,54,124.226,54C124.226,54,124.226,52.848,124.226,52.848C123.605,53.716,122.666,54.177,121.691,54.177C119.21,54.177,117.597,52.121,117.597,49.569C117.597,49.569,117.597,49.569,117.597,49.569ZM111.308,54C111.308,54,111.308,45.139,111.308,45.139C111.308,45.139,113.683,45.139,113.683,45.139C113.683,45.139,113.683,46.787,113.683,46.787C113.931,46.078,114.799,44.961,116.766,44.961C116.766,44.961,116.766,47.549,116.766,47.549C114.693,47.549,113.683,48.488,113.683,50.597C113.683,50.597,113.683,54,113.683,54C113.683,54,111.308,54,111.308,54C111.308,54,111.308,54,111.308,54ZM102.582,49.569C102.582,50.934,103.45,51.873,104.708,51.873C105.949,51.873,106.8,50.934,106.8,49.569C106.8,48.205,105.949,47.265,104.708,47.265C103.45,47.265,102.582,48.205,102.582,49.569C102.582,49.569,102.582,49.569,102.582,49.569ZM100.047,49.569C100.047,47.017,101.66,44.961,104.141,44.961C105.169,44.961,106.144,45.44,106.8,46.308C106.8,46.308,106.8,45.139,106.8,45.139C106.8,45.139,109.175,45.139,109.175,45.139C109.175,45.139,109.175,54,109.175,54C109.175,54,106.8,54,106.8,54C106.8,54,106.8,52.848,106.8,52.848C106.144,53.716,105.169,54.177,104.141,54.177C101.66,54.177,100.047,52.121,100.047,49.569C100.047,49.569,100.047,49.569,100.047,49.569ZM91.307,49.569C91.307,47.017,93.434,44.961,96.039,44.961C97.244,44.961,98.361,45.369,99.194,46.042C99.194,46.042,97.74,47.762,97.74,47.762C97.35,47.425,96.783,47.265,96.092,47.265C94.763,47.265,93.717,48.222,93.717,49.569C93.717,50.845,94.657,51.873,96.163,51.873C96.872,51.873,97.634,51.661,98.077,51.271C98.077,51.271,99.371,53.096,99.371,53.096C98.502,53.77,97.315,54.177,96.039,54.177C93.434,54.177,91.307,52.139,91.307,49.569C91.307,49.569,91.307,49.569,91.307,49.569ZM85.017,54C85.017,54,85.017,45.139,85.017,45.139C85.017,45.139,87.392,45.139,87.392,45.139C87.392,45.139,87.392,46.787,87.392,46.787C87.64,46.078,88.509,44.961,90.476,44.961C90.476,44.961,90.476,47.549,90.476,47.549C88.402,47.549,87.392,48.488,87.392,50.597C87.392,50.597,87.392,54,87.392,54C87.392,54,85.017,54,85.017,54C85.017,54,85.017,54,85.017,54ZM74.415,49.587C74.415,47.035,76.4,44.961,79.04,44.961C81.415,44.961,83.329,47.017,83.329,49.498C83.329,49.959,83.258,50.385,83.258,50.385C83.258,50.385,76.878,50.385,76.878,50.385C77.197,51.625,78.207,52.086,79.306,52.086C80.121,52.086,81.025,51.891,81.734,51.483C81.734,51.483,82.62,53.273,82.62,53.273C81.575,53.876,80.387,54.177,79.271,54.177C76.719,54.177,74.415,52.618,74.415,49.587C74.415,49.587,74.415,49.587,74.415,49.587ZM76.843,48.665C76.843,48.665,81.008,48.665,81.008,48.665C80.813,47.62,79.926,47.017,78.899,47.017C77.995,47.017,77.144,47.637,76.843,48.665C76.843,48.665,76.843,48.665,76.843,48.665ZM68.568,51.129C68.568,51.129,68.568,47.053,68.568,47.053C68.568,47.053,67.256,47.053,67.256,47.053C67.256,47.053,67.256,45.139,67.256,45.139C67.256,45.139,68.55,45.139,68.55,45.139C68.55,45.139,68.55,43.526,68.55,43.526C68.55,43.526,70.925,42.994,70.925,42.994C70.925,42.994,70.925,45.139,70.925,45.139C70.925,45.139,73.371,45.139,73.371,45.139C73.371,45.139,73.371,47.053,73.371,47.053C73.371,47.053,70.943,47.053,70.943,47.053C70.943,47.053,70.943,51.2,70.943,51.2C70.943,51.873,71.279,52.121,71.687,52.121C72.307,52.121,72.857,51.731,72.857,51.731C72.857,51.731,73.53,53.522,73.53,53.522C73.087,53.805,72.343,54.177,71.35,54.177C69.347,54.177,68.568,53.078,68.568,51.129C68.568,51.129,68.568,51.129,68.568,51.129ZM58.959,52.937C58.959,52.937,59.792,51.2,59.792,51.2C60.323,51.554,61.245,52.175,62.574,52.175C63.141,52.175,64.081,51.98,64.081,51.306C64.081,50.828,63.283,50.615,62.503,50.438C60.784,50.03,59.402,49.463,59.402,47.708C59.402,45.901,61.245,44.961,62.84,44.961C64.24,44.961,65.091,45.298,66.101,45.812C66.101,45.812,65.268,47.549,65.268,47.549C64.435,47.123,63.726,46.964,62.84,46.964C62.344,46.964,61.777,47.212,61.777,47.673C61.777,48.098,62.379,48.275,63.017,48.4C64.701,48.736,66.456,49.41,66.456,51.271C66.456,53.486,64.169,54.177,62.574,54.177C60.625,54.177,59.313,53.256,58.959,52.937C58.959,52.937,58.959,52.937,58.959,52.937ZM50.676,49.569C50.676,50.934,51.544,51.873,52.803,51.873C54.043,51.873,54.894,50.934,54.894,49.569C54.894,48.205,54.043,47.265,52.803,47.265C51.544,47.265,50.676,48.205,50.676,49.569C50.676,49.569,50.676,49.569,50.676,49.569ZM48.142,49.569C48.142,47.017,49.754,44.961,52.236,44.961C53.263,44.961,54.238,45.44,54.894,46.308C54.894,46.308,54.894,45.139,54.894,45.139C54.894,45.139,57.269,45.139,57.269,45.139C57.269,45.139,57.269,54,57.269,54C57.269,54,54.894,54,54.894,54C54.894,54,54.894,52.848,54.894,52.848C54.238,53.716,53.263,54.177,52.236,54.177C49.754,54.177,48.142,52.121,48.142,49.569C48.142,49.569,48.142,49.569,48.142,49.569ZM34.241,54C34.241,54,34.241,42.515,34.241,42.515C34.241,42.515,36.385,42.515,36.385,42.515C36.385,42.515,38.14,44.944,38.14,44.944C38.937,46.06,40.267,48.01,40.267,48.01C40.267,48.01,41.596,46.078,42.376,44.961C42.376,44.961,44.13,42.515,44.13,42.515C44.13,42.515,46.275,42.515,46.275,42.515C46.275,42.515,46.275,54,46.275,54C46.275,54,43.793,54,43.793,54C43.793,54,43.793,46.769,43.793,46.769C43.793,46.769,43.51,47.336,42.695,48.524C42.695,48.524,40.267,52.086,40.267,52.086C40.267,52.086,37.803,48.488,37.803,48.488C37.023,47.354,36.722,46.787,36.722,46.787C36.722,46.787,36.722,54,36.722,54C36.722,54,34.241,54,34.241,54C34.241,54,34.241,54,34.241,54Z" /></g><g id="i5"><rect ry="6.5" rx="6.5" height="13" width="114" y="74" x="33" fill="#d9d9d9" /></g><g id="i6"><rect ry="6.5" rx="6.5" height="13" width="98" y="74" x="162" fill="#d9d9d9" /></g><g id="i7"><rect ry="6.5" rx="6.5" height="13" width="64" y="74" x="269" fill="#d9d9d9" /></g><g id="i8"><ellipse ry="23.5" rx="23.5" cy="174.5" cx="274.5" fill="#ff4239" /></g><g id="i9" transform="matrix(1,0,0,1,0,0)"><ellipse ry="23.5" rx="23.5" cy="174.5" cx="309.5" fill="#ffb045" /></g></g></g></g></g></g><g visibility="hidden" id="i2"><animate repeatCount="indefinite" begin="0s" calcMode="discrete" dur="2.5s" values="hidden; visible; hidden; hidden" keyTimes="0; 0.44; 0.55; 1" attributeName="visibility" /><g transform="translate(250,250)"><animateTransform repeatCount="indefinite" type="translate" attributeName="transform" dur="2.5s" begin="0s" calcMode="spline" values="250 250; 250 250; 250 119; 250 250; 250 250" keyTimes="0; 0.32; 0.44; 0.513333; 1" keySplines="0 0 1 1; 0 0 1 1; 0 0 1 1; 0 0 1 1" fill="freeze" /><g transform="rotate(0)"><animateTransform repeatCount="indefinite" type="rotate" attributeName="transform" dur="2.5s" begin="0s" calcMode="spline" values="0; 0; 15; 0; 0" keyTimes="0; 0.32; 0.44; 0.513333; 1" keySplines="0 0 1 1; 0 0 1 1; 0 0 1 1; 0 0 1 1" fill="freeze" /><g transform="scale(1,1)"><animateTransform repeatCount="indefinite" type="scale" attributeName="transform" dur="2.5s" begin="0s" calcMode="spline" values="1 1; 0.84 0.84; 1 1; 1 1; 0.69 0.69; 0.69 0.69" keyTimes="0; 0.126667; 0.233333; 0.32; 0.44; 1" keySplines="0 0 1 1; 0 0 1 1; 0 0 1 1; 0 0 1 1; 0 0 1 1" fill="freeze" /><g transform="translate(-183,-115.5)"><g id="i4"><rect ry="31" rx="31" height="231" width="366" y="0" x="0" fill="#ffffff" /></g><g id="i5"><path fill="#000000" d="M174.868,52.937C174.868,52.937,175.701,51.2,175.701,51.2C176.233,51.554,177.155,52.175,178.484,52.175C179.051,52.175,179.99,51.98,179.99,51.306C179.99,50.828,179.193,50.615,178.413,50.438C176.694,50.03,175.311,49.463,175.311,47.708C175.311,45.901,177.155,44.961,178.75,44.961C180.15,44.961,181.001,45.298,182.011,45.812C182.011,45.812,181.178,47.549,181.178,47.549C180.345,47.123,179.636,46.964,178.75,46.964C178.253,46.964,177.686,47.212,177.686,47.673C177.686,48.098,178.289,48.275,178.927,48.4C180.611,48.736,182.365,49.41,182.365,51.271C182.365,53.486,180.079,54.177,178.484,54.177C176.534,54.177,175.223,53.256,174.868,52.937C174.868,52.937,174.868,52.937,174.868,52.937ZM166.128,52.937C166.128,52.937,166.961,51.2,166.961,51.2C167.493,51.554,168.414,52.175,169.744,52.175C170.311,52.175,171.25,51.98,171.25,51.306C171.25,50.828,170.452,50.615,169.673,50.438C167.953,50.03,166.571,49.463,166.571,47.708C166.571,45.901,168.414,44.961,170.009,44.961C171.409,44.961,172.26,45.298,173.27,45.812C173.27,45.812,172.437,47.549,172.437,47.549C171.604,47.123,170.896,46.964,170.009,46.964C169.513,46.964,168.946,47.212,168.946,47.673C168.946,48.098,169.549,48.275,170.187,48.4C171.87,48.736,173.625,49.41,173.625,51.271C173.625,53.486,171.339,54.177,169.744,54.177C167.794,54.177,166.482,53.256,166.128,52.937C166.128,52.937,166.128,52.937,166.128,52.937ZM155.968,49.587C155.968,47.035,157.953,44.961,160.594,44.961C162.969,44.961,164.883,47.017,164.883,49.498C164.883,49.959,164.812,50.385,164.812,50.385C164.812,50.385,158.432,50.385,158.432,50.385C158.751,51.625,159.761,52.086,160.86,52.086C161.675,52.086,162.579,51.891,163.288,51.483C163.288,51.483,164.174,53.273,164.174,53.273C163.129,53.876,161.941,54.177,160.825,54.177C158.272,54.177,155.968,52.618,155.968,49.587C155.968,49.587,155.968,49.587,155.968,49.587ZM158.396,48.665C158.396,48.665,162.561,48.665,162.561,48.665C162.366,47.62,161.48,47.017,160.452,47.017C159.548,47.017,158.698,47.637,158.396,48.665C158.396,48.665,158.396,48.665,158.396,48.665ZM149.679,54C149.679,54,149.679,45.139,149.679,45.139C149.679,45.139,152.054,45.139,152.054,45.139C152.054,45.139,152.054,46.787,152.054,46.787C152.302,46.078,153.17,44.961,155.137,44.961C155.137,44.961,155.137,47.549,155.137,47.549C153.064,47.549,152.054,48.488,152.054,50.597C152.054,50.597,152.054,54,152.054,54C152.054,54,149.679,54,149.679,54C149.679,54,149.679,54,149.679,54ZM141.375,49.569C141.375,50.934,142.226,51.873,143.466,51.873C144.724,51.873,145.593,50.934,145.593,49.569C145.593,48.205,144.724,47.265,143.466,47.265C142.226,47.265,141.375,48.205,141.375,49.569C141.375,49.569,141.375,49.569,141.375,49.569ZM139,56.428C139,56.428,139,45.139,139,45.139C139,45.139,141.375,45.139,141.375,45.139C141.375,45.139,141.375,46.308,141.375,46.308C141.995,45.44,142.934,44.961,143.909,44.961C146.39,44.961,148.003,47.017,148.003,49.569C148.003,52.121,146.39,54.177,143.909,54.177C142.934,54.177,141.995,53.716,141.375,52.848C141.375,52.848,141.375,56.428,141.375,56.428C141.375,56.428,139,56.428,139,56.428C139,56.428,139,56.428,139,56.428ZM128.941,54C128.941,54,131.865,49.481,131.865,49.481C131.865,49.481,128.941,45.139,128.941,45.139C128.941,45.139,131.581,45.139,131.581,45.139C131.581,45.139,132.733,46.946,132.733,46.946C132.982,47.336,133.354,47.992,133.354,47.992C133.354,47.992,133.708,47.354,133.974,46.946C133.974,46.946,135.126,45.139,135.126,45.139C135.126,45.139,137.767,45.139,137.767,45.139C137.767,45.139,134.842,49.481,134.842,49.481C134.842,49.481,137.767,54,137.767,54C137.767,54,135.126,54,135.126,54C135.126,54,134.063,52.316,134.063,52.316C133.726,51.785,133.354,51.023,133.354,51.023C133.354,51.023,133.017,51.731,132.645,52.316C132.645,52.316,131.581,54,131.581,54C131.581,54,128.941,54,128.941,54C128.941,54,128.941,54,128.941,54ZM118.944,54C118.944,54,118.944,42.515,118.944,42.515C118.944,42.515,128.001,42.515,128.001,42.515C128.001,42.515,128.001,44.642,128.001,44.642C128.001,44.642,121.426,44.642,121.426,44.642C121.426,44.642,121.426,46.982,121.426,46.982C121.426,46.982,127.664,46.982,127.664,46.982C127.664,46.982,127.664,49.091,127.664,49.091C127.664,49.091,121.426,49.091,121.426,49.091C121.426,49.091,121.426,51.873,121.426,51.873C121.426,51.873,128.231,51.873,128.231,51.873C128.231,51.873,128.231,54,128.231,54C128.231,54,118.944,54,118.944,54C118.944,54,118.944,54,118.944,54ZM103.554,54C103.554,54,103.554,45.139,103.554,45.139C103.554,45.139,105.929,45.139,105.929,45.139C105.929,45.139,105.929,46.291,105.929,46.291C106.584,45.422,107.541,44.961,108.693,44.961C111.228,44.961,111.848,46.68,111.848,49.126C111.848,49.126,111.848,54,111.848,54C111.848,54,109.456,54,109.456,54C109.456,54,109.456,49.392,109.456,49.392C109.456,48.027,109.296,47.265,107.931,47.265C106.708,47.265,105.929,48.205,105.929,49.569C105.929,49.569,105.929,54,105.929,54C105.929,54,103.554,54,103.554,54C103.554,54,103.554,54,103.554,54ZM94.828,49.569C94.828,50.934,95.696,51.873,96.955,51.873C98.195,51.873,99.046,50.934,99.046,49.569C99.046,48.205,98.195,47.265,96.955,47.265C95.696,47.265,94.828,48.205,94.828,49.569C94.828,49.569,94.828,49.569,94.828,49.569ZM92.293,49.569C92.293,47.017,93.906,44.961,96.387,44.961C97.415,44.961,98.39,45.44,99.046,46.308C99.046,46.308,99.046,45.139,99.046,45.139C99.046,45.139,101.421,45.139,101.421,45.139C101.421,45.139,101.421,54,101.421,54C101.421,54,99.046,54,99.046,54C99.046,54,99.046,52.848,99.046,52.848C98.39,53.716,97.415,54.177,96.387,54.177C93.906,54.177,92.293,52.121,92.293,49.569C92.293,49.569,92.293,49.569,92.293,49.569ZM83.553,49.569C83.553,47.017,85.68,44.961,88.285,44.961C89.49,44.961,90.607,45.369,91.44,46.042C91.44,46.042,89.987,47.762,89.987,47.762C89.597,47.425,89.029,47.265,88.338,47.265C87.009,47.265,85.963,48.222,85.963,49.569C85.963,50.845,86.903,51.873,88.409,51.873C89.118,51.873,89.88,51.661,90.323,51.271C90.323,51.271,91.617,53.096,91.617,53.096C90.749,53.77,89.561,54.177,88.285,54.177C85.68,54.177,83.553,52.139,83.553,49.569C83.553,49.569,83.553,49.569,83.553,49.569ZM79.283,42.852C79.283,42.072,79.921,41.434,80.684,41.434C81.463,41.434,82.101,42.072,82.101,42.852C82.101,43.614,81.463,44.252,80.684,44.252C79.921,44.252,79.283,43.614,79.283,42.852C79.283,42.852,79.283,42.852,79.283,42.852ZM79.496,54C79.496,54,79.496,45.139,79.496,45.139C79.496,45.139,81.871,45.139,81.871,45.139C81.871,45.139,81.871,54,81.871,54C81.871,54,79.496,54,79.496,54C79.496,54,79.496,54,79.496,54ZM72.625,54C72.625,54,72.625,45.139,72.625,45.139C72.625,45.139,75,45.139,75,45.139C75,45.139,75,46.787,75,46.787C75.248,46.078,76.116,44.961,78.084,44.961C78.084,44.961,78.084,47.549,78.084,47.549C76.01,47.549,75,48.488,75,50.597C75,50.597,75,54,75,54C75,54,72.625,54,72.625,54C72.625,54,72.625,54,72.625,54ZM62.022,49.587C62.022,47.035,64.007,44.961,66.648,44.961C69.023,44.961,70.937,47.017,70.937,49.498C70.937,49.959,70.866,50.385,70.866,50.385C70.866,50.385,64.486,50.385,64.486,50.385C64.805,51.625,65.815,52.086,66.914,52.086C67.729,52.086,68.633,51.891,69.342,51.483C69.342,51.483,70.228,53.273,70.228,53.273C69.182,53.876,67.995,54.177,66.878,54.177C64.326,54.177,62.022,52.618,62.022,49.587C62.022,49.587,62.022,49.587,62.022,49.587ZM64.45,48.665C64.45,48.665,68.615,48.665,68.615,48.665C68.42,47.62,67.534,47.017,66.506,47.017C65.602,47.017,64.752,47.637,64.45,48.665C64.45,48.665,64.45,48.665,64.45,48.665ZM46.698,54C46.698,54,46.698,45.139,46.698,45.139C46.698,45.139,49.073,45.139,49.073,45.139C49.073,45.139,49.073,46.361,49.073,46.361C49.481,45.67,50.491,44.961,51.536,44.961C52.919,44.961,53.823,45.546,54.301,46.574C54.868,45.617,56.109,44.961,57.084,44.961C59.53,44.961,60.522,46.468,60.522,49.108C60.522,49.108,60.522,54,60.522,54C60.522,54,58.147,54,58.147,54C58.147,54,58.147,49.392,58.147,49.392C58.147,48.311,58.005,47.265,56.534,47.265C55.311,47.265,54.797,48.258,54.797,49.233C54.797,49.233,54.797,54,54.797,54C54.797,54,52.423,54,52.423,54C52.423,54,52.423,49.392,52.423,49.392C52.423,48.311,52.281,47.265,50.81,47.265C49.534,47.265,49.073,48.346,49.073,49.374C49.073,49.374,49.073,54,49.073,54C49.073,54,46.698,54,46.698,54C46.698,54,46.698,54,46.698,54ZM37.254,50.225C37.254,50.225,41.383,50.225,41.383,50.225C41.383,50.225,40.461,48.116,40.461,48.116C39.947,46.929,39.309,45.139,39.309,45.139C39.309,45.139,38.707,46.911,38.175,48.116C38.175,48.116,37.254,50.225,37.254,50.225C37.254,50.225,37.254,50.225,37.254,50.225ZM33.089,54C33.089,54,38.087,42.515,38.087,42.515C38.087,42.515,40.55,42.515,40.55,42.515C40.55,42.515,45.548,54,45.548,54C45.548,54,43.014,54,43.014,54C43.014,54,42.216,52.175,42.216,52.175C42.216,52.175,36.403,52.175,36.403,52.175C36.403,52.175,35.623,54,35.623,54C35.623,54,33.089,54,33.089,54C33.089,54,33.089,54,33.089,54Z" /></g><g id="i6"><rect ry="6.5" rx="6.5" height="13" width="68" y="74" x="33" fill="#d9d9d9" /></g><g id="i7"><rect ry="6.5" rx="6.5" height="13" width="98" y="74" x="114" fill="#d9d9d9" /></g><g id="i8"><rect ry="6.5" rx="6.5" height="13" width="108" y="74" x="225" fill="#d9d9d9" /></g><g id="i9"><rect height="53" width="53" y="145" x="280" fill="#0b78c3" /></g></g></g></g></g></g><g visibility="hidden" id="i2"><animate repeatCount="indefinite" begin="0s" calcMode="discrete" dur="2.5s" values="hidden; visible; hidden; hidden" keyTimes="0; 0.61; 0.83; 1" attributeName="visibility" /><g transform="translate(250,250)"><animateTransform repeatCount="indefinite" type="translate" attributeName="transform" dur="2.5s" begin="0s" calcMode="spline" values="250 250; 250 250; 250 138; 250 250; 250 250" keyTimes="0; 0.61; 0.73; 0.836667; 1" keySplines="0 0 1 1; 0 0 1 1; 0 0 1 1; 0 0 1 1" fill="freeze" /><g transform="rotate(0)"><animateTransform repeatCount="indefinite" type="rotate" attributeName="transform" dur="2.5s" begin="0s" calcMode="spline" values="0; 0; 15; 0; 0" keyTimes="0; 0.61; 0.73; 0.836667; 1" keySplines="0 0 1 1; 0 0 1 1; 0 0 1 1; 0 0 1 1" fill="freeze" /><g transform="scale(1,1)"><animateTransform repeatCount="indefinite" type="scale" attributeName="transform" dur="2.5s" begin="0s" calcMode="spline" values="1 1; 1 1; 0.81 0.81; 1 1; 1 1; 0.72 0.72; 0.72 0.72" keyTimes="0; 0.33; 0.45; 0.523333; 0.61; 0.73; 1" keySplines="0 0 1 1; 0 0 1 1; 0 0 1 1; 0 0 1 1; 0 0 1 1; 0 0 1 1" fill="freeze" /><g transform="translate(-183,-115.5)"><g id="i10"><rect ry="31" rx="31" height="231" width="366" y="0" x="0" fill="#ffffff" /></g><g id="i11"><path fill="#000000" d="M103.184,49.569C103.184,50.934,104.053,51.873,105.311,51.873C106.552,51.873,107.403,50.934,107.403,49.569C107.403,48.205,106.552,47.265,105.311,47.265C104.053,47.265,103.184,48.205,103.184,49.569C103.184,49.569,103.184,49.569,103.184,49.569ZM100.774,49.569C100.774,47.017,102.387,44.961,104.868,44.961C105.843,44.961,106.782,45.44,107.403,46.308C107.403,46.308,107.403,42.338,107.403,42.338C107.403,42.338,109.777,42.338,109.777,42.338C109.777,42.338,109.777,54,109.777,54C109.777,54,107.403,54,107.403,54C107.403,54,107.403,52.848,107.403,52.848C106.782,53.716,105.843,54.177,104.868,54.177C102.387,54.177,100.774,52.121,100.774,49.569C100.774,49.569,100.774,49.569,100.774,49.569ZM94.484,54C94.485,54,94.485,45.139,94.485,45.139C94.485,45.139,96.859,45.139,96.859,45.139C96.859,45.139,96.859,46.787,96.859,46.787C97.108,46.078,97.976,44.961,99.943,44.961C99.943,44.961,99.943,47.549,99.943,47.549C97.87,47.549,96.859,48.488,96.859,50.597C96.859,50.597,96.859,54,96.859,54C96.859,54,94.485,54,94.485,54C94.485,54,94.485,54,94.485,54ZM85.759,49.569C85.759,50.934,86.627,51.873,87.885,51.873C89.126,51.873,89.977,50.934,89.977,49.569C89.977,48.205,89.126,47.265,87.885,47.265C86.627,47.265,85.759,48.205,85.759,49.569C85.759,49.569,85.759,49.569,85.759,49.569ZM83.224,49.569C83.224,47.017,84.837,44.961,87.318,44.961C88.346,44.961,89.321,45.44,89.977,46.308C89.977,46.308,89.977,45.139,89.977,45.139C89.977,45.139,92.352,45.139,92.352,45.139C92.352,45.139,92.352,54,92.352,54C92.352,54,89.977,54,89.977,54C89.977,54,89.977,52.848,89.977,52.848C89.321,53.716,88.346,54.177,87.318,54.177C84.837,54.177,83.224,52.121,83.224,49.569C83.224,49.569,83.224,49.569,83.224,49.569ZM72.167,48.258C72.167,44.979,74.701,42.338,78.246,42.338C79.717,42.338,81.028,42.799,82.038,43.579C82.038,43.579,80.603,45.263,80.603,45.263C79.894,44.749,79.167,44.589,78.423,44.589C76.208,44.589,74.754,46.273,74.754,48.258C74.754,50.26,76.225,51.944,78.263,51.944C79.238,51.944,80.16,51.625,80.833,51.023C80.833,51.023,82.34,52.724,82.34,52.724C81.294,53.646,79.876,54.195,78.246,54.195C74.701,54.195,72.167,51.554,72.167,48.258C72.167,48.258,72.167,48.258,72.167,48.258ZM58.183,46.804C58.183,46.804,60.86,46.804,60.86,46.804C61.622,46.804,62.065,46.432,62.065,45.741C62.065,45.068,61.675,44.642,60.824,44.642C60.824,44.642,58.183,44.642,58.183,44.642C58.183,44.642,58.183,46.804,58.183,46.804C58.183,46.804,58.183,46.804,58.183,46.804ZM58.183,51.873C58.183,51.873,61.125,51.873,61.125,51.873C62.277,51.873,63.075,51.501,63.075,50.42C63.075,49.339,62.242,48.914,61.232,48.914C61.232,48.914,58.183,48.914,58.183,48.914C58.183,48.914,58.183,51.873,58.183,51.873C58.183,51.873,58.183,51.873,58.183,51.873ZM55.702,54C55.702,54,55.702,42.515,55.702,42.515C55.702,42.515,61.072,42.515,61.072,42.515C62.969,42.515,64.652,43.313,64.652,45.511C64.652,46.379,64.138,47.159,63.518,47.549C64.776,47.868,65.698,48.967,65.698,50.385C65.698,52.883,63.873,54,61.338,54C61.338,54,55.702,54,55.702,54C55.702,54,55.702,54,55.702,54ZM44.024,48.258C44.024,44.979,46.559,42.338,50.103,42.338C51.574,42.338,52.886,42.799,53.896,43.579C53.896,43.579,52.461,45.263,52.461,45.263C51.752,44.749,51.025,44.589,50.281,44.589C48.065,44.589,46.612,46.273,46.612,48.258C46.612,50.26,48.083,51.944,50.121,51.944C51.096,51.944,52.017,51.625,52.691,51.023C52.691,51.023,54.197,52.724,54.197,52.724C53.152,53.646,51.734,54.195,50.103,54.195C46.559,54.195,44.024,51.554,44.024,48.258C44.024,48.258,44.024,48.258,44.024,48.258ZM33.355,51.731C33.355,51.731,35.145,50.349,35.145,50.349C35.907,51.714,36.793,51.926,37.519,51.926C38.813,51.926,39.788,51.147,39.788,49.357C39.788,49.357,39.788,42.515,39.788,42.515C39.788,42.515,42.251,42.515,42.251,42.515C42.251,42.515,42.251,49.215,42.251,49.215C42.251,52.795,40.125,54.177,37.573,54.177C35.765,54.177,34.117,53.362,33.355,51.731C33.355,51.731,33.355,51.731,33.355,51.731Z" /></g><g id="i3"><rect ry="6.5" rx="6.5" height="13" width="68" y="74" x="33" fill="#d9d9d9" /></g><g id="i4"><rect ry="6.5" rx="6.5" height="13" width="100" y="74" x="111" fill="#d9d9d9" /></g><g id="i5"><rect ry="6.5" rx="6.5" height="13" width="60" y="74" x="223" fill="#d9d9d9" /></g><g id="i6"><rect ry="6.5" rx="6.5" height="13" width="38" y="74" x="295" fill="#d9d9d9" /></g><g id="i7"><rect ry="6" rx="6" height="46" width="12" y="152" x="283" fill="#2163a7" /></g><g id="i8"><rect ry="6" rx="6" height="46" width="12" y="152" x="302" fill="#d62932" /></g><g id="i9"><rect ry="6" rx="6" height="46" width="12" y="152" x="321" fill="#298c42" /></g></g></g></g></g></g><g visibility="hidden" id="i2"><animate repeatCount="indefinite" begin="0s" calcMode="discrete" dur="2.5s" values="hidden; visible; visible" keyTimes="0; 0.6; 1" attributeName="visibility" /><g transform="translate(250,250)"><g transform="scale(1,1)"><animateTransform repeatCount="indefinite" type="scale" attributeName="transform" dur="2.5s" begin="0s" calcMode="spline" values="1 1; 1 1; 0.82 0.82; 1 1; 1 1" keyTimes="0; 0.6; 0.72; 0.826667; 1" keySplines="0 0 1 1; 0 0 1 1; 0 0 1 1; 0 0 1 1" fill="freeze" /><g transform="translate(-183,-115.5)"><g id="i3"><rect ry="31" rx="31" height="231" width="366" y="0" x="0" fill="#ffffff" /></g><g id="i4"><path fill="#000000" d="M120.008,49.569C120.008,50.934,120.876,51.873,122.134,51.873C123.375,51.873,124.226,50.934,124.226,49.569C124.226,48.205,123.375,47.265,122.134,47.265C120.876,47.265,120.008,48.205,120.008,49.569C120.008,49.569,120.008,49.569,120.008,49.569ZM117.597,49.569C117.597,47.017,119.21,44.961,121.691,44.961C122.666,44.961,123.605,45.44,124.226,46.308C124.226,46.308,124.226,42.338,124.226,42.338C124.226,42.338,126.601,42.338,126.601,42.338C126.601,42.338,126.601,54,126.601,54C126.601,54,124.226,54,124.226,54C124.226,54,124.226,52.848,124.226,52.848C123.605,53.716,122.666,54.177,121.691,54.177C119.21,54.177,117.597,52.121,117.597,49.569C117.597,49.569,117.597,49.569,117.597,49.569ZM111.308,54C111.308,54,111.308,45.139,111.308,45.139C111.308,45.139,113.683,45.139,113.683,45.139C113.683,45.139,113.683,46.787,113.683,46.787C113.931,46.078,114.799,44.961,116.766,44.961C116.766,44.961,116.766,47.549,116.766,47.549C114.693,47.549,113.683,48.488,113.683,50.597C113.683,50.597,113.683,54,113.683,54C113.683,54,111.308,54,111.308,54C111.308,54,111.308,54,111.308,54ZM102.582,49.569C102.582,50.934,103.45,51.873,104.708,51.873C105.949,51.873,106.8,50.934,106.8,49.569C106.8,48.205,105.949,47.265,104.708,47.265C103.45,47.265,102.582,48.205,102.582,49.569C102.582,49.569,102.582,49.569,102.582,49.569ZM100.047,49.569C100.047,47.017,101.66,44.961,104.141,44.961C105.169,44.961,106.144,45.44,106.8,46.308C106.8,46.308,106.8,45.139,106.8,45.139C106.8,45.139,109.175,45.139,109.175,45.139C109.175,45.139,109.175,54,109.175,54C109.175,54,106.8,54,106.8,54C106.8,54,106.8,52.848,106.8,52.848C106.144,53.716,105.169,54.177,104.141,54.177C101.66,54.177,100.047,52.121,100.047,49.569C100.047,49.569,100.047,49.569,100.047,49.569ZM91.307,49.569C91.307,47.017,93.434,44.961,96.039,44.961C97.244,44.961,98.361,45.369,99.194,46.042C99.194,46.042,97.74,47.762,97.74,47.762C97.35,47.425,96.783,47.265,96.092,47.265C94.763,47.265,93.717,48.222,93.717,49.569C93.717,50.845,94.657,51.873,96.163,51.873C96.872,51.873,97.634,51.661,98.077,51.271C98.077,51.271,99.371,53.096,99.371,53.096C98.502,53.77,97.315,54.177,96.039,54.177C93.434,54.177,91.307,52.139,91.307,49.569C91.307,49.569,91.307,49.569,91.307,49.569ZM85.017,54C85.017,54,85.017,45.139,85.017,45.139C85.017,45.139,87.392,45.139,87.392,45.139C87.392,45.139,87.392,46.787,87.392,46.787C87.64,46.078,88.509,44.961,90.476,44.961C90.476,44.961,90.476,47.549,90.476,47.549C88.402,47.549,87.392,48.488,87.392,50.597C87.392,50.597,87.392,54,87.392,54C87.392,54,85.017,54,85.017,54C85.017,54,85.017,54,85.017,54ZM74.415,49.587C74.415,47.035,76.4,44.961,79.04,44.961C81.415,44.961,83.329,47.017,83.329,49.498C83.329,49.959,83.258,50.385,83.258,50.385C83.258,50.385,76.878,50.385,76.878,50.385C77.197,51.625,78.207,52.086,79.306,52.086C80.121,52.086,81.025,51.891,81.734,51.483C81.734,51.483,82.62,53.273,82.62,53.273C81.575,53.876,80.387,54.177,79.271,54.177C76.719,54.177,74.415,52.618,74.415,49.587C74.415,49.587,74.415,49.587,74.415,49.587ZM76.843,48.665C76.843,48.665,81.008,48.665,81.008,48.665C80.813,47.62,79.926,47.017,78.899,47.017C77.995,47.017,77.144,47.637,76.843,48.665C76.843,48.665,76.843,48.665,76.843,48.665ZM68.568,51.129C68.568,51.129,68.568,47.053,68.568,47.053C68.568,47.053,67.256,47.053,67.256,47.053C67.256,47.053,67.256,45.139,67.256,45.139C67.256,45.139,68.55,45.139,68.55,45.139C68.55,45.139,68.55,43.526,68.55,43.526C68.55,43.526,70.925,42.994,70.925,42.994C70.925,42.994,70.925,45.139,70.925,45.139C70.925,45.139,73.371,45.139,73.371,45.139C73.371,45.139,73.371,47.053,73.371,47.053C73.371,47.053,70.943,47.053,70.943,47.053C70.943,47.053,70.943,51.2,70.943,51.2C70.943,51.873,71.279,52.121,71.687,52.121C72.307,52.121,72.857,51.731,72.857,51.731C72.857,51.731,73.53,53.522,73.53,53.522C73.087,53.805,72.343,54.177,71.35,54.177C69.347,54.177,68.568,53.078,68.568,51.129C68.568,51.129,68.568,51.129,68.568,51.129ZM58.959,52.937C58.959,52.937,59.792,51.2,59.792,51.2C60.323,51.554,61.245,52.175,62.574,52.175C63.141,52.175,64.081,51.98,64.081,51.306C64.081,50.828,63.283,50.615,62.503,50.438C60.784,50.03,59.402,49.463,59.402,47.708C59.402,45.901,61.245,44.961,62.84,44.961C64.24,44.961,65.091,45.298,66.101,45.812C66.101,45.812,65.268,47.549,65.268,47.549C64.435,47.123,63.726,46.964,62.84,46.964C62.344,46.964,61.777,47.212,61.777,47.673C61.777,48.098,62.379,48.275,63.017,48.4C64.701,48.736,66.456,49.41,66.456,51.271C66.456,53.486,64.169,54.177,62.574,54.177C60.625,54.177,59.313,53.256,58.959,52.937C58.959,52.937,58.959,52.937,58.959,52.937ZM50.676,49.569C50.676,50.934,51.544,51.873,52.803,51.873C54.043,51.873,54.894,50.934,54.894,49.569C54.894,48.205,54.043,47.265,52.803,47.265C51.544,47.265,50.676,48.205,50.676,49.569C50.676,49.569,50.676,49.569,50.676,49.569ZM48.142,49.569C48.142,47.017,49.754,44.961,52.236,44.961C53.263,44.961,54.238,45.44,54.894,46.308C54.894,46.308,54.894,45.139,54.894,45.139C54.894,45.139,57.269,45.139,57.269,45.139C57.269,45.139,57.269,54,57.269,54C57.269,54,54.894,54,54.894,54C54.894,54,54.894,52.848,54.894,52.848C54.238,53.716,53.263,54.177,52.236,54.177C49.754,54.177,48.142,52.121,48.142,49.569C48.142,49.569,48.142,49.569,48.142,49.569ZM34.241,54C34.241,54,34.241,42.515,34.241,42.515C34.241,42.515,36.385,42.515,36.385,42.515C36.385,42.515,38.14,44.944,38.14,44.944C38.937,46.06,40.267,48.01,40.267,48.01C40.267,48.01,41.596,46.078,42.376,44.961C42.376,44.961,44.13,42.515,44.13,42.515C44.13,42.515,46.275,42.515,46.275,42.515C46.275,42.515,46.275,54,46.275,54C46.275,54,43.793,54,43.793,54C43.793,54,43.793,46.769,43.793,46.769C43.793,46.769,43.51,47.336,42.695,48.524C42.695,48.524,40.267,52.086,40.267,52.086C40.267,52.086,37.803,48.488,37.803,48.488C37.023,47.354,36.722,46.787,36.722,46.787C36.722,46.787,36.722,54,36.722,54C36.722,54,34.241,54,34.241,54C34.241,54,34.241,54,34.241,54Z" /></g><g id="i5"><rect ry="6.5" rx="6.5" height="13" width="114" y="74" x="33" fill="#d9d9d9" /></g><g id="i6"><rect ry="6.5" rx="6.5" height="13" width="98" y="74" x="162" fill="#d9d9d9" /></g><g id="i7"><rect ry="6.5" rx="6.5" height="13" width="64" y="74" x="269" fill="#d9d9d9" /></g><g id="i8"><ellipse ry="23.5" rx="23.5" cy="174.5" cx="274.5" fill="#ff4239" /></g><g id="i9" transform="matrix(1,0,0,1,0,0)"><ellipse ry="23.5" rx="23.5" cy="174.5" cx="309.5" fill="#ffb045" /></g></g></g></g></g><g visibility="hidden" id="i2"><animate repeatCount="indefinite" begin="0s" calcMode="discrete" dur="2.5s" values="hidden; visible; hidden; hidden" keyTimes="0; 0.32; 0.72; 1" attributeName="visibility" /><g transform="translate(250,250)"><animateTransform repeatCount="indefinite" type="translate" attributeName="transform" dur="2.5s" begin="0s" calcMode="spline" values="250 250; 250 250; 250 138; 250 250; 250 250" keyTimes="0; 0.6; 0.72; 0.826667; 1" keySplines="0 0 1 1; 0 0 1 1; 0 0 1 1; 0 0 1 1" fill="freeze" /><g transform="rotate(0)"><animateTransform repeatCount="indefinite" type="rotate" attributeName="transform" dur="2.5s" begin="0s" calcMode="spline" values="0; 0; 15; 0; 0" keyTimes="0; 0.6; 0.72; 0.826667; 1" keySplines="0 0 1 1; 0 0 1 1; 0 0 1 1; 0 0 1 1" fill="freeze" /><g transform="scale(1,1)"><animateTransform repeatCount="indefinite" type="scale" attributeName="transform" dur="2.5s" begin="0s" calcMode="spline" values="1 1; 1 1; 0.81 0.81; 1 1; 1 1; 0.72 0.72; 0.72 0.72" keyTimes="0; 0.32; 0.44; 0.513333; 0.6; 0.72; 1" keySplines="0 0 1 1; 0 0 1 1; 0 0 1 1; 0 0 1 1; 0 0 1 1; 0 0 1 1" fill="freeze" /><g transform="translate(-183,-115.5)"><g id="i10"><rect ry="31" rx="31" height="231" width="366" y="0" x="0" fill="#ffffff" /></g><g id="i11"><path fill="#000000" d="M103.184,49.569C103.184,50.934,104.053,51.873,105.311,51.873C106.552,51.873,107.403,50.934,107.403,49.569C107.403,48.205,106.552,47.265,105.311,47.265C104.053,47.265,103.184,48.205,103.184,49.569C103.184,49.569,103.184,49.569,103.184,49.569ZM100.774,49.569C100.774,47.017,102.387,44.961,104.868,44.961C105.843,44.961,106.782,45.44,107.403,46.308C107.403,46.308,107.403,42.338,107.403,42.338C107.403,42.338,109.777,42.338,109.777,42.338C109.777,42.338,109.777,54,109.777,54C109.777,54,107.403,54,107.403,54C107.403,54,107.403,52.848,107.403,52.848C106.782,53.716,105.843,54.177,104.868,54.177C102.387,54.177,100.774,52.121,100.774,49.569C100.774,49.569,100.774,49.569,100.774,49.569ZM94.484,54C94.485,54,94.485,45.139,94.485,45.139C94.485,45.139,96.859,45.139,96.859,45.139C96.859,45.139,96.859,46.787,96.859,46.787C97.108,46.078,97.976,44.961,99.943,44.961C99.943,44.961,99.943,47.549,99.943,47.549C97.87,47.549,96.859,48.488,96.859,50.597C96.859,50.597,96.859,54,96.859,54C96.859,54,94.485,54,94.485,54C94.485,54,94.485,54,94.485,54ZM85.759,49.569C85.759,50.934,86.627,51.873,87.885,51.873C89.126,51.873,89.977,50.934,89.977,49.569C89.977,48.205,89.126,47.265,87.885,47.265C86.627,47.265,85.759,48.205,85.759,49.569C85.759,49.569,85.759,49.569,85.759,49.569ZM83.224,49.569C83.224,47.017,84.837,44.961,87.318,44.961C88.346,44.961,89.321,45.44,89.977,46.308C89.977,46.308,89.977,45.139,89.977,45.139C89.977,45.139,92.352,45.139,92.352,45.139C92.352,45.139,92.352,54,92.352,54C92.352,54,89.977,54,89.977,54C89.977,54,89.977,52.848,89.977,52.848C89.321,53.716,88.346,54.177,87.318,54.177C84.837,54.177,83.224,52.121,83.224,49.569C83.224,49.569,83.224,49.569,83.224,49.569ZM72.167,48.258C72.167,44.979,74.701,42.338,78.246,42.338C79.717,42.338,81.028,42.799,82.038,43.579C82.038,43.579,80.603,45.263,80.603,45.263C79.894,44.749,79.167,44.589,78.423,44.589C76.208,44.589,74.754,46.273,74.754,48.258C74.754,50.26,76.225,51.944,78.263,51.944C79.238,51.944,80.16,51.625,80.833,51.023C80.833,51.023,82.34,52.724,82.34,52.724C81.294,53.646,79.876,54.195,78.246,54.195C74.701,54.195,72.167,51.554,72.167,48.258C72.167,48.258,72.167,48.258,72.167,48.258ZM58.183,46.804C58.183,46.804,60.86,46.804,60.86,46.804C61.622,46.804,62.065,46.432,62.065,45.741C62.065,45.068,61.675,44.642,60.824,44.642C60.824,44.642,58.183,44.642,58.183,44.642C58.183,44.642,58.183,46.804,58.183,46.804C58.183,46.804,58.183,46.804,58.183,46.804ZM58.183,51.873C58.183,51.873,61.125,51.873,61.125,51.873C62.277,51.873,63.075,51.501,63.075,50.42C63.075,49.339,62.242,48.914,61.232,48.914C61.232,48.914,58.183,48.914,58.183,48.914C58.183,48.914,58.183,51.873,58.183,51.873C58.183,51.873,58.183,51.873,58.183,51.873ZM55.702,54C55.702,54,55.702,42.515,55.702,42.515C55.702,42.515,61.072,42.515,61.072,42.515C62.969,42.515,64.652,43.313,64.652,45.511C64.652,46.379,64.138,47.159,63.518,47.549C64.776,47.868,65.698,48.967,65.698,50.385C65.698,52.883,63.873,54,61.338,54C61.338,54,55.702,54,55.702,54C55.702,54,55.702,54,55.702,54ZM44.024,48.258C44.024,44.979,46.559,42.338,50.103,42.338C51.574,42.338,52.886,42.799,53.896,43.579C53.896,43.579,52.461,45.263,52.461,45.263C51.752,44.749,51.025,44.589,50.281,44.589C48.065,44.589,46.612,46.273,46.612,48.258C46.612,50.26,48.083,51.944,50.121,51.944C51.096,51.944,52.017,51.625,52.691,51.023C52.691,51.023,54.197,52.724,54.197,52.724C53.152,53.646,51.734,54.195,50.103,54.195C46.559,54.195,44.024,51.554,44.024,48.258C44.024,48.258,44.024,48.258,44.024,48.258ZM33.355,51.731C33.355,51.731,35.145,50.349,35.145,50.349C35.907,51.714,36.793,51.926,37.519,51.926C38.813,51.926,39.788,51.147,39.788,49.357C39.788,49.357,39.788,42.515,39.788,42.515C39.788,42.515,42.251,42.515,42.251,42.515C42.251,42.515,42.251,49.215,42.251,49.215C42.251,52.795,40.125,54.177,37.573,54.177C35.765,54.177,34.117,53.362,33.355,51.731C33.355,51.731,33.355,51.731,33.355,51.731Z" /></g><g id="i3"><rect ry="6.5" rx="6.5" height="13" width="68" y="74" x="33" fill="#d9d9d9" /></g><g id="i4"><rect ry="6.5" rx="6.5" height="13" width="100" y="74" x="111" fill="#d9d9d9" /></g><g id="i5"><rect ry="6.5" rx="6.5" height="13" width="60" y="74" x="223" fill="#d9d9d9" /></g><g id="i6"><rect ry="6.5" rx="6.5" height="13" width="38" y="74" x="295" fill="#d9d9d9" /></g><g id="i7"><rect ry="6" rx="6" height="46" width="12" y="152" x="283" fill="#2163a7" /></g><g id="i8"><rect ry="6" rx="6" height="46" width="12" y="152" x="302" fill="#d62932" /></g><g id="i9"><rect ry="6" rx="6" height="46" width="12" y="152" x="321" fill="#298c42" /></g></g></g></g></g></g><g visibility="visible" id="i2"><animate repeatCount="indefinite" begin="0s" calcMode="discrete" dur="2.5s" values="visible; hidden; hidden" keyTimes="0; 0.44; 1" attributeName="visibility" /><g transform="translate(250,250)"><animateTransform repeatCount="indefinite" type="translate" attributeName="transform" dur="2.5s" begin="0s" calcMode="spline" values="250 250; 250 250; 250 119; 250 250; 250 250" keyTimes="0; 0.32; 0.44; 0.513333; 1" keySplines="0 0 1 1; 0 0 1 1; 0 0 1 1; 0 0 1 1" fill="freeze" /><g transform="rotate(0)"><animateTransform repeatCount="indefinite" type="rotate" attributeName="transform" dur="2.5s" begin="0s" calcMode="spline" values="0; 0; 15; 0; 0" keyTimes="0; 0.32; 0.44; 0.513333; 1" keySplines="0 0 1 1; 0 0 1 1; 0 0 1 1; 0 0 1 1" fill="freeze" /><g transform="scale(1,1)"><animateTransform repeatCount="indefinite" type="scale" attributeName="transform" dur="2.5s" begin="0s" calcMode="spline" values="1 1; 0.84 0.84; 1 1; 1 1; 0.69 0.69; 0.69 0.69" keyTimes="0; 0.126667; 0.233333; 0.32; 0.44; 1" keySplines="0 0 1 1; 0 0 1 1; 0 0 1 1; 0 0 1 1; 0 0 1 1" fill="freeze" /><g transform="translate(-183,-115.5)"><g id="i4"><rect ry="31" rx="31" height="231" width="366" y="0" x="0" fill="#ffffff" /></g><g id="i5"><path fill="#000000" d="M174.868,52.937C174.868,52.937,175.701,51.2,175.701,51.2C176.233,51.554,177.155,52.175,178.484,52.175C179.051,52.175,179.99,51.98,179.99,51.306C179.99,50.828,179.193,50.615,178.413,50.438C176.694,50.03,175.311,49.463,175.311,47.708C175.311,45.901,177.155,44.961,178.75,44.961C180.15,44.961,181.001,45.298,182.011,45.812C182.011,45.812,181.178,47.549,181.178,47.549C180.345,47.123,179.636,46.964,178.75,46.964C178.253,46.964,177.686,47.212,177.686,47.673C177.686,48.098,178.289,48.275,178.927,48.4C180.611,48.736,182.365,49.41,182.365,51.271C182.365,53.486,180.079,54.177,178.484,54.177C176.534,54.177,175.223,53.256,174.868,52.937C174.868,52.937,174.868,52.937,174.868,52.937ZM166.128,52.937C166.128,52.937,166.961,51.2,166.961,51.2C167.493,51.554,168.414,52.175,169.744,52.175C170.311,52.175,171.25,51.98,171.25,51.306C171.25,50.828,170.452,50.615,169.673,50.438C167.953,50.03,166.571,49.463,166.571,47.708C166.571,45.901,168.414,44.961,170.009,44.961C171.409,44.961,172.26,45.298,173.27,45.812C173.27,45.812,172.437,47.549,172.437,47.549C171.604,47.123,170.896,46.964,170.009,46.964C169.513,46.964,168.946,47.212,168.946,47.673C168.946,48.098,169.549,48.275,170.187,48.4C171.87,48.736,173.625,49.41,173.625,51.271C173.625,53.486,171.339,54.177,169.744,54.177C167.794,54.177,166.482,53.256,166.128,52.937C166.128,52.937,166.128,52.937,166.128,52.937ZM155.968,49.587C155.968,47.035,157.953,44.961,160.594,44.961C162.969,44.961,164.883,47.017,164.883,49.498C164.883,49.959,164.812,50.385,164.812,50.385C164.812,50.385,158.432,50.385,158.432,50.385C158.751,51.625,159.761,52.086,160.86,52.086C161.675,52.086,162.579,51.891,163.288,51.483C163.288,51.483,164.174,53.273,164.174,53.273C163.129,53.876,161.941,54.177,160.825,54.177C158.272,54.177,155.968,52.618,155.968,49.587C155.968,49.587,155.968,49.587,155.968,49.587ZM158.396,48.665C158.396,48.665,162.561,48.665,162.561,48.665C162.366,47.62,161.48,47.017,160.452,47.017C159.548,47.017,158.698,47.637,158.396,48.665C158.396,48.665,158.396,48.665,158.396,48.665ZM149.679,54C149.679,54,149.679,45.139,149.679,45.139C149.679,45.139,152.054,45.139,152.054,45.139C152.054,45.139,152.054,46.787,152.054,46.787C152.302,46.078,153.17,44.961,155.137,44.961C155.137,44.961,155.137,47.549,155.137,47.549C153.064,47.549,152.054,48.488,152.054,50.597C152.054,50.597,152.054,54,152.054,54C152.054,54,149.679,54,149.679,54C149.679,54,149.679,54,149.679,54ZM141.375,49.569C141.375,50.934,142.226,51.873,143.466,51.873C144.724,51.873,145.593,50.934,145.593,49.569C145.593,48.205,144.724,47.265,143.466,47.265C142.226,47.265,141.375,48.205,141.375,49.569C141.375,49.569,141.375,49.569,141.375,49.569ZM139,56.428C139,56.428,139,45.139,139,45.139C139,45.139,141.375,45.139,141.375,45.139C141.375,45.139,141.375,46.308,141.375,46.308C141.995,45.44,142.934,44.961,143.909,44.961C146.39,44.961,148.003,47.017,148.003,49.569C148.003,52.121,146.39,54.177,143.909,54.177C142.934,54.177,141.995,53.716,141.375,52.848C141.375,52.848,141.375,56.428,141.375,56.428C141.375,56.428,139,56.428,139,56.428C139,56.428,139,56.428,139,56.428ZM128.941,54C128.941,54,131.865,49.481,131.865,49.481C131.865,49.481,128.941,45.139,128.941,45.139C128.941,45.139,131.581,45.139,131.581,45.139C131.581,45.139,132.733,46.946,132.733,46.946C132.982,47.336,133.354,47.992,133.354,47.992C133.354,47.992,133.708,47.354,133.974,46.946C133.974,46.946,135.126,45.139,135.126,45.139C135.126,45.139,137.767,45.139,137.767,45.139C137.767,45.139,134.842,49.481,134.842,49.481C134.842,49.481,137.767,54,137.767,54C137.767,54,135.126,54,135.126,54C135.126,54,134.063,52.316,134.063,52.316C133.726,51.785,133.354,51.023,133.354,51.023C133.354,51.023,133.017,51.731,132.645,52.316C132.645,52.316,131.581,54,131.581,54C131.581,54,128.941,54,128.941,54C128.941,54,128.941,54,128.941,54ZM118.944,54C118.944,54,118.944,42.515,118.944,42.515C118.944,42.515,128.001,42.515,128.001,42.515C128.001,42.515,128.001,44.642,128.001,44.642C128.001,44.642,121.426,44.642,121.426,44.642C121.426,44.642,121.426,46.982,121.426,46.982C121.426,46.982,127.664,46.982,127.664,46.982C127.664,46.982,127.664,49.091,127.664,49.091C127.664,49.091,121.426,49.091,121.426,49.091C121.426,49.091,121.426,51.873,121.426,51.873C121.426,51.873,128.231,51.873,128.231,51.873C128.231,51.873,128.231,54,128.231,54C128.231,54,118.944,54,118.944,54C118.944,54,118.944,54,118.944,54ZM103.554,54C103.554,54,103.554,45.139,103.554,45.139C103.554,45.139,105.929,45.139,105.929,45.139C105.929,45.139,105.929,46.291,105.929,46.291C106.584,45.422,107.541,44.961,108.693,44.961C111.228,44.961,111.848,46.68,111.848,49.126C111.848,49.126,111.848,54,111.848,54C111.848,54,109.456,54,109.456,54C109.456,54,109.456,49.392,109.456,49.392C109.456,48.027,109.296,47.265,107.931,47.265C106.708,47.265,105.929,48.205,105.929,49.569C105.929,49.569,105.929,54,105.929,54C105.929,54,103.554,54,103.554,54C103.554,54,103.554,54,103.554,54ZM94.828,49.569C94.828,50.934,95.696,51.873,96.955,51.873C98.195,51.873,99.046,50.934,99.046,49.569C99.046,48.205,98.195,47.265,96.955,47.265C95.696,47.265,94.828,48.205,94.828,49.569C94.828,49.569,94.828,49.569,94.828,49.569ZM92.293,49.569C92.293,47.017,93.906,44.961,96.387,44.961C97.415,44.961,98.39,45.44,99.046,46.308C99.046,46.308,99.046,45.139,99.046,45.139C99.046,45.139,101.421,45.139,101.421,45.139C101.421,45.139,101.421,54,101.421,54C101.421,54,99.046,54,99.046,54C99.046,54,99.046,52.848,99.046,52.848C98.39,53.716,97.415,54.177,96.387,54.177C93.906,54.177,92.293,52.121,92.293,49.569C92.293,49.569,92.293,49.569,92.293,49.569ZM83.553,49.569C83.553,47.017,85.68,44.961,88.285,44.961C89.49,44.961,90.607,45.369,91.44,46.042C91.44,46.042,89.987,47.762,89.987,47.762C89.597,47.425,89.029,47.265,88.338,47.265C87.009,47.265,85.963,48.222,85.963,49.569C85.963,50.845,86.903,51.873,88.409,51.873C89.118,51.873,89.88,51.661,90.323,51.271C90.323,51.271,91.617,53.096,91.617,53.096C90.749,53.77,89.561,54.177,88.285,54.177C85.68,54.177,83.553,52.139,83.553,49.569C83.553,49.569,83.553,49.569,83.553,49.569ZM79.283,42.852C79.283,42.072,79.921,41.434,80.684,41.434C81.463,41.434,82.101,42.072,82.101,42.852C82.101,43.614,81.463,44.252,80.684,44.252C79.921,44.252,79.283,43.614,79.283,42.852C79.283,42.852,79.283,42.852,79.283,42.852ZM79.496,54C79.496,54,79.496,45.139,79.496,45.139C79.496,45.139,81.871,45.139,81.871,45.139C81.871,45.139,81.871,54,81.871,54C81.871,54,79.496,54,79.496,54C79.496,54,79.496,54,79.496,54ZM72.625,54C72.625,54,72.625,45.139,72.625,45.139C72.625,45.139,75,45.139,75,45.139C75,45.139,75,46.787,75,46.787C75.248,46.078,76.116,44.961,78.084,44.961C78.084,44.961,78.084,47.549,78.084,47.549C76.01,47.549,75,48.488,75,50.597C75,50.597,75,54,75,54C75,54,72.625,54,72.625,54C72.625,54,72.625,54,72.625,54ZM62.022,49.587C62.022,47.035,64.007,44.961,66.648,44.961C69.023,44.961,70.937,47.017,70.937,49.498C70.937,49.959,70.866,50.385,70.866,50.385C70.866,50.385,64.486,50.385,64.486,50.385C64.805,51.625,65.815,52.086,66.914,52.086C67.729,52.086,68.633,51.891,69.342,51.483C69.342,51.483,70.228,53.273,70.228,53.273C69.182,53.876,67.995,54.177,66.878,54.177C64.326,54.177,62.022,52.618,62.022,49.587C62.022,49.587,62.022,49.587,62.022,49.587ZM64.45,48.665C64.45,48.665,68.615,48.665,68.615,48.665C68.42,47.62,67.534,47.017,66.506,47.017C65.602,47.017,64.752,47.637,64.45,48.665C64.45,48.665,64.45,48.665,64.45,48.665ZM46.698,54C46.698,54,46.698,45.139,46.698,45.139C46.698,45.139,49.073,45.139,49.073,45.139C49.073,45.139,49.073,46.361,49.073,46.361C49.481,45.67,50.491,44.961,51.536,44.961C52.919,44.961,53.823,45.546,54.301,46.574C54.868,45.617,56.109,44.961,57.084,44.961C59.53,44.961,60.522,46.468,60.522,49.108C60.522,49.108,60.522,54,60.522,54C60.522,54,58.147,54,58.147,54C58.147,54,58.147,49.392,58.147,49.392C58.147,48.311,58.005,47.265,56.534,47.265C55.311,47.265,54.797,48.258,54.797,49.233C54.797,49.233,54.797,54,54.797,54C54.797,54,52.423,54,52.423,54C52.423,54,52.423,49.392,52.423,49.392C52.423,48.311,52.281,47.265,50.81,47.265C49.534,47.265,49.073,48.346,49.073,49.374C49.073,49.374,49.073,54,49.073,54C49.073,54,46.698,54,46.698,54C46.698,54,46.698,54,46.698,54ZM37.254,50.225C37.254,50.225,41.383,50.225,41.383,50.225C41.383,50.225,40.461,48.116,40.461,48.116C39.947,46.929,39.309,45.139,39.309,45.139C39.309,45.139,38.707,46.911,38.175,48.116C38.175,48.116,37.254,50.225,37.254,50.225C37.254,50.225,37.254,50.225,37.254,50.225ZM33.089,54C33.089,54,38.087,42.515,38.087,42.515C38.087,42.515,40.55,42.515,40.55,42.515C40.55,42.515,45.548,54,45.548,54C45.548,54,43.014,54,43.014,54C43.014,54,42.216,52.175,42.216,52.175C42.216,52.175,36.403,52.175,36.403,52.175C36.403,52.175,35.623,54,35.623,54C35.623,54,33.089,54,33.089,54C33.089,54,33.089,54,33.089,54Z" /></g><g id="i6"><rect ry="6.5" rx="6.5" height="13" width="68" y="74" x="33" fill="#d9d9d9" /></g><g id="i7"><rect ry="6.5" rx="6.5" height="13" width="98" y="74" x="114" fill="#d9d9d9" /></g><g id="i8"><rect ry="6.5" rx="6.5" height="13" width="108" y="74" x="225" fill="#d9d9d9" /></g><g id="i9"><rect height="53" width="53" y="145" x="280" fill="#0b78c3" /></g></g></g></g></g></g><g visibility="visible" id="i2"><animate repeatCount="indefinite" begin="0s" calcMode="discrete" dur="2.5s" values="visible; hidden; hidden" keyTimes="0; 0.13; 1" attributeName="visibility" /><g transform="translate(250,250)"><animateTransform repeatCount="indefinite" type="translate" attributeName="transform" dur="2.5s" begin="0s" calcMode="spline" values="250 250; 250 116; 250 250; 250 250" keyTimes="0; 0.126667; 0.233333; 1" keySplines="0 0 1 1; 0 0 1 1; 0 0 1 1" fill="freeze" /><g transform="rotate(0)"><animateTransform repeatCount="indefinite" type="rotate" attributeName="transform" dur="2.5s" begin="0s" calcMode="spline" values="0; 15; 0; 0" keyTimes="0; 0.126667; 0.233333; 1" keySplines="0 0 1 1; 0 0 1 1; 0 0 1 1" fill="freeze" /><g transform="scale(1,1)"><animateTransform repeatCount="indefinite" type="scale" attributeName="transform" dur="2.5s" begin="0s" calcMode="spline" values="1 1; 0.71 0.71; 0.71 0.71" keyTimes="0; 0.126667; 1" keySplines="0 0 1 1; 0 0 1 1" fill="freeze" /><g transform="translate(-183,-115.5)"><g id="i3"><rect ry="31" rx="31" height="231" width="366" y="0" x="0" fill="#ffffff" /></g><g id="i4"><path fill="#000000" d="M120.008,49.569C120.008,50.934,120.876,51.873,122.134,51.873C123.375,51.873,124.226,50.934,124.226,49.569C124.226,48.205,123.375,47.265,122.134,47.265C120.876,47.265,120.008,48.205,120.008,49.569C120.008,49.569,120.008,49.569,120.008,49.569ZM117.597,49.569C117.597,47.017,119.21,44.961,121.691,44.961C122.666,44.961,123.605,45.44,124.226,46.308C124.226,46.308,124.226,42.338,124.226,42.338C124.226,42.338,126.601,42.338,126.601,42.338C126.601,42.338,126.601,54,126.601,54C126.601,54,124.226,54,124.226,54C124.226,54,124.226,52.848,124.226,52.848C123.605,53.716,122.666,54.177,121.691,54.177C119.21,54.177,117.597,52.121,117.597,49.569C117.597,49.569,117.597,49.569,117.597,49.569ZM111.308,54C111.308,54,111.308,45.139,111.308,45.139C111.308,45.139,113.683,45.139,113.683,45.139C113.683,45.139,113.683,46.787,113.683,46.787C113.931,46.078,114.799,44.961,116.766,44.961C116.766,44.961,116.766,47.549,116.766,47.549C114.693,47.549,113.683,48.488,113.683,50.597C113.683,50.597,113.683,54,113.683,54C113.683,54,111.308,54,111.308,54C111.308,54,111.308,54,111.308,54ZM102.582,49.569C102.582,50.934,103.45,51.873,104.708,51.873C105.949,51.873,106.8,50.934,106.8,49.569C106.8,48.205,105.949,47.265,104.708,47.265C103.45,47.265,102.582,48.205,102.582,49.569C102.582,49.569,102.582,49.569,102.582,49.569ZM100.047,49.569C100.047,47.017,101.66,44.961,104.141,44.961C105.169,44.961,106.144,45.44,106.8,46.308C106.8,46.308,106.8,45.139,106.8,45.139C106.8,45.139,109.175,45.139,109.175,45.139C109.175,45.139,109.175,54,109.175,54C109.175,54,106.8,54,106.8,54C106.8,54,106.8,52.848,106.8,52.848C106.144,53.716,105.169,54.177,104.141,54.177C101.66,54.177,100.047,52.121,100.047,49.569C100.047,49.569,100.047,49.569,100.047,49.569ZM91.307,49.569C91.307,47.017,93.434,44.961,96.039,44.961C97.244,44.961,98.361,45.369,99.194,46.042C99.194,46.042,97.74,47.762,97.74,47.762C97.35,47.425,96.783,47.265,96.092,47.265C94.763,47.265,93.717,48.222,93.717,49.569C93.717,50.845,94.657,51.873,96.163,51.873C96.872,51.873,97.634,51.661,98.077,51.271C98.077,51.271,99.371,53.096,99.371,53.096C98.502,53.77,97.315,54.177,96.039,54.177C93.434,54.177,91.307,52.139,91.307,49.569C91.307,49.569,91.307,49.569,91.307,49.569ZM85.017,54C85.017,54,85.017,45.139,85.017,45.139C85.017,45.139,87.392,45.139,87.392,45.139C87.392,45.139,87.392,46.787,87.392,46.787C87.64,46.078,88.509,44.961,90.476,44.961C90.476,44.961,90.476,47.549,90.476,47.549C88.402,47.549,87.392,48.488,87.392,50.597C87.392,50.597,87.392,54,87.392,54C87.392,54,85.017,54,85.017,54C85.017,54,85.017,54,85.017,54ZM74.415,49.587C74.415,47.035,76.4,44.961,79.04,44.961C81.415,44.961,83.329,47.017,83.329,49.498C83.329,49.959,83.258,50.385,83.258,50.385C83.258,50.385,76.878,50.385,76.878,50.385C77.197,51.625,78.207,52.086,79.306,52.086C80.121,52.086,81.025,51.891,81.734,51.483C81.734,51.483,82.62,53.273,82.62,53.273C81.575,53.876,80.387,54.177,79.271,54.177C76.719,54.177,74.415,52.618,74.415,49.587C74.415,49.587,74.415,49.587,74.415,49.587ZM76.843,48.665C76.843,48.665,81.008,48.665,81.008,48.665C80.813,47.62,79.926,47.017,78.899,47.017C77.995,47.017,77.144,47.637,76.843,48.665C76.843,48.665,76.843,48.665,76.843,48.665ZM68.568,51.129C68.568,51.129,68.568,47.053,68.568,47.053C68.568,47.053,67.256,47.053,67.256,47.053C67.256,47.053,67.256,45.139,67.256,45.139C67.256,45.139,68.55,45.139,68.55,45.139C68.55,45.139,68.55,43.526,68.55,43.526C68.55,43.526,70.925,42.994,70.925,42.994C70.925,42.994,70.925,45.139,70.925,45.139C70.925,45.139,73.371,45.139,73.371,45.139C73.371,45.139,73.371,47.053,73.371,47.053C73.371,47.053,70.943,47.053,70.943,47.053C70.943,47.053,70.943,51.2,70.943,51.2C70.943,51.873,71.279,52.121,71.687,52.121C72.307,52.121,72.857,51.731,72.857,51.731C72.857,51.731,73.53,53.522,73.53,53.522C73.087,53.805,72.343,54.177,71.35,54.177C69.347,54.177,68.568,53.078,68.568,51.129C68.568,51.129,68.568,51.129,68.568,51.129ZM58.959,52.937C58.959,52.937,59.792,51.2,59.792,51.2C60.323,51.554,61.245,52.175,62.574,52.175C63.141,52.175,64.081,51.98,64.081,51.306C64.081,50.828,63.283,50.615,62.503,50.438C60.784,50.03,59.402,49.463,59.402,47.708C59.402,45.901,61.245,44.961,62.84,44.961C64.24,44.961,65.091,45.298,66.101,45.812C66.101,45.812,65.268,47.549,65.268,47.549C64.435,47.123,63.726,46.964,62.84,46.964C62.344,46.964,61.777,47.212,61.777,47.673C61.777,48.098,62.379,48.275,63.017,48.4C64.701,48.736,66.456,49.41,66.456,51.271C66.456,53.486,64.169,54.177,62.574,54.177C60.625,54.177,59.313,53.256,58.959,52.937C58.959,52.937,58.959,52.937,58.959,52.937ZM50.676,49.569C50.676,50.934,51.544,51.873,52.803,51.873C54.043,51.873,54.894,50.934,54.894,49.569C54.894,48.205,54.043,47.265,52.803,47.265C51.544,47.265,50.676,48.205,50.676,49.569C50.676,49.569,50.676,49.569,50.676,49.569ZM48.142,49.569C48.142,47.017,49.754,44.961,52.236,44.961C53.263,44.961,54.238,45.44,54.894,46.308C54.894,46.308,54.894,45.139,54.894,45.139C54.894,45.139,57.269,45.139,57.269,45.139C57.269,45.139,57.269,54,57.269,54C57.269,54,54.894,54,54.894,54C54.894,54,54.894,52.848,54.894,52.848C54.238,53.716,53.263,54.177,52.236,54.177C49.754,54.177,48.142,52.121,48.142,49.569C48.142,49.569,48.142,49.569,48.142,49.569ZM34.241,54C34.241,54,34.241,42.515,34.241,42.515C34.241,42.515,36.385,42.515,36.385,42.515C36.385,42.515,38.14,44.944,38.14,44.944C38.937,46.06,40.267,48.01,40.267,48.01C40.267,48.01,41.596,46.078,42.376,44.961C42.376,44.961,44.13,42.515,44.13,42.515C44.13,42.515,46.275,42.515,46.275,42.515C46.275,42.515,46.275,54,46.275,54C46.275,54,43.793,54,43.793,54C43.793,54,43.793,46.769,43.793,46.769C43.793,46.769,43.51,47.336,42.695,48.524C42.695,48.524,40.267,52.086,40.267,52.086C40.267,52.086,37.803,48.488,37.803,48.488C37.023,47.354,36.722,46.787,36.722,46.787C36.722,46.787,36.722,54,36.722,54C36.722,54,34.241,54,34.241,54C34.241,54,34.241,54,34.241,54Z" /></g><g id="i5"><rect ry="6.5" rx="6.5" height="13" width="114" y="74" x="33" fill="#d9d9d9" /></g><g id="i6"><rect ry="6.5" rx="6.5" height="13" width="98" y="74" x="162" fill="#d9d9d9" /></g><g id="i7"><rect ry="6.5" rx="6.5" height="13" width="64" y="74" x="269" fill="#d9d9d9" /></g><g id="i8"><ellipse ry="23.5" rx="23.5" cy="174.5" cx="274.5" fill="#ff4239" /></g><g id="i9" transform="matrix(1,0,0,1,0,0)"><ellipse ry="23.5" rx="23.5" cy="174.5" cx="309.5" fill="#ffb045" /></g></g></g></g></g></g></svg>