<svg fill="none" height="100%" width="100%" viewBox="0 0 500 500" xmlns:xlink="http://www.w3.org/1999/xlink" xmlns="http://www.w3.org/2000/svg"><g transform="matrix(1,0,0,1,0,0)" id="i0"><g id="i1" transform="matrix(1,0,0,1,0,0)"><rect ry="100.605" rx="100.605" height="201.21" width="432" y="149" x="34" fill="#8746ff"><animate repeatCount="indefinite" attributeName="fill" dur="5s" begin="0s" fill="freeze" values="#8746ff; #8746ff; #63c2ff; #63c2ff; #8746ff; #8746ff" keyTimes="0; 0.286667; 0.333334; 0.766666; 0.813333; 1" keySplines="0 0 1 1; 0 0 1 1; 0 0 1 1; 0 0 1 1; 0 0 1 1" calcMode="spline" /></rect></g><g id="i2" transform="matrix(1,0,0,1,0,0)"><path fill="#4e3a82" d="M465.331,261.803C459.55,311.871,417.012,350.743,365.395,350.743C365.395,350.743,134.605,350.743,134.605,350.743C105.244,350.743,78.821,338.166,60.429,318.105C91.784,317.083,134.641,312.861,168,303C179.002,299.748,190.434,296.104,202.316,292.316C272.854,269.831,359.232,242.297,465.331,261.803C465.331,261.803,465.331,261.803,465.331,261.803Z"><animate repeatCount="indefinite" attributeName="fill" dur="5s" begin="0s" fill="freeze" values="#4e3a82; #4e3a82; #31944a; #31944a; #4e3a82; #4e3a82" keyTimes="0; 0.286667; 0.333334; 0.766666; 0.813333; 1" keySplines="0 0 1 1; 0 0 1 1; 0 0 1 1; 0 0 1 1; 0 0 1 1" calcMode="spline" /></path></g><g><g transform="translate(390,215)"><animateTransform repeatCount="indefinite" type="translate" attributeName="transform" dur="5s" begin="0s" calcMode="spline" values="390 215; 390 215; 280 215; 280 215; 390 215; 390 215" keyTimes="0; 0.093333; 0.286667; 0.573333; 0.766667; 1" keySplines="0 0 1 1; 0 0 1 1; 0 0 1 1; 0 0 1 1; 0 0 1 1" fill="freeze" /><g id="i3" transform="translate(-389.986,-215.5)"><path fill="#ba9bfc" d="M363.393,245C363.393,245,413.623,245,413.623,245C419.109,245,424.37,242.821,428.248,238.942C432.127,235.063,434.306,229.802,434.306,224.317C434.306,218.832,432.127,213.571,428.248,209.692C424.37,205.813,419.109,203.634,413.623,203.634C413.366,203.634,413.115,203.664,412.858,203.672C411.409,198.118,407.989,193.281,403.236,190.063C398.482,186.845,392.72,185.467,387.025,186.186C381.33,186.905,376.091,189.672,372.287,193.97C368.482,198.268,366.371,203.803,366.348,209.543C366.348,209.543,363.393,209.543,363.393,209.543C358.691,209.543,354.182,211.411,350.858,214.736C347.533,218.061,345.665,222.57,345.665,227.272C345.665,231.974,347.533,236.483,350.858,239.808C354.182,243.132,358.691,245,363.393,245C363.393,245,363.393,245,363.393,245Z"><animate repeatCount="indefinite" attributeName="fill" dur="5s" begin="0s" fill="freeze" values="#ba9bfc; #ba9bfc; #ffffff; #ffffff; #ba9bfc; #ba9bfc" keyTimes="0; 0.286667; 0.333334; 0.766666; 0.813333; 1" keySplines="0 0 1 1; 0 0 1 1; 0 0 1 1; 0 0 1 1; 0 0 1 1" calcMode="spline" /></path></g></g></g><g><g transform="translate(272,286)"><animateTransform repeatCount="indefinite" type="translate" attributeName="transform" dur="5s" begin="0s" calcMode="spline" values="272 286; 272 286; 181 286; 181 286; 272 286; 272 286" keyTimes="0; 0.093333; 0.286667; 0.573333; 0.766667; 1" keySplines="0 0 1 1; 0 0 1 1; 0 0 1 1; 0 0 1 1; 0 0 1 1" fill="freeze" /><g id="i4" transform="translate(-272.5,-285.987)"><path fill="#cfbef6" d="M319.08,285.987C317.455,286.011,315.84,286.258,314.282,286.721C315.056,284.828,315.497,282.763,315.497,280.589C315.497,276.294,313.797,272.175,310.773,269.138C307.748,266.101,303.646,264.395,299.369,264.395C295.868,264.405,292.467,265.569,289.689,267.709C288.43,262.653,285.524,258.164,281.434,254.956C277.344,251.747,272.304,250.003,267.114,250C262.284,250.002,257.575,251.513,253.638,254.322C249.701,257.131,246.731,261.1,245.141,265.679C241.198,264.456,237.04,264.1,232.948,264.638C228.857,265.177,224.929,266.595,221.434,268.797C217.939,270.999,214.958,273.933,212.695,277.398C210.432,280.862,208.941,284.777,208.323,288.874C207.705,292.97,207.975,297.153,209.115,301.135C210.254,305.117,212.237,308.805,214.926,311.948C217.615,315.09,220.948,317.613,224.698,319.343C228.447,321.074,232.524,321.971,236.65,321.974C236.65,321.974,319.08,321.974,319.08,321.974C323.833,321.974,328.391,320.078,331.751,316.704C335.112,313.329,337,308.753,337,303.981C337,299.208,335.112,294.632,331.751,291.257C328.391,287.883,323.833,285.987,319.08,285.987C319.08,285.987,319.08,285.987,319.08,285.987Z"><animate repeatCount="indefinite" attributeName="fill" dur="5s" begin="0s" fill="freeze" values="#cfbef6; #cfbef6; #ffffff; #ffffff; #cfbef6; #cfbef6" keyTimes="0; 0.286667; 0.333334; 0.766666; 0.813333; 1" keySplines="0 0 1 1; 0 0 1 1; 0 0 1 1; 0 0 1 1; 0 0 1 1" calcMode="spline" /></path></g></g></g><g><g transform="translate(221,202)"><animateTransform repeatCount="indefinite" type="translate" attributeName="transform" dur="5s" begin="0s" calcMode="spline" values="221 202; 221 202; 116 202; 116 202; 221 202; 221 202" keyTimes="0; 0.093333; 0.333334; 0.573333; 0.766667; 1" keySplines="0 0 1 1; 0 0 1 1; 0 0 1 1; 0 0 1 1; 0 0 1 1" fill="freeze" /><g id="i5" transform="translate(-221,-201.623)"><path fill="#9c73f8" d="M199.4,225.623C199.4,225.623,240.2,225.623,240.2,225.623C244.656,225.623,248.929,223.85,252.079,220.694C255.23,217.538,257,213.258,257,208.796C257,204.333,255.23,200.053,252.079,196.897C248.929,193.742,244.656,191.969,240.2,191.969C239.991,191.969,239.787,191.993,239.578,192C238.402,187.481,235.624,183.546,231.762,180.928C227.901,178.31,223.221,177.189,218.595,177.774C213.969,178.359,209.714,180.61,206.624,184.106C203.533,187.603,201.819,192.107,201.8,196.777C201.8,196.777,199.4,196.777,199.4,196.777C195.581,196.777,191.918,198.296,189.218,201.001C186.517,203.706,185,207.374,185,211.2C185,215.025,186.517,218.693,189.218,221.398C191.918,224.103,195.581,225.623,199.4,225.623C199.4,225.623,199.4,225.623,199.4,225.623Z"><animate repeatCount="indefinite" attributeName="fill" dur="5s" begin="0s" fill="freeze" values="#9c73f8; #9c73f8; #ffffff; #ffffff; #9c73f8; #9c73f8" keyTimes="0; 0.286667; 0.333334; 0.766666; 0.813333; 1" keySplines="0 0 1 1; 0 0 1 1; 0 0 1 1; 0 0 1 1; 0 0 1 1" calcMode="spline" /></path></g></g></g><g><animate repeatCount="indefinite" attributeName="opacity" dur="5s" begin="0s" fill="freeze" values="1; 1; 0; 0; 1; 1" keyTimes="0; 0.286667; 0.333334; 0.766666; 0.813333; 1" keySplines="0 0 1 1; 0 0 1 1; 0 0 1 1; 0 0 1 1; 0 0 1 1" calcMode="spline" /><g transform="translate(306,208)"><animateTransform repeatCount="indefinite" type="translate" attributeName="transform" dur="5s" begin="0s" calcMode="spline" values="306 208; 306 208; 340 208; 340 208; 306 208; 306 208" keyTimes="0; 0.093333; 0.333333; 0.766667; 0.813333; 1" keySplines="0 0 1 1; 0 0 1 1; 0 0 1 1; 0 0 1 1; 0 0 1 1" fill="freeze" /><g transform="rotate(0)"><animateTransform repeatCount="indefinite" type="rotate" attributeName="transform" dur="5s" begin="0s" calcMode="spline" values="0; 0; -15; 45; 0; 0" keyTimes="0; 0.013333; 0.08; 0.193333; 0.68; 1" keySplines="0 0 1 1; 0 0 1 1; 0 0 1 1; 0 0 1 1; 0 0 1 1" fill="freeze" /><g transform="scale(1,1)"><animateTransform repeatCount="indefinite" type="scale" attributeName="transform" dur="5s" begin="0s" calcMode="spline" values="1 1; 1.36 1.36; 0.69 0.69; 1 1; 1 1" keyTimes="0; 0.12; 0.18; 0.68; 1" keySplines="0 0 1 1; 0 0 1 1; 0 0 1 1; 0 0 1 1" fill="freeze" /><g id="i6" transform="translate(-306.365,-207.782)"><path fill="#fede7e" d="M312.063,191.804C312.063,191.804,310.831,204.01,310.831,204.01C310.831,204.01,322.059,208.954,322.059,208.954C322.059,208.954,310.069,211.554,310.069,211.554C310.069,211.554,308.837,223.76,308.837,223.76C308.837,223.76,302.659,213.161,302.659,213.161C302.659,213.161,290.67,215.761,290.67,215.761C290.67,215.761,298.841,206.611,298.841,206.611C298.841,206.611,292.663,196.012,292.663,196.012C292.663,196.012,303.891,200.955,303.891,200.955C303.891,200.955,312.063,191.804,312.063,191.804C312.063,191.804,312.063,191.804,312.063,191.804Z" /></g></g></g></g></g><g><animate repeatCount="indefinite" attributeName="opacity" dur="5s" begin="0s" fill="freeze" values="1; 1; 0; 0; 1; 1" keyTimes="0; 0.286667; 0.333334; 0.766666; 0.813333; 1" keySplines="0 0 1 1; 0 0 1 1; 0 0 1 1; 0 0 1 1; 0 0 1 1" calcMode="spline" /><g transform="translate(372,277)"><animateTransform repeatCount="indefinite" type="translate" attributeName="transform" dur="5s" begin="0s" calcMode="spline" values="372 277; 372 277; 315 277; 315 277; 372 277; 372 277" keyTimes="0; 0.093333; 0.333333; 0.766667; 0.813333; 1" keySplines="0 0 1 1; 0 0 1 1; 0 0 1 1; 0 0 1 1; 0 0 1 1" fill="freeze" /><g transform="rotate(0)"><animateTransform repeatCount="indefinite" type="rotate" attributeName="transform" dur="5s" begin="0s" calcMode="spline" values="0; 0; 45; 10; 0; 0" keyTimes="0; 0.026667; 0.08; 0.153334; 0.68; 1" keySplines="0 0 1 1; 0 0 1 1; 0 0 1 1; 0 0 1 1; 0 0 1 1" fill="freeze" /><g transform="scale(1,1)"><animateTransform repeatCount="indefinite" type="scale" attributeName="transform" dur="5s" begin="0s" calcMode="spline" values="1 1; 1 1; 1.35 1.35; 0.9 0.9; 1 1; 1 1" keyTimes="0; 0.026667; 0.12; 0.193333; 0.68; 1" keySplines="0 0 1 1; 0 0 1 1; 0 0 1 1; 0 0 1 1; 0 0 1 1" fill="freeze" /><g id="i7" transform="translate(-371.855,-276.505)"><path fill="#fede7e" d="M372.752,263.515C372.752,263.515,374.985,273.438,374.985,273.438C374.985,273.438,385.113,274.38,385.113,274.38C385.113,274.38,376.365,279.571,376.365,279.571C376.365,279.571,378.599,289.494,378.599,289.494C378.599,289.494,370.959,282.779,370.959,282.779C370.959,282.779,362.211,287.97,362.211,287.97C362.211,287.97,366.237,278.629,366.237,278.629C366.237,278.629,358.598,271.913,358.598,271.913C358.598,271.913,368.726,272.856,368.726,272.856C368.726,272.856,372.752,263.515,372.752,263.515C372.752,263.515,372.752,263.515,372.752,263.515Z" /></g></g></g></g></g><g><animate repeatCount="indefinite" attributeName="opacity" dur="5s" begin="0s" fill="freeze" values="1; 1; 0; 0; 1; 1" keyTimes="0; 0.286667; 0.333334; 0.766666; 0.813333; 1" keySplines="0 0 1 1; 0 0 1 1; 0 0 1 1; 0 0 1 1; 0 0 1 1" calcMode="spline" /><g transform="translate(257,238)"><animateTransform repeatCount="indefinite" type="translate" attributeName="transform" dur="5s" begin="0s" calcMode="spline" values="257 238; 257 238; 296 238; 311 238; 311 238; 257 238; 257 238" keyTimes="0; 0.093333; 0.286667; 0.333333; 0.766667; 0.813333; 1" keySplines="0 0 1 1; 0 0 1 1; 0 0 1 1; 0 0 1 1; 0 0 1 1; 0 0 1 1" fill="freeze" /><g transform="rotate(0)"><animateTransform repeatCount="indefinite" type="rotate" attributeName="transform" dur="5s" begin="0s" calcMode="spline" values="0; 0; 45; 15; 0; 0" keyTimes="0; 0.04; 0.086667; 0.16; 0.68; 1" keySplines="0 0 1 1; 0 0 1 1; 0 0 1 1; 0 0 1 1; 0 0 1 1" fill="freeze" /><g transform="scale(1,1)"><animateTransform repeatCount="indefinite" type="scale" attributeName="transform" dur="5s" begin="0s" calcMode="spline" values="1 1; 1 1; 1.4 1.4; 0.76 0.76; 1 1; 1 1" keyTimes="0; 0.046667; 0.173333; 0.26; 0.68; 1" keySplines="0 0 1 1; 0 0 1 1; 0 0 1 1; 0 0 1 1; 0 0 1 1" fill="freeze" /><g id="i8" transform="translate(-256.951,-237.788)"><path fill="#fede7e" d="M253.882,229.601C253.882,229.601,258.14,234.239,258.14,234.239C258.14,234.239,263.866,231.622,263.866,231.622C263.866,231.622,260.771,237.105,260.771,237.105C260.771,237.105,265.029,241.743,265.029,241.743C265.029,241.743,258.859,240.494,258.859,240.494C258.859,240.494,255.764,245.976,255.764,245.976C255.764,245.976,255.045,239.722,255.045,239.722C255.045,239.722,248.874,238.473,248.874,238.473C248.874,238.473,254.601,235.856,254.601,235.856C254.601,235.856,253.882,229.601,253.882,229.601C253.882,229.601,253.882,229.601,253.882,229.601Z" /></g></g></g></g></g><g><g transform="translate(134,250)"><animateTransform repeatCount="indefinite" type="translate" attributeName="transform" dur="5s" begin="0s" calcMode="spline" values="134 250; 155 250; 117 250; 386 250; 348 250; 366 250; 366 250; 348 250; 386 250; 117 250; 155 250; 134 250; 134 250" keyTimes="0; 0.046667; 0.093333; 0.24; 0.286667; 0.333333; 0.48; 0.526667; 0.573333; 0.72; 0.766667; 0.813333; 1" keySplines="0.55 0.06 0.36 1; 0.22 0.61 0.68 0.19; 0.55 0.06 0.68 0.19; 0.55 0.06 0.36 1; 0.22 0.61 0.36 1; 0.65 0 1 1; 0 0 0.68 0.19; 0.55 0.06 0.36 1; 0.22 0.61 0.36 1; 0.22 0.61 0.68 0.19; 0.55 0.06 0.36 1; 0 0 1 1" fill="freeze" /><g id="i9" transform="translate(-133.732,-249.899)"><ellipse ry="74.732" rx="74.732" cy="249.899" cx="133.732" fill="#f3f6f8"><animate repeatCount="indefinite" attributeName="fill" dur="5s" begin="0s" fill="freeze" values="#f3f6f8; #f3f6f8; #ffc928; #ffc928; #f3f6f8; #f3f6f8" keyTimes="0; 0.286667; 0.333334; 0.766666; 0.813333; 1" keySplines="0 0 1 1; 0 0 1 1; 0 0 1 1; 0 0 1 1; 0 0 1 1" calcMode="spline" /></ellipse></g></g></g><g><g transform="translate(84,254)"><animateTransform repeatCount="indefinite" type="translate" attributeName="transform" dur="5s" begin="0s" calcMode="spline" values="84 254; 130 254; 51 254; 362 254; 282 254; 317 254; 317 254; 282 254; 362 254; 51 254; 130 254; 84 254; 84 254" keyTimes="0; 0.046667; 0.093333; 0.24; 0.286667; 0.333333; 0.48; 0.526667; 0.573333; 0.72; 0.766667; 0.813333; 1" keySplines="0.55 0.06 0.36 1; 0.22 0.61 0.68 0.19; 0.55 0.06 0.68 0.19; 0.55 0.06 0.36 1; 0.22 0.61 0.36 1; 0.65 0 1 1; 0 0 0.68 0.19; 0.55 0.06 0.36 1; 0.22 0.61 0.36 1; 0.22 0.61 0.68 0.19; 0.55 0.06 0.36 1; 0 0 1 1" fill="freeze" /><g id="i10" transform="translate(-83.5,-253.5)"><path fill="#d9e0e6" d="M98,253.5C98,261.508,91.508,268,83.5,268C75.492,268,69,261.508,69,253.5C69,245.492,75.492,239,83.5,239C91.508,239,98,245.492,98,253.5C98,253.5,98,253.5,98,253.5Z"><animate repeatCount="indefinite" attributeName="fill" dur="5s" begin="0s" fill="freeze" values="#d9e0e6; #d9e0e6; #ff2c2c; #ff2c2c; #d9e0e6; #d9e0e6" keyTimes="0; 0.286667; 0.333334; 0.766666; 0.813333; 1" keySplines="0 0 1 1; 0 0 1 1; 0 0 1 1; 0 0 1 1; 0 0 1 1" calcMode="spline" /></path></g></g></g><g><g transform="translate(182,254)"><animateTransform repeatCount="indefinite" type="translate" attributeName="transform" dur="5s" begin="0s" calcMode="spline" values="182 254; 221 254; 135 254; 449 254; 366 254; 414 254; 414 254; 366 254; 449 254; 135 254; 221 254; 182 254; 182 254" keyTimes="0; 0.046667; 0.093333; 0.24; 0.286667; 0.333333; 0.48; 0.526667; 0.573333; 0.72; 0.766667; 0.813333; 1" keySplines="0.55 0.06 0.36 1; 0.22 0.61 0.68 0.19; 0.55 0.06 0.68 0.19; 0.55 0.06 0.36 1; 0.22 0.61 0.36 1; 0.65 0 1 1; 0 0 0.68 0.19; 0.55 0.06 0.36 1; 0.22 0.61 0.36 1; 0.22 0.61 0.68 0.19; 0.55 0.06 0.36 1; 0 0 1 1" fill="freeze" /><g id="i11" transform="translate(-181.5,-253.5)"><path fill="#d9e0e6" d="M196,253.5C196,261.508,189.508,268,181.5,268C173.492,268,167,261.508,167,253.5C167,245.492,173.492,239,181.5,239C189.508,239,196,245.492,196,253.5C196,253.5,196,253.5,196,253.5Z"><animate repeatCount="indefinite" attributeName="fill" dur="5s" begin="0s" fill="freeze" values="#d9e0e6; #d9e0e6; #fe2c2d; #fe2c2d; #d9e0e6; #d9e0e6" keyTimes="0; 0.286667; 0.333334; 0.766666; 0.813333; 1" keySplines="0 0 1 1; 0 0 1 1; 0 0 1 1; 0 0 1 1; 0 0 1 1" calcMode="spline" /></path></g></g></g><g><animate repeatCount="indefinite" attributeName="opacity" dur="5s" begin="0s" fill="freeze" values="1; 1; 0; 0; 1; 1" keyTimes="0; 0.286667; 0.333334; 0.766666; 0.813333; 1" keySplines="0 0 1 1; 0 0 1 1; 0 0 1 1; 0 0 1 1; 0 0 1 1" calcMode="spline" /><g transform="translate(163,304)"><animateTransform repeatCount="indefinite" type="translate" attributeName="transform" dur="5s" begin="0s" calcMode="spline" values="163 304; 182 304; 145 304; 416 304; 373 304; 394 304; 394 304; 373 304; 416 304; 145 304; 182 304; 163 304; 163 304" keyTimes="0; 0.046667; 0.093333; 0.24; 0.286667; 0.333333; 0.48; 0.526667; 0.573333; 0.72; 0.766667; 0.813333; 1" keySplines="0.55 0.06 0.36 1; 0.22 0.61 0.68 0.19; 0.55 0.06 0.68 0.19; 0.55 0.06 0.36 1; 0.22 0.61 0.36 1; 0.65 0 1 1; 0 0 0.68 0.19; 0.55 0.06 0.36 1; 0 0 0.36 1; 0.22 0.61 0.68 0.19; 0.55 0.06 0.36 1; 0 0 1 1" fill="freeze" /><g id="i12" transform="translate(-162.567,-303.53)"><path fill="#d9e0e6" d="M178.281,297.043C180.178,301.638,174.68,308.267,166.001,311.849C157.323,315.432,148.75,314.611,146.854,310.017C144.957,305.423,150.455,298.794,159.133,295.211C167.811,291.629,176.384,292.449,178.281,297.043C178.281,297.043,178.281,297.043,178.281,297.043Z" /></g></g></g><g><animate repeatCount="indefinite" attributeName="opacity" dur="5s" begin="0s" fill="freeze" values="1; 1; 0; 0; 1; 1" keyTimes="0; 0.286667; 0.333334; 0.766666; 0.813333; 1" keySplines="0 0 1 1; 0 0 1 1; 0 0 1 1; 0 0 1 1; 0 0 1 1" calcMode="spline" /><g transform="translate(139,300)"><animateTransform repeatCount="indefinite" type="translate" attributeName="transform" dur="5s" begin="0s" calcMode="spline" values="139 300; 153 300; 115 300; 386 300; 350 300; 367 300; 367 300; 350 300; 386 300; 115 300; 153 300; 139 300; 139 300" keyTimes="0; 0.046667; 0.093333; 0.24; 0.286667; 0.333333; 0.48; 0.526667; 0.573333; 0.72; 0.766667; 0.813333; 1" keySplines="0.55 0.06 0.36 1; 0.22 0.61 0.68 0.19; 0.55 0.06 0.68 0.19; 0.55 0.06 0.36 1; 0.22 0.61 0.36 1; 0.65 0 1 1; 0 0 0.68 0.19; 0.55 0.06 0.36 1; 0 0 0.36 1; 0.22 0.61 0.68 0.19; 0.55 0.06 0.36 1; 0 0 1 1" fill="freeze" /><g id="i13" transform="translate(-138.596,-300.193)"><path fill="#d9e0e6" d="M147.293,296.604C148.342,299.146,145.3,302.815,140.497,304.797C135.694,306.78,130.95,306.326,129.9,303.783C128.851,301.241,131.893,297.572,136.696,295.59C141.499,293.607,146.243,294.061,147.293,296.604C147.293,296.604,147.293,296.604,147.293,296.604Z" /></g></g></g><g><animate repeatCount="indefinite" attributeName="opacity" dur="5s" begin="0s" fill="freeze" values="1; 1; 0; 0; 1; 1" keyTimes="0; 0.286667; 0.333334; 0.766666; 0.813333; 1" keySplines="0 0 1 1; 0 0 1 1; 0 0 1 1; 0 0 1 1; 0 0 1 1" calcMode="spline" /><g transform="translate(192,280)"><animateTransform repeatCount="indefinite" type="translate" attributeName="transform" dur="5s" begin="0s" calcMode="spline" values="192 280; 212 280; 172 280; 447 280; 406 280; 423 280; 423 280; 406 280; 447 280; 172 280; 212 280; 192 280; 192 280" keyTimes="0; 0.046667; 0.093333; 0.24; 0.286667; 0.333333; 0.48; 0.526667; 0.573333; 0.72; 0.766667; 0.813333; 1" keySplines="0.55 0.06 0.36 1; 0.22 0.61 0.68 0.19; 0.55 0.06 0.68 0.19; 0.55 0.06 0.36 1; 0.22 0.61 0.36 1; 0.65 0 1 1; 0 0 0.68 0.19; 0.55 0.06 0.36 1; 0 0 0.36 1; 0.22 0.61 0.68 0.19; 0.55 0.06 0.36 1; 0 0 1 1" fill="freeze" /><g id="i14" transform="translate(-192.148,-280.329)"><path fill="#d9e0e6" d="M197.343,274.75C198.974,276.269,197.971,279.998,195.102,283.079C192.233,286.16,188.585,287.427,186.954,285.908C185.322,284.389,186.326,280.66,189.195,277.579C192.064,274.498,195.712,273.231,197.343,274.75C197.343,274.75,197.343,274.75,197.343,274.75Z" /></g></g></g><g><g transform="translate(132,259)"><animateTransform repeatCount="indefinite" type="translate" attributeName="transform" dur="5s" begin="0s" calcMode="spline" values="132 259; 178 259; 90 259; 411 259; 323 259; 366 259; 366 259; 324 259; 409 259; 90 259; 178 259; 132 259; 132 259" keyTimes="0; 0.046667; 0.093333; 0.24; 0.286667; 0.333333; 0.48; 0.526667; 0.573333; 0.72; 0.766667; 0.813333; 1" keySplines="0.55 0.06 0.36 1; 0.22 0.61 0.68 0.19; 0.55 0.06 0.68 0.19; 0.55 0.06 0.36 1; 0.22 0.61 0.36 1; 0.65 0 1 1; 0 0 0.68 0.19; 0.55 0.06 0.36 1; 0.22 0.61 0.36 1; 0.22 0.61 0.68 0.19; 0.55 0.06 0.36 1; 0 0 1 1" fill="freeze" /><g id="i15" transform="translate(-132.303,-258.713)"><path stroke-linecap="round" stroke-width="2.794" stroke="#000000" d="M159.686,245.022C159.686,260.145,147.426,272.405,132.303,272.405C117.18,272.405,104.92,260.145,104.92,245.022" /></g></g></g><g><g transform="translate(161,229)"><animateTransform repeatCount="indefinite" type="translate" attributeName="transform" dur="5s" begin="0s" calcMode="spline" values="161 229; 201 229; 114 229; 437 229; 349 229; 391 229; 391 229; 345 229; 432 229; 114 229; 201 229; 161 229; 161 229" keyTimes="0; 0.046667; 0.093333; 0.24; 0.286667; 0.333333; 0.48; 0.526667; 0.573333; 0.72; 0.766667; 0.813333; 1" keySplines="0.55 0.06 0.36 1; 0.22 0.61 0.68 0.19; 0.55 0.06 0.68 0.19; 0.55 0.06 0.36 1; 0.22 0.61 0.36 1; 0.65 0 1 1; 0 0 0.68 0.19; 0.55 0.06 0.36 1; 0.22 0.61 0.36 1; 0.22 0.61 0.68 0.19; 0.55 0.06 0.36 1; 0 0 1 1" fill="freeze" /><g transform="rotate(0)"><animateTransform repeatCount="indefinite" type="rotate" attributeName="transform" dur="5s" begin="0s" calcMode="spline" values="0; 0; 180; 180; 0; 0" keyTimes="0; 0.286667; 0.333333; 0.766666; 0.813333; 1" keySplines="0 0 1 1; 0 0 1 1; 0 0 1 1; 0 0 1 1; 0 0 1 1" fill="freeze" /><g id="i16" transform="translate(-160.5,-228.967)"><path stroke-linecap="round" stroke-width="2.794" stroke="#000000" d="M150,223.467C150,229.542,154.701,234.467,160.5,234.467C166.299,234.467,171,229.542,171,223.467" /></g></g></g></g><g><g transform="translate(106,229)"><animateTransform repeatCount="indefinite" type="translate" attributeName="transform" dur="5s" begin="0s" calcMode="spline" values="106 229; 157 229; 67 229; 387 229; 297 229; 339 229; 339 229; 296 229; 382 229; 67 229; 157 229; 106 229; 106 229" keyTimes="0; 0.046667; 0.093333; 0.24; 0.286667; 0.333333; 0.48; 0.526667; 0.573333; 0.72; 0.766667; 0.813333; 1" keySplines="0.55 0.06 0.36 1; 0.22 0.61 0.68 0.19; 0.55 0.06 0.68 0.19; 0.55 0.06 0.36 1; 0.22 0.61 0.36 1; 0.65 0 1 1; 0 0 0.68 0.19; 0.55 0.06 0.36 1; 0.22 0.61 0.36 1; 0.22 0.61 0.68 0.19; 0.55 0.06 0.36 1; 0 0 1 1" fill="freeze" /><g transform="rotate(0)"><animateTransform repeatCount="indefinite" type="rotate" attributeName="transform" dur="5s" begin="0s" calcMode="spline" values="0; 0; 180; 180; 0; 0" keyTimes="0; 0.286667; 0.333333; 0.766666; 0.813333; 1" keySplines="0 0 1 1; 0 0 1 1; 0 0 1 1; 0 0 1 1; 0 0 1 1" fill="freeze" /><g id="i17" transform="translate(-105.5,-228.967)"><path stroke-linecap="round" stroke-width="2.794" stroke="#000000" d="M95,223.467C95,229.542,99.701,234.467,105.5,234.467C111.299,234.467,116,229.542,116,223.467" /></g></g></g></g></g></svg>