<svg fill="none" height="100%" width="100%" viewBox="0 0 800 800" xmlns:xlink="http://www.w3.org/1999/xlink" xmlns="http://www.w3.org/2000/svg"><defs><clipPath id="i0"><rect height="800" width="800" y="0" x="0" /></clipPath><g id="i1"><g transform="matrix(1,0,0,1,400,400)" id="i2"><g id="i3"><path fill="#e0efff" d="M400,400C400,400,-400,400,-400,400C-400,400,-400,-400,-400,-400C-400,-400,400,-400,400,-400C400,-400,400,400,400,400Z"><animate repeatCount="indefinite" attributeName="fill" dur="8s" begin="0s" fill="freeze" values="#e0efff; #ffeee0; #8ae66a; #8ae66a; #417dbb; #34a8a9; #e0efff; #e0efff" keyTimes="0; 0.172917; 0.28125; 0.40625; 0.660416; 0.75; 0.997917; 1" keySplines="0.614 0 0.467 1; 0.798 0 0.467 1; 0.74 0 0.099 1; 0.167 0 0.467 1; 0.798 0 0.467 1; 0.167 0 0.667 1; 0 0 1 1" calcMode="spline" /></path></g></g><g id="i4"><g transform="translate(400,597)"><animateTransform repeatCount="indefinite" type="translate" attributeName="transform" dur="8s" begin="0s" calcMode="spline" values="400 597; 400 400; 400 400; 400 -511; 400 -511" keyTimes="0; 0.172917; 0.864584; 0.995833; 1" keySplines="0.614 0 0 1; 0 0 1 1; 0.685 0 0.272 1; 0 0 1 1" fill="freeze" /><g transform="scale(3.396,3.396)"><animateTransform repeatCount="indefinite" type="scale" attributeName="transform" dur="8s" begin="0s" calcMode="spline" values="3.396 3.396; 0.956 0.956; 0.956 0.956; 3.396 3.396; 3.396 3.396" keyTimes="0; 0.172917; 0.864584; 0.995833; 1" keySplines="0.614 0 0 1; 0.333 0 0 1; 0.685 0 0.272 1; 0 0 1 1" fill="freeze" /><g transform="translate(0,0)"><g id="i3"><path d="M248.283,141.152C248.283,141.152,-248.283,141.152,-248.283,141.152C-248.283,141.152,-148,78.848,-148,78.848C-148,78.848,148.565,78.848,148.565,78.848C148.565,78.848,248.283,141.152,248.283,141.152Z" stroke-miterlimit="10" stroke-width="3" stroke="#000000" fill="#ffffff"><animate repeatCount="indefinite" attributeName="d" dur="8s" begin="0s" calcMode="spline" values="M248.283,141.152C248.283,141.152,-248.283,141.152,-248.283,141.152C-248.283,141.152,-148,78.848,-148,78.848C-148,78.848,148.565,78.848,148.565,78.848C148.565,78.848,248.283,141.152,248.283,141.152Z; M248.283,141.152C248.283,141.152,-248.283,141.152,-248.283,141.152C-248.283,141.152,-248.283,-141.152,-248.283,-141.152C-248.283,-141.152,248.283,-141.152,248.283,-141.152C248.283,-141.152,248.283,141.152,248.283,141.152Z; M248.283,141.152C248.283,141.152,-248.283,141.152,-248.283,141.152C-248.283,141.152,-248.283,-141.152,-248.283,-141.152C-248.283,-141.152,248.283,-141.152,248.283,-141.152C248.283,-141.152,248.283,141.152,248.283,141.152Z; M248.283,141.152C248.283,141.152,-248.283,141.152,-248.283,141.152C-248.283,141.152,-750.49,-141.152,-750.49,-141.152C-750.49,-141.152,750.49,-141.152,750.49,-141.152C750.49,-141.152,248.283,141.152,248.283,141.152Z; M248.283,141.152C248.283,141.152,-248.283,141.152,-248.283,141.152C-248.283,141.152,-750.49,-141.152,-750.49,-141.152C-750.49,-141.152,750.49,-141.152,750.49,-141.152C750.49,-141.152,248.283,141.152,248.283,141.152Z" keyTimes="0; 0.172917; 0.864583; 0.995833; 1" keySplines="0.614 0 0.467 1; 0.798 0 0 1; 0.685 0 0.272 1; 0 0 1 1" fill="freeze" /></path></g></g></g></g></g><g visibility="visible" id="i5"><animate repeatCount="indefinite" begin="0s" calcMode="discrete" dur="8s" values="visible; hidden; hidden" keyTimes="0; 0.875; 1" attributeName="visibility" /><g transform="translate(400,400)"><animateTransform repeatCount="indefinite" type="translate" attributeName="transform" dur="8s" begin="0s" calcMode="spline" values="400 400; 400 400; 210.489 311.152; 210.489 311.152" keyTimes="0; 0.28125; 0.40625; 1" keySplines="0 0 1 1; 0.9 0 0.127 1; 0 0 1 1" fill="freeze" /><g transform="scale(2,2)"><animateTransform repeatCount="indefinite" type="scale" attributeName="transform" dur="8s" begin="0s" calcMode="spline" values="2 2; 2 2; 1 1; 1 1" keyTimes="0; 0.28125; 0.40625; 1" keySplines="0 0 1 1; 0.9 0 0.127 1; 0 0 1 1" fill="freeze" /><g transform="translate(-210.489,-311.152)"><g opacity="0"><animate repeatCount="indefinite" attributeName="opacity" dur="8s" begin="0s" fill="freeze" values="0; 0; 1; 1; 0; 0" keyTimes="0; 0.247917; 0.25; 0.8; 0.802083; 1" keySplines="0 0 1 1; 0.333 0 0.667 1; 0.333 0 0.667 1; 0.333 0 0.667 1; 0 0 1 1" calcMode="spline" /><g id="i6" transform="translate(210.5,311.152)"><animateTransform repeatCount="indefinite" type="translate" attributeName="transform" dur="8s" begin="0s" calcMode="spline" values="210.5 311.152; 210.5 311.152; 200.413 311.152; 200.413 311.152; 210.5 311.152; 210.5 311.152" keyTimes="0; 0.25; 0.316667; 0.75; 0.8; 1" keySplines="0 0 1 1; 0.785 0 0.157 1; 0 0 1 1; 0.333 0 0.667 1; 0 0 1 1" fill="freeze" /><path stroke-miterlimit="10" stroke-width="3" stroke="#000000" d="M20.152,0C20.152,11.13,11.13,20.152,0,20.152C-11.13,20.152,-20.152,11.13,-20.152,0C-20.152,-11.13,-11.13,-20.152,0,-20.152C11.13,-20.152,20.152,-11.13,20.152,0Z" /></g></g><g><g id="i7" transform="translate(210.5,311.152)"><animateTransform repeatCount="indefinite" type="translate" attributeName="transform" dur="8s" begin="0s" calcMode="spline" values="210.5 311.152; 210.5 311.152; 220.565 311.152; 220.565 311.152; 210.5 311.152; 210.5 311.152" keyTimes="0; 0.25; 0.316667; 0.75; 0.8; 1" keySplines="0 0 1 1; 0.785 0 0.157 1; 0 0 1 1; 0.333 0 0.667 1; 0 0 1 1" fill="freeze" /><path stroke-dashoffset="-75" stroke-dasharray="0 100" pathLength="100" d="M20.152,0C20.152,11.13,11.13,20.152,0,20.152C-11.13,20.152,-20.152,11.13,-20.152,0C-20.152,-11.13,-11.13,-20.152,0,-20.152C11.13,-20.152,20.152,-11.13,20.152,0Z" stroke-miterlimit="10" stroke-width="3" stroke="#000000" fill="#ffffff"><animate repeatCount="indefinite" fill="freeze" begin="0s" dur="8s" calcMode="spline" keySplines="0 0 1 1; 0.82 0 0.245 1; 0.333 0 0.245 1; 0.333 0 0.833 1; 0 0 1 1" keyTimes="0; 0.208333; 0.25; 0.8; 0.864583; 1" values="0 100; 0 100; 100 0; 100 0; 0 100; 0 100" attributeName="stroke-dasharray" /><animate repeatCount="indefinite" fill="freeze" begin="0s" dur="8s" calcMode="spline" keySplines="0 0 1 1; 0.82 0 0.245 1; 0.333 0 0.245 1; 0.333 0 0.833 1; 0 0 1 1" keyTimes="0; 0.208333; 0.25; 0.8; 0.864583; 1" values="-75; -75; -75; -75; -75; -75" attributeName="stroke-dashoffset" /></path></g></g></g></g></g></g><g opacity="0" visibility="hidden" id="i8"><animate repeatCount="indefinite" begin="0s" calcMode="discrete" dur="8s" values="hidden; visible; hidden; hidden" keyTimes="0; 0.442; 0.89; 1" attributeName="visibility" /><animate repeatCount="indefinite" attributeName="opacity" dur="8s" begin="0s" fill="freeze" values="0; 0; 1; 1; 0; 0" keyTimes="0; 0.441667; 0.535417; 0.660417; 0.75625; 1" keySplines="0 0 1 1; 0.672 0 0.239 1; 0.167 0 0.239 1; 0.167 0 0.833 1; 0 0 1 1" calcMode="spline" /><g transform="translate(393.304,347.593)"><animateTransform repeatCount="indefinite" type="translate" attributeName="transform" dur="8s" begin="0s" calcMode="spline" values="393.304 347.593; 393.304 347.593; 393.304 374.593; 393.304 374.593; 393.304 347.593; 393.304 347.593" keyTimes="0; 0.441667; 0.535417; 0.660417; 0.75625; 1" keySplines="0 0 1 1; 0.672 0 0.239 1; 0 0 1 1; 0.93 0 0.49 1; 0 0 1 1" fill="freeze" /><g transform="scale(1,1) translate(0,0)"><g id="i3"><path d="M35.565,2.272C35.565,2.272,-35.391,2.272,-35.391,2.272C-38.561,2.272,-41.13,-0.297,-41.13,-3.467C-41.13,-3.467,-41.217,-40.533,-41.217,-40.533C-41.217,-43.703,-38.648,-46.272,-35.478,-46.272C-35.478,-46.272,35.478,-46.272,35.478,-46.272C38.648,-46.272,41.217,-43.703,41.217,-40.533C41.217,-40.533,41.304,-3.467,41.304,-3.467C41.304,-0.297,38.735,2.272,35.565,2.272Z" stroke-miterlimit="10" stroke-width="3" stroke="#000000" fill="#151515"><animate repeatCount="indefinite" attributeName="d" dur="8s" begin="0s" calcMode="spline" values="M35.565,2.272C35.565,2.272,-35.391,2.272,-35.391,2.272C-38.561,2.272,-41.13,-0.297,-41.13,-3.467C-41.13,-3.467,-41.217,-40.533,-41.217,-40.533C-41.217,-43.703,-38.648,-46.272,-35.478,-46.272C-35.478,-46.272,35.478,-46.272,35.478,-46.272C38.648,-46.272,41.217,-43.703,41.217,-40.533C41.217,-40.533,41.304,-3.467,41.304,-3.467C41.304,-0.297,38.735,2.272,35.565,2.272Z; M35.565,2.272C35.565,2.272,-35.391,2.272,-35.391,2.272C-38.561,2.272,-41.13,-0.297,-41.13,-3.467C-41.13,-3.467,-41.217,-40.533,-41.217,-40.533C-41.217,-43.703,-38.648,-46.272,-35.478,-46.272C-35.478,-46.272,35.478,-46.272,35.478,-46.272C38.648,-46.272,41.217,-43.703,41.217,-40.533C41.217,-40.533,41.304,-3.467,41.304,-3.467C41.304,-0.297,38.735,2.272,35.565,2.272Z; M35.478,46.272C35.478,46.272,-35.478,46.272,-35.478,46.272C-38.648,46.272,-41.217,43.703,-41.217,40.533C-41.217,40.533,-41.217,-40.533,-41.217,-40.533C-41.217,-43.703,-38.648,-46.272,-35.478,-46.272C-35.478,-46.272,35.478,-46.272,35.478,-46.272C38.648,-46.272,41.217,-43.703,41.217,-40.533C41.217,-40.533,41.217,40.533,41.217,40.533C41.217,43.703,38.648,46.272,35.478,46.272Z; M35.478,46.272C35.478,46.272,-35.478,46.272,-35.478,46.272C-38.648,46.272,-41.217,43.703,-41.217,40.533C-41.217,40.533,-41.217,-40.533,-41.217,-40.533C-41.217,-43.703,-38.648,-46.272,-35.478,-46.272C-35.478,-46.272,35.478,-46.272,35.478,-46.272C38.648,-46.272,41.217,-43.703,41.217,-40.533C41.217,-40.533,41.217,40.533,41.217,40.533C41.217,43.703,38.648,46.272,35.478,46.272Z; M35.565,2.272C35.565,2.272,-35.391,2.272,-35.391,2.272C-38.561,2.272,-41.13,-0.297,-41.13,-3.467C-41.13,-3.467,-41.217,-40.533,-41.217,-40.533C-41.217,-43.703,-38.648,-46.272,-35.478,-46.272C-35.478,-46.272,35.478,-46.272,35.478,-46.272C38.648,-46.272,41.217,-43.703,41.217,-40.533C41.217,-40.533,41.304,-3.467,41.304,-3.467C41.304,-0.297,38.735,2.272,35.565,2.272Z; M35.565,2.272C35.565,2.272,-35.391,2.272,-35.391,2.272C-38.561,2.272,-41.13,-0.297,-41.13,-3.467C-41.13,-3.467,-41.217,-40.533,-41.217,-40.533C-41.217,-43.703,-38.648,-46.272,-35.478,-46.272C-35.478,-46.272,35.478,-46.272,35.478,-46.272C38.648,-46.272,41.217,-43.703,41.217,-40.533C41.217,-40.533,41.304,-3.467,41.304,-3.467C41.304,-0.297,38.735,2.272,35.565,2.272Z" keyTimes="0; 0.441667; 0.535417; 0.660417; 0.75625; 1" keySplines="0 0 1 1; 0.672 0 0.239 1; 0.167 0 0.239 1; 0.93 0 0.49 1; 0 0 1 1" fill="freeze" /></path></g></g></g></g><g id="i8"><g transform="translate(393.304,347.593)"><animateTransform repeatCount="indefinite" type="translate" attributeName="transform" dur="8s" begin="0s" calcMode="spline" values="393.304 347.593; 393.304 347.593; 393.304 374.593; 393.304 374.593; 393.304 347.593; 393.304 347.593" keyTimes="0; 0.441667; 0.535417; 0.660417; 0.75625; 1" keySplines="0 0 1 1; 0.672 0 0.239 1; 0 0 1 1; 0.93 0 0.49 1; 0 0 1 1" fill="freeze" /><g transform="scale(1,1) translate(0,0)"><g opacity="0" visibility="hidden" id="i9"><animate repeatCount="indefinite" begin="0s" calcMode="discrete" dur="8s" values="hidden; visible; hidden; hidden" keyTimes="0; 0.442; 0.89; 1" attributeName="visibility" /><animate repeatCount="indefinite" attributeName="opacity" dur="8s" begin="0s" fill="freeze" values="0; 0; 1; 1; 0; 0" keyTimes="0; 0.472917; 0.535417; 0.660417; 0.7375; 1" keySplines="0 0 1 1; 0.672 0 0.239 1; 0.167 0 0.239 1; 0.167 0 0.833 1; 0 0 1 1" calcMode="spline" /><g transform="translate(-2.324,-24.04) scale(1,1) translate(-390.98,-350.554)"><g id="i10" transform="matrix(1,0,0,1,370.561,349.912)"><path fill="#ffffff" d="M-4.594,0C-4.594,-2.495,-2.65,-4.342,0,-4.342C2.639,-4.342,4.594,-2.506,4.594,0C4.594,2.507,2.639,4.342,0,4.342C-2.65,4.342,-4.594,2.495,-4.594,0ZM2.627,0C2.627,-1.595,1.5,-2.687,0,-2.687C-1.499,-2.687,-2.627,-1.595,-2.627,0C-2.627,1.595,-1.499,2.687,0,2.687C1.5,2.687,2.627,1.595,2.627,0Z" /></g><g id="i11" transform="matrix(1,0,0,1,380.005,351.999)"><path fill="#ffffff" d="M3.514,-1.115C3.514,0.912,2.111,2.207,0.3,2.207C-0.503,2.207,-1.163,1.955,-1.643,1.427C-1.643,1.427,-1.643,4.438,-1.643,4.438C-1.643,4.438,-3.514,4.438,-3.514,4.438C-3.514,4.438,-3.514,-4.342,-3.514,-4.342C-3.514,-4.342,-1.727,-4.342,-1.727,-4.342C-1.727,-4.342,-1.727,-3.598,-1.727,-3.598C-1.259,-4.161,-0.563,-4.438,0.3,-4.438C2.111,-4.438,3.514,-3.142,3.514,-1.115ZM1.619,-1.115C1.619,-2.231,0.912,-2.902,-0.024,-2.902C-0.96,-2.902,-1.667,-2.231,-1.667,-1.115C-1.667,0,-0.96,0.672,-0.024,0.672C0.912,0.672,1.619,0,1.619,-1.115Z" /></g><g id="i12" transform="matrix(1,0,0,1,386.469,350.218)"><path fill="#ffffff" d="M2.465,3.58C2.081,3.856,1.517,3.988,0.941,3.988C-0.582,3.988,-1.469,3.208,-1.469,1.673C-1.469,1.673,-1.469,-0.977,-1.469,-0.977C-1.469,-0.977,-2.465,-0.977,-2.465,-0.977C-2.465,-0.977,-2.465,-2.417,-2.465,-2.417C-2.465,-2.417,-1.469,-2.417,-1.469,-2.417C-1.469,-2.417,-1.469,-3.988,-1.469,-3.988C-1.469,-3.988,0.402,-3.988,0.402,-3.988C0.402,-3.988,0.402,-2.417,0.402,-2.417C0.402,-2.417,2.009,-2.417,2.009,-2.417C2.009,-2.417,2.009,-0.977,2.009,-0.977C2.009,-0.977,0.402,-0.977,0.402,-0.977C0.402,-0.977,0.402,1.649,0.402,1.649C0.402,2.201,0.701,2.501,1.205,2.501C1.481,2.501,1.757,2.416,1.961,2.26C1.961,2.26,2.465,3.58,2.465,3.58Z" /></g><g id="i13" transform="matrix(1,0,0,1,390.927,349.39)"><path fill="#ffffff" d="M-1.163,-3.676C-1.163,-4.263,-0.695,-4.719,0,-4.719C0.696,-4.719,1.163,-4.288,1.163,-3.712C1.163,-3.088,0.696,-2.633,0,-2.633C-0.695,-2.633,-1.163,-3.088,-1.163,-3.676ZM-0.936,-1.733C-0.936,-1.733,0.935,-1.733,0.935,-1.733C0.935,-1.733,0.935,4.719,0.935,4.719C0.935,4.719,-0.936,4.719,-0.936,4.719C-0.936,4.719,-0.936,-1.733,-0.936,-1.733Z" /></g><g id="i14" transform="matrix(1,0,0,1,396.667,350.884)"><path fill="#ffffff" d="M-3.544,0C-3.544,-1.943,-2.045,-3.322,0.006,-3.322C2.057,-3.322,3.544,-1.943,3.544,0C3.544,1.943,2.057,3.322,0.006,3.322C-2.045,3.322,-3.544,1.943,-3.544,0ZM1.649,0C1.649,-1.116,0.941,-1.787,0.006,-1.787C-0.93,-1.787,-1.649,-1.116,-1.649,0C-1.649,1.115,-0.93,1.787,0.006,1.787C0.941,1.787,1.649,1.115,1.649,0Z" /></g><g id="i15" transform="matrix(1,0,0,1,404.761,350.836)"><path fill="#ffffff" d="M3.298,-0.42C3.298,-0.42,3.298,3.274,3.298,3.274C3.298,3.274,1.427,3.274,1.427,3.274C1.427,3.274,1.427,-0.132,1.427,-0.132C1.427,-1.175,0.948,-1.655,0.12,-1.655C-0.779,-1.655,-1.427,-1.103,-1.427,0.084C-1.427,0.084,-1.427,3.274,-1.427,3.274C-1.427,3.274,-3.298,3.274,-3.298,3.274C-3.298,3.274,-3.298,-3.178,-3.298,-3.178C-3.298,-3.178,-1.511,-3.178,-1.511,-3.178C-1.511,-3.178,-1.511,-2.423,-1.511,-2.423C-1.007,-2.975,-0.252,-3.274,0.624,-3.274C2.147,-3.274,3.298,-2.387,3.298,-0.42Z" /></g><g id="i3" transform="matrix(1,0,0,1,414.182,349.912)"><path fill="#ffffff" d="M1.811,-4.198C1.811,-4.198,1.811,4.198,1.811,4.198C1.811,4.198,-0.131,4.198,-0.131,4.198C-0.131,4.198,-0.131,-2.639,-0.131,-2.639C-0.131,-2.639,-1.811,-2.639,-1.811,-2.639C-1.811,-2.639,-1.811,-4.198,-1.811,-4.198C-1.811,-4.198,1.811,-4.198,1.811,-4.198Z" /></g></g></g></g></g></g><g id="i8"><g transform="translate(393.304,347.593)"><animateTransform repeatCount="indefinite" type="translate" attributeName="transform" dur="8s" begin="0s" calcMode="spline" values="393.304 347.593; 393.304 347.593; 393.304 374.593; 393.304 374.593; 393.304 347.593; 393.304 347.593" keyTimes="0; 0.441667; 0.535417; 0.660417; 0.75625; 1" keySplines="0 0 1 1; 0.672 0 0.239 1; 0 0 1 1; 0.93 0 0.49 1; 0 0 1 1" fill="freeze" /><g transform="scale(1,1) translate(0,0)"><g opacity="0" visibility="hidden" id="i16"><animate repeatCount="indefinite" begin="0s" calcMode="discrete" dur="8s" values="hidden; visible; hidden; hidden" keyTimes="0; 0.442; 0.89; 1" attributeName="visibility" /><animate repeatCount="indefinite" attributeName="opacity" dur="8s" begin="0s" fill="freeze" values="0; 0; 1; 1; 0; 0" keyTimes="0; 0.480554; 0.535417; 0.660417; 0.725696; 1" keySplines="0 0 1 1; 0.672 0 0.239 1; 0.167 0 0.239 1; 0.167 0 0.833 1; 0 0 1 1" calcMode="spline" /><g transform="translate(-0.807,-6.539) scale(1,1) translate(-392.498,-368.054)"><g id="i10" transform="matrix(1,0,0,1,370.561,367.413)"><path fill="#ffffff" d="M-4.594,0C-4.594,-2.495,-2.65,-4.342,0,-4.342C2.639,-4.342,4.594,-2.506,4.594,0C4.594,2.507,2.639,4.342,0,4.342C-2.65,4.342,-4.594,2.495,-4.594,0ZM2.627,0C2.627,-1.595,1.5,-2.687,0,-2.687C-1.499,-2.687,-2.627,-1.595,-2.627,0C-2.627,1.595,-1.499,2.687,0,2.687C1.5,2.687,2.627,1.595,2.627,0Z" /></g><g id="i11" transform="matrix(1,0,0,1,380.005,369.5)"><path fill="#ffffff" d="M3.514,-1.115C3.514,0.912,2.111,2.207,0.3,2.207C-0.503,2.207,-1.163,1.955,-1.643,1.427C-1.643,1.427,-1.643,4.438,-1.643,4.438C-1.643,4.438,-3.514,4.438,-3.514,4.438C-3.514,4.438,-3.514,-4.342,-3.514,-4.342C-3.514,-4.342,-1.727,-4.342,-1.727,-4.342C-1.727,-4.342,-1.727,-3.598,-1.727,-3.598C-1.259,-4.161,-0.563,-4.438,0.3,-4.438C2.111,-4.438,3.514,-3.142,3.514,-1.115ZM1.619,-1.115C1.619,-2.231,0.912,-2.902,-0.024,-2.902C-0.96,-2.902,-1.667,-2.231,-1.667,-1.115C-1.667,0,-0.96,0.672,-0.024,0.672C0.912,0.672,1.619,0,1.619,-1.115Z" /></g><g id="i12" transform="matrix(1,0,0,1,386.469,367.719)"><path fill="#ffffff" d="M2.465,3.58C2.081,3.856,1.517,3.988,0.941,3.988C-0.582,3.988,-1.469,3.208,-1.469,1.673C-1.469,1.673,-1.469,-0.977,-1.469,-0.977C-1.469,-0.977,-2.465,-0.977,-2.465,-0.977C-2.465,-0.977,-2.465,-2.417,-2.465,-2.417C-2.465,-2.417,-1.469,-2.417,-1.469,-2.417C-1.469,-2.417,-1.469,-3.988,-1.469,-3.988C-1.469,-3.988,0.402,-3.988,0.402,-3.988C0.402,-3.988,0.402,-2.417,0.402,-2.417C0.402,-2.417,2.009,-2.417,2.009,-2.417C2.009,-2.417,2.009,-0.977,2.009,-0.977C2.009,-0.977,0.402,-0.977,0.402,-0.977C0.402,-0.977,0.402,1.649,0.402,1.649C0.402,2.201,0.701,2.501,1.205,2.501C1.481,2.501,1.757,2.416,1.961,2.26C1.961,2.26,2.465,3.58,2.465,3.58Z" /></g><g id="i13" transform="matrix(1,0,0,1,390.927,366.891)"><path fill="#ffffff" d="M-1.163,-3.676C-1.163,-4.263,-0.695,-4.719,0,-4.719C0.696,-4.719,1.163,-4.288,1.163,-3.712C1.163,-3.088,0.696,-2.633,0,-2.633C-0.695,-2.633,-1.163,-3.088,-1.163,-3.676ZM-0.936,-1.733C-0.936,-1.733,0.935,-1.733,0.935,-1.733C0.935,-1.733,0.935,4.719,0.935,4.719C0.935,4.719,-0.936,4.719,-0.936,4.719C-0.936,4.719,-0.936,-1.733,-0.936,-1.733Z" /></g><g id="i14" transform="matrix(1,0,0,1,396.667,368.384)"><path fill="#ffffff" d="M-3.544,0C-3.544,-1.943,-2.045,-3.322,0.006,-3.322C2.057,-3.322,3.544,-1.943,3.544,0C3.544,1.943,2.057,3.322,0.006,3.322C-2.045,3.322,-3.544,1.943,-3.544,0ZM1.649,0C1.649,-1.116,0.941,-1.787,0.006,-1.787C-0.93,-1.787,-1.649,-1.116,-1.649,0C-1.649,1.115,-0.93,1.787,0.006,1.787C0.941,1.787,1.649,1.115,1.649,0Z" /></g><g id="i15" transform="matrix(1,0,0,1,404.761,368.336)"><path fill="#ffffff" d="M3.298,-0.42C3.298,-0.42,3.298,3.274,3.298,3.274C3.298,3.274,1.427,3.274,1.427,3.274C1.427,3.274,1.427,-0.132,1.427,-0.132C1.427,-1.175,0.948,-1.655,0.12,-1.655C-0.779,-1.655,-1.427,-1.103,-1.427,0.084C-1.427,0.084,-1.427,3.274,-1.427,3.274C-1.427,3.274,-3.298,3.274,-3.298,3.274C-3.298,3.274,-3.298,-3.178,-3.298,-3.178C-3.298,-3.178,-1.511,-3.178,-1.511,-3.178C-1.511,-3.178,-1.511,-2.423,-1.511,-2.423C-1.007,-2.975,-0.252,-3.274,0.624,-3.274C2.147,-3.274,3.298,-2.387,3.298,-0.42Z" /></g><g id="i3" transform="matrix(1,0,0,1,415.664,367.341)"><path fill="#ffffff" d="M3.364,2.687C3.364,2.687,3.364,4.27,3.364,4.27C3.364,4.27,-2.98,4.27,-2.98,4.27C-2.98,4.27,-2.98,3.01,-2.98,3.01C-2.98,3.01,0.257,-0.048,0.257,-0.048C1.001,-0.756,1.133,-1.187,1.133,-1.595C1.133,-2.255,0.678,-2.638,-0.209,-2.638C-0.929,-2.638,-1.542,-2.362,-1.949,-1.799C-1.949,-1.799,-3.364,-2.71,-3.364,-2.71C-2.717,-3.658,-1.542,-4.27,-0.03,-4.27C1.841,-4.27,3.088,-3.31,3.088,-1.787C3.088,-0.972,2.861,-0.227,1.685,0.864C1.685,0.864,-0.246,2.687,-0.246,2.687C-0.246,2.687,3.364,2.687,3.364,2.687Z" /></g></g></g></g></g></g><g id="i8"><g transform="translate(393.304,347.593)"><animateTransform repeatCount="indefinite" type="translate" attributeName="transform" dur="8s" begin="0s" calcMode="spline" values="393.304 347.593; 393.304 347.593; 393.304 374.593; 393.304 374.593; 393.304 347.593; 393.304 347.593" keyTimes="0; 0.441667; 0.535417; 0.660417; 0.75625; 1" keySplines="0 0 1 1; 0.672 0 0.239 1; 0 0 1 1; 0.93 0 0.49 1; 0 0 1 1" fill="freeze" /><g transform="scale(1,1) translate(0,0)"><g opacity="0" visibility="hidden" id="i17"><animate repeatCount="indefinite" begin="0s" calcMode="discrete" dur="8s" values="hidden; visible; hidden; hidden" keyTimes="0; 0.442; 0.89; 1" attributeName="visibility" /><animate repeatCount="indefinite" attributeName="opacity" dur="8s" begin="0s" fill="freeze" values="0; 0; 1; 1; 0; 0" keyTimes="0; 0.488196; 0.535417; 0.660417; 0.713888; 1" keySplines="0 0 1 1; 0.672 0 0.239 1; 0.167 0 0.239 1; 0.167 0 0.833 1; 0 0 1 1" calcMode="spline" /><g transform="translate(-0.842,10.961) scale(1,1) translate(-392.462,-385.555)"><g id="i10" transform="matrix(1,0,0,1,370.561,384.913)"><path fill="#ffffff" d="M-4.594,0C-4.594,-2.495,-2.65,-4.342,0,-4.342C2.639,-4.342,4.594,-2.506,4.594,0C4.594,2.507,2.639,4.342,0,4.342C-2.65,4.342,-4.594,2.495,-4.594,0ZM2.627,0C2.627,-1.595,1.5,-2.687,0,-2.687C-1.499,-2.687,-2.627,-1.595,-2.627,0C-2.627,1.595,-1.499,2.687,0,2.687C1.5,2.687,2.627,1.595,2.627,0Z" /></g><g id="i11" transform="matrix(1,0,0,1,380.005,387)"><path fill="#ffffff" d="M3.514,-1.115C3.514,0.912,2.111,2.207,0.3,2.207C-0.503,2.207,-1.163,1.955,-1.643,1.427C-1.643,1.427,-1.643,4.438,-1.643,4.438C-1.643,4.438,-3.514,4.438,-3.514,4.438C-3.514,4.438,-3.514,-4.342,-3.514,-4.342C-3.514,-4.342,-1.727,-4.342,-1.727,-4.342C-1.727,-4.342,-1.727,-3.598,-1.727,-3.598C-1.259,-4.161,-0.563,-4.438,0.3,-4.438C2.111,-4.438,3.514,-3.142,3.514,-1.115ZM1.619,-1.115C1.619,-2.231,0.912,-2.902,-0.024,-2.902C-0.96,-2.902,-1.667,-2.231,-1.667,-1.115C-1.667,0,-0.96,0.672,-0.024,0.672C0.912,0.672,1.619,0,1.619,-1.115Z" /></g><g id="i12" transform="matrix(1,0,0,1,386.469,385.219)"><path fill="#ffffff" d="M2.465,3.58C2.081,3.856,1.517,3.988,0.941,3.988C-0.582,3.988,-1.469,3.208,-1.469,1.673C-1.469,1.673,-1.469,-0.977,-1.469,-0.977C-1.469,-0.977,-2.465,-0.977,-2.465,-0.977C-2.465,-0.977,-2.465,-2.417,-2.465,-2.417C-2.465,-2.417,-1.469,-2.417,-1.469,-2.417C-1.469,-2.417,-1.469,-3.988,-1.469,-3.988C-1.469,-3.988,0.402,-3.988,0.402,-3.988C0.402,-3.988,0.402,-2.417,0.402,-2.417C0.402,-2.417,2.009,-2.417,2.009,-2.417C2.009,-2.417,2.009,-0.977,2.009,-0.977C2.009,-0.977,0.402,-0.977,0.402,-0.977C0.402,-0.977,0.402,1.649,0.402,1.649C0.402,2.201,0.701,2.501,1.205,2.501C1.481,2.501,1.757,2.416,1.961,2.26C1.961,2.26,2.465,3.58,2.465,3.58Z" /></g><g id="i13" transform="matrix(1,0,0,1,390.927,384.391)"><path fill="#ffffff" d="M-1.163,-3.676C-1.163,-4.263,-0.695,-4.719,0,-4.719C0.696,-4.719,1.163,-4.288,1.163,-3.712C1.163,-3.088,0.696,-2.633,0,-2.633C-0.695,-2.633,-1.163,-3.088,-1.163,-3.676ZM-0.936,-1.733C-0.936,-1.733,0.935,-1.733,0.935,-1.733C0.935,-1.733,0.935,4.719,0.935,4.719C0.935,4.719,-0.936,4.719,-0.936,4.719C-0.936,4.719,-0.936,-1.733,-0.936,-1.733Z" /></g><g id="i14" transform="matrix(1,0,0,1,396.667,385.885)"><path fill="#ffffff" d="M-3.544,0C-3.544,-1.943,-2.045,-3.322,0.006,-3.322C2.057,-3.322,3.544,-1.943,3.544,0C3.544,1.943,2.057,3.322,0.006,3.322C-2.045,3.322,-3.544,1.943,-3.544,0ZM1.649,0C1.649,-1.116,0.941,-1.787,0.006,-1.787C-0.93,-1.787,-1.649,-1.116,-1.649,0C-1.649,1.115,-0.93,1.787,0.006,1.787C0.941,1.787,1.649,1.115,1.649,0Z" /></g><g id="i15" transform="matrix(1,0,0,1,404.761,385.837)"><path fill="#ffffff" d="M3.298,-0.42C3.298,-0.42,3.298,3.274,3.298,3.274C3.298,3.274,1.427,3.274,1.427,3.274C1.427,3.274,1.427,-0.132,1.427,-0.132C1.427,-1.175,0.948,-1.655,0.12,-1.655C-0.779,-1.655,-1.427,-1.103,-1.427,0.084C-1.427,0.084,-1.427,3.274,-1.427,3.274C-1.427,3.274,-3.298,3.274,-3.298,3.274C-3.298,3.274,-3.298,-3.178,-3.298,-3.178C-3.298,-3.178,-1.511,-3.178,-1.511,-3.178C-1.511,-3.178,-1.511,-2.423,-1.511,-2.423C-1.007,-2.975,-0.252,-3.274,0.624,-3.274C2.147,-3.274,3.298,-2.387,3.298,-0.42Z" /></g><g id="i3" transform="matrix(1,0,0,1,415.616,384.985)"><path fill="#ffffff" d="M3.34,1.559C3.34,2.974,2.249,4.27,-0.138,4.27C-1.313,4.27,-2.525,3.946,-3.34,3.37C-3.34,3.37,-2.584,1.883,-2.584,1.883C-1.948,2.362,-1.062,2.638,-0.186,2.638C0.786,2.638,1.385,2.243,1.385,1.559C1.385,0.923,0.918,0.528,-0.186,0.528C-0.186,0.528,-1.074,0.528,-1.074,0.528C-1.074,0.528,-1.074,-0.756,-1.074,-0.756C-1.074,-0.756,0.654,-2.711,0.654,-2.711C0.654,-2.711,-2.92,-2.711,-2.92,-2.711C-2.92,-2.711,-2.92,-4.27,-2.92,-4.27C-2.92,-4.27,2.957,-4.27,2.957,-4.27C2.957,-4.27,2.957,-3.01,2.957,-3.01C2.957,-3.01,1.061,-0.851,1.061,-0.851C2.573,-0.611,3.34,0.324,3.34,1.559Z" /></g></g></g></g></g></g><g id="i8"><g transform="translate(393.304,347.593)"><animateTransform repeatCount="indefinite" type="translate" attributeName="transform" dur="8s" begin="0s" calcMode="spline" values="393.304 347.593; 393.304 347.593; 393.304 374.593; 393.304 374.593; 393.304 347.593; 393.304 347.593" keyTimes="0; 0.441667; 0.535417; 0.660417; 0.75625; 1" keySplines="0 0 1 1; 0.672 0 0.239 1; 0 0 1 1; 0.93 0 0.49 1; 0 0 1 1" fill="freeze" /><g transform="scale(1,1) translate(0,0)"><g opacity="0" visibility="hidden" id="i18"><animate repeatCount="indefinite" begin="0s" calcMode="discrete" dur="8s" values="hidden; visible; hidden; hidden" keyTimes="0; 0.442; 0.89; 1" attributeName="visibility" /><animate repeatCount="indefinite" attributeName="opacity" dur="8s" begin="0s" fill="freeze" values="0; 0; 1; 1; 0; 0" keyTimes="0; 0.495833; 0.535417; 0.660417; 0.702083; 1" keySplines="0 0 1 1; 0.672 0 0.239 1; 0.167 0 0.239 1; 0.167 0 0.833 1; 0 0 1 1" calcMode="spline" /><g transform="translate(-0.099,28.462)"><g transform="scale(1,1)"><animateTransform repeatCount="indefinite" type="scale" attributeName="transform" dur="8s" begin="0s" calcMode="spline" values="1 1; 1 1; 0.8 0.8; 1 1; 1 1" keyTimes="0; 0.625; 0.660417; 0.702083; 1" keySplines="0 0 1 1; 0.798 0 0.232 1; 0.167 0 0.467 1; 0 0 1 1" fill="freeze" /><g transform="translate(-393.206,-403.055)"><g id="i10" transform="matrix(1,0,0,1,370.561,402.414)"><path fill="#ffffff" d="M-4.594,0C-4.594,-2.495,-2.65,-4.342,0,-4.342C2.639,-4.342,4.594,-2.507,4.594,0C4.594,2.507,2.639,4.342,0,4.342C-2.65,4.342,-4.594,2.494,-4.594,0ZM2.627,0C2.627,-1.596,1.5,-2.687,0,-2.687C-1.499,-2.687,-2.627,-1.596,-2.627,0C-2.627,1.595,-1.499,2.687,0,2.687C1.5,2.687,2.627,1.595,2.627,0Z" /></g><g id="i11" transform="matrix(1,0,0,1,380.005,404.501)"><path fill="#ffffff" d="M3.514,-1.115C3.514,0.911,2.111,2.207,0.3,2.207C-0.503,2.207,-1.163,1.955,-1.643,1.427C-1.643,1.427,-1.643,4.438,-1.643,4.438C-1.643,4.438,-3.514,4.438,-3.514,4.438C-3.514,4.438,-3.514,-4.342,-3.514,-4.342C-3.514,-4.342,-1.727,-4.342,-1.727,-4.342C-1.727,-4.342,-1.727,-3.598,-1.727,-3.598C-1.259,-4.161,-0.563,-4.438,0.3,-4.438C2.111,-4.438,3.514,-3.142,3.514,-1.115ZM1.619,-1.115C1.619,-2.231,0.912,-2.902,-0.024,-2.902C-0.96,-2.902,-1.667,-2.231,-1.667,-1.115C-1.667,0,-0.96,0.672,-0.024,0.672C0.912,0.672,1.619,0,1.619,-1.115Z" /></g><g id="i12" transform="matrix(1,0,0,1,386.469,402.72)"><path fill="#ffffff" d="M2.465,3.58C2.081,3.855,1.517,3.988,0.941,3.988C-0.582,3.988,-1.469,3.208,-1.469,1.673C-1.469,1.673,-1.469,-0.978,-1.469,-0.978C-1.469,-0.978,-2.465,-0.978,-2.465,-0.978C-2.465,-0.978,-2.465,-2.417,-2.465,-2.417C-2.465,-2.417,-1.469,-2.417,-1.469,-2.417C-1.469,-2.417,-1.469,-3.988,-1.469,-3.988C-1.469,-3.988,0.402,-3.988,0.402,-3.988C0.402,-3.988,0.402,-2.417,0.402,-2.417C0.402,-2.417,2.009,-2.417,2.009,-2.417C2.009,-2.417,2.009,-0.978,2.009,-0.978C2.009,-0.978,0.402,-0.978,0.402,-0.978C0.402,-0.978,0.402,1.649,0.402,1.649C0.402,2.201,0.701,2.501,1.205,2.501C1.481,2.501,1.757,2.417,1.961,2.261C1.961,2.261,2.465,3.58,2.465,3.58Z" /></g><g id="i13" transform="matrix(1,0,0,1,390.927,401.892)"><path fill="#ffffff" d="M-1.163,-3.676C-1.163,-4.263,-0.695,-4.719,0,-4.719C0.696,-4.719,1.163,-4.288,1.163,-3.712C1.163,-3.088,0.696,-2.633,0,-2.633C-0.695,-2.633,-1.163,-3.088,-1.163,-3.676ZM-0.936,-1.733C-0.936,-1.733,0.935,-1.733,0.935,-1.733C0.935,-1.733,0.935,4.719,0.935,4.719C0.935,4.719,-0.936,4.719,-0.936,4.719C-0.936,4.719,-0.936,-1.733,-0.936,-1.733Z" /></g><g id="i14" transform="matrix(1,0,0,1,396.667,403.385)"><path fill="#ffffff" d="M-3.544,0C-3.544,-1.943,-2.045,-3.323,0.006,-3.323C2.057,-3.323,3.544,-1.943,3.544,0C3.544,1.942,2.057,3.323,0.006,3.323C-2.045,3.323,-3.544,1.942,-3.544,0ZM1.649,0C1.649,-1.116,0.941,-1.787,0.006,-1.787C-0.93,-1.787,-1.649,-1.116,-1.649,0C-1.649,1.115,-0.93,1.787,0.006,1.787C0.941,1.787,1.649,1.115,1.649,0Z" /></g><g id="i15" transform="matrix(1,0,0,1,404.761,403.337)"><path fill="#ffffff" d="M3.298,-0.419C3.298,-0.419,3.298,3.274,3.298,3.274C3.298,3.274,1.427,3.274,1.427,3.274C1.427,3.274,1.427,-0.132,1.427,-0.132C1.427,-1.175,0.948,-1.655,0.12,-1.655C-0.779,-1.655,-1.427,-1.103,-1.427,0.084C-1.427,0.084,-1.427,3.274,-1.427,3.274C-1.427,3.274,-3.298,3.274,-3.298,3.274C-3.298,3.274,-3.298,-3.178,-3.298,-3.178C-3.298,-3.178,-1.511,-3.178,-1.511,-3.178C-1.511,-3.178,-1.511,-2.423,-1.511,-2.423C-1.007,-2.975,-0.252,-3.274,0.624,-3.274C2.147,-3.274,3.298,-2.386,3.298,-0.419Z" /></g><g id="i3" transform="matrix(1,0,0,1,416.551,402.414)"><path fill="#ffffff" d="M3.892,2.435C3.892,2.435,2.524,2.435,2.524,2.435C2.524,2.435,2.524,4.198,2.524,4.198C2.524,4.198,0.629,4.198,0.629,4.198C0.629,4.198,0.629,2.435,0.629,2.435C0.629,2.435,-3.892,2.435,-3.892,2.435C-3.892,2.435,-3.892,1.127,-3.892,1.127C-3.892,1.127,0.066,-4.198,0.066,-4.198C0.066,-4.198,2.105,-4.198,2.105,-4.198C2.105,-4.198,-1.565,0.852,-1.565,0.852C-1.565,0.852,0.689,0.852,0.689,0.852C0.689,0.852,0.689,-0.719,0.689,-0.719C0.689,-0.719,2.524,-0.719,2.524,-0.719C2.524,-0.719,2.524,0.852,2.524,0.852C2.524,0.852,3.892,0.852,3.892,0.852C3.892,0.852,3.892,2.435,3.892,2.435Z" /></g></g></g></g></g></g></g></g><g transform="matrix(1,0,0,1,0,0)" visibility="hidden" id="i19"><animate repeatCount="indefinite" begin="0s" calcMode="discrete" dur="8s" values="hidden; visible; hidden; hidden" keyTimes="0; 0.208; 0.885; 1" attributeName="visibility" /><g opacity="0"><animate repeatCount="indefinite" attributeName="opacity" dur="8s" begin="0s" fill="freeze" values="0; 0; 1; 1; 0; 0" keyTimes="0; 0.28125; 0.283333; 0.84375; 0.845833; 1" keySplines="0 0 1 1; 0 0 1 1; 0 0 1 1; 0 0 1 1; 0 0 1 1" calcMode="spline" /><g transform="translate(576.957,311.152)"><animateTransform repeatCount="indefinite" type="translate" attributeName="transform" dur="8s" begin="0s" calcMode="spline" values="576.957 311.152; 576.957 311.152; 485.13 311.152; 393.304 311.152; 393.304 311.152; 576.957 311.152; 576.957 311.152" keyTimes="0; 0.28125; 0.34375; 0.40625; 0.75; 0.84375; 1" keySplines="0 0 1 1; 0.806 0 0.202 1; 0.826 0 0.223 1; 0 0 1 1; 0.787 0 0.301 1; 0 0 1 1" fill="freeze" /><g id="i20" transform="translate(-393.304,-311.152)"><g id="i15" transform="matrix(1,0,0,1,393.304,311.152)"><path stroke-miterlimit="10" stroke-width="3" stroke="#000000" fill="#ffffff" d="M33.391,9.783C33.391,9.783,-33.391,9.783,-33.391,9.783C-36.561,9.783,-39.13,7.213,-39.13,4.043C-39.13,4.043,-39.13,-4.043,-39.13,-4.043C-39.13,-7.213,-36.561,-9.783,-33.391,-9.783C-33.391,-9.783,33.391,-9.783,33.391,-9.783C36.561,-9.783,39.13,-7.213,39.13,-4.043C39.13,-4.043,39.13,4.043,39.13,4.043C39.13,7.213,36.561,9.783,33.391,9.783Z" /></g><g><animate repeatCount="indefinite" attributeName="opacity" dur="8s" begin="0s" fill="freeze" values="1; 1; 0; 0" keyTimes="0; 0.797917; 0.8; 1" keySplines="0 0 1 1; 0 0 1 1; 0 0 1 1" calcMode="spline" /><g transform="translate(419.054,311.984)"><animateTransform repeatCount="indefinite" type="translate" attributeName="transform" dur="8s" begin="0s" calcMode="spline" values="419.054 311.984; 419.054 311.984; 419.054 313.109; 419.054 311.984; 419.054 311.984" keyTimes="0; 0.40625; 0.441667; 0.483333; 1" keySplines="0 0 1 1; 0.798 0 0.232 1; 0.167 0 0.467 1; 0 0 1 1" fill="freeze" /><g id="i21" transform="scale(1,1)"><animateTransform repeatCount="indefinite" type="scale" attributeName="transform" dur="8s" begin="0s" calcMode="spline" values="1 1; 1 1; 0.87 0.87; 1 1; 1 1" keyTimes="0; 0.40625; 0.441667; 0.483333; 1" keySplines="0 0 1 1; 0.798 0 0.232 1; 0.167 0 0.467 1; 0 0 1 1" fill="freeze" /><path stroke-linejoin="round" stroke-linecap="round" stroke-width="3" stroke="#000000" fill="#ffffff" d="M3.815,-1.908C3.815,-1.908,0,1.908,0,1.908C0,1.908,-3.815,-1.908,-3.815,-1.908C-3.815,-1.908,0,1.908,0,1.908" /></g></g></g></g></g></g><g opacity="0"><animate repeatCount="indefinite" attributeName="opacity" dur="8s" begin="0s" fill="freeze" values="0; 0; 1; 1; 0; 0" keyTimes="0; 0.28125; 0.283333; 0.797917; 0.8; 1" keySplines="0 0 1 1; 0 0 1 1; 0 0 1 1; 0 0 1 1; 0 0 1 1" calcMode="spline" /><g id="i22" transform="translate(576.957,311.152)"><animateTransform repeatCount="indefinite" type="translate" attributeName="transform" dur="8s" begin="0s" calcMode="spline" values="576.957 311.152; 576.957 311.152; 485.13 311.152; 485.13 311.152; 485.13 311.152; 485.13 311.152" keyTimes="0; 0.28125; 0.34375; 0.40625; 0.75; 1" keySplines="0 0 1 1; 0.806 0 0.202 1; 0 0 1 1; 0 0 1 1; 0 0 1 1" fill="freeze" /><path stroke-miterlimit="10" stroke-width="3" stroke="#000000" fill="#ffffff" d="M33.391,9.783C33.391,9.783,-33.391,9.783,-33.391,9.783C-36.561,9.783,-39.13,7.213,-39.13,4.043C-39.13,4.043,-39.13,-4.043,-39.13,-4.043C-39.13,-7.213,-36.561,-9.783,-33.391,-9.783C-33.391,-9.783,33.391,-9.783,33.391,-9.783C36.561,-9.783,39.13,-7.213,39.13,-4.043C39.13,-4.043,39.13,4.043,39.13,4.043C39.13,7.213,36.561,9.783,33.391,9.783Z" /></g></g><g id="i23" transform="matrix(1,0,0,1,576.957,311.152)"><path stroke-dashoffset="-43.056" stroke-dasharray="0 100" pathLength="100" d="M33.391,9.783C33.391,9.783,-33.391,9.783,-33.391,9.783C-36.561,9.783,-39.13,7.213,-39.13,4.043C-39.13,4.043,-39.13,-4.043,-39.13,-4.043C-39.13,-7.213,-36.561,-9.783,-33.391,-9.783C-33.391,-9.783,33.391,-9.783,33.391,-9.783C36.561,-9.783,39.13,-7.213,39.13,-4.043C39.13,-4.043,39.13,4.043,39.13,4.043C39.13,7.213,36.561,9.783,33.391,9.783Z" stroke-miterlimit="10" stroke-width="3" stroke="#000000" fill="#ffffff"><animate repeatCount="indefinite" fill="freeze" begin="0s" dur="8s" calcMode="spline" keySplines="0 0 1 1; 0.785 0 0.157 1; 0.333 0 0.157 1; 0.333 0 0.667 1; 0 0 1 1" keyTimes="0; 0.208333; 0.28125; 0.84375; 0.864583; 1" values="0 100; 0 100; 100 0; 100 0; 0 100; 0 100" attributeName="stroke-dasharray" /><animate repeatCount="indefinite" fill="freeze" begin="0s" dur="8s" calcMode="spline" keySplines="0 0 1 1; 0.785 0 0.157 1; 0.333 0 0.157 1; 0.333 0 0.667 1; 0 0 1 1" keyTimes="0; 0.208333; 0.28125; 0.84375; 0.864583; 1" values="-43.056; -43.056; -93.056; -93.056; -43.056; -43.056" attributeName="stroke-dashoffset" /></path></g></g><g visibility="visible" id="i24"><animate repeatCount="indefinite" begin="0s" calcMode="discrete" dur="8s" values="visible; hidden; hidden" keyTimes="0; 0.954; 1" attributeName="visibility" /><g transform="translate(-40.674,572.174)"><animateMotion repeatCount="indefinite" dur="8s" begin="0s" calcMode="spline" keyTimes="0; 0.172917; 0.175; 0.279167; 0.28125; 0.40625; 0.514583; 0.516666; 0.625; 0.627083; 0.75; 0.752083; 0.872917; 1" keySplines="0.614 0 0.467 1; 0.798 0 0.833 0.833; 0 0 1 1; 0.167 0.167 0.467 1; 0.74 0 0.099 1; 0 0 1 1; 0 0 1 1; 0.811 0 0.214 1; 0.167 0 0.833 0.833; 0 0 1 1; 0.167 0 0.214 1; 0.827 0 0.214 1; 0 0 1 1" keyPoints="0; 0.339; 0.366; 0.366; 0.469; 0.519; 0.519; 0.519; 0.633; 0.64; 0.64; 0.694; 1; 1" path="M0 0 C277.333 140.667 568.667 -0.667 436 -172 C400.811 -217.445 436 -172 436 -172 C436 -172 436 -172 436 -172 C436 -172 568.667 -0.667 436 -172 C400.811 -217.445 452.5 -254.75 452.5 -254.75 C452.5 -254.75 452.5 -254.75 452.5 -254.75 C452.5 -254.75 452.5 -254.75 452.5 -254.75 C543 -307.333 554 -113.417 452.5 -169.75 C452.5 -155.583 452.5 -169.75 452.5 -169.75 C452.5 -169.75 452.5 -169.75 452.5 -169.75 C452.5 -169.75 554 -113.417 452.5 -169.75 C296 -347.083 157.167 -383.75 -43.5 -219.75" fill="freeze" /><g transform="rotate(127)"><animateTransform repeatCount="indefinite" type="rotate" attributeName="transform" dur="8s" begin="0s" calcMode="spline" values="127; -48; -48; 43; 43; 320; 320; 235; 235" keyTimes="0; 0.172917; 0.28125; 0.40625; 0.516666; 0.625; 0.752083; 0.872917; 1" keySplines="0.614 0 0.467 1; 0.798 0 0.467 1; 0.74 0 0.099 1; 0.167 0 0.099 1; 0.811 0 0.214 1; 0.167 0 0.214 1; 0.827 0 0.214 1; 0 0 1 1" fill="freeze" /><g transform="scale(1.54,1.54)"><animateTransform repeatCount="indefinite" type="scale" attributeName="transform" dur="8s" begin="0s" calcMode="spline" values="1.54 1.54; 1 1; 0.7 0.7; 1 1; 1 1; 1 1; 0.7 0.7; 1 1; 1 1; 1 1; 0.7 0.7; 1 1; 1 1; 1 1" keyTimes="0; 0.172916; 0.208333; 0.25; 0.28125; 0.40625; 0.441667; 0.483333; 0.514584; 0.625; 0.660417; 0.702083; 0.733333; 1" keySplines="0.614 0 0.467 1; 0.798 0 0.232 1; 0.167 0 0.467 1; 0 0 1 1; 0 0 1 1; 0.798 0 0.232 1; 0.167 0 0.467 1; 0 0 1 1; 0 0 1 1; 0.798 0 0.232 1; 0.167 0 0.467 1; 0 0 1 1; 0 0 1 1" fill="freeze" /><g transform="translate(78.674,-234.174)"><g id="i3"><path stroke-miterlimit="10" stroke-width="3" stroke="#000000" fill="#53dcff" d="M-52.261,303.435C-52.261,303.435,-78.674,293.435,-78.674,293.435C-78.674,293.435,-105.087,303.435,-105.087,303.435C-105.087,303.435,-78.674,234.174,-78.674,234.174C-78.674,234.174,-52.261,303.435,-52.261,303.435Z" /></g></g></g></g></g></g></g></defs><g id="i25"><g transform="translate(638,157)"><animateTransform repeatCount="indefinite" type="translate" attributeName="transform" dur="8s" begin="0s" calcMode="spline" values="638 157; 400 400; 400 400; 400 400; 300 400; 300 400; 400 400; 400 400; 638 157; 638 157" keyTimes="0; 0.172917; 0.208333; 0.28125; 0.40625; 0.660416; 0.75; 0.939583; 0.997917; 1" keySplines="0.614 0 0.467 1; 0 0 1 1; 0 0 1 1; 0.74 0 0.099 1; 0 0 1 1; 0.798 0 0.467 1; 0 0 1 1; 0.167 0 0.667 1; 0 0 1 1" fill="freeze" /><g transform="scale(1.66,1.66)"><animateTransform repeatCount="indefinite" type="scale" attributeName="transform" dur="8s" begin="0s" calcMode="spline" values="1.66 1.66; 1 1; 1 1; 1.55 1.55; 1.55 1.55; 2.69 2.69; 2.69 2.69; 1.55 1.55; 1.55 1.55; 1.66 1.66; 1.66 1.66" keyTimes="0; 0.172917; 0.208333; 0.25; 0.28125; 0.40625; 0.660416; 0.75; 0.939583; 0.997917; 1" keySplines="0.614 0 0.467 1; 0 0 1 1; 0.167 0 0.467 1; 0 0 1 1; 0.74 0 0.099 1; 0 0 1 1; 0.798 0 0.467 1; 0 0 1 1; 0.167 0 0.667 1; 0 0 1 1" fill="freeze" /><g transform="translate(-400,-400)"><g clip-path="url(#i0)"><g transform="matrix(1,0,0,1,400,400)"><g><path fill="#e0efff" d="M400,400C400,400,-400,400,-400,400C-400,400,-400,-400,-400,-400C-400,-400,400,-400,400,-400C400,-400,400,400,400,400Z"><animate repeatCount="indefinite" attributeName="fill" dur="8s" begin="0s" fill="freeze" values="#e0efff; #ffeee0; #8ae66a; #8ae66a; #417dbb; #34a8a9; #e0efff; #e0efff" keyTimes="0; 0.172917; 0.28125; 0.40625; 0.660416; 0.75; 0.997917; 1" keySplines="0.614 0 0.467 1; 0.798 0 0.467 1; 0.74 0 0.099 1; 0.167 0 0.467 1; 0.798 0 0.467 1; 0.167 0 0.667 1; 0 0 1 1" calcMode="spline" /></path></g></g><g><g transform="translate(400,597)"><animateTransform repeatCount="indefinite" type="translate" attributeName="transform" dur="8s" begin="0s" calcMode="spline" values="400 597; 400 400; 400 400; 400 -511; 400 -511" keyTimes="0; 0.172917; 0.864584; 0.995833; 1" keySplines="0.614 0 0 1; 0 0 1 1; 0.685 0 0.272 1; 0 0 1 1" fill="freeze" /><g transform="scale(3.396,3.396)"><animateTransform repeatCount="indefinite" type="scale" attributeName="transform" dur="8s" begin="0s" calcMode="spline" values="3.396 3.396; 0.956 0.956; 0.956 0.956; 3.396 3.396; 3.396 3.396" keyTimes="0; 0.172917; 0.864584; 0.995833; 1" keySplines="0.614 0 0 1; 0.333 0 0 1; 0.685 0 0.272 1; 0 0 1 1" fill="freeze" /><g transform="translate(0,0)"><g><path d="M248.283,141.152C248.283,141.152,-248.283,141.152,-248.283,141.152C-248.283,141.152,-148,78.848,-148,78.848C-148,78.848,148.565,78.848,148.565,78.848C148.565,78.848,248.283,141.152,248.283,141.152Z" stroke-miterlimit="10" stroke-width="3" stroke="#000000" fill="#ffffff"><animate repeatCount="indefinite" attributeName="d" dur="8s" begin="0s" calcMode="spline" values="M248.283,141.152C248.283,141.152,-248.283,141.152,-248.283,141.152C-248.283,141.152,-148,78.848,-148,78.848C-148,78.848,148.565,78.848,148.565,78.848C148.565,78.848,248.283,141.152,248.283,141.152Z; M248.283,141.152C248.283,141.152,-248.283,141.152,-248.283,141.152C-248.283,141.152,-248.283,-141.152,-248.283,-141.152C-248.283,-141.152,248.283,-141.152,248.283,-141.152C248.283,-141.152,248.283,141.152,248.283,141.152Z; M248.283,141.152C248.283,141.152,-248.283,141.152,-248.283,141.152C-248.283,141.152,-248.283,-141.152,-248.283,-141.152C-248.283,-141.152,248.283,-141.152,248.283,-141.152C248.283,-141.152,248.283,141.152,248.283,141.152Z; M248.283,141.152C248.283,141.152,-248.283,141.152,-248.283,141.152C-248.283,141.152,-750.49,-141.152,-750.49,-141.152C-750.49,-141.152,750.49,-141.152,750.49,-141.152C750.49,-141.152,248.283,141.152,248.283,141.152Z; M248.283,141.152C248.283,141.152,-248.283,141.152,-248.283,141.152C-248.283,141.152,-750.49,-141.152,-750.49,-141.152C-750.49,-141.152,750.49,-141.152,750.49,-141.152C750.49,-141.152,248.283,141.152,248.283,141.152Z" keyTimes="0; 0.172917; 0.864583; 0.995833; 1" keySplines="0.614 0 0.467 1; 0.798 0 0 1; 0.685 0 0.272 1; 0 0 1 1" fill="freeze" /></path></g></g></g></g></g><g visibility="visible"><animate repeatCount="indefinite" begin="0s" calcMode="discrete" dur="8s" values="visible; hidden; hidden" keyTimes="0; 0.875; 1" attributeName="visibility" /><g transform="translate(400,400)"><animateTransform repeatCount="indefinite" type="translate" attributeName="transform" dur="8s" begin="0s" calcMode="spline" values="400 400; 400 400; 210.489 311.152; 210.489 311.152" keyTimes="0; 0.28125; 0.40625; 1" keySplines="0 0 1 1; 0.9 0 0.127 1; 0 0 1 1" fill="freeze" /><g transform="scale(2,2)"><animateTransform repeatCount="indefinite" type="scale" attributeName="transform" dur="8s" begin="0s" calcMode="spline" values="2 2; 2 2; 1 1; 1 1" keyTimes="0; 0.28125; 0.40625; 1" keySplines="0 0 1 1; 0.9 0 0.127 1; 0 0 1 1" fill="freeze" /><g transform="translate(-210.489,-311.152)"><g opacity="0"><animate repeatCount="indefinite" attributeName="opacity" dur="8s" begin="0s" fill="freeze" values="0; 0; 1; 1; 0; 0" keyTimes="0; 0.247917; 0.25; 0.8; 0.802083; 1" keySplines="0 0 1 1; 0.333 0 0.667 1; 0.333 0 0.667 1; 0.333 0 0.667 1; 0 0 1 1" calcMode="spline" /><g transform="translate(210.5,311.152)"><animateTransform repeatCount="indefinite" type="translate" attributeName="transform" dur="8s" begin="0s" calcMode="spline" values="210.5 311.152; 210.5 311.152; 200.413 311.152; 200.413 311.152; 210.5 311.152; 210.5 311.152" keyTimes="0; 0.25; 0.316667; 0.75; 0.8; 1" keySplines="0 0 1 1; 0.785 0 0.157 1; 0 0 1 1; 0.333 0 0.667 1; 0 0 1 1" fill="freeze" /><path stroke-miterlimit="10" stroke-width="3" stroke="#000000" d="M20.152,0C20.152,11.13,11.13,20.152,0,20.152C-11.13,20.152,-20.152,11.13,-20.152,0C-20.152,-11.13,-11.13,-20.152,0,-20.152C11.13,-20.152,20.152,-11.13,20.152,0Z" /></g></g><g><g transform="translate(210.5,311.152)"><animateTransform repeatCount="indefinite" type="translate" attributeName="transform" dur="8s" begin="0s" calcMode="spline" values="210.5 311.152; 210.5 311.152; 220.565 311.152; 220.565 311.152; 210.5 311.152; 210.5 311.152" keyTimes="0; 0.25; 0.316667; 0.75; 0.8; 1" keySplines="0 0 1 1; 0.785 0 0.157 1; 0 0 1 1; 0.333 0 0.667 1; 0 0 1 1" fill="freeze" /><path stroke-dashoffset="-75" stroke-dasharray="0 100" pathLength="100" d="M20.152,0C20.152,11.13,11.13,20.152,0,20.152C-11.13,20.152,-20.152,11.13,-20.152,0C-20.152,-11.13,-11.13,-20.152,0,-20.152C11.13,-20.152,20.152,-11.13,20.152,0Z" stroke-miterlimit="10" stroke-width="3" stroke="#000000" fill="#ffffff"><animate repeatCount="indefinite" fill="freeze" begin="0s" dur="8s" calcMode="spline" keySplines="0 0 1 1; 0.82 0 0.245 1; 0.333 0 0.245 1; 0.333 0 0.833 1; 0 0 1 1" keyTimes="0; 0.208333; 0.25; 0.8; 0.864583; 1" values="0 100; 0 100; 100 0; 100 0; 0 100; 0 100" attributeName="stroke-dasharray" /><animate repeatCount="indefinite" fill="freeze" begin="0s" dur="8s" calcMode="spline" keySplines="0 0 1 1; 0.82 0 0.245 1; 0.333 0 0.245 1; 0.333 0 0.833 1; 0 0 1 1" keyTimes="0; 0.208333; 0.25; 0.8; 0.864583; 1" values="-75; -75; -75; -75; -75; -75" attributeName="stroke-dashoffset" /></path></g></g></g></g></g></g><g opacity="0" visibility="hidden"><animate repeatCount="indefinite" begin="0s" calcMode="discrete" dur="8s" values="hidden; visible; hidden; hidden" keyTimes="0; 0.442; 0.89; 1" attributeName="visibility" /><animate repeatCount="indefinite" attributeName="opacity" dur="8s" begin="0s" fill="freeze" values="0; 0; 1; 1; 0; 0" keyTimes="0; 0.441667; 0.535417; 0.660417; 0.75625; 1" keySplines="0 0 1 1; 0.672 0 0.239 1; 0.167 0 0.239 1; 0.167 0 0.833 1; 0 0 1 1" calcMode="spline" /><g transform="translate(393.304,347.593)"><animateTransform repeatCount="indefinite" type="translate" attributeName="transform" dur="8s" begin="0s" calcMode="spline" values="393.304 347.593; 393.304 347.593; 393.304 374.593; 393.304 374.593; 393.304 347.593; 393.304 347.593" keyTimes="0; 0.441667; 0.535417; 0.660417; 0.75625; 1" keySplines="0 0 1 1; 0.672 0 0.239 1; 0 0 1 1; 0.93 0 0.49 1; 0 0 1 1" fill="freeze" /><g transform="scale(1,1) translate(0,0)"><g><path d="M35.565,2.272C35.565,2.272,-35.391,2.272,-35.391,2.272C-38.561,2.272,-41.13,-0.297,-41.13,-3.467C-41.13,-3.467,-41.217,-40.533,-41.217,-40.533C-41.217,-43.703,-38.648,-46.272,-35.478,-46.272C-35.478,-46.272,35.478,-46.272,35.478,-46.272C38.648,-46.272,41.217,-43.703,41.217,-40.533C41.217,-40.533,41.304,-3.467,41.304,-3.467C41.304,-0.297,38.735,2.272,35.565,2.272Z" stroke-miterlimit="10" stroke-width="3" stroke="#000000" fill="#151515"><animate repeatCount="indefinite" attributeName="d" dur="8s" begin="0s" calcMode="spline" values="M35.565,2.272C35.565,2.272,-35.391,2.272,-35.391,2.272C-38.561,2.272,-41.13,-0.297,-41.13,-3.467C-41.13,-3.467,-41.217,-40.533,-41.217,-40.533C-41.217,-43.703,-38.648,-46.272,-35.478,-46.272C-35.478,-46.272,35.478,-46.272,35.478,-46.272C38.648,-46.272,41.217,-43.703,41.217,-40.533C41.217,-40.533,41.304,-3.467,41.304,-3.467C41.304,-0.297,38.735,2.272,35.565,2.272Z; M35.565,2.272C35.565,2.272,-35.391,2.272,-35.391,2.272C-38.561,2.272,-41.13,-0.297,-41.13,-3.467C-41.13,-3.467,-41.217,-40.533,-41.217,-40.533C-41.217,-43.703,-38.648,-46.272,-35.478,-46.272C-35.478,-46.272,35.478,-46.272,35.478,-46.272C38.648,-46.272,41.217,-43.703,41.217,-40.533C41.217,-40.533,41.304,-3.467,41.304,-3.467C41.304,-0.297,38.735,2.272,35.565,2.272Z; M35.478,46.272C35.478,46.272,-35.478,46.272,-35.478,46.272C-38.648,46.272,-41.217,43.703,-41.217,40.533C-41.217,40.533,-41.217,-40.533,-41.217,-40.533C-41.217,-43.703,-38.648,-46.272,-35.478,-46.272C-35.478,-46.272,35.478,-46.272,35.478,-46.272C38.648,-46.272,41.217,-43.703,41.217,-40.533C41.217,-40.533,41.217,40.533,41.217,40.533C41.217,43.703,38.648,46.272,35.478,46.272Z; M35.478,46.272C35.478,46.272,-35.478,46.272,-35.478,46.272C-38.648,46.272,-41.217,43.703,-41.217,40.533C-41.217,40.533,-41.217,-40.533,-41.217,-40.533C-41.217,-43.703,-38.648,-46.272,-35.478,-46.272C-35.478,-46.272,35.478,-46.272,35.478,-46.272C38.648,-46.272,41.217,-43.703,41.217,-40.533C41.217,-40.533,41.217,40.533,41.217,40.533C41.217,43.703,38.648,46.272,35.478,46.272Z; M35.565,2.272C35.565,2.272,-35.391,2.272,-35.391,2.272C-38.561,2.272,-41.13,-0.297,-41.13,-3.467C-41.13,-3.467,-41.217,-40.533,-41.217,-40.533C-41.217,-43.703,-38.648,-46.272,-35.478,-46.272C-35.478,-46.272,35.478,-46.272,35.478,-46.272C38.648,-46.272,41.217,-43.703,41.217,-40.533C41.217,-40.533,41.304,-3.467,41.304,-3.467C41.304,-0.297,38.735,2.272,35.565,2.272Z; M35.565,2.272C35.565,2.272,-35.391,2.272,-35.391,2.272C-38.561,2.272,-41.13,-0.297,-41.13,-3.467C-41.13,-3.467,-41.217,-40.533,-41.217,-40.533C-41.217,-43.703,-38.648,-46.272,-35.478,-46.272C-35.478,-46.272,35.478,-46.272,35.478,-46.272C38.648,-46.272,41.217,-43.703,41.217,-40.533C41.217,-40.533,41.304,-3.467,41.304,-3.467C41.304,-0.297,38.735,2.272,35.565,2.272Z" keyTimes="0; 0.441667; 0.535417; 0.660417; 0.75625; 1" keySplines="0 0 1 1; 0.672 0 0.239 1; 0.167 0 0.239 1; 0.93 0 0.49 1; 0 0 1 1" fill="freeze" /></path></g></g></g></g><g><g transform="translate(393.304,347.593)"><animateTransform repeatCount="indefinite" type="translate" attributeName="transform" dur="8s" begin="0s" calcMode="spline" values="393.304 347.593; 393.304 347.593; 393.304 374.593; 393.304 374.593; 393.304 347.593; 393.304 347.593" keyTimes="0; 0.441667; 0.535417; 0.660417; 0.75625; 1" keySplines="0 0 1 1; 0.672 0 0.239 1; 0 0 1 1; 0.93 0 0.49 1; 0 0 1 1" fill="freeze" /><g transform="scale(1,1) translate(0,0)"><g opacity="0" visibility="hidden"><animate repeatCount="indefinite" begin="0s" calcMode="discrete" dur="8s" values="hidden; visible; hidden; hidden" keyTimes="0; 0.442; 0.89; 1" attributeName="visibility" /><animate repeatCount="indefinite" attributeName="opacity" dur="8s" begin="0s" fill="freeze" values="0; 0; 1; 1; 0; 0" keyTimes="0; 0.472917; 0.535417; 0.660417; 0.7375; 1" keySplines="0 0 1 1; 0.672 0 0.239 1; 0.167 0 0.239 1; 0.167 0 0.833 1; 0 0 1 1" calcMode="spline" /><g transform="translate(-2.324,-24.04) scale(1,1) translate(-390.98,-350.554)"><g transform="matrix(1,0,0,1,370.561,349.912)"><path fill="#ffffff" d="M-4.594,0C-4.594,-2.495,-2.65,-4.342,0,-4.342C2.639,-4.342,4.594,-2.506,4.594,0C4.594,2.507,2.639,4.342,0,4.342C-2.65,4.342,-4.594,2.495,-4.594,0ZM2.627,0C2.627,-1.595,1.5,-2.687,0,-2.687C-1.499,-2.687,-2.627,-1.595,-2.627,0C-2.627,1.595,-1.499,2.687,0,2.687C1.5,2.687,2.627,1.595,2.627,0Z" /></g><g transform="matrix(1,0,0,1,380.005,351.999)"><path fill="#ffffff" d="M3.514,-1.115C3.514,0.912,2.111,2.207,0.3,2.207C-0.503,2.207,-1.163,1.955,-1.643,1.427C-1.643,1.427,-1.643,4.438,-1.643,4.438C-1.643,4.438,-3.514,4.438,-3.514,4.438C-3.514,4.438,-3.514,-4.342,-3.514,-4.342C-3.514,-4.342,-1.727,-4.342,-1.727,-4.342C-1.727,-4.342,-1.727,-3.598,-1.727,-3.598C-1.259,-4.161,-0.563,-4.438,0.3,-4.438C2.111,-4.438,3.514,-3.142,3.514,-1.115ZM1.619,-1.115C1.619,-2.231,0.912,-2.902,-0.024,-2.902C-0.96,-2.902,-1.667,-2.231,-1.667,-1.115C-1.667,0,-0.96,0.672,-0.024,0.672C0.912,0.672,1.619,0,1.619,-1.115Z" /></g><g transform="matrix(1,0,0,1,386.469,350.218)"><path fill="#ffffff" d="M2.465,3.58C2.081,3.856,1.517,3.988,0.941,3.988C-0.582,3.988,-1.469,3.208,-1.469,1.673C-1.469,1.673,-1.469,-0.977,-1.469,-0.977C-1.469,-0.977,-2.465,-0.977,-2.465,-0.977C-2.465,-0.977,-2.465,-2.417,-2.465,-2.417C-2.465,-2.417,-1.469,-2.417,-1.469,-2.417C-1.469,-2.417,-1.469,-3.988,-1.469,-3.988C-1.469,-3.988,0.402,-3.988,0.402,-3.988C0.402,-3.988,0.402,-2.417,0.402,-2.417C0.402,-2.417,2.009,-2.417,2.009,-2.417C2.009,-2.417,2.009,-0.977,2.009,-0.977C2.009,-0.977,0.402,-0.977,0.402,-0.977C0.402,-0.977,0.402,1.649,0.402,1.649C0.402,2.201,0.701,2.501,1.205,2.501C1.481,2.501,1.757,2.416,1.961,2.26C1.961,2.26,2.465,3.58,2.465,3.58Z" /></g><g transform="matrix(1,0,0,1,390.927,349.39)"><path fill="#ffffff" d="M-1.163,-3.676C-1.163,-4.263,-0.695,-4.719,0,-4.719C0.696,-4.719,1.163,-4.288,1.163,-3.712C1.163,-3.088,0.696,-2.633,0,-2.633C-0.695,-2.633,-1.163,-3.088,-1.163,-3.676ZM-0.936,-1.733C-0.936,-1.733,0.935,-1.733,0.935,-1.733C0.935,-1.733,0.935,4.719,0.935,4.719C0.935,4.719,-0.936,4.719,-0.936,4.719C-0.936,4.719,-0.936,-1.733,-0.936,-1.733Z" /></g><g transform="matrix(1,0,0,1,396.667,350.884)"><path fill="#ffffff" d="M-3.544,0C-3.544,-1.943,-2.045,-3.322,0.006,-3.322C2.057,-3.322,3.544,-1.943,3.544,0C3.544,1.943,2.057,3.322,0.006,3.322C-2.045,3.322,-3.544,1.943,-3.544,0ZM1.649,0C1.649,-1.116,0.941,-1.787,0.006,-1.787C-0.93,-1.787,-1.649,-1.116,-1.649,0C-1.649,1.115,-0.93,1.787,0.006,1.787C0.941,1.787,1.649,1.115,1.649,0Z" /></g><g transform="matrix(1,0,0,1,404.761,350.836)"><path fill="#ffffff" d="M3.298,-0.42C3.298,-0.42,3.298,3.274,3.298,3.274C3.298,3.274,1.427,3.274,1.427,3.274C1.427,3.274,1.427,-0.132,1.427,-0.132C1.427,-1.175,0.948,-1.655,0.12,-1.655C-0.779,-1.655,-1.427,-1.103,-1.427,0.084C-1.427,0.084,-1.427,3.274,-1.427,3.274C-1.427,3.274,-3.298,3.274,-3.298,3.274C-3.298,3.274,-3.298,-3.178,-3.298,-3.178C-3.298,-3.178,-1.511,-3.178,-1.511,-3.178C-1.511,-3.178,-1.511,-2.423,-1.511,-2.423C-1.007,-2.975,-0.252,-3.274,0.624,-3.274C2.147,-3.274,3.298,-2.387,3.298,-0.42Z" /></g><g transform="matrix(1,0,0,1,414.182,349.912)"><path fill="#ffffff" d="M1.811,-4.198C1.811,-4.198,1.811,4.198,1.811,4.198C1.811,4.198,-0.131,4.198,-0.131,4.198C-0.131,4.198,-0.131,-2.639,-0.131,-2.639C-0.131,-2.639,-1.811,-2.639,-1.811,-2.639C-1.811,-2.639,-1.811,-4.198,-1.811,-4.198C-1.811,-4.198,1.811,-4.198,1.811,-4.198Z" /></g></g></g></g></g></g><g><g transform="translate(393.304,347.593)"><animateTransform repeatCount="indefinite" type="translate" attributeName="transform" dur="8s" begin="0s" calcMode="spline" values="393.304 347.593; 393.304 347.593; 393.304 374.593; 393.304 374.593; 393.304 347.593; 393.304 347.593" keyTimes="0; 0.441667; 0.535417; 0.660417; 0.75625; 1" keySplines="0 0 1 1; 0.672 0 0.239 1; 0 0 1 1; 0.93 0 0.49 1; 0 0 1 1" fill="freeze" /><g transform="scale(1,1) translate(0,0)"><g opacity="0" visibility="hidden"><animate repeatCount="indefinite" begin="0s" calcMode="discrete" dur="8s" values="hidden; visible; hidden; hidden" keyTimes="0; 0.442; 0.89; 1" attributeName="visibility" /><animate repeatCount="indefinite" attributeName="opacity" dur="8s" begin="0s" fill="freeze" values="0; 0; 1; 1; 0; 0" keyTimes="0; 0.480554; 0.535417; 0.660417; 0.725696; 1" keySplines="0 0 1 1; 0.672 0 0.239 1; 0.167 0 0.239 1; 0.167 0 0.833 1; 0 0 1 1" calcMode="spline" /><g transform="translate(-0.807,-6.539) scale(1,1) translate(-392.498,-368.054)"><g transform="matrix(1,0,0,1,370.561,367.413)"><path fill="#ffffff" d="M-4.594,0C-4.594,-2.495,-2.65,-4.342,0,-4.342C2.639,-4.342,4.594,-2.506,4.594,0C4.594,2.507,2.639,4.342,0,4.342C-2.65,4.342,-4.594,2.495,-4.594,0ZM2.627,0C2.627,-1.595,1.5,-2.687,0,-2.687C-1.499,-2.687,-2.627,-1.595,-2.627,0C-2.627,1.595,-1.499,2.687,0,2.687C1.5,2.687,2.627,1.595,2.627,0Z" /></g><g transform="matrix(1,0,0,1,380.005,369.5)"><path fill="#ffffff" d="M3.514,-1.115C3.514,0.912,2.111,2.207,0.3,2.207C-0.503,2.207,-1.163,1.955,-1.643,1.427C-1.643,1.427,-1.643,4.438,-1.643,4.438C-1.643,4.438,-3.514,4.438,-3.514,4.438C-3.514,4.438,-3.514,-4.342,-3.514,-4.342C-3.514,-4.342,-1.727,-4.342,-1.727,-4.342C-1.727,-4.342,-1.727,-3.598,-1.727,-3.598C-1.259,-4.161,-0.563,-4.438,0.3,-4.438C2.111,-4.438,3.514,-3.142,3.514,-1.115ZM1.619,-1.115C1.619,-2.231,0.912,-2.902,-0.024,-2.902C-0.96,-2.902,-1.667,-2.231,-1.667,-1.115C-1.667,0,-0.96,0.672,-0.024,0.672C0.912,0.672,1.619,0,1.619,-1.115Z" /></g><g transform="matrix(1,0,0,1,386.469,367.719)"><path fill="#ffffff" d="M2.465,3.58C2.081,3.856,1.517,3.988,0.941,3.988C-0.582,3.988,-1.469,3.208,-1.469,1.673C-1.469,1.673,-1.469,-0.977,-1.469,-0.977C-1.469,-0.977,-2.465,-0.977,-2.465,-0.977C-2.465,-0.977,-2.465,-2.417,-2.465,-2.417C-2.465,-2.417,-1.469,-2.417,-1.469,-2.417C-1.469,-2.417,-1.469,-3.988,-1.469,-3.988C-1.469,-3.988,0.402,-3.988,0.402,-3.988C0.402,-3.988,0.402,-2.417,0.402,-2.417C0.402,-2.417,2.009,-2.417,2.009,-2.417C2.009,-2.417,2.009,-0.977,2.009,-0.977C2.009,-0.977,0.402,-0.977,0.402,-0.977C0.402,-0.977,0.402,1.649,0.402,1.649C0.402,2.201,0.701,2.501,1.205,2.501C1.481,2.501,1.757,2.416,1.961,2.26C1.961,2.26,2.465,3.58,2.465,3.58Z" /></g><g transform="matrix(1,0,0,1,390.927,366.891)"><path fill="#ffffff" d="M-1.163,-3.676C-1.163,-4.263,-0.695,-4.719,0,-4.719C0.696,-4.719,1.163,-4.288,1.163,-3.712C1.163,-3.088,0.696,-2.633,0,-2.633C-0.695,-2.633,-1.163,-3.088,-1.163,-3.676ZM-0.936,-1.733C-0.936,-1.733,0.935,-1.733,0.935,-1.733C0.935,-1.733,0.935,4.719,0.935,4.719C0.935,4.719,-0.936,4.719,-0.936,4.719C-0.936,4.719,-0.936,-1.733,-0.936,-1.733Z" /></g><g transform="matrix(1,0,0,1,396.667,368.384)"><path fill="#ffffff" d="M-3.544,0C-3.544,-1.943,-2.045,-3.322,0.006,-3.322C2.057,-3.322,3.544,-1.943,3.544,0C3.544,1.943,2.057,3.322,0.006,3.322C-2.045,3.322,-3.544,1.943,-3.544,0ZM1.649,0C1.649,-1.116,0.941,-1.787,0.006,-1.787C-0.93,-1.787,-1.649,-1.116,-1.649,0C-1.649,1.115,-0.93,1.787,0.006,1.787C0.941,1.787,1.649,1.115,1.649,0Z" /></g><g transform="matrix(1,0,0,1,404.761,368.336)"><path fill="#ffffff" d="M3.298,-0.42C3.298,-0.42,3.298,3.274,3.298,3.274C3.298,3.274,1.427,3.274,1.427,3.274C1.427,3.274,1.427,-0.132,1.427,-0.132C1.427,-1.175,0.948,-1.655,0.12,-1.655C-0.779,-1.655,-1.427,-1.103,-1.427,0.084C-1.427,0.084,-1.427,3.274,-1.427,3.274C-1.427,3.274,-3.298,3.274,-3.298,3.274C-3.298,3.274,-3.298,-3.178,-3.298,-3.178C-3.298,-3.178,-1.511,-3.178,-1.511,-3.178C-1.511,-3.178,-1.511,-2.423,-1.511,-2.423C-1.007,-2.975,-0.252,-3.274,0.624,-3.274C2.147,-3.274,3.298,-2.387,3.298,-0.42Z" /></g><g transform="matrix(1,0,0,1,415.664,367.341)"><path fill="#ffffff" d="M3.364,2.687C3.364,2.687,3.364,4.27,3.364,4.27C3.364,4.27,-2.98,4.27,-2.98,4.27C-2.98,4.27,-2.98,3.01,-2.98,3.01C-2.98,3.01,0.257,-0.048,0.257,-0.048C1.001,-0.756,1.133,-1.187,1.133,-1.595C1.133,-2.255,0.678,-2.638,-0.209,-2.638C-0.929,-2.638,-1.542,-2.362,-1.949,-1.799C-1.949,-1.799,-3.364,-2.71,-3.364,-2.71C-2.717,-3.658,-1.542,-4.27,-0.03,-4.27C1.841,-4.27,3.088,-3.31,3.088,-1.787C3.088,-0.972,2.861,-0.227,1.685,0.864C1.685,0.864,-0.246,2.687,-0.246,2.687C-0.246,2.687,3.364,2.687,3.364,2.687Z" /></g></g></g></g></g></g><g><g transform="translate(393.304,347.593)"><animateTransform repeatCount="indefinite" type="translate" attributeName="transform" dur="8s" begin="0s" calcMode="spline" values="393.304 347.593; 393.304 347.593; 393.304 374.593; 393.304 374.593; 393.304 347.593; 393.304 347.593" keyTimes="0; 0.441667; 0.535417; 0.660417; 0.75625; 1" keySplines="0 0 1 1; 0.672 0 0.239 1; 0 0 1 1; 0.93 0 0.49 1; 0 0 1 1" fill="freeze" /><g transform="scale(1,1) translate(0,0)"><g opacity="0" visibility="hidden"><animate repeatCount="indefinite" begin="0s" calcMode="discrete" dur="8s" values="hidden; visible; hidden; hidden" keyTimes="0; 0.442; 0.89; 1" attributeName="visibility" /><animate repeatCount="indefinite" attributeName="opacity" dur="8s" begin="0s" fill="freeze" values="0; 0; 1; 1; 0; 0" keyTimes="0; 0.488196; 0.535417; 0.660417; 0.713888; 1" keySplines="0 0 1 1; 0.672 0 0.239 1; 0.167 0 0.239 1; 0.167 0 0.833 1; 0 0 1 1" calcMode="spline" /><g transform="translate(-0.842,10.961) scale(1,1) translate(-392.462,-385.555)"><g transform="matrix(1,0,0,1,370.561,384.913)"><path fill="#ffffff" d="M-4.594,0C-4.594,-2.495,-2.65,-4.342,0,-4.342C2.639,-4.342,4.594,-2.506,4.594,0C4.594,2.507,2.639,4.342,0,4.342C-2.65,4.342,-4.594,2.495,-4.594,0ZM2.627,0C2.627,-1.595,1.5,-2.687,0,-2.687C-1.499,-2.687,-2.627,-1.595,-2.627,0C-2.627,1.595,-1.499,2.687,0,2.687C1.5,2.687,2.627,1.595,2.627,0Z" /></g><g transform="matrix(1,0,0,1,380.005,387)"><path fill="#ffffff" d="M3.514,-1.115C3.514,0.912,2.111,2.207,0.3,2.207C-0.503,2.207,-1.163,1.955,-1.643,1.427C-1.643,1.427,-1.643,4.438,-1.643,4.438C-1.643,4.438,-3.514,4.438,-3.514,4.438C-3.514,4.438,-3.514,-4.342,-3.514,-4.342C-3.514,-4.342,-1.727,-4.342,-1.727,-4.342C-1.727,-4.342,-1.727,-3.598,-1.727,-3.598C-1.259,-4.161,-0.563,-4.438,0.3,-4.438C2.111,-4.438,3.514,-3.142,3.514,-1.115ZM1.619,-1.115C1.619,-2.231,0.912,-2.902,-0.024,-2.902C-0.96,-2.902,-1.667,-2.231,-1.667,-1.115C-1.667,0,-0.96,0.672,-0.024,0.672C0.912,0.672,1.619,0,1.619,-1.115Z" /></g><g transform="matrix(1,0,0,1,386.469,385.219)"><path fill="#ffffff" d="M2.465,3.58C2.081,3.856,1.517,3.988,0.941,3.988C-0.582,3.988,-1.469,3.208,-1.469,1.673C-1.469,1.673,-1.469,-0.977,-1.469,-0.977C-1.469,-0.977,-2.465,-0.977,-2.465,-0.977C-2.465,-0.977,-2.465,-2.417,-2.465,-2.417C-2.465,-2.417,-1.469,-2.417,-1.469,-2.417C-1.469,-2.417,-1.469,-3.988,-1.469,-3.988C-1.469,-3.988,0.402,-3.988,0.402,-3.988C0.402,-3.988,0.402,-2.417,0.402,-2.417C0.402,-2.417,2.009,-2.417,2.009,-2.417C2.009,-2.417,2.009,-0.977,2.009,-0.977C2.009,-0.977,0.402,-0.977,0.402,-0.977C0.402,-0.977,0.402,1.649,0.402,1.649C0.402,2.201,0.701,2.501,1.205,2.501C1.481,2.501,1.757,2.416,1.961,2.26C1.961,2.26,2.465,3.58,2.465,3.58Z" /></g><g transform="matrix(1,0,0,1,390.927,384.391)"><path fill="#ffffff" d="M-1.163,-3.676C-1.163,-4.263,-0.695,-4.719,0,-4.719C0.696,-4.719,1.163,-4.288,1.163,-3.712C1.163,-3.088,0.696,-2.633,0,-2.633C-0.695,-2.633,-1.163,-3.088,-1.163,-3.676ZM-0.936,-1.733C-0.936,-1.733,0.935,-1.733,0.935,-1.733C0.935,-1.733,0.935,4.719,0.935,4.719C0.935,4.719,-0.936,4.719,-0.936,4.719C-0.936,4.719,-0.936,-1.733,-0.936,-1.733Z" /></g><g transform="matrix(1,0,0,1,396.667,385.885)"><path fill="#ffffff" d="M-3.544,0C-3.544,-1.943,-2.045,-3.322,0.006,-3.322C2.057,-3.322,3.544,-1.943,3.544,0C3.544,1.943,2.057,3.322,0.006,3.322C-2.045,3.322,-3.544,1.943,-3.544,0ZM1.649,0C1.649,-1.116,0.941,-1.787,0.006,-1.787C-0.93,-1.787,-1.649,-1.116,-1.649,0C-1.649,1.115,-0.93,1.787,0.006,1.787C0.941,1.787,1.649,1.115,1.649,0Z" /></g><g transform="matrix(1,0,0,1,404.761,385.837)"><path fill="#ffffff" d="M3.298,-0.42C3.298,-0.42,3.298,3.274,3.298,3.274C3.298,3.274,1.427,3.274,1.427,3.274C1.427,3.274,1.427,-0.132,1.427,-0.132C1.427,-1.175,0.948,-1.655,0.12,-1.655C-0.779,-1.655,-1.427,-1.103,-1.427,0.084C-1.427,0.084,-1.427,3.274,-1.427,3.274C-1.427,3.274,-3.298,3.274,-3.298,3.274C-3.298,3.274,-3.298,-3.178,-3.298,-3.178C-3.298,-3.178,-1.511,-3.178,-1.511,-3.178C-1.511,-3.178,-1.511,-2.423,-1.511,-2.423C-1.007,-2.975,-0.252,-3.274,0.624,-3.274C2.147,-3.274,3.298,-2.387,3.298,-0.42Z" /></g><g transform="matrix(1,0,0,1,415.616,384.985)"><path fill="#ffffff" d="M3.34,1.559C3.34,2.974,2.249,4.27,-0.138,4.27C-1.313,4.27,-2.525,3.946,-3.34,3.37C-3.34,3.37,-2.584,1.883,-2.584,1.883C-1.948,2.362,-1.062,2.638,-0.186,2.638C0.786,2.638,1.385,2.243,1.385,1.559C1.385,0.923,0.918,0.528,-0.186,0.528C-0.186,0.528,-1.074,0.528,-1.074,0.528C-1.074,0.528,-1.074,-0.756,-1.074,-0.756C-1.074,-0.756,0.654,-2.711,0.654,-2.711C0.654,-2.711,-2.92,-2.711,-2.92,-2.711C-2.92,-2.711,-2.92,-4.27,-2.92,-4.27C-2.92,-4.27,2.957,-4.27,2.957,-4.27C2.957,-4.27,2.957,-3.01,2.957,-3.01C2.957,-3.01,1.061,-0.851,1.061,-0.851C2.573,-0.611,3.34,0.324,3.34,1.559Z" /></g></g></g></g></g></g><g><g transform="translate(393.304,347.593)"><animateTransform repeatCount="indefinite" type="translate" attributeName="transform" dur="8s" begin="0s" calcMode="spline" values="393.304 347.593; 393.304 347.593; 393.304 374.593; 393.304 374.593; 393.304 347.593; 393.304 347.593" keyTimes="0; 0.441667; 0.535417; 0.660417; 0.75625; 1" keySplines="0 0 1 1; 0.672 0 0.239 1; 0 0 1 1; 0.93 0 0.49 1; 0 0 1 1" fill="freeze" /><g transform="scale(1,1) translate(0,0)"><g opacity="0" visibility="hidden"><animate repeatCount="indefinite" begin="0s" calcMode="discrete" dur="8s" values="hidden; visible; hidden; hidden" keyTimes="0; 0.442; 0.89; 1" attributeName="visibility" /><animate repeatCount="indefinite" attributeName="opacity" dur="8s" begin="0s" fill="freeze" values="0; 0; 1; 1; 0; 0" keyTimes="0; 0.495833; 0.535417; 0.660417; 0.702083; 1" keySplines="0 0 1 1; 0.672 0 0.239 1; 0.167 0 0.239 1; 0.167 0 0.833 1; 0 0 1 1" calcMode="spline" /><g transform="translate(-0.099,28.462)"><g transform="scale(1,1)"><animateTransform repeatCount="indefinite" type="scale" attributeName="transform" dur="8s" begin="0s" calcMode="spline" values="1 1; 1 1; 0.8 0.8; 1 1; 1 1" keyTimes="0; 0.625; 0.660417; 0.702083; 1" keySplines="0 0 1 1; 0.798 0 0.232 1; 0.167 0 0.467 1; 0 0 1 1" fill="freeze" /><g transform="translate(-393.206,-403.055)"><g transform="matrix(1,0,0,1,370.561,402.414)"><path fill="#ffffff" d="M-4.594,0C-4.594,-2.495,-2.65,-4.342,0,-4.342C2.639,-4.342,4.594,-2.507,4.594,0C4.594,2.507,2.639,4.342,0,4.342C-2.65,4.342,-4.594,2.494,-4.594,0ZM2.627,0C2.627,-1.596,1.5,-2.687,0,-2.687C-1.499,-2.687,-2.627,-1.596,-2.627,0C-2.627,1.595,-1.499,2.687,0,2.687C1.5,2.687,2.627,1.595,2.627,0Z" /></g><g transform="matrix(1,0,0,1,380.005,404.501)"><path fill="#ffffff" d="M3.514,-1.115C3.514,0.911,2.111,2.207,0.3,2.207C-0.503,2.207,-1.163,1.955,-1.643,1.427C-1.643,1.427,-1.643,4.438,-1.643,4.438C-1.643,4.438,-3.514,4.438,-3.514,4.438C-3.514,4.438,-3.514,-4.342,-3.514,-4.342C-3.514,-4.342,-1.727,-4.342,-1.727,-4.342C-1.727,-4.342,-1.727,-3.598,-1.727,-3.598C-1.259,-4.161,-0.563,-4.438,0.3,-4.438C2.111,-4.438,3.514,-3.142,3.514,-1.115ZM1.619,-1.115C1.619,-2.231,0.912,-2.902,-0.024,-2.902C-0.96,-2.902,-1.667,-2.231,-1.667,-1.115C-1.667,0,-0.96,0.672,-0.024,0.672C0.912,0.672,1.619,0,1.619,-1.115Z" /></g><g transform="matrix(1,0,0,1,386.469,402.72)"><path fill="#ffffff" d="M2.465,3.58C2.081,3.855,1.517,3.988,0.941,3.988C-0.582,3.988,-1.469,3.208,-1.469,1.673C-1.469,1.673,-1.469,-0.978,-1.469,-0.978C-1.469,-0.978,-2.465,-0.978,-2.465,-0.978C-2.465,-0.978,-2.465,-2.417,-2.465,-2.417C-2.465,-2.417,-1.469,-2.417,-1.469,-2.417C-1.469,-2.417,-1.469,-3.988,-1.469,-3.988C-1.469,-3.988,0.402,-3.988,0.402,-3.988C0.402,-3.988,0.402,-2.417,0.402,-2.417C0.402,-2.417,2.009,-2.417,2.009,-2.417C2.009,-2.417,2.009,-0.978,2.009,-0.978C2.009,-0.978,0.402,-0.978,0.402,-0.978C0.402,-0.978,0.402,1.649,0.402,1.649C0.402,2.201,0.701,2.501,1.205,2.501C1.481,2.501,1.757,2.417,1.961,2.261C1.961,2.261,2.465,3.58,2.465,3.58Z" /></g><g transform="matrix(1,0,0,1,390.927,401.892)"><path fill="#ffffff" d="M-1.163,-3.676C-1.163,-4.263,-0.695,-4.719,0,-4.719C0.696,-4.719,1.163,-4.288,1.163,-3.712C1.163,-3.088,0.696,-2.633,0,-2.633C-0.695,-2.633,-1.163,-3.088,-1.163,-3.676ZM-0.936,-1.733C-0.936,-1.733,0.935,-1.733,0.935,-1.733C0.935,-1.733,0.935,4.719,0.935,4.719C0.935,4.719,-0.936,4.719,-0.936,4.719C-0.936,4.719,-0.936,-1.733,-0.936,-1.733Z" /></g><g transform="matrix(1,0,0,1,396.667,403.385)"><path fill="#ffffff" d="M-3.544,0C-3.544,-1.943,-2.045,-3.323,0.006,-3.323C2.057,-3.323,3.544,-1.943,3.544,0C3.544,1.942,2.057,3.323,0.006,3.323C-2.045,3.323,-3.544,1.942,-3.544,0ZM1.649,0C1.649,-1.116,0.941,-1.787,0.006,-1.787C-0.93,-1.787,-1.649,-1.116,-1.649,0C-1.649,1.115,-0.93,1.787,0.006,1.787C0.941,1.787,1.649,1.115,1.649,0Z" /></g><g transform="matrix(1,0,0,1,404.761,403.337)"><path fill="#ffffff" d="M3.298,-0.419C3.298,-0.419,3.298,3.274,3.298,3.274C3.298,3.274,1.427,3.274,1.427,3.274C1.427,3.274,1.427,-0.132,1.427,-0.132C1.427,-1.175,0.948,-1.655,0.12,-1.655C-0.779,-1.655,-1.427,-1.103,-1.427,0.084C-1.427,0.084,-1.427,3.274,-1.427,3.274C-1.427,3.274,-3.298,3.274,-3.298,3.274C-3.298,3.274,-3.298,-3.178,-3.298,-3.178C-3.298,-3.178,-1.511,-3.178,-1.511,-3.178C-1.511,-3.178,-1.511,-2.423,-1.511,-2.423C-1.007,-2.975,-0.252,-3.274,0.624,-3.274C2.147,-3.274,3.298,-2.386,3.298,-0.419Z" /></g><g transform="matrix(1,0,0,1,416.551,402.414)"><path fill="#ffffff" d="M3.892,2.435C3.892,2.435,2.524,2.435,2.524,2.435C2.524,2.435,2.524,4.198,2.524,4.198C2.524,4.198,0.629,4.198,0.629,4.198C0.629,4.198,0.629,2.435,0.629,2.435C0.629,2.435,-3.892,2.435,-3.892,2.435C-3.892,2.435,-3.892,1.127,-3.892,1.127C-3.892,1.127,0.066,-4.198,0.066,-4.198C0.066,-4.198,2.105,-4.198,2.105,-4.198C2.105,-4.198,-1.565,0.852,-1.565,0.852C-1.565,0.852,0.689,0.852,0.689,0.852C0.689,0.852,0.689,-0.719,0.689,-0.719C0.689,-0.719,2.524,-0.719,2.524,-0.719C2.524,-0.719,2.524,0.852,2.524,0.852C2.524,0.852,3.892,0.852,3.892,0.852C3.892,0.852,3.892,2.435,3.892,2.435Z" /></g></g></g></g></g></g></g></g><g transform="matrix(1,0,0,1,0,0)" visibility="hidden"><animate repeatCount="indefinite" begin="0s" calcMode="discrete" dur="8s" values="hidden; visible; hidden; hidden" keyTimes="0; 0.208; 0.885; 1" attributeName="visibility" /><g opacity="0"><animate repeatCount="indefinite" attributeName="opacity" dur="8s" begin="0s" fill="freeze" values="0; 0; 1; 1; 0; 0" keyTimes="0; 0.28125; 0.283333; 0.84375; 0.845833; 1" keySplines="0 0 1 1; 0 0 1 1; 0 0 1 1; 0 0 1 1; 0 0 1 1" calcMode="spline" /><g transform="translate(576.957,311.152)"><animateTransform repeatCount="indefinite" type="translate" attributeName="transform" dur="8s" begin="0s" calcMode="spline" values="576.957 311.152; 576.957 311.152; 485.13 311.152; 393.304 311.152; 393.304 311.152; 576.957 311.152; 576.957 311.152" keyTimes="0; 0.28125; 0.34375; 0.40625; 0.75; 0.84375; 1" keySplines="0 0 1 1; 0.806 0 0.202 1; 0.826 0 0.223 1; 0 0 1 1; 0.787 0 0.301 1; 0 0 1 1" fill="freeze" /><g transform="translate(-393.304,-311.152)"><g transform="matrix(1,0,0,1,393.304,311.152)"><path stroke-miterlimit="10" stroke-width="3" stroke="#000000" fill="#ffffff" d="M33.391,9.783C33.391,9.783,-33.391,9.783,-33.391,9.783C-36.561,9.783,-39.13,7.213,-39.13,4.043C-39.13,4.043,-39.13,-4.043,-39.13,-4.043C-39.13,-7.213,-36.561,-9.783,-33.391,-9.783C-33.391,-9.783,33.391,-9.783,33.391,-9.783C36.561,-9.783,39.13,-7.213,39.13,-4.043C39.13,-4.043,39.13,4.043,39.13,4.043C39.13,7.213,36.561,9.783,33.391,9.783Z" /></g><g><animate repeatCount="indefinite" attributeName="opacity" dur="8s" begin="0s" fill="freeze" values="1; 1; 0; 0" keyTimes="0; 0.797917; 0.8; 1" keySplines="0 0 1 1; 0 0 1 1; 0 0 1 1" calcMode="spline" /><g transform="translate(419.054,311.984)"><animateTransform repeatCount="indefinite" type="translate" attributeName="transform" dur="8s" begin="0s" calcMode="spline" values="419.054 311.984; 419.054 311.984; 419.054 313.109; 419.054 311.984; 419.054 311.984" keyTimes="0; 0.40625; 0.441667; 0.483333; 1" keySplines="0 0 1 1; 0.798 0 0.232 1; 0.167 0 0.467 1; 0 0 1 1" fill="freeze" /><g transform="scale(1,1)"><animateTransform repeatCount="indefinite" type="scale" attributeName="transform" dur="8s" begin="0s" calcMode="spline" values="1 1; 1 1; 0.87 0.87; 1 1; 1 1" keyTimes="0; 0.40625; 0.441667; 0.483333; 1" keySplines="0 0 1 1; 0.798 0 0.232 1; 0.167 0 0.467 1; 0 0 1 1" fill="freeze" /><path stroke-linejoin="round" stroke-linecap="round" stroke-width="3" stroke="#000000" fill="#ffffff" d="M3.815,-1.908C3.815,-1.908,0,1.908,0,1.908C0,1.908,-3.815,-1.908,-3.815,-1.908C-3.815,-1.908,0,1.908,0,1.908" /></g></g></g></g></g></g><g opacity="0"><animate repeatCount="indefinite" attributeName="opacity" dur="8s" begin="0s" fill="freeze" values="0; 0; 1; 1; 0; 0" keyTimes="0; 0.28125; 0.283333; 0.797917; 0.8; 1" keySplines="0 0 1 1; 0 0 1 1; 0 0 1 1; 0 0 1 1; 0 0 1 1" calcMode="spline" /><g transform="translate(576.957,311.152)"><animateTransform repeatCount="indefinite" type="translate" attributeName="transform" dur="8s" begin="0s" calcMode="spline" values="576.957 311.152; 576.957 311.152; 485.13 311.152; 485.13 311.152; 485.13 311.152; 485.13 311.152" keyTimes="0; 0.28125; 0.34375; 0.40625; 0.75; 1" keySplines="0 0 1 1; 0.806 0 0.202 1; 0 0 1 1; 0 0 1 1; 0 0 1 1" fill="freeze" /><path stroke-miterlimit="10" stroke-width="3" stroke="#000000" fill="#ffffff" d="M33.391,9.783C33.391,9.783,-33.391,9.783,-33.391,9.783C-36.561,9.783,-39.13,7.213,-39.13,4.043C-39.13,4.043,-39.13,-4.043,-39.13,-4.043C-39.13,-7.213,-36.561,-9.783,-33.391,-9.783C-33.391,-9.783,33.391,-9.783,33.391,-9.783C36.561,-9.783,39.13,-7.213,39.13,-4.043C39.13,-4.043,39.13,4.043,39.13,4.043C39.13,7.213,36.561,9.783,33.391,9.783Z" /></g></g><g transform="matrix(1,0,0,1,576.957,311.152)"><path stroke-dashoffset="-43.056" stroke-dasharray="0 100" pathLength="100" d="M33.391,9.783C33.391,9.783,-33.391,9.783,-33.391,9.783C-36.561,9.783,-39.13,7.213,-39.13,4.043C-39.13,4.043,-39.13,-4.043,-39.13,-4.043C-39.13,-7.213,-36.561,-9.783,-33.391,-9.783C-33.391,-9.783,33.391,-9.783,33.391,-9.783C36.561,-9.783,39.13,-7.213,39.13,-4.043C39.13,-4.043,39.13,4.043,39.13,4.043C39.13,7.213,36.561,9.783,33.391,9.783Z" stroke-miterlimit="10" stroke-width="3" stroke="#000000" fill="#ffffff"><animate repeatCount="indefinite" fill="freeze" begin="0s" dur="8s" calcMode="spline" keySplines="0 0 1 1; 0.785 0 0.157 1; 0.333 0 0.157 1; 0.333 0 0.667 1; 0 0 1 1" keyTimes="0; 0.208333; 0.28125; 0.84375; 0.864583; 1" values="0 100; 0 100; 100 0; 100 0; 0 100; 0 100" attributeName="stroke-dasharray" /><animate repeatCount="indefinite" fill="freeze" begin="0s" dur="8s" calcMode="spline" keySplines="0 0 1 1; 0.785 0 0.157 1; 0.333 0 0.157 1; 0.333 0 0.667 1; 0 0 1 1" keyTimes="0; 0.208333; 0.28125; 0.84375; 0.864583; 1" values="-43.056; -43.056; -93.056; -93.056; -43.056; -43.056" attributeName="stroke-dashoffset" /></path></g></g><g visibility="visible"><animate repeatCount="indefinite" begin="0s" calcMode="discrete" dur="8s" values="visible; hidden; hidden" keyTimes="0; 0.954; 1" attributeName="visibility" /><g transform="translate(-40.674,572.174)"><animateMotion repeatCount="indefinite" dur="8s" begin="0s" calcMode="spline" keyTimes="0; 0.172917; 0.175; 0.279167; 0.28125; 0.40625; 0.514583; 0.516666; 0.625; 0.627083; 0.75; 0.752083; 0.872917; 1" keySplines="0.614 0 0.467 1; 0.798 0 0.833 0.833; 0 0 1 1; 0.167 0.167 0.467 1; 0.74 0 0.099 1; 0 0 1 1; 0 0 1 1; 0.811 0 0.214 1; 0.167 0 0.833 0.833; 0 0 1 1; 0.167 0 0.214 1; 0.827 0 0.214 1; 0 0 1 1" keyPoints="0; 0.339; 0.366; 0.366; 0.469; 0.519; 0.519; 0.519; 0.633; 0.64; 0.64; 0.694; 1; 1" path="M0 0 C277.333 140.667 568.667 -0.667 436 -172 C400.811 -217.445 436 -172 436 -172 C436 -172 436 -172 436 -172 C436 -172 568.667 -0.667 436 -172 C400.811 -217.445 452.5 -254.75 452.5 -254.75 C452.5 -254.75 452.5 -254.75 452.5 -254.75 C452.5 -254.75 452.5 -254.75 452.5 -254.75 C543 -307.333 554 -113.417 452.5 -169.75 C452.5 -155.583 452.5 -169.75 452.5 -169.75 C452.5 -169.75 452.5 -169.75 452.5 -169.75 C452.5 -169.75 554 -113.417 452.5 -169.75 C296 -347.083 157.167 -383.75 -43.5 -219.75" fill="freeze" /><g transform="rotate(127)"><animateTransform repeatCount="indefinite" type="rotate" attributeName="transform" dur="8s" begin="0s" calcMode="spline" values="127; -48; -48; 43; 43; 320; 320; 235; 235" keyTimes="0; 0.172917; 0.28125; 0.40625; 0.516666; 0.625; 0.752083; 0.872917; 1" keySplines="0.614 0 0.467 1; 0.798 0 0.467 1; 0.74 0 0.099 1; 0.167 0 0.099 1; 0.811 0 0.214 1; 0.167 0 0.214 1; 0.827 0 0.214 1; 0 0 1 1" fill="freeze" /><g transform="scale(1.54,1.54)"><animateTransform repeatCount="indefinite" type="scale" attributeName="transform" dur="8s" begin="0s" calcMode="spline" values="1.54 1.54; 1 1; 0.7 0.7; 1 1; 1 1; 1 1; 0.7 0.7; 1 1; 1 1; 1 1; 0.7 0.7; 1 1; 1 1; 1 1" keyTimes="0; 0.172916; 0.208333; 0.25; 0.28125; 0.40625; 0.441667; 0.483333; 0.514584; 0.625; 0.660417; 0.702083; 0.733333; 1" keySplines="0.614 0 0.467 1; 0.798 0 0.232 1; 0.167 0 0.467 1; 0 0 1 1; 0 0 1 1; 0.798 0 0.232 1; 0.167 0 0.467 1; 0 0 1 1; 0 0 1 1; 0.798 0 0.232 1; 0.167 0 0.467 1; 0 0 1 1; 0 0 1 1" fill="freeze" /><g transform="translate(78.674,-234.174)"><g><path stroke-miterlimit="10" stroke-width="3" stroke="#000000" fill="#53dcff" d="M-52.261,303.435C-52.261,303.435,-78.674,293.435,-78.674,293.435C-78.674,293.435,-105.087,303.435,-105.087,303.435C-105.087,303.435,-78.674,234.174,-78.674,234.174C-78.674,234.174,-52.261,303.435,-52.261,303.435Z" /></g></g></g></g></g></g></g></g></g></g></g></svg>