<svg fill="none" height="100%" width="100%" viewBox="0 0 1080 1080" xmlns:xlink="http://www.w3.org/1999/xlink" xmlns="http://www.w3.org/2000/svg"><defs><clipPath id="i0"><rect height="592" width="690" y="0" x="0" /></clipPath><radialGradient id="i1" gradientUnits="userSpaceOnUse" spreadMethod="pad" cx="4.654" cy="-3.859" r="106.417" fy="-3.859" fx="4.654"><stop stop-opacity="0" offset="0%" stop-color="#126dff" /><stop stop-opacity="0.5" offset="15.5%" stop-color="#126dff" /><stop offset="31.9%" stop-color="#126dff" /><stop offset="50%" stop-color="#126dff" /><stop offset="68.1%" stop-color="#126dff" /><stop stop-opacity="0.5" offset="86.4%" stop-color="#126dff" /><stop stop-opacity="0" offset="100%" stop-color="#126dff" /></radialGradient><radialGradient id="i2" gradientUnits="userSpaceOnUse" spreadMethod="pad" cx="4.654" cy="-3.859" r="142.545" fy="-3.859" fx="4.654"><stop stop-opacity="0" offset="0%" stop-color="#126dff" /><stop stop-opacity="0.5" offset="7.1%" stop-color="#126dff" /><stop offset="14.6%" stop-color="#126dff" /><stop offset="18.9%" stop-color="#126dff" /><stop offset="23.3%" stop-color="#126dff" /><stop stop-opacity="0.71" offset="50%" stop-color="#126dff" /><stop stop-opacity="0.5" offset="69.4%" stop-color="#126dff" /><stop stop-opacity="0" offset="100%" stop-color="#126dff" /></radialGradient><radialGradient id="i3" gradientUnits="userSpaceOnUse" spreadMethod="pad" cx="4.654" cy="-3.859" r="106.417" fy="-3.859" fx="4.654"><stop stop-opacity="0" offset="0%" stop-color="#126dff" /><stop stop-opacity="0.5" offset="15.5%" stop-color="#126dff" /><stop offset="31.9%" stop-color="#126dff" /><stop offset="50%" stop-color="#126dff" /><stop offset="68.1%" stop-color="#126dff" /><stop stop-opacity="0.5" offset="86.4%" stop-color="#126dff" /><stop stop-opacity="0" offset="100%" stop-color="#126dff" /></radialGradient><radialGradient id="i4" gradientUnits="userSpaceOnUse" spreadMethod="pad" cx="4.654" cy="-3.859" r="142.545" fy="-3.859" fx="4.654"><stop stop-opacity="0" offset="0%" stop-color="#126dff" /><stop stop-opacity="0.5" offset="7.1%" stop-color="#126dff" /><stop offset="14.6%" stop-color="#126dff" /><stop offset="18.9%" stop-color="#126dff" /><stop offset="23.3%" stop-color="#126dff" /><stop stop-opacity="0.71" offset="50%" stop-color="#126dff" /><stop stop-opacity="0.5" offset="69.4%" stop-color="#126dff" /><stop stop-opacity="0" offset="100%" stop-color="#126dff" /></radialGradient><filter id="i5"><feColorMatrix values="0 0 0 0 1 0 0 0 0 1 0 0 0 0 1 0 0 0 1 0" type="matrix" /></filter><mask height="20000" width="20000" y="-10000" x="-10000" maskContentUnits="userSpaceOnUse" maskUnits="userSpaceOnUse" style="mask-type: alpha" mask-type="alpha" id="i6"><g transform="matrix(1,0,0,1,-345,-296)"><g filter="url(#i5)"><g transform="translate(178.685,178.685)"><animateMotion repeatCount="indefinite" dur="4.017s" begin="0s" calcMode="spline" keyTimes="0; 0.497925; 0.742738; 0.99585; 1; 1; 1; 1; 1; 1" keySplines="0 0 1 1; 0 0 1 1; 0 0 1 1; 0 0 1 1; 0 0 1 1; 0 0 1 1; 0 0 1 1; 0 0 1 1; 0 0 1 1" keyPoints="0; 0; 0.145; 0.258; 0.397; 0.498; 0.648; 0.76; 0.899; 1" path="M0 0 C68.096 -52.404 275.167 -63.833 330.5 -8.5 C385.833 46.833 400.917 179.417 332 234 C263.083 288.583 72.5 286.333 19 224 C-34.5 161.667 -40.096 78.404 0 0 C40.096 -78.404 275.167 -63.833 330.5 -8.5 C385.833 46.833 400.917 179.417 332 234 C263.083 288.583 72.5 286.333 19 224 C-34.5 161.667 -40.096 78.404 0 0" fill="freeze" /><g transform="scale(1.11,1.11) translate(-137.904,-24.904)"><g id="i7" transform="matrix(1,0,0,1,137.904,24.904)"><ellipse ry="148.905" rx="148.905" cy="0" cx="0" fill="url(#i1)" /></g></g></g></g></g></mask><filter id="i8"><feColorMatrix values="0 0 0 0 1 0 0 0 0 1 0 0 0 0 1 0 0 0 1 0" type="matrix" /></filter><mask height="20000" width="20000" y="-10000" x="-10000" maskContentUnits="userSpaceOnUse" maskUnits="userSpaceOnUse" style="mask-type: alpha" mask-type="alpha" id="i9"><g filter="url(#i8)" transform="matrix(1,0,0,1,345,296)"><g id="i10"><path fill="#e7edf5" d="M-76,-67C-76,-67,77,-67,77,-67C114.003,-67,144,-37.003,144,0C144,0,144,0,144,0C144,37.003,114.003,67,77,67C77,67,-76,67,-76,67C-113.003,67,-143,37.003,-143,0C-143,0,-143,0,-143,0C-143,-37.003,-113.003,-67,-76,-67Z" /></g></g></mask><filter id="i11"><feColorMatrix values="0 0 0 0 1 0 0 0 0 1 0 0 0 0 1 0 0 0 1 0" type="matrix" /></filter><mask height="20000" width="20000" y="-10000" x="-10000" maskContentUnits="userSpaceOnUse" maskUnits="userSpaceOnUse" style="mask-type: alpha" mask-type="alpha" id="i12"><g transform="matrix(1,0,0,1,-345,-296)"><g filter="url(#i11)"><g transform="translate(178.685,178.685)"><animateMotion repeatCount="indefinite" dur="4.017s" begin="0s" calcMode="spline" keyTimes="0; 0.244813; 0.497925; 0.746887; 0.99585; 1; 1; 1; 1" keySplines="0 0 1 1; 0 0 1 1; 0 0 1 1; 0 0 1 1; 0 0 1 1; 0 0 1 1; 0 0 1 1; 0 0 1 1" keyPoints="0; 0.145; 0.258; 0.397; 0.498; 0.648; 0.76; 0.899; 1" path="M0 0 C68.096 -52.404 275.167 -63.833 330.5 -8.5 C385.833 46.833 400.917 179.417 332 234 C263.083 288.583 72.5 286.333 19 224 C-34.5 161.667 -40.096 78.404 0 0 C40.096 -78.404 275.167 -63.833 330.5 -8.5 C385.833 46.833 400.917 179.417 332 234 C263.083 288.583 72.5 286.333 19 224 C-34.5 161.667 -40.096 78.404 0 0" fill="freeze" /><g transform="scale(1.11,1.11) translate(-137.904,-24.904)"><g id="i7" transform="matrix(1,0,0,1,137.904,24.904)"><ellipse ry="148.905" rx="148.905" cy="0" cx="0" fill="url(#i3)" /></g></g></g></g></g></mask><filter id="i13"><feColorMatrix values="0 0 0 0 1 0 0 0 0 1 0 0 0 0 1 0 0 0 1 0" type="matrix" /></filter><mask height="20000" width="20000" y="-10000" x="-10000" maskContentUnits="userSpaceOnUse" maskUnits="userSpaceOnUse" style="mask-type: alpha" mask-type="alpha" id="i14"><g filter="url(#i13)" transform="matrix(1,0,0,1,345,296)"><g id="i10"><path fill="#e7edf5" d="M-76,-67C-76,-67,77,-67,77,-67C114.003,-67,144,-37.003,144,0C144,0,144,0,144,0C144,37.003,114.003,67,77,67C77,67,-76,67,-76,67C-113.003,67,-143,37.003,-143,0C-143,0,-143,0,-143,0C-143,-37.003,-113.003,-67,-76,-67Z" /></g></g></mask><g id="i15"><g mask="url(#i6)" transform="matrix(1,0,0,1,345,296)" id="i16"><g id="i10" stroke-width="2" stroke="#126dff"><path d="M-76,-67C-76,-67,77,-67,77,-67C114.003,-67,144,-37.003,144,0C144,0,144,0,144,0C144,37.003,114.003,67,77,67C77,67,-76,67,-76,67C-113.003,67,-143,37.003,-143,0C-143,0,-143,0,-143,0C-143,-37.003,-113.003,-67,-76,-67Z" /></g></g><g display="none" id="i17"><g transform="translate(178.685,178.685)"><animateMotion repeatCount="indefinite" dur="4.017s" begin="0s" calcMode="spline" keyTimes="0; 0.497925; 0.742738; 0.99585; 1; 1; 1; 1; 1; 1" keySplines="0 0 1 1; 0 0 1 1; 0 0 1 1; 0 0 1 1; 0 0 1 1; 0 0 1 1; 0 0 1 1; 0 0 1 1; 0 0 1 1" keyPoints="0; 0; 0.145; 0.258; 0.397; 0.498; 0.648; 0.76; 0.899; 1" path="M0 0 C68.096 -52.404 275.167 -63.833 330.5 -8.5 C385.833 46.833 400.917 179.417 332 234 C263.083 288.583 72.5 286.333 19 224 C-34.5 161.667 -40.096 78.404 0 0 C40.096 -78.404 275.167 -63.833 330.5 -8.5 C385.833 46.833 400.917 179.417 332 234 C263.083 288.583 72.5 286.333 19 224 C-34.5 161.667 -40.096 78.404 0 0" fill="freeze" /><g transform="scale(1.11,1.11) translate(-137.904,-24.904)"><g id="i7" transform="matrix(1,0,0,1,137.904,24.904)"><ellipse ry="148.905" rx="148.905" cy="0" cx="0" fill="url(#i1)" /></g></g></g></g><g mask="url(#i9)" opacity="0.14" id="i18"><g transform="translate(178.685,178.685)"><animateMotion repeatCount="indefinite" dur="4.017s" begin="0s" calcMode="spline" keyTimes="0; 0.497925; 0.742738; 0.99585; 1; 1; 1; 1; 1; 1" keySplines="0 0 1 1; 0 0 1 1; 0 0 1 1; 0 0 1 1; 0 0 1 1; 0 0 1 1; 0 0 1 1; 0 0 1 1; 0 0 1 1" keyPoints="0; 0; 0.145; 0.258; 0.397; 0.498; 0.648; 0.76; 0.899; 1" path="M0 0 C68.096 -52.404 275.167 -63.833 330.5 -8.5 C385.833 46.833 400.917 179.417 332 234 C263.083 288.583 72.5 286.333 19 224 C-34.5 161.667 -40.096 78.404 0 0 C40.096 -78.404 275.167 -63.833 330.5 -8.5 C385.833 46.833 400.917 179.417 332 234 C263.083 288.583 72.5 286.333 19 224 C-34.5 161.667 -40.096 78.404 0 0" fill="freeze" /><g transform="scale(1.2,1.2) translate(-137.904,-24.904)"><g id="i7" transform="matrix(1,0,0,1,137.904,24.904)"><ellipse ry="148.905" rx="148.905" cy="0" cx="0" fill="url(#i2)" /></g></g></g></g><g display="none" transform="matrix(1,0,0,1,345,296)" id="i19"><g id="i10"><path fill="#e7edf5" d="M-76,-67C-76,-67,77,-67,77,-67C114.003,-67,144,-37.003,144,0C144,0,144,0,144,0C144,37.003,114.003,67,77,67C77,67,-76,67,-76,67C-113.003,67,-143,37.003,-143,0C-143,0,-143,0,-143,0C-143,-37.003,-113.003,-67,-76,-67Z" /></g></g><g mask="url(#i12)" transform="matrix(1,0,0,1,345,296)" id="i20"><g id="i10" stroke-width="2" stroke="#126dff"><path d="M-76,-67C-76,-67,77,-67,77,-67C114.003,-67,144,-37.003,144,0C144,0,144,0,144,0C144,37.003,114.003,67,77,67C77,67,-76,67,-76,67C-113.003,67,-143,37.003,-143,0C-143,0,-143,0,-143,0C-143,-37.003,-113.003,-67,-76,-67Z" /></g></g><g display="none" id="i21"><g transform="translate(178.685,178.685)"><animateMotion repeatCount="indefinite" dur="4.017s" begin="0s" calcMode="spline" keyTimes="0; 0.244813; 0.497925; 0.746887; 0.99585; 1; 1; 1; 1" keySplines="0 0 1 1; 0 0 1 1; 0 0 1 1; 0 0 1 1; 0 0 1 1; 0 0 1 1; 0 0 1 1; 0 0 1 1" keyPoints="0; 0.145; 0.258; 0.397; 0.498; 0.648; 0.76; 0.899; 1" path="M0 0 C68.096 -52.404 275.167 -63.833 330.5 -8.5 C385.833 46.833 400.917 179.417 332 234 C263.083 288.583 72.5 286.333 19 224 C-34.5 161.667 -40.096 78.404 0 0 C40.096 -78.404 275.167 -63.833 330.5 -8.5 C385.833 46.833 400.917 179.417 332 234 C263.083 288.583 72.5 286.333 19 224 C-34.5 161.667 -40.096 78.404 0 0" fill="freeze" /><g transform="scale(1.11,1.11) translate(-137.904,-24.904)"><g id="i7" transform="matrix(1,0,0,1,137.904,24.904)"><ellipse ry="148.905" rx="148.905" cy="0" cx="0" fill="url(#i3)" /></g></g></g></g><g mask="url(#i14)" opacity="0.14" id="i22"><g transform="translate(178.685,178.685)"><animateMotion repeatCount="indefinite" dur="4.017s" begin="0s" calcMode="spline" keyTimes="0; 0.244813; 0.497925; 0.746887; 0.99585; 1; 1; 1; 1" keySplines="0 0 1 1; 0 0 1 1; 0 0 1 1; 0 0 1 1; 0 0 1 1; 0 0 1 1; 0 0 1 1; 0 0 1 1" keyPoints="0; 0.145; 0.258; 0.397; 0.498; 0.648; 0.76; 0.899; 1" path="M0 0 C68.096 -52.404 275.167 -63.833 330.5 -8.5 C385.833 46.833 400.917 179.417 332 234 C263.083 288.583 72.5 286.333 19 224 C-34.5 161.667 -40.096 78.404 0 0 C40.096 -78.404 275.167 -63.833 330.5 -8.5 C385.833 46.833 400.917 179.417 332 234 C263.083 288.583 72.5 286.333 19 224 C-34.5 161.667 -40.096 78.404 0 0" fill="freeze" /><g transform="scale(1.2,1.2) translate(-137.904,-24.904)"><g id="i7" transform="matrix(1,0,0,1,137.904,24.904)"><ellipse ry="148.905" rx="148.905" cy="0" cx="0" fill="url(#i4)" /></g></g></g></g><g display="none" transform="matrix(1,0,0,1,345,296)" id="i23"><g id="i10"><path fill="#e7edf5" d="M-76,-67C-76,-67,77,-67,77,-67C114.003,-67,144,-37.003,144,0C144,0,144,0,144,0C144,37.003,114.003,67,77,67C77,67,-76,67,-76,67C-113.003,67,-143,37.003,-143,0C-143,0,-143,0,-143,0C-143,-37.003,-113.003,-67,-76,-67Z" /></g></g><g transform="matrix(1,0,0,1,345,296)" opacity="0.4" id="i24"><g id="i10"><path fill="#e7edf5" d="M-76,-67C-76,-67,77,-67,77,-67C114.003,-67,144,-37.003,144,0C144,0,144,0,144,0C144,37.003,114.003,67,77,67C77,67,-76,67,-76,67C-113.003,67,-143,37.003,-143,0C-143,0,-143,0,-143,0C-143,-37.003,-113.003,-67,-76,-67Z" /></g></g><g transform="matrix(1,0,0,1,345,296)" visibility="visible" id="i25"><animate repeatCount="indefinite" begin="0s" calcMode="discrete" dur="4.017s" values="visible; hidden; hidden" keyTimes="0; 0.24502; 1" attributeName="visibility" /><g id="i10"><path fill="#000000" d="M-13.375,15C-13.375,15,-13.375,-15.904,-13.375,-15.904C-13.375,-15.904,-0.69,-15.904,-0.69,-15.904C7.847,-15.904,12.521,-10.706,12.521,-4.315C12.521,2.076,7.847,7.274,-0.737,7.274C-0.737,7.274,-9.56,7.274,-9.56,7.274C-9.56,7.274,-9.56,15,-9.56,15C-9.56,15,-13.375,15,-13.375,15ZM-9.56,3.936C-9.56,3.936,-0.356,3.936,-0.356,3.936C5.081,3.936,8.562,0.216,8.562,-4.315C8.562,-8.846,5.081,-12.566,-0.308,-12.566C-0.308,-12.566,-9.56,-12.566,-9.56,-12.566C-9.56,-12.566,-9.56,3.936,-9.56,3.936ZM17.582,15C17.582,15,17.582,-16.381,17.582,-16.381C17.582,-16.381,21.207,-16.381,21.207,-16.381C21.207,-16.381,21.207,15,21.207,15C21.207,15,17.582,15,17.582,15ZM37.331,15.477C30.893,15.477,26.362,10.135,26.362,3.411C26.362,-3.409,30.893,-8.703,37.331,-8.703C41.051,-8.703,44.342,-7.176,46.059,-4.172C46.059,-4.172,46.059,-8.226,46.059,-8.226C46.059,-8.226,49.683,-8.226,49.683,-8.226C49.683,-8.226,49.683,15,49.683,15C49.683,15,46.059,15,46.059,15C46.059,15,46.059,10.946,46.059,10.946C44.342,13.998,41.051,15.477,37.331,15.477ZM38.142,11.948C42.578,11.948,46.059,8.276,46.059,3.411C46.059,-1.453,42.578,-5.173,38.142,-5.173C33.516,-5.173,30.082,-1.549,30.082,3.411C30.082,8.323,33.516,11.948,38.142,11.948ZM57.394,22.011C57.394,22.011,57.394,18.577,57.394,18.577C59.922,18.577,61.496,17.861,63.069,14.523C63.069,14.523,63.594,13.474,63.594,13.474C63.594,13.474,53.15,-8.226,53.15,-8.226C53.15,-8.226,56.917,-8.226,56.917,-8.226C56.917,-8.226,64.214,7.369,64.214,7.369C64.739,8.466,65.263,9.992,65.263,9.992C65.263,9.992,65.979,8.085,66.36,7.226C66.36,7.226,73.275,-8.226,73.275,-8.226C73.275,-8.226,76.995,-8.226,76.995,-8.226C76.995,-8.226,65.931,16.145,65.931,16.145C63.403,21.629,60.113,22.011,57.394,22.011Z" /></g></g><g transform="matrix(1,0,0,1,345,296)" visibility="visible" id="i26"><animate repeatCount="indefinite" begin="0s" calcMode="discrete" dur="4.017s" values="visible; hidden; hidden" keyTimes="0; 0.24502; 1" attributeName="visibility" /><g id="i10"><path stroke-width="4" stroke="#000000" d="M-49,0.5C-49,0.5,-70,14.789,-70,14.789C-70,14.789,-70,-13.789,-70,-13.789C-70,-13.789,-49,0.5,-49,0.5Z" /></g></g><g transform="matrix(1,0,0,1,345,296)" visibility="hidden" id="i27"><animate repeatCount="indefinite" begin="0s" calcMode="discrete" dur="4.017s" values="hidden; visible; hidden; hidden" keyTimes="0; 0.24502; 0.59805; 1" attributeName="visibility" /><g id="i10"><path fill="#000000" d="M-44.375,15C-44.375,15,-44.375,-15.904,-44.375,-15.904C-44.375,-15.904,-31.69,-15.904,-31.69,-15.904C-23.153,-15.904,-18.479,-10.706,-18.479,-4.315C-18.479,2.076,-23.153,7.274,-31.737,7.274C-31.737,7.274,-40.56,7.274,-40.56,7.274C-40.56,7.274,-40.56,15,-40.56,15C-40.56,15,-44.375,15,-44.375,15ZM-40.56,3.936C-40.56,3.936,-31.356,3.936,-31.356,3.936C-25.919,3.936,-22.438,0.216,-22.438,-4.315C-22.438,-8.846,-25.919,-12.566,-31.308,-12.566C-31.308,-12.566,-40.56,-12.566,-40.56,-12.566C-40.56,-12.566,-40.56,3.936,-40.56,3.936ZM-3.402,15.477C-9.841,15.477,-14.371,10.135,-14.371,3.411C-14.371,-3.409,-9.841,-8.703,-3.402,-8.703C0.318,-8.703,3.608,-7.176,5.325,-4.172C5.325,-4.172,5.325,-8.226,5.325,-8.226C5.325,-8.226,8.95,-8.226,8.95,-8.226C8.95,-8.226,8.95,15,8.95,15C8.95,15,5.325,15,5.325,15C5.325,15,5.325,10.946,5.325,10.946C3.608,13.998,0.318,15.477,-3.402,15.477ZM-2.592,11.948C1.844,11.948,5.325,8.276,5.325,3.411C5.325,-1.453,1.844,-5.173,-2.592,-5.173C-7.218,-5.173,-10.651,-1.549,-10.651,3.411C-10.651,8.323,-7.218,11.948,-2.592,11.948ZM23.099,15.477C17.376,15.477,14.657,12.472,14.657,6.273C14.657,6.273,14.657,-8.226,14.657,-8.226C14.657,-8.226,18.282,-8.226,18.282,-8.226C18.282,-8.226,18.282,5.796,18.282,5.796C18.282,10.135,20.38,11.948,24.148,11.948C28.345,11.948,30.777,8.514,30.777,4.937C30.777,4.937,30.777,-8.226,30.777,-8.226C30.777,-8.226,34.401,-8.226,34.401,-8.226C34.401,-8.226,34.401,15,34.401,15C34.401,15,30.92,15,30.92,15C30.92,15,30.92,10.899,30.92,10.899C29.489,13.903,26.151,15.477,23.099,15.477ZM48.336,15.477C43.614,15.477,40.61,13.331,39.275,11.948C39.275,11.948,40.753,8.991,40.753,8.991C42.47,10.66,44.95,12.043,48.336,12.043C51.531,12.043,54.154,10.565,54.154,8.466C54.154,6.034,51.34,5.366,48.527,4.651C44.234,3.554,40.324,2.362,40.324,-2.073C40.324,-6.27,44.711,-8.703,48.622,-8.703C51.817,-8.703,54.154,-7.844,56.539,-6.223C56.539,-6.223,55.108,-3.266,55.108,-3.266C53.153,-4.601,51.102,-5.269,48.67,-5.269C46.285,-5.269,44.044,-3.933,44.044,-2.121C44.044,0.168,46.619,0.693,49.337,1.265C53.534,2.219,57.874,3.793,57.874,8.371C57.874,13.283,52.867,15.477,48.336,15.477ZM74.077,15.477C67.496,15.477,61.916,10.755,61.916,3.411C61.916,-3.313,66.971,-8.703,73.6,-8.703C79.8,-8.703,84.712,-3.361,84.712,3.268C84.712,3.936,84.617,4.651,84.617,4.699C84.617,4.699,65.684,4.699,65.684,4.699C66.256,9.325,69.833,12.234,74.125,12.234C76.748,12.234,79.371,11.328,81.279,9.754C81.279,9.754,82.852,12.425,82.852,12.425C80.372,14.38,77.273,15.477,74.077,15.477ZM65.684,1.933C65.684,1.933,81.136,1.933,81.136,1.933C80.754,-2.36,77.463,-5.46,73.41,-5.46C69.451,-5.46,66.208,-2.407,65.684,1.933Z" /></g></g><g transform="matrix(1,0,0,1,345,296)" visibility="hidden" id="i28"><animate repeatCount="indefinite" begin="0s" calcMode="discrete" dur="4.017s" values="hidden; visible; hidden; hidden" keyTimes="0; 0.24502; 0.59805; 1" attributeName="visibility" /><g id="i29"><path stroke-linecap="square" stroke-width="5" stroke="#000000" d="M-83.365,-13C-83.365,-13,-83.365,15,-83.365,15" /></g><g id="i10"><path stroke-linecap="square" stroke-width="5" stroke="#000000" d="M-70.09,-13C-70.09,-13,-69.91,15,-69.91,15" /></g></g><g transform="matrix(1,0,0,1,345,296)" visibility="hidden" id="i30"><animate repeatCount="indefinite" begin="0s" calcMode="discrete" dur="4.017s" values="hidden; visible; visible" keyTimes="0; 0.59805; 1" attributeName="visibility" /><g id="i10"><path fill="#000000" d="M-13.375,15C-13.375,15,-13.375,-15.904,-13.375,-15.904C-13.375,-15.904,-0.69,-15.904,-0.69,-15.904C7.847,-15.904,12.521,-10.706,12.521,-4.315C12.521,2.076,7.847,7.274,-0.737,7.274C-0.737,7.274,-9.56,7.274,-9.56,7.274C-9.56,7.274,-9.56,15,-9.56,15C-9.56,15,-13.375,15,-13.375,15ZM-9.56,3.936C-9.56,3.936,-0.356,3.936,-0.356,3.936C5.081,3.936,8.562,0.216,8.562,-4.315C8.562,-8.846,5.081,-12.566,-0.308,-12.566C-0.308,-12.566,-9.56,-12.566,-9.56,-12.566C-9.56,-12.566,-9.56,3.936,-9.56,3.936ZM17.582,15C17.582,15,17.582,-16.381,17.582,-16.381C17.582,-16.381,21.207,-16.381,21.207,-16.381C21.207,-16.381,21.207,15,21.207,15C21.207,15,17.582,15,17.582,15ZM37.331,15.477C30.893,15.477,26.362,10.135,26.362,3.411C26.362,-3.409,30.893,-8.703,37.331,-8.703C41.051,-8.703,44.342,-7.176,46.059,-4.172C46.059,-4.172,46.059,-8.226,46.059,-8.226C46.059,-8.226,49.683,-8.226,49.683,-8.226C49.683,-8.226,49.683,15,49.683,15C49.683,15,46.059,15,46.059,15C46.059,15,46.059,10.946,46.059,10.946C44.342,13.998,41.051,15.477,37.331,15.477ZM38.142,11.948C42.578,11.948,46.059,8.276,46.059,3.411C46.059,-1.453,42.578,-5.173,38.142,-5.173C33.516,-5.173,30.082,-1.549,30.082,3.411C30.082,8.323,33.516,11.948,38.142,11.948ZM57.394,22.011C57.394,22.011,57.394,18.577,57.394,18.577C59.922,18.577,61.496,17.861,63.069,14.523C63.069,14.523,63.594,13.474,63.594,13.474C63.594,13.474,53.15,-8.226,53.15,-8.226C53.15,-8.226,56.917,-8.226,56.917,-8.226C56.917,-8.226,64.214,7.369,64.214,7.369C64.739,8.466,65.263,9.992,65.263,9.992C65.263,9.992,65.979,8.085,66.36,7.226C66.36,7.226,73.275,-8.226,73.275,-8.226C73.275,-8.226,76.995,-8.226,76.995,-8.226C76.995,-8.226,65.931,16.145,65.931,16.145C63.403,21.629,60.113,22.011,57.394,22.011Z" /></g></g><g transform="matrix(1,0,0,1,345,296)" visibility="hidden" id="i31"><animate repeatCount="indefinite" begin="0s" calcMode="discrete" dur="4.017s" values="hidden; visible; visible" keyTimes="0; 0.59805; 1" attributeName="visibility" /><g id="i10"><path stroke-width="4" stroke="#000000" d="M-49,0.5C-49,0.5,-70,14.789,-70,14.789C-70,14.789,-70,-13.789,-70,-13.789C-70,-13.789,-49,0.5,-49,0.5Z" /></g></g></g></defs><g transform="matrix(1,0,0,1,521.782,540)" id="i32"><rect height="345.291" width="648.94" y="-172.646" x="-324.47" fill="#ffffff" /></g><g id="i33"><g><g transform="translate(517.328,0)"><g transform="translate(0,543.404)"><g transform="scale(2.1,2.1)"><animateTransform repeatCount="indefinite" type="scale" attributeName="transform" dur="4.017s" begin="0s" calcMode="spline" values="2.1 2.1; 2.1 2.1; 1.8 1.8; 2.1 2.1; 2.1 2.1; 1.8 1.8; 2.1 2.1" keyTimes="0; 0.726141; 0.767635; 0.892116; 1; 1; 1" keySplines="0 0 1 1; 0.333 0 0 1; 0.219 0 0.335 1; 0 0 1 1; 0.333 0 0 1; 0.219 0 0.335 1" fill="freeze" /><g transform="translate(-345,-296)"><g clip-path="url(#i0)"><g mask="url(#i6)" transform="matrix(1,0,0,1,345,296)"><g stroke-width="2" stroke="#126dff"><path d="M-76,-67C-76,-67,77,-67,77,-67C114.003,-67,144,-37.003,144,0C144,0,144,0,144,0C144,37.003,114.003,67,77,67C77,67,-76,67,-76,67C-113.003,67,-143,37.003,-143,0C-143,0,-143,0,-143,0C-143,-37.003,-113.003,-67,-76,-67Z" /></g></g><g display="none"><g transform="translate(178.685,178.685)"><animateMotion repeatCount="indefinite" dur="4.017s" begin="0s" calcMode="spline" keyTimes="0; 0.497925; 0.742738; 0.99585; 1; 1; 1; 1; 1; 1" keySplines="0 0 1 1; 0 0 1 1; 0 0 1 1; 0 0 1 1; 0 0 1 1; 0 0 1 1; 0 0 1 1; 0 0 1 1; 0 0 1 1" keyPoints="0; 0; 0.145; 0.258; 0.397; 0.498; 0.648; 0.76; 0.899; 1" path="M0 0 C68.096 -52.404 275.167 -63.833 330.5 -8.5 C385.833 46.833 400.917 179.417 332 234 C263.083 288.583 72.5 286.333 19 224 C-34.5 161.667 -40.096 78.404 0 0 C40.096 -78.404 275.167 -63.833 330.5 -8.5 C385.833 46.833 400.917 179.417 332 234 C263.083 288.583 72.5 286.333 19 224 C-34.5 161.667 -40.096 78.404 0 0" fill="freeze" /><g transform="scale(1.11,1.11) translate(-137.904,-24.904)"><g transform="matrix(1,0,0,1,137.904,24.904)"><ellipse ry="148.905" rx="148.905" cy="0" cx="0" fill="url(#i1)" /></g></g></g></g><g mask="url(#i9)" opacity="0.14"><g transform="translate(178.685,178.685)"><animateMotion repeatCount="indefinite" dur="4.017s" begin="0s" calcMode="spline" keyTimes="0; 0.497925; 0.742738; 0.99585; 1; 1; 1; 1; 1; 1" keySplines="0 0 1 1; 0 0 1 1; 0 0 1 1; 0 0 1 1; 0 0 1 1; 0 0 1 1; 0 0 1 1; 0 0 1 1; 0 0 1 1" keyPoints="0; 0; 0.145; 0.258; 0.397; 0.498; 0.648; 0.76; 0.899; 1" path="M0 0 C68.096 -52.404 275.167 -63.833 330.5 -8.5 C385.833 46.833 400.917 179.417 332 234 C263.083 288.583 72.5 286.333 19 224 C-34.5 161.667 -40.096 78.404 0 0 C40.096 -78.404 275.167 -63.833 330.5 -8.5 C385.833 46.833 400.917 179.417 332 234 C263.083 288.583 72.5 286.333 19 224 C-34.5 161.667 -40.096 78.404 0 0" fill="freeze" /><g transform="scale(1.2,1.2) translate(-137.904,-24.904)"><g transform="matrix(1,0,0,1,137.904,24.904)"><ellipse ry="148.905" rx="148.905" cy="0" cx="0" fill="url(#i2)" /></g></g></g></g><g display="none" transform="matrix(1,0,0,1,345,296)"><g><path fill="#e7edf5" d="M-76,-67C-76,-67,77,-67,77,-67C114.003,-67,144,-37.003,144,0C144,0,144,0,144,0C144,37.003,114.003,67,77,67C77,67,-76,67,-76,67C-113.003,67,-143,37.003,-143,0C-143,0,-143,0,-143,0C-143,-37.003,-113.003,-67,-76,-67Z" /></g></g><g mask="url(#i12)" transform="matrix(1,0,0,1,345,296)"><g stroke-width="2" stroke="#126dff"><path d="M-76,-67C-76,-67,77,-67,77,-67C114.003,-67,144,-37.003,144,0C144,0,144,0,144,0C144,37.003,114.003,67,77,67C77,67,-76,67,-76,67C-113.003,67,-143,37.003,-143,0C-143,0,-143,0,-143,0C-143,-37.003,-113.003,-67,-76,-67Z" /></g></g><g display="none"><g transform="translate(178.685,178.685)"><animateMotion repeatCount="indefinite" dur="4.017s" begin="0s" calcMode="spline" keyTimes="0; 0.244813; 0.497925; 0.746887; 0.99585; 1; 1; 1; 1" keySplines="0 0 1 1; 0 0 1 1; 0 0 1 1; 0 0 1 1; 0 0 1 1; 0 0 1 1; 0 0 1 1; 0 0 1 1" keyPoints="0; 0.145; 0.258; 0.397; 0.498; 0.648; 0.76; 0.899; 1" path="M0 0 C68.096 -52.404 275.167 -63.833 330.5 -8.5 C385.833 46.833 400.917 179.417 332 234 C263.083 288.583 72.5 286.333 19 224 C-34.5 161.667 -40.096 78.404 0 0 C40.096 -78.404 275.167 -63.833 330.5 -8.5 C385.833 46.833 400.917 179.417 332 234 C263.083 288.583 72.5 286.333 19 224 C-34.5 161.667 -40.096 78.404 0 0" fill="freeze" /><g transform="scale(1.11,1.11) translate(-137.904,-24.904)"><g transform="matrix(1,0,0,1,137.904,24.904)"><ellipse ry="148.905" rx="148.905" cy="0" cx="0" fill="url(#i3)" /></g></g></g></g><g mask="url(#i14)" opacity="0.14"><g transform="translate(178.685,178.685)"><animateMotion repeatCount="indefinite" dur="4.017s" begin="0s" calcMode="spline" keyTimes="0; 0.244813; 0.497925; 0.746887; 0.99585; 1; 1; 1; 1" keySplines="0 0 1 1; 0 0 1 1; 0 0 1 1; 0 0 1 1; 0 0 1 1; 0 0 1 1; 0 0 1 1; 0 0 1 1" keyPoints="0; 0.145; 0.258; 0.397; 0.498; 0.648; 0.76; 0.899; 1" path="M0 0 C68.096 -52.404 275.167 -63.833 330.5 -8.5 C385.833 46.833 400.917 179.417 332 234 C263.083 288.583 72.5 286.333 19 224 C-34.5 161.667 -40.096 78.404 0 0 C40.096 -78.404 275.167 -63.833 330.5 -8.5 C385.833 46.833 400.917 179.417 332 234 C263.083 288.583 72.5 286.333 19 224 C-34.5 161.667 -40.096 78.404 0 0" fill="freeze" /><g transform="scale(1.2,1.2) translate(-137.904,-24.904)"><g transform="matrix(1,0,0,1,137.904,24.904)"><ellipse ry="148.905" rx="148.905" cy="0" cx="0" fill="url(#i4)" /></g></g></g></g><g display="none" transform="matrix(1,0,0,1,345,296)"><g><path fill="#e7edf5" d="M-76,-67C-76,-67,77,-67,77,-67C114.003,-67,144,-37.003,144,0C144,0,144,0,144,0C144,37.003,114.003,67,77,67C77,67,-76,67,-76,67C-113.003,67,-143,37.003,-143,0C-143,0,-143,0,-143,0C-143,-37.003,-113.003,-67,-76,-67Z" /></g></g><g transform="matrix(1,0,0,1,345,296)" opacity="0.4"><g><path fill="#e7edf5" d="M-76,-67C-76,-67,77,-67,77,-67C114.003,-67,144,-37.003,144,0C144,0,144,0,144,0C144,37.003,114.003,67,77,67C77,67,-76,67,-76,67C-113.003,67,-143,37.003,-143,0C-143,0,-143,0,-143,0C-143,-37.003,-113.003,-67,-76,-67Z" /></g></g><g transform="matrix(1,0,0,1,345,296)" visibility="visible"><animate repeatCount="indefinite" begin="0s" calcMode="discrete" dur="4.017s" values="visible; hidden; hidden" keyTimes="0; 0.24502; 1" attributeName="visibility" /><g><path fill="#000000" d="M-13.375,15C-13.375,15,-13.375,-15.904,-13.375,-15.904C-13.375,-15.904,-0.69,-15.904,-0.69,-15.904C7.847,-15.904,12.521,-10.706,12.521,-4.315C12.521,2.076,7.847,7.274,-0.737,7.274C-0.737,7.274,-9.56,7.274,-9.56,7.274C-9.56,7.274,-9.56,15,-9.56,15C-9.56,15,-13.375,15,-13.375,15ZM-9.56,3.936C-9.56,3.936,-0.356,3.936,-0.356,3.936C5.081,3.936,8.562,0.216,8.562,-4.315C8.562,-8.846,5.081,-12.566,-0.308,-12.566C-0.308,-12.566,-9.56,-12.566,-9.56,-12.566C-9.56,-12.566,-9.56,3.936,-9.56,3.936ZM17.582,15C17.582,15,17.582,-16.381,17.582,-16.381C17.582,-16.381,21.207,-16.381,21.207,-16.381C21.207,-16.381,21.207,15,21.207,15C21.207,15,17.582,15,17.582,15ZM37.331,15.477C30.893,15.477,26.362,10.135,26.362,3.411C26.362,-3.409,30.893,-8.703,37.331,-8.703C41.051,-8.703,44.342,-7.176,46.059,-4.172C46.059,-4.172,46.059,-8.226,46.059,-8.226C46.059,-8.226,49.683,-8.226,49.683,-8.226C49.683,-8.226,49.683,15,49.683,15C49.683,15,46.059,15,46.059,15C46.059,15,46.059,10.946,46.059,10.946C44.342,13.998,41.051,15.477,37.331,15.477ZM38.142,11.948C42.578,11.948,46.059,8.276,46.059,3.411C46.059,-1.453,42.578,-5.173,38.142,-5.173C33.516,-5.173,30.082,-1.549,30.082,3.411C30.082,8.323,33.516,11.948,38.142,11.948ZM57.394,22.011C57.394,22.011,57.394,18.577,57.394,18.577C59.922,18.577,61.496,17.861,63.069,14.523C63.069,14.523,63.594,13.474,63.594,13.474C63.594,13.474,53.15,-8.226,53.15,-8.226C53.15,-8.226,56.917,-8.226,56.917,-8.226C56.917,-8.226,64.214,7.369,64.214,7.369C64.739,8.466,65.263,9.992,65.263,9.992C65.263,9.992,65.979,8.085,66.36,7.226C66.36,7.226,73.275,-8.226,73.275,-8.226C73.275,-8.226,76.995,-8.226,76.995,-8.226C76.995,-8.226,65.931,16.145,65.931,16.145C63.403,21.629,60.113,22.011,57.394,22.011Z" /></g></g><g transform="matrix(1,0,0,1,345,296)" visibility="visible"><animate repeatCount="indefinite" begin="0s" calcMode="discrete" dur="4.017s" values="visible; hidden; hidden" keyTimes="0; 0.24502; 1" attributeName="visibility" /><g><path stroke-width="4" stroke="#000000" d="M-49,0.5C-49,0.5,-70,14.789,-70,14.789C-70,14.789,-70,-13.789,-70,-13.789C-70,-13.789,-49,0.5,-49,0.5Z" /></g></g><g transform="matrix(1,0,0,1,345,296)" visibility="hidden"><animate repeatCount="indefinite" begin="0s" calcMode="discrete" dur="4.017s" values="hidden; visible; hidden; hidden" keyTimes="0; 0.24502; 0.59805; 1" attributeName="visibility" /><g><path fill="#000000" d="M-44.375,15C-44.375,15,-44.375,-15.904,-44.375,-15.904C-44.375,-15.904,-31.69,-15.904,-31.69,-15.904C-23.153,-15.904,-18.479,-10.706,-18.479,-4.315C-18.479,2.076,-23.153,7.274,-31.737,7.274C-31.737,7.274,-40.56,7.274,-40.56,7.274C-40.56,7.274,-40.56,15,-40.56,15C-40.56,15,-44.375,15,-44.375,15ZM-40.56,3.936C-40.56,3.936,-31.356,3.936,-31.356,3.936C-25.919,3.936,-22.438,0.216,-22.438,-4.315C-22.438,-8.846,-25.919,-12.566,-31.308,-12.566C-31.308,-12.566,-40.56,-12.566,-40.56,-12.566C-40.56,-12.566,-40.56,3.936,-40.56,3.936ZM-3.402,15.477C-9.841,15.477,-14.371,10.135,-14.371,3.411C-14.371,-3.409,-9.841,-8.703,-3.402,-8.703C0.318,-8.703,3.608,-7.176,5.325,-4.172C5.325,-4.172,5.325,-8.226,5.325,-8.226C5.325,-8.226,8.95,-8.226,8.95,-8.226C8.95,-8.226,8.95,15,8.95,15C8.95,15,5.325,15,5.325,15C5.325,15,5.325,10.946,5.325,10.946C3.608,13.998,0.318,15.477,-3.402,15.477ZM-2.592,11.948C1.844,11.948,5.325,8.276,5.325,3.411C5.325,-1.453,1.844,-5.173,-2.592,-5.173C-7.218,-5.173,-10.651,-1.549,-10.651,3.411C-10.651,8.323,-7.218,11.948,-2.592,11.948ZM23.099,15.477C17.376,15.477,14.657,12.472,14.657,6.273C14.657,6.273,14.657,-8.226,14.657,-8.226C14.657,-8.226,18.282,-8.226,18.282,-8.226C18.282,-8.226,18.282,5.796,18.282,5.796C18.282,10.135,20.38,11.948,24.148,11.948C28.345,11.948,30.777,8.514,30.777,4.937C30.777,4.937,30.777,-8.226,30.777,-8.226C30.777,-8.226,34.401,-8.226,34.401,-8.226C34.401,-8.226,34.401,15,34.401,15C34.401,15,30.92,15,30.92,15C30.92,15,30.92,10.899,30.92,10.899C29.489,13.903,26.151,15.477,23.099,15.477ZM48.336,15.477C43.614,15.477,40.61,13.331,39.275,11.948C39.275,11.948,40.753,8.991,40.753,8.991C42.47,10.66,44.95,12.043,48.336,12.043C51.531,12.043,54.154,10.565,54.154,8.466C54.154,6.034,51.34,5.366,48.527,4.651C44.234,3.554,40.324,2.362,40.324,-2.073C40.324,-6.27,44.711,-8.703,48.622,-8.703C51.817,-8.703,54.154,-7.844,56.539,-6.223C56.539,-6.223,55.108,-3.266,55.108,-3.266C53.153,-4.601,51.102,-5.269,48.67,-5.269C46.285,-5.269,44.044,-3.933,44.044,-2.121C44.044,0.168,46.619,0.693,49.337,1.265C53.534,2.219,57.874,3.793,57.874,8.371C57.874,13.283,52.867,15.477,48.336,15.477ZM74.077,15.477C67.496,15.477,61.916,10.755,61.916,3.411C61.916,-3.313,66.971,-8.703,73.6,-8.703C79.8,-8.703,84.712,-3.361,84.712,3.268C84.712,3.936,84.617,4.651,84.617,4.699C84.617,4.699,65.684,4.699,65.684,4.699C66.256,9.325,69.833,12.234,74.125,12.234C76.748,12.234,79.371,11.328,81.279,9.754C81.279,9.754,82.852,12.425,82.852,12.425C80.372,14.38,77.273,15.477,74.077,15.477ZM65.684,1.933C65.684,1.933,81.136,1.933,81.136,1.933C80.754,-2.36,77.463,-5.46,73.41,-5.46C69.451,-5.46,66.208,-2.407,65.684,1.933Z" /></g></g><g transform="matrix(1,0,0,1,345,296)" visibility="hidden"><animate repeatCount="indefinite" begin="0s" calcMode="discrete" dur="4.017s" values="hidden; visible; hidden; hidden" keyTimes="0; 0.24502; 0.59805; 1" attributeName="visibility" /><g><path stroke-linecap="square" stroke-width="5" stroke="#000000" d="M-83.365,-13C-83.365,-13,-83.365,15,-83.365,15" /></g><g><path stroke-linecap="square" stroke-width="5" stroke="#000000" d="M-70.09,-13C-70.09,-13,-69.91,15,-69.91,15" /></g></g><g transform="matrix(1,0,0,1,345,296)" visibility="hidden"><animate repeatCount="indefinite" begin="0s" calcMode="discrete" dur="4.017s" values="hidden; visible; visible" keyTimes="0; 0.59805; 1" attributeName="visibility" /><g><path fill="#000000" d="M-13.375,15C-13.375,15,-13.375,-15.904,-13.375,-15.904C-13.375,-15.904,-0.69,-15.904,-0.69,-15.904C7.847,-15.904,12.521,-10.706,12.521,-4.315C12.521,2.076,7.847,7.274,-0.737,7.274C-0.737,7.274,-9.56,7.274,-9.56,7.274C-9.56,7.274,-9.56,15,-9.56,15C-9.56,15,-13.375,15,-13.375,15ZM-9.56,3.936C-9.56,3.936,-0.356,3.936,-0.356,3.936C5.081,3.936,8.562,0.216,8.562,-4.315C8.562,-8.846,5.081,-12.566,-0.308,-12.566C-0.308,-12.566,-9.56,-12.566,-9.56,-12.566C-9.56,-12.566,-9.56,3.936,-9.56,3.936ZM17.582,15C17.582,15,17.582,-16.381,17.582,-16.381C17.582,-16.381,21.207,-16.381,21.207,-16.381C21.207,-16.381,21.207,15,21.207,15C21.207,15,17.582,15,17.582,15ZM37.331,15.477C30.893,15.477,26.362,10.135,26.362,3.411C26.362,-3.409,30.893,-8.703,37.331,-8.703C41.051,-8.703,44.342,-7.176,46.059,-4.172C46.059,-4.172,46.059,-8.226,46.059,-8.226C46.059,-8.226,49.683,-8.226,49.683,-8.226C49.683,-8.226,49.683,15,49.683,15C49.683,15,46.059,15,46.059,15C46.059,15,46.059,10.946,46.059,10.946C44.342,13.998,41.051,15.477,37.331,15.477ZM38.142,11.948C42.578,11.948,46.059,8.276,46.059,3.411C46.059,-1.453,42.578,-5.173,38.142,-5.173C33.516,-5.173,30.082,-1.549,30.082,3.411C30.082,8.323,33.516,11.948,38.142,11.948ZM57.394,22.011C57.394,22.011,57.394,18.577,57.394,18.577C59.922,18.577,61.496,17.861,63.069,14.523C63.069,14.523,63.594,13.474,63.594,13.474C63.594,13.474,53.15,-8.226,53.15,-8.226C53.15,-8.226,56.917,-8.226,56.917,-8.226C56.917,-8.226,64.214,7.369,64.214,7.369C64.739,8.466,65.263,9.992,65.263,9.992C65.263,9.992,65.979,8.085,66.36,7.226C66.36,7.226,73.275,-8.226,73.275,-8.226C73.275,-8.226,76.995,-8.226,76.995,-8.226C76.995,-8.226,65.931,16.145,65.931,16.145C63.403,21.629,60.113,22.011,57.394,22.011Z" /></g></g><g transform="matrix(1,0,0,1,345,296)" visibility="hidden"><animate repeatCount="indefinite" begin="0s" calcMode="discrete" dur="4.017s" values="hidden; visible; visible" keyTimes="0; 0.59805; 1" attributeName="visibility" /><g><path stroke-width="4" stroke="#000000" d="M-49,0.5C-49,0.5,-70,14.789,-70,14.789C-70,14.789,-70,-13.789,-70,-13.789C-70,-13.789,-49,0.5,-49,0.5Z" /></g></g></g></g></g></g></g></g></g></svg>