<svg fill="none" height="100%" width="100%" viewBox="0 0 1080 689" xmlns:xlink="http://www.w3.org/1999/xlink" xmlns="http://www.w3.org/2000/svg"><defs><clipPath id="i0"><rect height="689" width="1080" y="0" x="0" /></clipPath><filter id="i1"><feColorMatrix values="0 0 0 0 1 0 0 0 0 1 0 0 0 0 1 0 0 0 1 0" type="matrix" /></filter><mask height="20000" width="20000" y="-10000" x="-10000" maskContentUnits="userSpaceOnUse" maskUnits="userSpaceOnUse" style="mask-type: alpha" mask-type="alpha" id="i2"><g transform="matrix(1,0,0,1,-451.75,-345)"><g filter="url(#i1)" transform="matrix(1,0,0,1,569.5,345)"><g id="i3"><rect ry="80" rx="80" height="110" width="463" y="-55" x="-231.5" fill="#ff0000" /></g></g></g></mask><filter id="i4"><feColorMatrix values="0 0 0 0 1 0 0 0 0 1 0 0 0 0 1 0 0 0 1 0" type="matrix" /></filter><mask height="20000" width="20000" y="-10000" x="-10000" maskContentUnits="userSpaceOnUse" maskUnits="userSpaceOnUse" style="mask-type: alpha" mask-type="alpha" id="i5"><g transform="matrix(1,0,0,1,-683.5,-345)"><g filter="url(#i4)" transform="matrix(1,0,0,1,569.5,345)"><g id="i3"><rect ry="80" rx="80" height="110" width="463" y="-55" x="-231.5" fill="#ff0000" /></g></g></g></mask><g id="i6"><g mask="url(#i2)" transform="matrix(1,0,0,1,451.75,345)" id="i7"><g id="i8"><path d="M115.75,-68C115.75,-68,-115.75,-68,-115.75,-68C-115.75,-68,-115.75,68,-115.75,68C-115.75,68,115.75,68,115.75,68C115.75,68,115.75,-68,115.75,-68Z" fill="#ffffff"><animate repeatCount="indefinite" attributeName="d" dur="1.267s" begin="0s" calcMode="spline" values="M115.75,-68C115.75,-68,-115.75,-68,-115.75,-68C-115.75,-68,-115.75,68,-115.75,68C-115.75,68,115.75,68,115.75,68C115.75,68,115.75,-68,115.75,-68Z; M115.75,-68C115.75,-68,-115.75,-68,-115.75,-68C-115.75,-68,-115.75,68,-115.75,68C-115.75,68,115.75,68,115.75,68C115.75,68,115.75,-68,115.75,-68Z; M192.908,-67.939C192.908,-67.939,-115.75,-68,-115.75,-68C-115.75,-68,-115.75,68,-115.75,68C-115.75,68,192.908,68.061,192.908,68.061C192.908,68.061,192.908,-67.939,192.908,-67.939Z; M192.908,-67.939C192.908,-67.939,-115.75,-68,-115.75,-68C-115.75,-68,-115.75,68,-115.75,68C-115.75,68,192.908,68.061,192.908,68.061C192.908,68.061,192.908,-67.939,192.908,-67.939Z; M270.78,-67.818C270.78,-67.818,-115.75,-68,-115.75,-68C-115.75,-68,-115.75,68,-115.75,68C-115.75,68,270.78,68.182,270.78,68.182C270.78,68.182,270.78,-67.818,270.78,-67.818Z; M270.78,-67.818C270.78,-67.818,-115.75,-68,-115.75,-68C-115.75,-68,-115.75,68,-115.75,68C-115.75,68,270.78,68.182,270.78,68.182C270.78,68.182,270.78,-67.818,270.78,-67.818Z; M347.938,-67.574C347.938,-67.574,-115.75,-68,-115.75,-68C-115.75,-68,-115.75,68,-115.75,68C-115.75,68,347.938,68.426,347.938,68.426C347.938,68.426,347.938,-67.574,347.938,-67.574Z; M347.938,-67.574C347.938,-67.574,-115.75,-68,-115.75,-68C-115.75,-68,-115.75,68,-115.75,68C-115.75,68,347.938,68.426,347.938,68.426C347.938,68.426,347.938,-67.574,347.938,-67.574Z; M40.021,-67.939C40.021,-67.939,-115.75,-68,-115.75,-68C-115.75,-68,-115.75,68,-115.75,68C-115.75,68,40.021,68.061,40.021,68.061C40.021,68.061,40.021,-67.939,40.021,-67.939Z; M40.021,-67.939C40.021,-67.939,-115.75,-68,-115.75,-68C-115.75,-68,-115.75,68,-115.75,68C-115.75,68,40.021,68.061,40.021,68.061C40.021,68.061,40.021,-67.939,40.021,-67.939Z; M-37.852,-67.818C-37.852,-67.818,-115.75,-68,-115.75,-68C-115.75,-68,-115.75,68,-115.75,68C-115.75,68,-37.852,68.182,-37.852,68.182C-37.852,68.182,-37.852,-67.818,-37.852,-67.818Z; M-37.852,-67.818C-37.852,-67.818,-115.75,-68,-115.75,-68C-115.75,-68,-115.75,68,-115.75,68C-115.75,68,-37.852,68.182,-37.852,68.182C-37.852,68.182,-37.852,-67.818,-37.852,-67.818Z; M-118.582,-67.514C-118.582,-67.514,-120.037,-67.939,-120.037,-67.939C-120.037,-67.939,-120.037,68.061,-120.037,68.061C-120.037,68.061,-118.582,68.486,-118.582,68.486C-118.582,68.486,-118.582,-67.514,-118.582,-67.514Z; M-118.582,-67.514C-118.582,-67.514,-120.037,-67.939,-120.037,-67.939C-120.037,-67.939,-120.037,68.061,-120.037,68.061C-120.037,68.061,-118.582,68.486,-118.582,68.486C-118.582,68.486,-118.582,-67.514,-118.582,-67.514Z" keyTimes="0; 0.118421; 0.131579; 0.223684; 0.236842; 0.328948; 0.342105; 0.421053; 0.43421; 0.539474; 0.552632; 0.723684; 0.736842; 1" keySplines="0 0 1 1; 0 0 1 1; 0 0 1 1; 0 0 1 1; 0 0 1 1; 0 0 1 1; 0 0 1 1; 0 0 1 1; 0 0 1 1; 0 0 1 1; 0 0 1 1; 0 0 1 1; 0 0 1 1" fill="freeze" /></path></g></g><g display="none" transform="matrix(1,0,0,1,569.5,345)" id="i9"><g id="i3"><rect ry="80" rx="80" height="110" width="463" y="-55" x="-231.5" fill="#ff0000" /></g></g><g mask="url(#i5)" transform="matrix(1,0,0,1,683.5,345)" id="i10"><g id="i11"><path d="M115.5,-68C115.5,-68,-115.5,-68,-115.5,-68C-115.5,-68,-115.5,68,-115.5,68C-115.5,68,115.5,68,115.5,68C115.5,68,115.5,-68,115.5,-68Z" fill="#000000"><animate repeatCount="indefinite" attributeName="d" dur="1.267s" begin="0s" calcMode="spline" values="M115.5,-68C115.5,-68,-115.5,-68,-115.5,-68C-115.5,-68,-115.5,68,-115.5,68C-115.5,68,115.5,68,115.5,68C115.5,68,115.5,-68,115.5,-68Z; M115.5,-68C115.5,-68,-115.5,-68,-115.5,-68C-115.5,-68,-115.5,68,-115.5,68C-115.5,68,115.5,68,115.5,68C115.5,68,115.5,-68,115.5,-68Z; M115.5,-68C115.5,-68,-37.723,-68.082,-37.723,-68.082C-37.723,-68.082,-37.723,67.918,-37.723,67.918C-37.723,67.918,115.5,68,115.5,68C115.5,68,115.5,-68,115.5,-68Z; M115.5,-68C115.5,-68,-37.723,-68.082,-37.723,-68.082C-37.723,-68.082,-37.723,67.918,-37.723,67.918C-37.723,67.918,115.5,68,115.5,68C115.5,68,115.5,-68,115.5,-68Z; M115.5,-68C115.5,-68,39.435,-68.104,39.435,-68.104C39.435,-68.104,39.435,67.896,39.435,67.896C39.435,67.896,115.5,68,115.5,68C115.5,68,115.5,-68,115.5,-68Z; M115.5,-68C115.5,-68,39.435,-68.104,39.435,-68.104C39.435,-68.104,39.435,67.896,39.435,67.896C39.435,67.896,115.5,68,115.5,68C115.5,68,115.5,-68,115.5,-68Z; M117.643,-68C117.643,-68,117.308,-68.146,117.308,-68.146C117.308,-68.146,117.308,67.854,117.308,67.854C117.308,67.854,117.643,68,117.643,68C117.643,68,117.643,-68,117.643,-68Z; M117.643,-68C117.643,-68,117.308,-68.146,117.308,-68.146C117.308,-68.146,117.308,67.854,117.308,67.854C117.308,67.854,117.643,68,117.643,68C117.643,68,117.643,-68,117.643,-68Z; M115.5,-68C115.5,-68,-191.229,-67.939,-191.229,-67.939C-191.229,-67.939,-191.229,68.061,-191.229,68.061C-191.229,68.061,115.5,68,115.5,68C115.5,68,115.5,-68,115.5,-68Z; M115.5,-68C115.5,-68,-191.229,-67.939,-191.229,-67.939C-191.229,-67.939,-191.229,68.061,-191.229,68.061C-191.229,68.061,115.5,68,115.5,68C115.5,68,115.5,-68,115.5,-68Z; M115.5,-68C115.5,-68,-269.102,-67.818,-269.102,-67.818C-269.102,-67.818,-269.102,68.182,-269.102,68.182C-269.102,68.182,115.5,68,115.5,68C115.5,68,115.5,-68,115.5,-68Z; M115.5,-68C115.5,-68,-269.102,-67.818,-269.102,-67.818C-269.102,-67.818,-269.102,68.182,-269.102,68.182C-269.102,68.182,115.5,68,115.5,68C115.5,68,115.5,-68,115.5,-68Z; M115.5,-68C115.5,-68,-345.545,-67.574,-345.545,-67.574C-345.545,-67.574,-345.545,68.426,-345.545,68.426C-345.545,68.426,115.5,68,115.5,68C115.5,68,115.5,-68,115.5,-68Z; M115.5,-68C115.5,-68,-345.545,-67.574,-345.545,-67.574C-345.545,-67.574,-345.545,68.426,-345.545,68.426C-345.545,68.426,115.5,68,115.5,68C115.5,68,115.5,-68,115.5,-68Z" keyTimes="0; 0.118421; 0.131579; 0.223684; 0.236842; 0.328948; 0.342105; 0.421053; 0.43421; 0.539474; 0.552632; 0.723684; 0.736842; 1" keySplines="0 0 1 1; 0 0 1 1; 0 0 1 1; 0 0 1 1; 0 0 1 1; 0 0 1 1; 0 0 1 1; 0 0 1 1; 0 0 1 1; 0 0 1 1; 0 0 1 1; 0 0 1 1; 0 0 1 1" fill="freeze" /></path></g></g><g display="none" transform="matrix(1,0,0,1,569.5,345)" id="i12"><g id="i3"><rect ry="80" rx="80" height="110" width="463" y="-55" x="-231.5" fill="#ff0000" /></g></g><g id="i13"><g transform="translate(454,344.5)"><animateTransform repeatCount="indefinite" type="translate" attributeName="transform" dur="1.267s" begin="0s" calcMode="spline" values="454 344.5; 454 344.5; 491.868 344.5; 491.868 344.5; 530.868 344.5; 530.868 344.5; 569.868 344.5; 569.868 344.5; 412 344.5; 412 344.5; 378 344.5; 378 344.5; 350 344.5; 350 344.5" keyTimes="0; 0.118421; 0.131579; 0.223684; 0.236842; 0.328948; 0.342105; 0.421053; 0.43421; 0.539473; 0.552632; 0.723684; 0.736842; 1" keySplines="0 0 1 1; 0 0 1 1; 0 0 1 1; 0 0 1 1; 0 0 1 1; 0 0 1 1; 0 0 1 1; 0 0 1 1; 0 0 1 1; 0 0 1 1; 0 0 1 1; 0 0 1 1; 0 0 1 1" fill="freeze" /><g id="i14"><path fill="#000000" d="M10.807,6.484C10.807,6.484,10.807,1.99,10.807,1.99C10.807,1.99,-10.807,1.99,-10.807,1.99C-10.807,1.99,-10.807,6.484,-10.807,6.484C-10.807,6.484,10.807,6.484,10.807,6.484Z" /></g></g></g><g id="i15"><g transform="translate(680,344.5)"><animateTransform repeatCount="indefinite" type="translate" attributeName="transform" dur="1.267s" begin="0s" calcMode="spline" values="680 344.5; 680 344.5; 721 344.5; 721 344.5; 759 344.5; 759 344.5; 786 344.5; 786 344.5; 644.279 344.5; 644.279 344.5; 602.279 344.5; 602.279 344.5; 566.279 344.5; 566.279 344.5" keyTimes="0; 0.118421; 0.131579; 0.223684; 0.236842; 0.328948; 0.342105; 0.421053; 0.43421; 0.539473; 0.552632; 0.723684; 0.736842; 1" keySplines="0 0 1 1; 0 0 1 1; 0 0 1 1; 0 0 1 1; 0 0 1 1; 0 0 1 1; 0 0 1 1; 0 0 1 1; 0 0 1 1; 0 0 1 1; 0 0 1 1; 0 0 1 1; 0 0 1 1" fill="freeze" /><g id="i16"><path fill="#ffffff" d="M12.492,6.751C12.492,6.751,12.492,2.257,12.492,2.257C12.492,2.257,-12.492,2.257,-12.492,2.257C-12.492,2.257,-12.492,6.751,-12.492,6.751C-12.492,6.751,12.492,6.751,12.492,6.751ZM2.327,16.328C2.327,16.328,2.327,-7.319,2.327,-7.319C2.327,-7.319,-2.381,-7.319,-2.381,-7.319C-2.381,-7.319,-2.381,16.328,-2.381,16.328C-2.381,16.328,2.327,16.328,2.327,16.328Z" /></g></g></g><g transform="matrix(1,0,0,1,569.5,345)" id="i17"><g id="i18"><path stroke-width="4" stroke="#ffffff" d="M-176.5,-55C-206.876,-55,-231.5,-30.376,-231.5,0C-231.5,30.376,-206.876,55,-176.5,55C-176.5,55,176.5,55,176.5,55C206.876,55,231.5,30.376,231.5,0C231.5,-30.376,206.876,-55,176.5,-55C176.5,-55,-176.5,-55,-176.5,-55Z" /></g></g></g></defs><g transform="matrix(1,0,0,1,0,0)" id="i19"><rect y="0" x="0" fill="#000000" height="689" width="1080" /></g><g transform="matrix(1,0,0,1,538.705,341.014)" id="i20"><rect height="746.433" width="1110.693" y="-373.217" x="-555.346" fill="#000000" /></g><g transform="matrix(1,0,0,1,308.682,343.166)" visibility="visible" id="i21"><animate repeatCount="indefinite" begin="0s" calcMode="discrete" dur="1.267s" values="visible; hidden; hidden" keyTimes="0; 0.132035; 1" attributeName="visibility" /><g id="i21"><path fill="#ffffff" d="M6.875,19.083C8.747,18.031,10.165,16.64,11.128,14.91C12.091,13.18,12.572,11.299,12.572,9.266C12.572,7.554,12.251,6.047,11.609,4.745C10.967,3.443,10.076,2.383,8.934,1.562C7.793,0.742,6.509,0.189,5.082,-0.097C6.402,-0.453,7.525,-1.041,8.453,-1.862C9.38,-2.682,10.093,-3.655,10.593,-4.778C11.092,-5.902,11.342,-7.123,11.342,-8.443C11.342,-10.19,10.905,-11.795,10.031,-13.258C9.157,-14.72,7.873,-15.888,6.179,-16.762C4.485,-17.636,2.389,-18.073,-0.107,-18.073C-2.426,-18.073,-4.467,-17.636,-6.233,-16.762C-7.998,-15.888,-9.389,-14.64,-10.406,-13.017C-11.422,-11.394,-11.984,-9.53,-12.091,-7.426C-12.091,-7.426,-6.795,-7.426,-6.795,-7.426C-6.652,-9.173,-6.001,-10.618,-4.842,-11.76C-3.683,-12.901,-2.105,-13.472,-0.107,-13.472C1.89,-13.472,3.406,-12.972,4.44,-11.974C5.475,-10.975,5.992,-9.691,5.992,-8.122C5.992,-6.231,5.323,-4.769,3.986,-3.735C2.648,-2.7,0.856,-2.183,-1.391,-2.183C-1.391,-2.183,-4.173,-2.183,-4.173,-2.183C-4.173,-2.183,-4.173,2.311,-4.173,2.311C-4.173,2.311,-1.391,2.311,-1.391,2.311C0.214,2.311,1.667,2.561,2.969,3.06C4.271,3.56,5.305,4.309,6.072,5.307C6.839,6.306,7.222,7.607,7.222,9.212C7.222,10.496,6.946,11.656,6.393,12.69C5.84,13.725,5.02,14.545,3.932,15.151C2.844,15.758,1.498,16.06,-0.107,16.06C-1.712,16.06,-3.095,15.731,-4.253,15.07C-5.413,14.411,-6.295,13.528,-6.902,12.422C-7.508,11.317,-7.829,10.087,-7.865,8.731C-7.865,8.731,-13.215,8.731,-13.215,8.731C-13.143,11.406,-12.528,13.626,-11.369,15.391C-10.21,17.157,-8.64,18.477,-6.661,19.35C-4.681,20.224,-2.497,20.661,-0.107,20.661C2.675,20.661,5.002,20.135,6.875,19.083Z" /></g></g><g transform="matrix(1,0,0,1,308.682,343.166)" visibility="hidden" id="i22"><animate repeatCount="indefinite" begin="0s" calcMode="discrete" dur="1.267s" values="hidden; visible; hidden; hidden" keyTimes="0; 0.132035; 0.237062; 1" attributeName="visibility" /><g id="i22"><path fill="#ffffff" d="M4.628,-11.546C4.628,-11.546,4.628,7.714,4.628,7.714C4.628,7.714,-8.64,7.714,-8.64,7.714C-8.64,7.714,4.628,-11.546,4.628,-11.546ZM9.603,20.019C9.603,20.019,9.603,12.369,9.603,12.369C9.603,12.369,14.953,12.369,14.953,12.369C14.953,12.369,14.953,7.714,14.953,7.714C14.953,7.714,9.603,7.714,9.603,7.714C9.603,7.714,9.603,-17.431,9.603,-17.431C9.603,-17.431,3.451,-17.431,3.451,-17.431C3.451,-17.431,-14.472,8.196,-14.472,8.196C-14.472,8.196,-14.472,12.369,-14.472,12.369C-14.472,12.369,4.307,12.369,4.307,12.369C4.307,12.369,4.307,20.019,4.307,20.019C4.307,20.019,9.603,20.019,9.603,20.019Z" /></g></g><g transform="matrix(1,0,0,1,308.682,343.166)" visibility="hidden" id="i23"><animate repeatCount="indefinite" begin="0s" calcMode="discrete" dur="1.267s" values="hidden; visible; hidden; hidden" keyTimes="0; 0.237062; 0.34209; 1" attributeName="visibility" /><g id="i23"><path fill="#ffffff" d="M5.805,19.645C7.427,18.968,8.801,18.013,9.924,16.782C11.048,15.552,11.912,14.134,12.519,12.529C13.125,10.924,13.428,9.177,13.428,7.286C13.428,5.539,13.152,3.881,12.599,2.311C12.046,0.742,11.243,-0.632,10.192,-1.809C9.139,-2.986,7.864,-3.913,6.366,-4.591C4.868,-5.268,3.174,-5.607,1.284,-5.607C-0.571,-5.607,-2.22,-5.295,-3.665,-4.671C-5.109,-4.047,-6.26,-3.253,-7.116,-2.29C-7.116,-2.29,-5.136,-12.776,-5.136,-12.776C-5.136,-12.776,10.914,-12.776,10.914,-12.776C10.914,-12.776,10.914,-17.431,10.914,-17.431C10.914,-17.431,-9.256,-17.431,-9.256,-17.431C-9.256,-17.431,-12.359,3.327,-12.359,3.327C-12.359,3.327,-7.169,3.327,-7.169,3.327C-6.563,2.043,-5.591,0.982,-4.253,0.144C-2.916,-0.694,-1.32,-1.113,0.535,-1.113C2.068,-1.113,3.415,-0.756,4.574,-0.043C5.733,0.671,6.642,1.66,7.303,2.926C7.962,4.192,8.292,5.681,8.292,7.393C8.292,8.998,7.971,10.461,7.329,11.78C6.687,13.1,5.778,14.153,4.601,14.937C3.424,15.722,2.015,16.114,0.374,16.114C-1.801,16.114,-3.603,15.534,-5.029,14.375C-6.456,13.216,-7.348,11.727,-7.704,9.908C-7.704,9.908,-12.947,9.908,-12.947,9.908C-12.698,11.941,-12.02,13.769,-10.914,15.391C-9.809,17.015,-8.311,18.299,-6.42,19.243C-4.53,20.188,-2.265,20.661,0.374,20.661C2.372,20.661,4.181,20.322,5.805,19.645Z" /></g></g><g transform="matrix(1,0,0,1,308.682,343.166)" visibility="hidden" id="i24"><animate repeatCount="indefinite" begin="0s" calcMode="discrete" dur="1.267s" values="hidden; visible; hidden; hidden" keyTimes="0; 0.34209; 0.434114; 1" attributeName="visibility" /><g id="i24"><path fill="#ffffff" d="M-3.772,15.017C-5.002,14.357,-5.974,13.448,-6.688,12.288C-7.401,11.13,-7.758,9.801,-7.758,8.303C-7.758,6.841,-7.401,5.53,-6.688,4.37C-5.974,3.212,-5.011,2.284,-3.799,1.588C-2.586,0.893,-1.213,0.545,0.321,0.545C1.854,0.545,3.218,0.866,4.414,1.508C5.608,2.15,6.554,3.051,7.249,4.21C7.945,5.369,8.292,6.716,8.292,8.249C8.292,9.747,7.945,11.085,7.249,12.262C6.554,13.439,5.608,14.357,4.414,15.017C3.218,15.677,1.854,16.007,0.321,16.007C-1.177,16.007,-2.541,15.677,-3.772,15.017ZM7.543,18.869C9.469,17.674,10.958,16.114,12.011,14.188C13.062,12.262,13.589,10.211,13.589,8.035C13.589,5.61,13.018,3.488,11.877,1.669C10.735,-0.15,9.246,-1.55,7.41,-2.531C5.572,-3.512,3.602,-4.002,1.498,-4.002C-0.107,-4.002,-1.597,-3.743,-2.969,-3.227C-4.343,-2.709,-5.529,-2.004,-6.527,-1.113C-7.526,-0.221,-8.293,0.759,-8.828,1.829C-8.828,1.758,-8.828,1.687,-8.828,1.615C-8.828,1.544,-8.828,1.491,-8.828,1.455C-8.721,-1.933,-8.266,-4.733,-7.463,-6.945C-6.661,-9.156,-5.564,-10.805,-4.173,-11.894C-2.782,-12.981,-1.213,-13.525,0.535,-13.525C2.496,-13.525,4.11,-13.017,5.377,-12.001C6.642,-10.984,7.436,-9.548,7.757,-7.694C7.757,-7.694,12.733,-7.694,12.733,-7.694C12.519,-9.584,11.921,-11.313,10.941,-12.883C9.959,-14.452,8.604,-15.71,6.875,-16.655C5.144,-17.6,3.049,-18.073,0.588,-18.073C-2.479,-18.073,-5.101,-17.198,-7.276,-15.451C-9.452,-13.703,-11.12,-11.278,-12.278,-8.175C-13.438,-5.072,-14.017,-1.452,-14.017,2.685C-14.017,4.932,-13.759,7.117,-13.241,9.239C-12.725,11.361,-11.895,13.287,-10.754,15.017C-9.612,16.747,-8.105,18.12,-6.233,19.136C-4.36,20.153,-2.051,20.661,0.695,20.661C3.335,20.661,5.617,20.064,7.543,18.869Z" /></g></g><g transform="matrix(1,0,0,1,308.682,343.166)" visibility="hidden" id="i25"><animate repeatCount="indefinite" begin="0s" calcMode="discrete" dur="1.267s" values="hidden; visible; hidden; hidden" keyTimes="0; 0.434114; 0.553146; 1" attributeName="visibility" /><g id="i25"><path fill="#ffffff" d="M13.027,20.019C13.027,20.019,13.027,15.579,13.027,15.579C13.027,15.579,-4.574,15.579,-4.574,15.579C-3.183,14.509,-1.73,13.314,-0.214,11.994C1.302,10.675,2.773,9.275,4.2,7.794C5.626,6.315,6.919,4.772,8.078,3.167C9.237,1.562,10.156,-0.088,10.834,-1.782C11.511,-3.476,11.85,-5.179,11.85,-6.891C11.85,-9.28,11.369,-11.305,10.406,-12.964C9.443,-14.622,8.087,-15.888,6.34,-16.762C4.592,-17.636,2.523,-18.073,0.134,-18.073C-2.149,-18.073,-4.209,-17.609,-6.046,-16.682C-7.883,-15.754,-9.336,-14.399,-10.406,-12.616C-11.476,-10.832,-12.029,-8.657,-12.064,-6.089C-12.064,-6.089,-6.875,-6.089,-6.875,-6.089C-6.875,-7.444,-6.616,-8.684,-6.099,-9.807C-5.582,-10.931,-4.815,-11.831,-3.799,-12.509C-2.782,-13.186,-1.507,-13.525,0.027,-13.525C1.632,-13.525,2.897,-13.195,3.825,-12.536C4.752,-11.875,5.43,-11.028,5.858,-9.994C6.286,-8.959,6.5,-7.836,6.5,-6.624C6.5,-4.912,6,-3.12,5.002,-1.247C4.003,0.625,2.621,2.534,0.856,4.477C-0.91,6.422,-2.916,8.375,-5.163,10.336C-7.41,12.298,-9.782,14.241,-12.278,16.167C-12.278,16.167,-12.278,20.019,-12.278,20.019C-12.278,20.019,13.027,20.019,13.027,20.019Z" /></g></g><g transform="matrix(1,0,0,1,308.682,343.166)" visibility="hidden" id="i26"><animate repeatCount="indefinite" begin="0s" calcMode="discrete" dur="1.267s" values="hidden; visible; hidden; hidden" keyTimes="0; 0.553146; 0.737194; 1" attributeName="visibility" /><g id="i26"><path fill="#ffffff" d="M4.868,20.019C4.868,20.019,4.868,-17.431,4.868,-17.431C4.868,-17.431,1.391,-17.431,1.391,-17.431C1.391,-17.431,-7.116,-13.739,-7.116,-13.739C-7.116,-13.739,-7.116,-9.727,-7.116,-9.727C-7.116,-9.727,-0.589,-11.385,-0.589,-11.385C-0.589,-11.385,-0.589,20.019,-0.589,20.019C-0.589,20.019,4.868,20.019,4.868,20.019Z" /></g></g><g transform="matrix(1,0,0,1,308.682,343.166)" visibility="hidden" id="i27"><animate repeatCount="indefinite" begin="0s" calcMode="discrete" dur="1.267s" values="hidden; visible; visible" keyTimes="0; 0.737194; 1" attributeName="visibility" /><g id="i27"><path fill="#ffffff" d="M-5.404,14.134C-7.009,12.957,-8.257,11.281,-9.149,9.105C-10.04,6.93,-10.486,4.326,-10.486,1.294C-10.486,-1.737,-10.04,-4.341,-9.149,-6.517C-8.257,-8.692,-7.009,-10.36,-5.404,-11.519C-3.799,-12.678,-1.98,-13.258,0.053,-13.258C2.051,-13.258,3.843,-12.678,5.43,-11.519C7.017,-10.36,8.257,-8.692,9.148,-6.517C10.04,-4.341,10.486,-1.737,10.486,1.294C10.486,4.326,10.04,6.93,9.148,9.105C8.257,11.281,7.017,12.957,5.43,14.134C3.843,15.311,2.051,15.9,0.053,15.9C-1.98,15.9,-3.799,15.311,-5.404,14.134ZM8.587,18.227C10.958,16.604,12.777,14.34,14.044,11.432C15.309,8.526,15.943,5.146,15.943,1.294C15.943,-2.558,15.309,-5.937,14.044,-8.844C12.777,-11.751,10.958,-14.015,8.587,-15.639C6.214,-17.261,3.37,-18.073,0.053,-18.073C-3.264,-18.073,-6.117,-17.261,-8.507,-15.639C-10.896,-14.015,-12.733,-11.751,-14.017,-8.844C-15.301,-5.937,-15.943,-2.558,-15.943,1.294C-15.943,5.146,-15.301,8.526,-14.017,11.432C-12.733,14.34,-10.896,16.604,-8.507,18.227C-6.117,19.85,-3.264,20.661,0.053,20.661C3.37,20.661,6.214,19.85,8.587,18.227Z" /></g></g><g transform="matrix(1,0,0,1,0,0)" id="i28"><g clip-path="url(#i0)"><g mask="url(#i2)" transform="matrix(1,0,0,1,451.75,345)"><g><path d="M115.75,-68C115.75,-68,-115.75,-68,-115.75,-68C-115.75,-68,-115.75,68,-115.75,68C-115.75,68,115.75,68,115.75,68C115.75,68,115.75,-68,115.75,-68Z" fill="#ffffff"><animate repeatCount="indefinite" attributeName="d" dur="1.267s" begin="0s" calcMode="spline" values="M115.75,-68C115.75,-68,-115.75,-68,-115.75,-68C-115.75,-68,-115.75,68,-115.75,68C-115.75,68,115.75,68,115.75,68C115.75,68,115.75,-68,115.75,-68Z; M115.75,-68C115.75,-68,-115.75,-68,-115.75,-68C-115.75,-68,-115.75,68,-115.75,68C-115.75,68,115.75,68,115.75,68C115.75,68,115.75,-68,115.75,-68Z; M192.908,-67.939C192.908,-67.939,-115.75,-68,-115.75,-68C-115.75,-68,-115.75,68,-115.75,68C-115.75,68,192.908,68.061,192.908,68.061C192.908,68.061,192.908,-67.939,192.908,-67.939Z; M192.908,-67.939C192.908,-67.939,-115.75,-68,-115.75,-68C-115.75,-68,-115.75,68,-115.75,68C-115.75,68,192.908,68.061,192.908,68.061C192.908,68.061,192.908,-67.939,192.908,-67.939Z; M270.78,-67.818C270.78,-67.818,-115.75,-68,-115.75,-68C-115.75,-68,-115.75,68,-115.75,68C-115.75,68,270.78,68.182,270.78,68.182C270.78,68.182,270.78,-67.818,270.78,-67.818Z; M270.78,-67.818C270.78,-67.818,-115.75,-68,-115.75,-68C-115.75,-68,-115.75,68,-115.75,68C-115.75,68,270.78,68.182,270.78,68.182C270.78,68.182,270.78,-67.818,270.78,-67.818Z; M347.938,-67.574C347.938,-67.574,-115.75,-68,-115.75,-68C-115.75,-68,-115.75,68,-115.75,68C-115.75,68,347.938,68.426,347.938,68.426C347.938,68.426,347.938,-67.574,347.938,-67.574Z; M347.938,-67.574C347.938,-67.574,-115.75,-68,-115.75,-68C-115.75,-68,-115.75,68,-115.75,68C-115.75,68,347.938,68.426,347.938,68.426C347.938,68.426,347.938,-67.574,347.938,-67.574Z; M40.021,-67.939C40.021,-67.939,-115.75,-68,-115.75,-68C-115.75,-68,-115.75,68,-115.75,68C-115.75,68,40.021,68.061,40.021,68.061C40.021,68.061,40.021,-67.939,40.021,-67.939Z; M40.021,-67.939C40.021,-67.939,-115.75,-68,-115.75,-68C-115.75,-68,-115.75,68,-115.75,68C-115.75,68,40.021,68.061,40.021,68.061C40.021,68.061,40.021,-67.939,40.021,-67.939Z; M-37.852,-67.818C-37.852,-67.818,-115.75,-68,-115.75,-68C-115.75,-68,-115.75,68,-115.75,68C-115.75,68,-37.852,68.182,-37.852,68.182C-37.852,68.182,-37.852,-67.818,-37.852,-67.818Z; M-37.852,-67.818C-37.852,-67.818,-115.75,-68,-115.75,-68C-115.75,-68,-115.75,68,-115.75,68C-115.75,68,-37.852,68.182,-37.852,68.182C-37.852,68.182,-37.852,-67.818,-37.852,-67.818Z; M-118.582,-67.514C-118.582,-67.514,-120.037,-67.939,-120.037,-67.939C-120.037,-67.939,-120.037,68.061,-120.037,68.061C-120.037,68.061,-118.582,68.486,-118.582,68.486C-118.582,68.486,-118.582,-67.514,-118.582,-67.514Z; M-118.582,-67.514C-118.582,-67.514,-120.037,-67.939,-120.037,-67.939C-120.037,-67.939,-120.037,68.061,-120.037,68.061C-120.037,68.061,-118.582,68.486,-118.582,68.486C-118.582,68.486,-118.582,-67.514,-118.582,-67.514Z" keyTimes="0; 0.118421; 0.131579; 0.223684; 0.236842; 0.328948; 0.342105; 0.421053; 0.43421; 0.539474; 0.552632; 0.723684; 0.736842; 1" keySplines="0 0 1 1; 0 0 1 1; 0 0 1 1; 0 0 1 1; 0 0 1 1; 0 0 1 1; 0 0 1 1; 0 0 1 1; 0 0 1 1; 0 0 1 1; 0 0 1 1; 0 0 1 1; 0 0 1 1" fill="freeze" /></path></g></g><g display="none" transform="matrix(1,0,0,1,569.5,345)"><g><rect ry="80" rx="80" height="110" width="463" y="-55" x="-231.5" fill="#ff0000" /></g></g><g mask="url(#i5)" transform="matrix(1,0,0,1,683.5,345)"><g><path d="M115.5,-68C115.5,-68,-115.5,-68,-115.5,-68C-115.5,-68,-115.5,68,-115.5,68C-115.5,68,115.5,68,115.5,68C115.5,68,115.5,-68,115.5,-68Z" fill="#000000"><animate repeatCount="indefinite" attributeName="d" dur="1.267s" begin="0s" calcMode="spline" values="M115.5,-68C115.5,-68,-115.5,-68,-115.5,-68C-115.5,-68,-115.5,68,-115.5,68C-115.5,68,115.5,68,115.5,68C115.5,68,115.5,-68,115.5,-68Z; M115.5,-68C115.5,-68,-115.5,-68,-115.5,-68C-115.5,-68,-115.5,68,-115.5,68C-115.5,68,115.5,68,115.5,68C115.5,68,115.5,-68,115.5,-68Z; M115.5,-68C115.5,-68,-37.723,-68.082,-37.723,-68.082C-37.723,-68.082,-37.723,67.918,-37.723,67.918C-37.723,67.918,115.5,68,115.5,68C115.5,68,115.5,-68,115.5,-68Z; M115.5,-68C115.5,-68,-37.723,-68.082,-37.723,-68.082C-37.723,-68.082,-37.723,67.918,-37.723,67.918C-37.723,67.918,115.5,68,115.5,68C115.5,68,115.5,-68,115.5,-68Z; M115.5,-68C115.5,-68,39.435,-68.104,39.435,-68.104C39.435,-68.104,39.435,67.896,39.435,67.896C39.435,67.896,115.5,68,115.5,68C115.5,68,115.5,-68,115.5,-68Z; M115.5,-68C115.5,-68,39.435,-68.104,39.435,-68.104C39.435,-68.104,39.435,67.896,39.435,67.896C39.435,67.896,115.5,68,115.5,68C115.5,68,115.5,-68,115.5,-68Z; M117.643,-68C117.643,-68,117.308,-68.146,117.308,-68.146C117.308,-68.146,117.308,67.854,117.308,67.854C117.308,67.854,117.643,68,117.643,68C117.643,68,117.643,-68,117.643,-68Z; M117.643,-68C117.643,-68,117.308,-68.146,117.308,-68.146C117.308,-68.146,117.308,67.854,117.308,67.854C117.308,67.854,117.643,68,117.643,68C117.643,68,117.643,-68,117.643,-68Z; M115.5,-68C115.5,-68,-191.229,-67.939,-191.229,-67.939C-191.229,-67.939,-191.229,68.061,-191.229,68.061C-191.229,68.061,115.5,68,115.5,68C115.5,68,115.5,-68,115.5,-68Z; M115.5,-68C115.5,-68,-191.229,-67.939,-191.229,-67.939C-191.229,-67.939,-191.229,68.061,-191.229,68.061C-191.229,68.061,115.5,68,115.5,68C115.5,68,115.5,-68,115.5,-68Z; M115.5,-68C115.5,-68,-269.102,-67.818,-269.102,-67.818C-269.102,-67.818,-269.102,68.182,-269.102,68.182C-269.102,68.182,115.5,68,115.5,68C115.5,68,115.5,-68,115.5,-68Z; M115.5,-68C115.5,-68,-269.102,-67.818,-269.102,-67.818C-269.102,-67.818,-269.102,68.182,-269.102,68.182C-269.102,68.182,115.5,68,115.5,68C115.5,68,115.5,-68,115.5,-68Z; M115.5,-68C115.5,-68,-345.545,-67.574,-345.545,-67.574C-345.545,-67.574,-345.545,68.426,-345.545,68.426C-345.545,68.426,115.5,68,115.5,68C115.5,68,115.5,-68,115.5,-68Z; M115.5,-68C115.5,-68,-345.545,-67.574,-345.545,-67.574C-345.545,-67.574,-345.545,68.426,-345.545,68.426C-345.545,68.426,115.5,68,115.5,68C115.5,68,115.5,-68,115.5,-68Z" keyTimes="0; 0.118421; 0.131579; 0.223684; 0.236842; 0.328948; 0.342105; 0.421053; 0.43421; 0.539474; 0.552632; 0.723684; 0.736842; 1" keySplines="0 0 1 1; 0 0 1 1; 0 0 1 1; 0 0 1 1; 0 0 1 1; 0 0 1 1; 0 0 1 1; 0 0 1 1; 0 0 1 1; 0 0 1 1; 0 0 1 1; 0 0 1 1; 0 0 1 1" fill="freeze" /></path></g></g><g display="none" transform="matrix(1,0,0,1,569.5,345)"><g><rect ry="80" rx="80" height="110" width="463" y="-55" x="-231.5" fill="#ff0000" /></g></g><g><g transform="translate(454,344.5)"><animateTransform repeatCount="indefinite" type="translate" attributeName="transform" dur="1.267s" begin="0s" calcMode="spline" values="454 344.5; 454 344.5; 491.868 344.5; 491.868 344.5; 530.868 344.5; 530.868 344.5; 569.868 344.5; 569.868 344.5; 412 344.5; 412 344.5; 378 344.5; 378 344.5; 350 344.5; 350 344.5" keyTimes="0; 0.118421; 0.131579; 0.223684; 0.236842; 0.328948; 0.342105; 0.421053; 0.43421; 0.539473; 0.552632; 0.723684; 0.736842; 1" keySplines="0 0 1 1; 0 0 1 1; 0 0 1 1; 0 0 1 1; 0 0 1 1; 0 0 1 1; 0 0 1 1; 0 0 1 1; 0 0 1 1; 0 0 1 1; 0 0 1 1; 0 0 1 1; 0 0 1 1" fill="freeze" /><g><path fill="#000000" d="M10.807,6.484C10.807,6.484,10.807,1.99,10.807,1.99C10.807,1.99,-10.807,1.99,-10.807,1.99C-10.807,1.99,-10.807,6.484,-10.807,6.484C-10.807,6.484,10.807,6.484,10.807,6.484Z" /></g></g></g><g><g transform="translate(680,344.5)"><animateTransform repeatCount="indefinite" type="translate" attributeName="transform" dur="1.267s" begin="0s" calcMode="spline" values="680 344.5; 680 344.5; 721 344.5; 721 344.5; 759 344.5; 759 344.5; 786 344.5; 786 344.5; 644.279 344.5; 644.279 344.5; 602.279 344.5; 602.279 344.5; 566.279 344.5; 566.279 344.5" keyTimes="0; 0.118421; 0.131579; 0.223684; 0.236842; 0.328948; 0.342105; 0.421053; 0.43421; 0.539473; 0.552632; 0.723684; 0.736842; 1" keySplines="0 0 1 1; 0 0 1 1; 0 0 1 1; 0 0 1 1; 0 0 1 1; 0 0 1 1; 0 0 1 1; 0 0 1 1; 0 0 1 1; 0 0 1 1; 0 0 1 1; 0 0 1 1; 0 0 1 1" fill="freeze" /><g><path fill="#ffffff" d="M12.492,6.751C12.492,6.751,12.492,2.257,12.492,2.257C12.492,2.257,-12.492,2.257,-12.492,2.257C-12.492,2.257,-12.492,6.751,-12.492,6.751C-12.492,6.751,12.492,6.751,12.492,6.751ZM2.327,16.328C2.327,16.328,2.327,-7.319,2.327,-7.319C2.327,-7.319,-2.381,-7.319,-2.381,-7.319C-2.381,-7.319,-2.381,16.328,-2.381,16.328C-2.381,16.328,2.327,16.328,2.327,16.328Z" /></g></g></g><g transform="matrix(1,0,0,1,569.5,345)"><g><path stroke-width="4" stroke="#ffffff" d="M-176.5,-55C-206.876,-55,-231.5,-30.376,-231.5,0C-231.5,30.376,-206.876,55,-176.5,55C-176.5,55,176.5,55,176.5,55C206.876,55,231.5,30.376,231.5,0C231.5,-30.376,206.876,-55,176.5,-55C176.5,-55,-176.5,-55,-176.5,-55Z" /></g></g></g></g></svg>