<svg xmlns="http://www.w3.org/2000/svg" viewBox="0 0 100 100">
  <circle cx="50" cy="50" r="48" fill="#f5f0e8" stroke="#e0d5c5" stroke-width="1.5"/>
  <!-- Hair -->
  <path d="M22 45 Q22 18 50 15 Q78 18 78 45" fill="#2d1b0e"/>
  <path d="M24 44 Q24 22 50 19 Q76 22 76 44" fill="#4a3228"/>
  <!-- Face -->
  <ellipse cx="50" cy="58" rx="25" ry="22" fill="#f5d6b8"/>
  <!-- Eyes -->
  <ellipse cx="40" cy="55" rx="4" ry="4.5" fill="#fff"/>
  <circle cx="40" cy="55" r="2.5" fill="#2d1b0e"/>
  <ellipse cx="60" cy="55" rx="4" ry="4.5" fill="#fff"/>
  <circle cx="60" cy="55" r="2.5" fill="#2d1b0e"/>
  <!-- Eyebrows -->
  <path d="M34 48 Q40 44 46 48" fill="none" stroke="#2d1b0e" stroke-width="1" stroke-linecap="round"/>
  <path d="M54 48 Q60 44 66 48" fill="none" stroke="#2d1b0e" stroke-width="1" stroke-linecap="round"/>
  <!-- Smile -->
  <path d="M40 66 Q50 74 60 66" fill="none" stroke="#2d1b0e" stroke-width="1.5" stroke-linecap="round"/>
  <!-- Glasses -->
  <rect x="30" y="49" width="16" height="12" rx="3" fill="none" stroke="#6366f1" stroke-width="1.2"/>
  <rect x="54" y="49" width="16" height="12" rx="3" fill="none" stroke="#6366f1" stroke-width="1.2"/>
  <line x1="46" y1="55" x2="54" y2="55" stroke="#6366f1" stroke-width="1.2"/>
  <!-- Body -->
  <rect x="35" y="78" width="30" height="20" rx="5" fill="#2563eb" opacity="0.6"/>
</svg>
