<svg fill="none" height="100%" width="100%" viewBox="0 0 1080 1080" xmlns:xlink="http://www.w3.org/1999/xlink" xmlns="http://www.w3.org/2000/svg"><g id="i0"><g transform="translate(496.02,542.083)"><animateTransform repeatCount="indefinite" type="translate" attributeName="transform" dur="9.009s" begin="0s" calcMode="spline" values="496.02 542.083; 496.02 542.083; 150.02 542.083; 150.02 542.083" keyTimes="0; 0.062963; 0.174074; 1" keySplines="0 0 1 1; 0.333 0 0.667 1; 0 0 1 1" fill="freeze" /><g transform="scale(0,0)"><animateTransform repeatCount="indefinite" type="scale" attributeName="transform" dur="9.009s" begin="0s" calcMode="spline" values="0 0; 1 1; 0.8 0.8; 1 1; 1 1" keyTimes="0; 0.018519; 0.037037; 0.055556; 1" keySplines="0.333 0 0.667 1; 0.333 0 0.667 1; 0.333 0 0.667 1; 0 0 1 1" fill="freeze" /><g transform="translate(-86.575,-113.625)"><g id="i1"><g transform="translate(62.675,66.197)"><g transform="scale(0.09,1)"><animateTransform repeatCount="indefinite" type="scale" attributeName="transform" dur="9.009s" begin="0s" calcMode="spline" values="0.09 1; 0.09 1; 1 1; 1 1" keyTimes="0; 0.088889; 0.2; 1" keySplines="0 0 1 1; 0.167 0 0.667 1; 0 0 1 1" fill="freeze" /><g transform="translate(-0.25,-58.101)"><g id="i2" transform="matrix(1,0,0,1,408.3,58.101)"><path fill="#ffe2b3" d="M363.611,-57.852C363.611,-57.852,-328.002,-57.852,-328.002,-57.852C-328.002,-57.852,-349.031,-57.852,-349.031,-57.852C-349.031,-57.852,-408.05,-57.852,-408.05,-57.852C-408.05,-57.852,-408.05,57.852,-408.05,57.852C-408.05,57.852,-350.207,57.852,-350.207,57.852C-350.207,57.852,-328.002,57.852,-328.002,57.852C-328.002,57.852,408.05,57.852,408.05,57.852C408.05,57.852,408.05,-13.412,408.05,-13.412C408.05,-37.955,388.154,-57.852,363.611,-57.852Z" /></g><g id="i3" transform="matrix(1,0,0,1,106.843,57.948)"><path fill="#f9d9aa" d="M2.808,57.852C2.808,57.852,-2.807,57.852,-2.807,57.852C-2.807,57.852,-2.807,-57.852,-2.807,-57.852C-2.807,-57.852,2.808,-57.852,2.808,-57.852C2.808,-57.852,2.808,57.852,2.808,57.852Z" /></g></g></g></g></g></g></g></g></g><g id="i0"><g transform="translate(496.02,542.083)"><animateTransform repeatCount="indefinite" type="translate" attributeName="transform" dur="9.009s" begin="0s" calcMode="spline" values="496.02 542.083; 496.02 542.083; 150.02 542.083; 150.02 542.083" keyTimes="0; 0.062963; 0.174074; 1" keySplines="0 0 1 1; 0.333 0 0.667 1; 0 0 1 1" fill="freeze" /><g transform="scale(0,0)"><animateTransform repeatCount="indefinite" type="scale" attributeName="transform" dur="9.009s" begin="0s" calcMode="spline" values="0 0; 1 1; 0.8 0.8; 1 1; 1 1" keyTimes="0; 0.018519; 0.037037; 0.055556; 1" keySplines="0.333 0 0.667 1; 0.333 0 0.667 1; 0.333 0 0.667 1; 0 0 1 1" fill="freeze" /><g transform="translate(-86.575,-113.625)"><g id="i1"><g transform="translate(62.675,66.197)"><g transform="scale(0.09,1)"><animateTransform repeatCount="indefinite" type="scale" attributeName="transform" dur="9.009s" begin="0s" calcMode="spline" values="0.09 1; 0.09 1; 1 1; 1 1" keyTimes="0; 0.088889; 0.2; 1" keySplines="0 0 1 1; 0.167 0 0.667 1; 0 0 1 1" fill="freeze" /><g transform="translate(-0.25,-58.101)"><g transform="matrix(1,0,0,1,145.204,18.356)" id="i4"><g><g transform="translate(440.362,37.936)"><g id="i5" transform="scale(0,0)"><animateTransform repeatCount="indefinite" type="scale" attributeName="transform" dur="9.009s" begin="0s" calcMode="spline" values="0 0; 0 0; 1 1; 1 1" keyTimes="0; 0.2; 0.222222; 1" keySplines="0 0 1 1; 0.333 0 0.667 1; 0 0 1 1" fill="freeze" /><path fill="#ededed" d="M0,-37.686C0,-37.686,-12.245,-12.874,-12.245,-12.874C-12.245,-12.874,-39.625,-8.897,-39.625,-8.897C-39.625,-8.897,-19.812,10.417,-19.812,10.417C-19.812,10.417,-24.489,37.686,-24.489,37.686C-24.489,37.686,0,24.811,0,24.811C0,24.811,24.49,37.686,24.49,37.686C24.49,37.686,19.813,10.417,19.813,10.417C19.813,10.417,39.625,-8.897,39.625,-8.897C39.625,-8.897,12.245,-12.874,12.245,-12.874C12.245,-12.874,0,-37.686,0,-37.686Z"><animate repeatCount="indefinite" attributeName="fill" dur="9.009s" begin="0s" fill="freeze" values="#ededed; #ededed; #ffc94e; #ffc94e" keyTimes="0; 0.792593; 0.840741; 1" keySplines="0 0 1 1; 0.333 0 0.667 1; 0 0 1 1" calcMode="spline" /></path></g></g></g><g><g transform="translate(340.241,37.936)"><g id="i6" transform="scale(0,0)"><animateTransform repeatCount="indefinite" type="scale" attributeName="transform" dur="9.009s" begin="0s" calcMode="spline" values="0 0; 0 0; 1 1; 1 1" keyTimes="0; 0.2; 0.222222; 1" keySplines="0 0 1 1; 0.333 0 0.667 1; 0 0 1 1" fill="freeze" /><path fill="#ededed" d="M0,-37.686C0,-37.686,-12.245,-12.874,-12.245,-12.874C-12.245,-12.874,-39.625,-8.897,-39.625,-8.897C-39.625,-8.897,-19.812,10.417,-19.812,10.417C-19.812,10.417,-24.489,37.686,-24.489,37.686C-24.489,37.686,0,24.811,0,24.811C0,24.811,24.49,37.686,24.49,37.686C24.49,37.686,19.813,10.417,19.813,10.417C19.813,10.417,39.625,-8.897,39.625,-8.897C39.625,-8.897,12.245,-12.874,12.245,-12.874C12.245,-12.874,0,-37.686,0,-37.686Z"><animate repeatCount="indefinite" attributeName="fill" dur="9.009s" begin="0s" fill="freeze" values="#ededed; #ededed; #ffc94e; #ffc94e" keyTimes="0; 0.659259; 0.707407; 1" keySplines="0 0 1 1; 0.333 0 0.667 1; 0 0 1 1" calcMode="spline" /></path></g></g></g><g><g transform="translate(240.119,37.936)"><g id="i3" transform="scale(0,0)"><animateTransform repeatCount="indefinite" type="scale" attributeName="transform" dur="9.009s" begin="0s" calcMode="spline" values="0 0; 0 0; 1 1; 1 1" keyTimes="0; 0.2; 0.222222; 1" keySplines="0 0 1 1; 0.333 0 0.667 1; 0 0 1 1" fill="freeze" /><path fill="#ededed" d="M0,-37.686C0,-37.686,-12.245,-12.874,-12.245,-12.874C-12.245,-12.874,-39.625,-8.897,-39.625,-8.897C-39.625,-8.897,-19.813,10.417,-19.813,10.417C-19.813,10.417,-24.49,37.686,-24.49,37.686C-24.49,37.686,0,24.811,0,24.811C0,24.811,24.489,37.686,24.489,37.686C24.489,37.686,19.812,10.417,19.812,10.417C19.812,10.417,39.625,-8.897,39.625,-8.897C39.625,-8.897,12.245,-12.874,12.245,-12.874C12.245,-12.874,0,-37.686,0,-37.686Z"><animate repeatCount="indefinite" attributeName="fill" dur="9.009s" begin="0s" fill="freeze" values="#ededed; #ededed; #ffc94e; #ffc94e" keyTimes="0; 0.533333; 0.581481; 1" keySplines="0 0 1 1; 0.333 0 0.667 1; 0 0 1 1" calcMode="spline" /></path></g></g></g><g><g transform="translate(139.997,37.936)"><g id="i7" transform="scale(0,0)"><animateTransform repeatCount="indefinite" type="scale" attributeName="transform" dur="9.009s" begin="0s" calcMode="spline" values="0 0; 0 0; 1 1; 1 1" keyTimes="0; 0.2; 0.222222; 1" keySplines="0 0 1 1; 0.333 0 0.667 1; 0 0 1 1" fill="freeze" /><path fill="#ededed" d="M0,-37.686C0,-37.686,-12.245,-12.874,-12.245,-12.874C-12.245,-12.874,-39.625,-8.897,-39.625,-8.897C-39.625,-8.897,-19.813,10.417,-19.813,10.417C-19.813,10.417,-24.49,37.686,-24.49,37.686C-24.49,37.686,0,24.811,0,24.811C0,24.811,24.489,37.686,24.489,37.686C24.489,37.686,19.812,10.417,19.812,10.417C19.812,10.417,39.625,-8.897,39.625,-8.897C39.625,-8.897,12.245,-12.874,12.245,-12.874C12.245,-12.874,0,-37.686,0,-37.686Z"><animate repeatCount="indefinite" attributeName="fill" dur="9.009s" begin="0s" fill="freeze" values="#ededed; #ededed; #ffc94e; #ffc94e" keyTimes="0; 0.42963; 0.477778; 1" keySplines="0 0 1 1; 0.333 0 0.667 1; 0 0 1 1" calcMode="spline" /></path></g></g></g><g><g transform="translate(39.875,37.936)"><g id="i2" transform="scale(0,0)"><animateTransform repeatCount="indefinite" type="scale" attributeName="transform" dur="9.009s" begin="0s" calcMode="spline" values="0 0; 0 0; 1 1; 1 1" keyTimes="0; 0.2; 0.222222; 1" keySplines="0 0 1 1; 0.333 0 0.667 1; 0 0 1 1" fill="freeze" /><path fill="#ededed" d="M0,-37.686C0,-37.686,-12.245,-12.874,-12.245,-12.874C-12.245,-12.874,-39.625,-8.897,-39.625,-8.897C-39.625,-8.897,-19.812,10.417,-19.812,10.417C-19.812,10.417,-24.489,37.686,-24.489,37.686C-24.489,37.686,0,24.811,0,24.811C0,24.811,24.49,37.686,24.49,37.686C24.49,37.686,19.813,10.417,19.813,10.417C19.813,10.417,39.625,-8.897,39.625,-8.897C39.625,-8.897,12.245,-12.874,12.245,-12.874C12.245,-12.874,0,-37.686,0,-37.686Z"><animate repeatCount="indefinite" attributeName="fill" dur="9.009s" begin="0s" fill="freeze" values="#ededed; #ededed; #ffc94e; #ffc94e" keyTimes="0; 0.288889; 0.337037; 1" keySplines="0 0 1 1; 0.333 0 0.667 1; 0 0 1 1" calcMode="spline" /></path></g></g></g></g></g></g></g></g></g></g></g></g><g opacity="0" visibility="hidden" id="i8"><animate repeatCount="indefinite" begin="0s" calcMode="discrete" dur="9.009s" values="hidden; visible; visible; visible" keyTimes="0; 0.078; 0.999999; 1" attributeName="visibility" /><animate repeatCount="indefinite" attributeName="opacity" dur="9.009s" begin="0s" fill="freeze" values="0; 0; 1; 1" keyTimes="0; 0.085185; 0.096296; 1" keySplines="0 0 1 1; 0.333 0 0.667 1; 0 0 1 1" calcMode="spline" /><g transform="translate(490.402,500.333)"><animateTransform repeatCount="indefinite" type="translate" attributeName="transform" dur="9.009s" begin="0s" calcMode="spline" values="490.402 500.333; 490.402 500.333; 888.402 500.333; 888.402 500.333" keyTimes="0; 0.088889; 0.2; 1" keySplines="0 0 1 1; 0.333 0 0.667 1; 0 0 1 1" fill="freeze" /><g transform="scale(1,1) translate(-127.718,-71.823)"><g id="i2" transform="matrix(1,0,0,1,127.718,71.823)"><path fill="#f05161" d="M55.895,-71.573C55.895,-71.573,-90.91,-71.573,-90.91,-71.573C-98.494,-71.573,-105.172,-65.909,-105.73,-58.345C-106.053,-53.974,-104.398,-49.964,-101.581,-47.147C-99.279,-44.858,-96.187,-43.332,-92.76,-43.024C-92.76,-43.024,-50.921,-43.024,-50.921,-43.024C-50.479,-43.024,-50.037,-42.997,-49.609,-42.957C-46.183,-42.649,-43.104,-41.124,-40.802,-38.835C-38.219,-36.238,-36.613,-32.665,-36.613,-28.716C-36.613,-21.301,-42.248,-15.198,-49.462,-14.475C-49.944,-14.422,-50.425,-14.395,-50.921,-14.395C-50.921,-14.395,-78.185,-14.395,-78.185,-14.395C-78.707,-14.355,-79.215,-14.261,-79.724,-14.154C-79.724,-14.154,-112.325,-14.154,-112.325,-14.154C-119.909,-14.154,-126.586,-8.49,-127.145,-0.927C-127.468,3.444,-125.813,7.456,-122.996,10.273C-120.694,12.561,-117.602,14.087,-114.175,14.395C-114.175,14.395,-72.336,14.395,-72.336,14.395C-71.894,14.395,-71.453,14.422,-71.024,14.462C-67.598,14.77,-64.519,16.295,-62.217,18.584C-59.634,21.181,-58.028,24.755,-58.028,28.703C-58.028,36.118,-63.663,42.221,-70.877,42.944C-71.359,42.997,-71.841,43.024,-72.336,43.024C-72.336,43.024,-99.6,43.024,-99.6,43.024C-106.828,43.747,-112.462,49.85,-112.462,57.252C-112.462,61.2,-110.856,64.787,-108.273,67.384C-105.676,69.967,-102.089,71.573,-98.141,71.573C-98.141,71.573,55.895,71.573,55.895,71.573C95.423,71.573,127.468,39.529,127.468,0C127.468,-39.529,95.423,-71.573,55.895,-71.573Z" /></g></g></g></g><g id="i8"><g transform="translate(490.402,500.333)"><animateTransform repeatCount="indefinite" type="translate" attributeName="transform" dur="9.009s" begin="0s" calcMode="spline" values="490.402 500.333; 490.402 500.333; 888.402 500.333; 888.402 500.333" keyTimes="0; 0.088889; 0.2; 1" keySplines="0 0 1 1; 0.333 0 0.667 1; 0 0 1 1" fill="freeze" /><g transform="scale(1,1) translate(-127.718,-71.823)"><g visibility="hidden" id="i9"><animate repeatCount="indefinite" begin="0s" calcMode="discrete" dur="9.009s" values="hidden; visible; visible; visible" keyTimes="0; 0.263; 0.999999; 1" attributeName="visibility" /><g transform="translate(181.536,71.823)"><g transform="scale(0,0)"><animateTransform repeatCount="indefinite" type="scale" attributeName="transform" dur="9.009s" begin="0s" calcMode="spline" values="0 0; 0 0; 1 1; 1 1" keyTimes="0; 0.337037; 0.374074; 1" keySplines="0 0 1 1; 0.333 0 0.667 1; 0 0 1 1" fill="freeze" /><g transform="translate(-45.759,-45.759)"><g id="i3" transform="matrix(1,0,0,1,45.759,45.759)"><path fill="#ffc94e" d="M45.509,0C45.509,25.134,25.134,45.509,0,45.509C-25.134,45.509,-45.509,25.134,-45.509,0C-45.509,-25.134,-25.134,-45.509,0,-45.509C25.134,-45.509,45.509,-25.134,45.509,0Z" /></g><g id="i7" transform="matrix(1,0,0,1,25.912,39.586)"><path fill="#332532" d="M6.677,0C6.677,3.687,3.687,6.677,0,6.677C-3.687,6.677,-6.677,3.687,-6.677,0C-6.677,-3.687,-3.687,-6.677,0,-6.677C3.687,-6.677,6.677,-3.687,6.677,0Z" /></g><g id="i2" transform="matrix(1,0,0,1,65.607,39.586)"><path fill="#332532" d="M6.677,0C6.677,3.687,3.687,6.677,0,6.677C-3.687,6.677,-6.677,3.687,-6.677,0C-6.677,-3.687,-3.687,-6.677,0,-6.677C3.687,-6.677,6.677,-3.687,6.677,0Z" /></g></g></g></g></g></g></g></g><g id="i8"><g transform="translate(490.402,500.333)"><animateTransform repeatCount="indefinite" type="translate" attributeName="transform" dur="9.009s" begin="0s" calcMode="spline" values="490.402 500.333; 490.402 500.333; 888.402 500.333; 888.402 500.333" keyTimes="0; 0.088889; 0.2; 1" keySplines="0 0 1 1; 0.333 0 0.667 1; 0 0 1 1" fill="freeze" /><g transform="scale(1,1) translate(-127.718,-71.823)"><g id="i9"><g transform="translate(181.536,71.823)"><g transform="scale(0,0)"><animateTransform repeatCount="indefinite" type="scale" attributeName="transform" dur="9.009s" begin="0s" calcMode="spline" values="0 0; 0 0; 1 1; 1 1" keyTimes="0; 0.337037; 0.374074; 1" keySplines="0 0 1 1; 0.333 0 0.667 1; 0 0 1 1" fill="freeze" /><g transform="translate(-45.759,-45.759)"><g transform="matrix(1.098,0,0,0.772,33.716,50.617)" visibility="hidden" id="i10"><animate repeatCount="indefinite" begin="0s" calcMode="discrete" dur="9.009s" values="hidden; visible; visible; visible" keyTimes="0; 0.840999; 0.999999; 1" attributeName="visibility" /><g id="i2" transform="matrix(1,0,0,1,11.766,7.363)"><path fill="#332532" d="M8.807,-7.114C8.807,-7.114,-8.806,-7.114,-8.806,-7.114C-10.303,-7.114,-11.517,-5.901,-11.517,-4.404C-11.517,1.946,-6.349,7.114,0.001,7.114C6.35,7.114,11.517,1.946,11.517,-4.404C11.517,-5.901,10.304,-7.114,8.807,-7.114Z" /></g></g></g></g></g></g></g></g></g><g id="i8"><g transform="translate(490.402,500.333)"><animateTransform repeatCount="indefinite" type="translate" attributeName="transform" dur="9.009s" begin="0s" calcMode="spline" values="490.402 500.333; 490.402 500.333; 888.402 500.333; 888.402 500.333" keyTimes="0; 0.088889; 0.2; 1" keySplines="0 0 1 1; 0.333 0 0.667 1; 0 0 1 1" fill="freeze" /><g transform="scale(1,1) translate(-127.718,-71.823)"><g id="i9"><g transform="translate(181.536,71.823)"><g transform="scale(0,0)"><animateTransform repeatCount="indefinite" type="scale" attributeName="transform" dur="9.009s" begin="0s" calcMode="spline" values="0 0; 0 0; 1 1; 1 1" keyTimes="0; 0.337037; 0.374074; 1" keySplines="0 0 1 1; 0.333 0 0.667 1; 0 0 1 1" fill="freeze" /><g transform="translate(-45.759,-45.759)"><g visibility="hidden" id="i11"><animate repeatCount="indefinite" begin="0s" calcMode="discrete" dur="9.009s" values="hidden; visible; hidden; hidden; hidden" keyTimes="0; 0.281; 0.404; 0.999999; 1" attributeName="visibility" /><animate repeatCount="indefinite" attributeName="opacity" dur="9.009s" begin="0s" fill="freeze" values="1; 1; 0; 0" keyTimes="0; 0.374074; 0.403704; 1" keySplines="0 0 1 1; 0.333 0 0.667 1; 0 0 1 1" calcMode="spline" /><g transform="translate(19.236,57.103)"><animateTransform repeatCount="indefinite" type="translate" attributeName="transform" dur="9.009s" begin="0s" calcMode="spline" values="19.236 57.103; 19.236 57.103; 19.236 90.103; 19.236 90.103" keyTimes="0; 0.374074; 0.403704; 1" keySplines="0 0 1 1; 0.333 0 0.667 1; 0 0 1 1" fill="freeze" /><g transform="scale(1,1) translate(-7.267,-11.594)"><g id="i2" transform="matrix(1,0,0,1,7.267,11.594)"><path fill="#00bce9" d="M-7.017,4.327C-7.017,8.202,-3.876,11.344,0,11.344C3.875,11.344,7.017,8.202,7.017,4.327C7.017,0.452,0,-11.344,0,-11.344C0,-11.344,-7.017,0.452,-7.017,4.327Z" /></g></g></g></g></g></g></g></g></g></g></g><g id="i8"><g transform="translate(490.402,500.333)"><animateTransform repeatCount="indefinite" type="translate" attributeName="transform" dur="9.009s" begin="0s" calcMode="spline" values="490.402 500.333; 490.402 500.333; 888.402 500.333; 888.402 500.333" keyTimes="0; 0.088889; 0.2; 1" keySplines="0 0 1 1; 0.333 0 0.667 1; 0 0 1 1" fill="freeze" /><g transform="scale(1,1) translate(-127.718,-71.823)"><g id="i9"><g transform="translate(181.536,71.823)"><g transform="scale(0,0)"><animateTransform repeatCount="indefinite" type="scale" attributeName="transform" dur="9.009s" begin="0s" calcMode="spline" values="0 0; 0 0; 1 1; 1 1" keyTimes="0; 0.337037; 0.374074; 1" keySplines="0 0 1 1; 0.333 0 0.667 1; 0 0 1 1" fill="freeze" /><g transform="translate(-45.759,-45.759)"><g transform="matrix(1,0,0,1,24.203,37.294)" visibility="hidden" id="i12"><animate repeatCount="indefinite" begin="0s" calcMode="discrete" dur="9.009s" values="hidden; visible; visible; visible" keyTimes="0; 0.281; 0.999999; 1" attributeName="visibility" /><g id="i2" transform="matrix(1,0,0,1,21.561,17.597)"><path d="M-9.061,5.097C-9.061,5.097,-9.061,-4.328,-0.004,-4.301C-0.004,-4.301,7.959,-5.097,9.061,5.097" stroke-miterlimit="10" stroke-linecap="round" stroke-width="5" stroke="#332532"><animate repeatCount="indefinite" attributeName="d" dur="9.009s" begin="0s" calcMode="spline" values="M-9.061,5.097C-9.061,5.097,-9.061,-4.328,-0.004,-4.301C-0.004,-4.301,7.959,-5.097,9.061,5.097; M-9.061,5.097C-9.061,5.097,-9.061,-4.328,-0.004,-4.301C-0.004,-4.301,7.959,-5.097,9.061,5.097; M-9.748,-1.778C-9.748,-1.778,-8.561,-1.578,0.496,-1.551C0.496,-1.551,4.9,-1.402,10.998,-1.403; M-9.748,-1.778C-9.748,-1.778,-8.561,-1.578,0.496,-1.551C0.496,-1.551,4.9,-1.402,10.998,-1.403; M-9.748,-1.778C-9.748,-1.778,-8.061,4.422,0.996,4.449C0.996,4.449,7.775,4.535,10.998,-1.403; M-9.748,-1.778C-9.748,-1.778,-8.061,4.422,0.996,4.449C0.996,4.449,7.775,4.535,10.998,-1.403" keyTimes="0; 0.581481; 0.62963; 0.707407; 0.762963; 1" keySplines="0 0 1 1; 0.333 0 0.667 1; 0.333 0 0.667 1; 0.333 0 0.667 1; 0 0 1 1" fill="freeze" /></path></g></g></g></g></g></g></g></g></g><g id="i0"><g transform="translate(496.02,542.083)"><animateTransform repeatCount="indefinite" type="translate" attributeName="transform" dur="9.009s" begin="0s" calcMode="spline" values="496.02 542.083; 496.02 542.083; 150.02 542.083; 150.02 542.083" keyTimes="0; 0.062963; 0.174074; 1" keySplines="0 0 1 1; 0.333 0 0.667 1; 0 0 1 1" fill="freeze" /><g transform="scale(0,0)"><animateTransform repeatCount="indefinite" type="scale" attributeName="transform" dur="9.009s" begin="0s" calcMode="spline" values="0 0; 1 1; 0.8 0.8; 1 1; 1 1" keyTimes="0; 0.018519; 0.037037; 0.055556; 1" keySplines="0.333 0 0.667 1; 0.333 0 0.667 1; 0.333 0 0.667 1; 0 0 1 1" fill="freeze" /><g transform="translate(-86.575,-113.625)"><g id="i6" transform="matrix(1,0,0,1,83.769,113.625)"><path fill="#f05161" d="M-83.518,-113.375C-83.518,-113.375,-83.518,98.993,-83.518,98.993C-83.518,106.936,-77.286,113.375,-69.599,113.375C-61.911,113.375,-55.679,106.936,-55.679,98.993C-55.679,106.936,-49.447,113.375,-41.759,113.375C-34.071,113.375,-27.84,106.936,-27.84,98.993C-27.84,106.936,-21.608,113.375,-13.92,113.375C-6.232,113.375,0,106.936,0,98.993C0,106.936,6.232,113.375,13.92,113.375C21.607,113.375,27.839,106.936,27.839,98.993C27.839,106.936,34.071,113.375,41.759,113.375C49.446,113.375,55.678,106.936,55.678,98.993C55.678,106.936,61.911,113.375,69.598,113.375C77.285,113.375,83.518,106.936,83.518,98.993C83.518,98.993,83.518,-113.375,83.518,-113.375C83.518,-113.375,-83.518,-113.375,-83.518,-113.375Z" /></g><g id="i7" transform="matrix(1,0,0,1,83.768,182.902)"><path fill="#ffc94e" d="M83.518,5.615C83.518,5.615,-83.518,5.615,-83.518,5.615C-83.518,5.615,-83.518,-5.615,-83.518,-5.615C-83.518,-5.615,83.518,-5.615,83.518,-5.615C83.518,-5.615,83.518,5.615,83.518,5.615Z" /></g><g id="i2" transform="matrix(1,0,0,1,83.768,161.145)"><path fill="#ffc94e" d="M83.518,5.615C83.518,5.615,-83.518,5.615,-83.518,5.615C-83.518,5.615,-83.518,-5.615,-83.518,-5.615C-83.518,-5.615,83.518,-5.615,83.518,-5.615C83.518,-5.615,83.518,5.615,83.518,5.615Z" /></g></g></g></g></g></svg>