<svg fill="none" height="100%" width="100%" viewBox="0 0 1080 689" xmlns:xlink="http://www.w3.org/1999/xlink" xmlns="http://www.w3.org/2000/svg"><defs><filter filterUnits="userSpaceOnUse" height="200%" width="200%" y="-50%" x="-50%" id="f0"><feDropShadow result="dropShadow0" flood-opacity="0.166" flood-color="#000000" stdDeviation="4.287" dy="6.718" dx="6.718" in="SourceGraphic" /></filter><filter filterUnits="userSpaceOnUse" height="200%" width="200%" y="-50%" x="-50%" id="f1"><feFlood result="fillFlood0" flood-opacity="0.01" flood-color="rgb(188, 188, 188)" /><feComposite result="fill0" operator="in" in2="SourceGraphic" in="fillFlood0" /></filter><filter filterUnits="userSpaceOnUse" height="200%" width="200%" y="-50%" x="-50%" id="f2"><feFlood result="fillFlood0" flood-opacity="0.01" flood-color="rgb(188, 188, 188)" /><feComposite result="fill0" operator="in" in2="SourceGraphic" in="fillFlood0" /></filter><filter id="i3"><feColorMatrix values="0 0 0 0 1 0 0 0 0 1 0 0 0 0 1 0 0 0 1 0" type="matrix" /></filter><mask height="20000" width="20000" y="-10000" x="-10000" maskContentUnits="userSpaceOnUse" maskUnits="userSpaceOnUse" style="mask-type: alpha" mask-type="alpha" id="i4"><g transform="matrix(1,0,0,1,-310,-344.5)"><g filter="url(#i3)"><g transform="translate(304.5,345)"><animateTransform repeatCount="indefinite" type="translate" attributeName="transform" dur="7.017s" begin="0s" calcMode="spline" values="304.5 345; 304.5 345; 751 345; 751 345; 304.5 345; 304.5 345; 751 345; 751 345; 304.5 345; 304.5 345" keyTimes="0; 0.142518; 0.213774; 0.570066; 0.641325; 0.712584; 0.783841; 0.8551; 0.926359; 1" keySplines="0 0 1 1; 0.333 0 0 1; 0 0 1 1; 0.333 0 0 1; 0 0 1 1; 0.333 0 0 1; 0 0 1 1; 0.333 0 0 1; 0 0 1 1" fill="freeze" /><g id="i5"><rect ry="76" rx="76" height="144" width="471" y="-72" x="-235.5" fill="#000000"><animate repeatCount="indefinite" attributeName="width" dur="7.017s" begin="0s" fill="freeze" values="471; 471; 520; 520; 471; 471; 520; 520; 471; 471" keyTimes="0; 0.142518; 0.213774; 0.570066; 0.641325; 0.712584; 0.783841; 0.8551; 0.926359; 1" keySplines="0 0 1 1; 0.333 0 0 1; 0.167 0 0.667 1; 0.333 0 0 1; 0.333 0 0.667 1; 0.333 0 0 1; 0.333 0 0.667 1; 0.333 0 0 1; 0 0 1 1" calcMode="spline" /></rect></g></g></g></g></mask></defs><g transform="matrix(1,0,0,1,0,0)" id="i6"><rect y="0" x="0" fill="#ededed" height="689" width="1080" /></g><g filter="url(#f0)" transform="matrix(1,0,0,1,540,345)" id="i7"><g id="i7"><rect ry="76" rx="76" height="152" width="950" y="-76" x="-475" fill="#f5f5f5" /></g></g><g id="i8"><g transform="translate(770,326.5)"><g transform="scale(1,1)"><animateTransform repeatCount="indefinite" type="scale" attributeName="transform" dur="7.017s" begin="0s" calcMode="spline" values="1 1; 1 1; 0.52 0.52; 0.52 0.52; 1 1; 1 1; 0.52 0.52; 0.52 0.52; 1 1; 1 1" keyTimes="0; 0.142518; 0.213774; 0.570066; 0.641325; 0.712584; 0.783841; 0.8551; 0.926359; 1" keySplines="0 0 1 1; 0.333 0 0.013 1; 0.167 0 0.667 1; 0.333 0 0 1; 0 0 1 1; 0.333 0 0 1; 0 0 1 1; 0.333 0 0 1; 0 0 1 1" fill="freeze" /><g id="i9"><path fill="#8a8a8a" d="M67.4,18.499C67.4,18.499,67.4,5.099,67.4,5.099C67.4,3.366,67.683,1.899,68.25,0.699C68.816,-0.501,69.583,-1.417,70.55,-2.051C71.516,-2.684,72.583,-3.001,73.75,-3.001C75.583,-3.001,76.975,-2.401,77.925,-1.201C78.875,-0.001,79.35,1.766,79.35,4.099C79.35,4.099,79.35,18.499,79.35,18.499C79.35,18.499,84.35,18.499,84.35,18.499C84.35,18.499,84.35,5.099,84.35,5.099C84.35,3.366,84.625,1.899,85.175,0.699C85.725,-0.501,86.483,-1.417,87.45,-2.051C88.416,-2.684,89.516,-3.001,90.75,-3.001C92.583,-3.001,93.975,-2.401,94.925,-1.201C95.875,-0.001,96.35,1.766,96.35,4.099C96.35,4.099,96.35,18.499,96.35,18.499C96.35,18.499,101.3,18.499,101.3,18.499C101.3,18.499,101.3,3.599,101.3,3.599C101.3,1.199,100.916,-0.809,100.15,-2.426C99.383,-4.042,98.266,-5.259,96.8,-6.076C95.333,-6.892,93.583,-7.301,91.55,-7.301C89.85,-7.301,88.241,-6.884,86.725,-6.051C85.208,-5.217,84,-4.067,83.1,-2.601C82.6,-3.634,81.95,-4.501,81.15,-5.201C80.35,-5.901,79.433,-6.426,78.4,-6.776C77.366,-7.126,76.216,-7.301,74.95,-7.301C73.283,-7.301,71.783,-6.934,70.45,-6.201C69.116,-5.467,68.05,-4.451,67.25,-3.151C67.25,-3.151,66.9,-6.701,66.9,-6.701C66.9,-6.701,62.4,-6.701,62.4,-6.701C62.4,-6.701,62.4,18.499,62.4,18.499C62.4,18.499,67.4,18.499,67.4,18.499Z" /></g><g id="i10"><path fill="#8a8a8a" d="M47.4,17.799C48.866,16.933,49.983,15.733,50.75,14.199C50.75,14.199,51.1,18.499,51.1,18.499C51.1,18.499,55.55,18.499,55.55,18.499C55.55,18.499,55.55,-6.701,55.55,-6.701C55.55,-6.701,50.55,-6.701,50.55,-6.701C50.55,-6.701,50.55,6.749,50.55,6.749C50.55,8.483,50.25,9.949,49.65,11.149C49.05,12.349,48.225,13.266,47.175,13.899C46.125,14.533,44.95,14.849,43.65,14.849C41.716,14.849,40.233,14.249,39.2,13.049C38.166,11.849,37.65,10.066,37.65,7.699C37.65,7.699,37.65,-6.701,37.65,-6.701C37.65,-6.701,32.65,-6.701,32.65,-6.701C32.65,-6.701,32.65,8.249,32.65,8.249C32.65,10.683,33.041,12.699,33.825,14.299C34.608,15.899,35.725,17.099,37.175,17.899C38.625,18.699,40.333,19.099,42.3,19.099C44.233,19.099,45.933,18.666,47.4,17.799Z" /></g><g id="i11"><path fill="#8a8a8a" d="M25.8,-12.351C26.433,-12.951,26.75,-13.717,26.75,-14.651C26.75,-15.551,26.433,-16.292,25.8,-16.876C25.166,-17.459,24.383,-17.751,23.45,-17.751C22.483,-17.751,21.691,-17.459,21.075,-16.876C20.458,-16.292,20.15,-15.551,20.15,-14.651C20.15,-13.717,20.458,-12.951,21.075,-12.351C21.691,-11.751,22.483,-11.451,23.45,-11.451C24.383,-11.451,25.166,-11.751,25.8,-12.351ZM25.9,18.499C25.9,18.499,25.9,-6.701,25.9,-6.701C25.9,-6.701,20.9,-6.701,20.9,-6.701C20.9,-6.701,20.9,18.499,20.9,18.499C20.9,18.499,25.9,18.499,25.9,18.499Z" /></g><g id="i9"><path fill="#8a8a8a" d="M-19.8,18.499C-19.8,18.499,-19.8,5.099,-19.8,5.099C-19.8,3.366,-19.517,1.899,-18.95,0.699C-18.384,-0.501,-17.617,-1.417,-16.65,-2.051C-15.684,-2.684,-14.617,-3.001,-13.45,-3.001C-11.617,-3.001,-10.225,-2.401,-9.275,-1.201C-8.325,-0.001,-7.85,1.766,-7.85,4.099C-7.85,4.099,-7.85,18.499,-7.85,18.499C-7.85,18.499,-2.85,18.499,-2.85,18.499C-2.85,18.499,-2.85,5.099,-2.85,5.099C-2.85,3.366,-2.575,1.899,-2.025,0.699C-1.475,-0.501,-0.717,-1.417,0.25,-2.051C1.216,-2.684,2.316,-3.001,3.55,-3.001C5.383,-3.001,6.775,-2.401,7.725,-1.201C8.675,-0.001,9.15,1.766,9.15,4.099C9.15,4.099,9.15,18.499,9.15,18.499C9.15,18.499,14.1,18.499,14.1,18.499C14.1,18.499,14.1,3.599,14.1,3.599C14.1,1.199,13.716,-0.809,12.95,-2.426C12.183,-4.042,11.066,-5.259,9.6,-6.076C8.133,-6.892,6.383,-7.301,4.35,-7.301C2.65,-7.301,1.041,-6.884,-0.475,-6.051C-1.992,-5.217,-3.2,-4.067,-4.1,-2.601C-4.6,-3.634,-5.25,-4.501,-6.05,-5.201C-6.85,-5.901,-7.767,-6.426,-8.8,-6.776C-9.834,-7.126,-10.984,-7.301,-12.25,-7.301C-13.917,-7.301,-15.417,-6.934,-16.75,-6.201C-18.084,-5.467,-19.15,-4.451,-19.95,-3.151C-19.95,-3.151,-20.3,-6.701,-20.3,-6.701C-20.3,-6.701,-24.8,-6.701,-24.8,-6.701C-24.8,-6.701,-24.8,18.499,-24.8,18.499C-24.8,18.499,-19.8,18.499,-19.8,18.499Z" /></g><g id="i12"><path fill="#8a8a8a" d="M-37.125,18.049C-35.609,17.349,-34.334,16.391,-33.3,15.174C-32.267,13.958,-31.534,12.583,-31.1,11.049C-31.1,11.049,-36.1,11.049,-36.1,11.049C-36.6,12.249,-37.367,13.199,-38.4,13.899C-39.434,14.599,-40.75,14.949,-42.35,14.949C-43.684,14.949,-44.917,14.624,-46.05,13.974C-47.184,13.324,-48.092,12.358,-48.775,11.074C-49.459,9.791,-49.8,8.216,-49.8,6.349C-49.8,6.349,-49.8,4.949,-49.8,4.949C-49.8,3.149,-49.459,1.658,-48.775,0.474C-48.092,-0.709,-47.184,-1.609,-46.05,-2.226C-44.917,-2.842,-43.667,-3.151,-42.3,-3.151C-40.367,-3.151,-38.75,-2.559,-37.45,-1.376C-36.15,-0.192,-35.45,1.449,-35.35,3.549C-35.35,3.549,-51.05,3.549,-51.05,3.549C-51.05,3.549,-51.05,7.099,-51.05,7.099C-51.05,7.099,-30.45,7.099,-30.45,7.099C-30.417,6.633,-30.392,6.208,-30.375,5.824C-30.359,5.441,-30.35,5.083,-30.35,4.749C-30.35,2.549,-30.834,0.541,-31.8,-1.276C-32.767,-3.092,-34.134,-4.551,-35.9,-5.651C-37.667,-6.751,-39.784,-7.301,-42.25,-7.301C-44.717,-7.301,-46.884,-6.742,-48.75,-5.626C-50.617,-4.509,-52.075,-2.959,-53.125,-0.976C-54.175,1.008,-54.7,3.333,-54.7,5.999C-54.7,8.599,-54.175,10.883,-53.125,12.849C-52.075,14.816,-50.617,16.349,-48.75,17.449C-46.884,18.549,-44.75,19.099,-42.35,19.099C-40.384,19.099,-38.642,18.749,-37.125,18.049Z" /></g><g id="i13"><path fill="#8a8a8a" d="M-67.05,18.499C-67.05,18.499,-67.05,5.949,-67.05,5.949C-67.05,4.416,-66.85,3.133,-66.45,2.099C-66.05,1.066,-65.492,0.249,-64.775,-0.351C-64.059,-0.951,-63.234,-1.376,-62.3,-1.626C-61.367,-1.876,-60.384,-2.001,-59.35,-2.001C-59.35,-2.001,-57.55,-2.001,-57.55,-2.001C-57.55,-2.001,-57.55,-7.301,-57.55,-7.301C-59.117,-7.301,-60.509,-7.084,-61.725,-6.651C-62.942,-6.217,-64,-5.609,-64.9,-4.826C-65.8,-4.042,-66.534,-3.084,-67.1,-1.951C-67.1,-1.951,-67.55,-6.701,-67.55,-6.701C-67.55,-6.701,-72.05,-6.701,-72.05,-6.701C-72.05,-6.701,-72.05,18.499,-72.05,18.499C-72.05,18.499,-67.05,18.499,-67.05,18.499Z" /></g><g id="i14"><path fill="#8a8a8a" d="M-96.35,-12.351C-96.35,-12.351,-89.6,-12.351,-89.6,-12.351C-86.967,-12.351,-85.092,-11.801,-83.975,-10.701C-82.859,-9.601,-82.3,-8.034,-82.3,-6.001C-82.3,-4.101,-82.859,-2.576,-83.975,-1.426C-85.092,-0.276,-86.967,0.299,-89.6,0.299C-89.6,0.299,-96.35,0.299,-96.35,0.299C-96.35,0.299,-96.35,-12.351,-96.35,-12.351ZM-96.35,18.499C-96.35,18.499,-96.35,4.449,-96.35,4.449C-96.35,4.449,-89.4,4.449,-89.4,4.449C-86.567,4.449,-84.25,3.974,-82.45,3.024C-80.65,2.074,-79.325,0.808,-78.475,-0.776C-77.625,-2.359,-77.2,-4.101,-77.2,-6.001C-77.2,-8.001,-77.634,-9.784,-78.5,-11.351C-79.367,-12.917,-80.7,-14.167,-82.5,-15.101C-84.3,-16.034,-86.6,-16.501,-89.4,-16.501C-89.4,-16.501,-101.35,-16.501,-101.35,-16.501C-101.35,-16.501,-101.35,18.499,-101.35,18.499C-101.35,18.499,-96.35,18.499,-96.35,18.499Z" /></g></g></g></g><g transform="matrix(1,0,0,1,310,344.5)" id="i15"><g id="i12"><path fill="#000000" d="M42.375,18.049C43.891,17.349,45.166,16.391,46.2,15.174C47.233,13.958,47.966,12.583,48.4,11.049C48.4,11.049,43.4,11.049,43.4,11.049C42.9,12.249,42.133,13.199,41.1,13.899C40.066,14.599,38.75,14.949,37.15,14.949C35.816,14.949,34.583,14.624,33.45,13.974C32.316,13.324,31.408,12.358,30.725,11.074C30.041,9.791,29.7,8.216,29.7,6.349C29.7,6.349,29.7,4.949,29.7,4.949C29.7,3.149,30.041,1.658,30.725,0.474C31.408,-0.709,32.316,-1.609,33.45,-2.226C34.583,-2.842,35.833,-3.151,37.2,-3.151C39.133,-3.151,40.75,-2.559,42.05,-1.376C43.35,-0.192,44.05,1.449,44.15,3.549C44.15,3.549,28.45,3.549,28.45,3.549C28.45,3.549,28.45,7.099,28.45,7.099C28.45,7.099,49.05,7.099,49.05,7.099C49.083,6.633,49.108,6.208,49.125,5.824C49.141,5.441,49.15,5.083,49.15,4.749C49.15,2.549,48.666,0.541,47.7,-1.276C46.733,-3.092,45.366,-4.551,43.6,-5.651C41.833,-6.751,39.716,-7.301,37.25,-7.301C34.783,-7.301,32.616,-6.742,30.75,-5.626C28.883,-4.509,27.425,-2.959,26.375,-0.976C25.325,1.008,24.8,3.333,24.8,5.999C24.8,8.599,25.325,10.883,26.375,12.849C27.425,14.816,28.883,16.349,30.75,17.449C32.616,18.549,34.75,19.099,37.15,19.099C39.116,19.099,40.858,18.749,42.375,18.049Z" /></g><g id="i12"><path fill="#000000" d="M13.425,18.049C14.941,17.349,16.216,16.391,17.25,15.174C18.283,13.958,19.016,12.583,19.45,11.049C19.45,11.049,14.45,11.049,14.45,11.049C13.95,12.249,13.183,13.199,12.15,13.899C11.116,14.599,9.8,14.949,8.2,14.949C6.866,14.949,5.633,14.624,4.5,13.974C3.366,13.324,2.458,12.358,1.775,11.074C1.091,9.791,0.75,8.216,0.75,6.349C0.75,6.349,0.75,4.949,0.75,4.949C0.75,3.149,1.091,1.658,1.775,0.474C2.458,-0.709,3.366,-1.609,4.5,-2.226C5.633,-2.842,6.883,-3.151,8.25,-3.151C10.183,-3.151,11.8,-2.559,13.1,-1.376C14.4,-0.192,15.1,1.449,15.2,3.549C15.2,3.549,-0.5,3.549,-0.5,3.549C-0.5,3.549,-0.5,7.099,-0.5,7.099C-0.5,7.099,20.1,7.099,20.1,7.099C20.133,6.633,20.158,6.208,20.175,5.824C20.191,5.441,20.2,5.083,20.2,4.749C20.2,2.549,19.716,0.541,18.75,-1.276C17.783,-3.092,16.416,-4.551,14.65,-5.651C12.883,-6.751,10.766,-7.301,8.3,-7.301C5.833,-7.301,3.666,-6.742,1.8,-5.626C-0.067,-4.509,-1.525,-2.959,-2.575,-0.976C-3.625,1.008,-4.15,3.333,-4.15,5.999C-4.15,8.599,-3.625,10.883,-2.575,12.849C-1.525,14.816,-0.067,16.349,1.8,17.449C3.666,18.549,5.8,19.099,8.2,19.099C10.166,19.099,11.908,18.749,13.425,18.049Z" /></g><g id="i13"><path fill="#000000" d="M-16.5,18.499C-16.5,18.499,-16.5,5.949,-16.5,5.949C-16.5,4.416,-16.3,3.133,-15.9,2.099C-15.5,1.066,-14.942,0.249,-14.225,-0.351C-13.509,-0.951,-12.684,-1.376,-11.75,-1.626C-10.817,-1.876,-9.834,-2.001,-8.8,-2.001C-8.8,-2.001,-7,-2.001,-7,-2.001C-7,-2.001,-7,-7.301,-7,-7.301C-8.567,-7.301,-9.959,-7.084,-11.175,-6.651C-12.392,-6.217,-13.45,-5.609,-14.35,-4.826C-15.25,-4.042,-15.984,-3.084,-16.55,-1.951C-16.55,-1.951,-17,-6.701,-17,-6.701C-17,-6.701,-21.5,-6.701,-21.5,-6.701C-21.5,-6.701,-21.5,18.499,-21.5,18.499C-21.5,18.499,-16.5,18.499,-16.5,18.499Z" /></g><g id="i16"><path fill="#000000" d="M-43.35,18.499C-43.35,18.499,-43.35,2.949,-43.35,2.949C-43.35,2.949,-29.35,2.949,-29.35,2.949C-29.35,2.949,-29.35,-1.051,-29.35,-1.051C-29.35,-1.051,-43.35,-1.051,-43.35,-1.051C-43.35,-1.051,-43.35,-12.401,-43.35,-12.401C-43.35,-12.401,-26.6,-12.401,-26.6,-12.401C-26.6,-12.401,-26.6,-16.501,-26.6,-16.501C-26.6,-16.501,-48.35,-16.501,-48.35,-16.501C-48.35,-16.501,-48.35,18.499,-48.35,18.499C-48.35,18.499,-43.35,18.499,-43.35,18.499Z" /></g></g><g id="i17"><g transform="translate(304.5,345)"><animateTransform repeatCount="indefinite" type="translate" attributeName="transform" dur="7.017s" begin="0s" calcMode="spline" values="304.5 345; 304.5 345; 751 345; 751 345; 304.5 345; 304.5 345; 751 345; 751 345; 304.5 345; 304.5 345" keyTimes="0; 0.142518; 0.213774; 0.570066; 0.641325; 0.712584; 0.783841; 0.8551; 0.926359; 1" keySplines="0 0 1 1; 0.333 0 0 1; 0 0 1 1; 0.333 0 0 1; 0 0 1 1; 0.333 0 0 1; 0 0 1 1; 0.333 0 0 1; 0 0 1 1" fill="freeze" /><g id="i5"><rect ry="76" rx="76" height="144" width="471" y="-72" x="-235.5" fill="#000000"><animate repeatCount="indefinite" attributeName="width" dur="7.017s" begin="0s" fill="freeze" values="471; 471; 520; 520; 471; 471; 520; 520; 471; 471" keyTimes="0; 0.142518; 0.213774; 0.570066; 0.641325; 0.712584; 0.783841; 0.8551; 0.926359; 1" keySplines="0 0 1 1; 0.333 0 0 1; 0.167 0 0.667 1; 0.333 0 0 1; 0.333 0 0.667 1; 0.333 0 0 1; 0.333 0 0.667 1; 0.333 0 0 1; 0 0 1 1" calcMode="spline" /></rect></g></g></g><g display="none" id="i5"><g transform="translate(304.5,345)"><animateTransform repeatCount="indefinite" type="translate" attributeName="transform" dur="7.017s" begin="0s" calcMode="spline" values="304.5 345; 304.5 345; 751 345; 751 345; 304.5 345; 304.5 345; 751 345; 751 345; 304.5 345; 304.5 345" keyTimes="0; 0.142518; 0.213774; 0.570066; 0.641325; 0.712584; 0.783841; 0.8551; 0.926359; 1" keySplines="0 0 1 1; 0.333 0 0 1; 0 0 1 1; 0.333 0 0 1; 0 0 1 1; 0.333 0 0 1; 0 0 1 1; 0.333 0 0 1; 0 0 1 1" fill="freeze" /><g id="i5"><rect ry="76" rx="76" height="144" width="471" y="-72" x="-235.5" fill="#000000"><animate repeatCount="indefinite" attributeName="width" dur="7.017s" begin="0s" fill="freeze" values="471; 471; 520; 520; 471; 471; 520; 520; 471; 471" keyTimes="0; 0.142518; 0.213774; 0.570066; 0.641325; 0.712584; 0.783841; 0.8551; 0.926359; 1" keySplines="0 0 1 1; 0.333 0 0 1; 0.167 0 0.667 1; 0.333 0 0 1; 0.333 0 0.667 1; 0.333 0 0 1; 0.333 0 0.667 1; 0.333 0 0 1; 0 0 1 1" calcMode="spline" /></rect></g></g></g><g mask="url(#i4)" transform="matrix(1,0,0,1,310,344.5)" id="i18"><g id="i12"><path fill="#ffffff" d="M42.375,18.049C43.891,17.349,45.166,16.391,46.2,15.174C47.233,13.958,47.966,12.583,48.4,11.049C48.4,11.049,43.4,11.049,43.4,11.049C42.9,12.249,42.133,13.199,41.1,13.899C40.066,14.599,38.75,14.949,37.15,14.949C35.816,14.949,34.583,14.624,33.45,13.974C32.316,13.324,31.408,12.358,30.725,11.074C30.041,9.791,29.7,8.216,29.7,6.349C29.7,6.349,29.7,4.949,29.7,4.949C29.7,3.149,30.041,1.658,30.725,0.474C31.408,-0.709,32.316,-1.609,33.45,-2.226C34.583,-2.842,35.833,-3.151,37.2,-3.151C39.133,-3.151,40.75,-2.559,42.05,-1.376C43.35,-0.192,44.05,1.449,44.15,3.549C44.15,3.549,28.45,3.549,28.45,3.549C28.45,3.549,28.45,7.099,28.45,7.099C28.45,7.099,49.05,7.099,49.05,7.099C49.083,6.633,49.108,6.208,49.125,5.824C49.141,5.441,49.15,5.083,49.15,4.749C49.15,2.549,48.666,0.541,47.7,-1.276C46.733,-3.092,45.366,-4.551,43.6,-5.651C41.833,-6.751,39.716,-7.301,37.25,-7.301C34.783,-7.301,32.616,-6.742,30.75,-5.626C28.883,-4.509,27.425,-2.959,26.375,-0.976C25.325,1.008,24.8,3.333,24.8,5.999C24.8,8.599,25.325,10.883,26.375,12.849C27.425,14.816,28.883,16.349,30.75,17.449C32.616,18.549,34.75,19.099,37.15,19.099C39.116,19.099,40.858,18.749,42.375,18.049Z" /></g><g id="i12"><path fill="#ffffff" d="M13.425,18.049C14.941,17.349,16.216,16.391,17.25,15.174C18.283,13.958,19.016,12.583,19.45,11.049C19.45,11.049,14.45,11.049,14.45,11.049C13.95,12.249,13.183,13.199,12.15,13.899C11.116,14.599,9.8,14.949,8.2,14.949C6.866,14.949,5.633,14.624,4.5,13.974C3.366,13.324,2.458,12.358,1.775,11.074C1.091,9.791,0.75,8.216,0.75,6.349C0.75,6.349,0.75,4.949,0.75,4.949C0.75,3.149,1.091,1.658,1.775,0.474C2.458,-0.709,3.366,-1.609,4.5,-2.226C5.633,-2.842,6.883,-3.151,8.25,-3.151C10.183,-3.151,11.8,-2.559,13.1,-1.376C14.4,-0.192,15.1,1.449,15.2,3.549C15.2,3.549,-0.5,3.549,-0.5,3.549C-0.5,3.549,-0.5,7.099,-0.5,7.099C-0.5,7.099,20.1,7.099,20.1,7.099C20.133,6.633,20.158,6.208,20.175,5.824C20.191,5.441,20.2,5.083,20.2,4.749C20.2,2.549,19.716,0.541,18.75,-1.276C17.783,-3.092,16.416,-4.551,14.65,-5.651C12.883,-6.751,10.766,-7.301,8.3,-7.301C5.833,-7.301,3.666,-6.742,1.8,-5.626C-0.067,-4.509,-1.525,-2.959,-2.575,-0.976C-3.625,1.008,-4.15,3.333,-4.15,5.999C-4.15,8.599,-3.625,10.883,-2.575,12.849C-1.525,14.816,-0.067,16.349,1.8,17.449C3.666,18.549,5.8,19.099,8.2,19.099C10.166,19.099,11.908,18.749,13.425,18.049Z" /></g><g id="i13"><path fill="#ffffff" d="M-16.5,18.499C-16.5,18.499,-16.5,5.949,-16.5,5.949C-16.5,4.416,-16.3,3.133,-15.9,2.099C-15.5,1.066,-14.942,0.249,-14.225,-0.351C-13.509,-0.951,-12.684,-1.376,-11.75,-1.626C-10.817,-1.876,-9.834,-2.001,-8.8,-2.001C-8.8,-2.001,-7,-2.001,-7,-2.001C-7,-2.001,-7,-7.301,-7,-7.301C-8.567,-7.301,-9.959,-7.084,-11.175,-6.651C-12.392,-6.217,-13.45,-5.609,-14.35,-4.826C-15.25,-4.042,-15.984,-3.084,-16.55,-1.951C-16.55,-1.951,-17,-6.701,-17,-6.701C-17,-6.701,-21.5,-6.701,-21.5,-6.701C-21.5,-6.701,-21.5,18.499,-21.5,18.499C-21.5,18.499,-16.5,18.499,-16.5,18.499Z" /></g><g id="i16"><path fill="#ffffff" d="M-43.35,18.499C-43.35,18.499,-43.35,2.949,-43.35,2.949C-43.35,2.949,-29.35,2.949,-29.35,2.949C-29.35,2.949,-29.35,-1.051,-29.35,-1.051C-29.35,-1.051,-43.35,-1.051,-43.35,-1.051C-43.35,-1.051,-43.35,-12.401,-43.35,-12.401C-43.35,-12.401,-26.6,-12.401,-26.6,-12.401C-26.6,-12.401,-26.6,-16.501,-26.6,-16.501C-26.6,-16.501,-48.35,-16.501,-48.35,-16.501C-48.35,-16.501,-48.35,18.499,-48.35,18.499C-48.35,18.499,-43.35,18.499,-43.35,18.499Z" /></g></g><g id="i19"><g transform="translate(708,371.5)"><animateTransform repeatCount="indefinite" type="translate" attributeName="transform" dur="7.017s" begin="0s" calcMode="spline" values="708 371.5; 708 371.5; 626 344.5; 626 344.5; 708 371.5; 708 371.5; 626 344.5; 626 344.5; 708 371.5; 708 371.5" keyTimes="0; 0.142518; 0.213774; 0.570066; 0.641325; 0.712584; 0.783841; 0.8551; 0.926359; 1" keySplines="0 0 1 1; 0.333 0 0 1; 0 0 1 1; 0.333 0 0 1; 0 0 1 1; 0.333 0 0 1; 0 0 1 1; 0.333 0 0 1; 0 0 1 1" fill="freeze" /><g transform="scale(1,1)"><animateTransform repeatCount="indefinite" type="scale" attributeName="transform" dur="7.017s" begin="0s" calcMode="spline" values="1 1; 1 1; 1.33 1.33; 1.33 1.33; 1 1; 1 1; 1.33 1.33; 1.33 1.33; 1 1; 1 1" keyTimes="0; 0.142518; 0.213774; 0.570066; 0.641325; 0.712584; 0.783841; 0.8551; 0.926359; 1" keySplines="0 0 1 1; 0.333 0 0 1; 0.167 0 0.667 1; 0.333 0 0 1; 0 0 1 1; 0.333 0 0 1; 0 0 1 1; 0.333 0 0 1; 0 0 1 1" fill="freeze" /><g opacity="0" id="i20"><animate repeatCount="indefinite" attributeName="opacity" dur="7.017s" begin="0s" fill="freeze" values="0; 0; 1; 1; 0; 0; 1; 1; 0; 0" keyTimes="0; 0.142518; 0.213774; 0.570066; 0.641325; 0.712584; 0.783841; 0.8551; 0.926359; 1" keySplines="0 0 1 1; 0.333 0 0 1; 0.167 0 0.667 1; 0.333 0 0 1; 0.333 0 0.667 1; 0.333 0 0 1; 0.333 0 0.667 1; 0.333 0 0 1; 0 0 1 1" calcMode="spline" /><g transform="translate(-0.752,0.376)"><animateTransform repeatCount="indefinite" type="translate" attributeName="transform" dur="7.017s" begin="0s" calcMode="spline" values="-0.752 0.376; -0.752 0.376; 188.248 0.376; 188.248 0.376; -0.752 0.376; -0.752 0.376; 188.248 0.376; 188.248 0.376; 188.248 0.376" keyTimes="0; 0.285033; 0.356292; 0.427551; 0.498808; 0.570066; 0.783841; 0.8551; 1" keySplines="0 0 1 1; 0.333 0 0 1; 0 0 1 1; 0.333 0 0 1; 0 0 1 1; 0.333 0 0.276 1; 0 0 1 1; 0 0 1 1" fill="freeze" /><g transform="scale(0.752,0.752)"><g id="i20"><rect ry="76" rx="76" height="136" width="260" y="-68" x="-130" fill="#f5f5f5" /></g></g></g></g></g></g></g><g id="i19"><g transform="translate(708,371.5)"><animateTransform repeatCount="indefinite" type="translate" attributeName="transform" dur="7.017s" begin="0s" calcMode="spline" values="708 371.5; 708 371.5; 626 344.5; 626 344.5; 708 371.5; 708 371.5; 626 344.5; 626 344.5; 708 371.5; 708 371.5" keyTimes="0; 0.142518; 0.213774; 0.570066; 0.641325; 0.712584; 0.783841; 0.8551; 0.926359; 1" keySplines="0 0 1 1; 0.333 0 0 1; 0 0 1 1; 0.333 0 0 1; 0 0 1 1; 0.333 0 0 1; 0 0 1 1; 0.333 0 0 1; 0 0 1 1" fill="freeze" /><g filter="url(#f1)" transform="scale(1,1)"><animateTransform repeatCount="indefinite" type="scale" attributeName="transform" dur="7.017s" begin="0s" calcMode="spline" values="1 1; 1 1; 1.33 1.33; 1.33 1.33; 1 1; 1 1; 1.33 1.33; 1.33 1.33; 1 1; 1 1" keyTimes="0; 0.142518; 0.213774; 0.570066; 0.641325; 0.712584; 0.783841; 0.8551; 0.926359; 1" keySplines="0 0 1 1; 0.333 0 0 1; 0.167 0 0.667 1; 0.333 0 0 1; 0 0 1 1; 0.333 0 0 1; 0 0 1 1; 0.333 0 0 1; 0 0 1 1" fill="freeze" /><g id="i21"><path fill="#bcbcbc" d="M47.06,17.7C47.06,17.7,56.66,-4.02,56.66,-4.02C56.66,-4.02,53.51,-4.02,53.51,-4.02C53.51,-4.02,48.74,6.96,48.74,6.96C48.74,6.96,44,-4.02,44,-4.02C44,-4.02,40.76,-4.02,40.76,-4.02C40.76,-4.02,46.73,9.42,46.73,9.42C46.73,9.42,47.6,9.42,47.6,9.42C47.6,9.42,43.91,17.7,43.91,17.7C43.91,17.7,47.06,17.7,47.06,17.7Z" /></g><g id="i22"><path fill="#bcbcbc" d="M38.06,11.1C38.06,11.1,38.06,-10.5,38.06,-10.5C38.06,-10.5,35.06,-10.5,35.06,-10.5C35.06,-10.5,35.06,11.1,35.06,11.1C35.06,11.1,38.06,11.1,38.06,11.1Z" /></g><g id="i23"><path fill="#bcbcbc" d="M20.42,11.1C20.42,11.1,20.42,3.09,20.42,3.09C20.42,2.05,20.61,1.165,20.99,0.435C21.37,-0.295,21.88,-0.85,22.52,-1.23C23.16,-1.61,23.88,-1.8,24.68,-1.8C25.86,-1.8,26.75,-1.435,27.35,-0.705C27.95,0.025,28.25,1.1,28.25,2.52C28.25,2.52,28.25,11.1,28.25,11.1C28.25,11.1,31.22,11.1,31.22,11.1C31.22,11.1,31.22,2.19,31.22,2.19C31.22,0.73,30.99,-0.485,30.53,-1.455C30.07,-2.425,29.41,-3.155,28.55,-3.645C27.69,-4.135,26.66,-4.38,25.46,-4.38C24.38,-4.38,23.395,-4.13,22.505,-3.63C21.615,-3.13,20.92,-2.44,20.42,-1.56C20.42,-1.56,20.42,-10.5,20.42,-10.5C20.42,-10.5,17.42,-10.5,17.42,-10.5C17.42,-10.5,17.42,11.1,17.42,11.1C17.42,11.1,20.42,11.1,20.42,11.1Z" /></g><g id="i24"><path fill="#bcbcbc" d="M13.97,11.1C13.97,11.1,13.97,8.55,13.97,8.55C13.97,8.55,12.23,8.55,12.23,8.55C11.35,8.55,10.73,8.395,10.37,8.085C10.01,7.775,9.83,7.19,9.83,6.33C9.83,6.33,9.83,-1.47,9.83,-1.47C9.83,-1.47,14.12,-1.47,14.12,-1.47C14.12,-1.47,14.12,-4.02,14.12,-4.02C14.12,-4.02,9.83,-4.02,9.83,-4.02C9.83,-4.02,9.83,-7.8,9.83,-7.8C9.83,-7.8,7.19,-7.8,7.19,-7.8C7.19,-7.8,6.83,-4.02,6.83,-4.02C6.83,-4.02,4.22,-4.02,4.22,-4.02C4.22,-4.02,4.22,-1.47,4.22,-1.47C4.22,-1.47,6.83,-1.47,6.83,-1.47C6.83,-1.47,6.83,6.3,6.83,6.3C6.83,7.5,7.02,8.45,7.4,9.15C7.78,9.85,8.32,10.35,9.02,10.65C9.72,10.95,10.54,11.1,11.48,11.1C11.48,11.1,13.97,11.1,13.97,11.1Z" /></g><g id="i25"><path fill="#bcbcbc" d="M-9.34,11.1C-9.34,11.1,-9.34,3.03,-9.34,3.03C-9.34,1.99,-9.155,1.11,-8.785,0.39C-8.415,-0.33,-7.92,-0.875,-7.3,-1.245C-6.68,-1.615,-5.98,-1.8,-5.2,-1.8C-4.02,-1.8,-3.12,-1.44,-2.5,-0.72C-1.88,0,-1.57,1.06,-1.57,2.46C-1.57,2.46,-1.57,11.1,-1.57,11.1C-1.57,11.1,1.43,11.1,1.43,11.1C1.43,11.1,1.43,2.16,1.43,2.16C1.43,0.7,1.19,-0.515,0.71,-1.485C0.23,-2.455,-0.44,-3.18,-1.3,-3.66C-2.16,-4.14,-3.19,-4.38,-4.39,-4.38C-5.53,-4.38,-6.54,-4.115,-7.42,-3.585C-8.3,-3.055,-8.98,-2.34,-9.46,-1.44C-9.46,-1.44,-9.64,-4.02,-9.64,-4.02C-9.64,-4.02,-12.34,-4.02,-12.34,-4.02C-12.34,-4.02,-12.34,11.1,-12.34,11.1C-12.34,11.1,-9.34,11.1,-9.34,11.1Z" /></g><g id="i26"><path fill="#bcbcbc" d="M-25.585,8.28C-26.255,7.88,-26.795,7.285,-27.205,6.495C-27.615,5.705,-27.82,4.72,-27.82,3.54C-27.82,2.36,-27.615,1.375,-27.205,0.585C-26.795,-0.205,-26.25,-0.8,-25.57,-1.2C-24.89,-1.6,-24.15,-1.8,-23.35,-1.8C-22.55,-1.8,-21.815,-1.6,-21.145,-1.2C-20.475,-0.8,-19.94,-0.205,-19.54,0.585C-19.14,1.375,-18.94,2.36,-18.94,3.54C-18.94,4.72,-19.145,5.705,-19.555,6.495C-19.965,7.285,-20.505,7.88,-21.175,8.28C-21.845,8.68,-22.59,8.88,-23.41,8.88C-24.19,8.88,-24.915,8.68,-25.585,8.28ZM-19.54,10.47C-18.4,9.81,-17.505,8.89,-16.855,7.71C-16.205,6.53,-15.88,5.14,-15.88,3.54C-15.88,1.94,-16.205,0.55,-16.855,-0.63C-17.505,-1.81,-18.39,-2.73,-19.51,-3.39C-20.63,-4.05,-21.91,-4.38,-23.35,-4.38C-24.77,-4.38,-26.05,-4.05,-27.19,-3.39C-28.33,-2.73,-29.23,-1.805,-29.89,-0.615C-30.55,0.575,-30.88,1.97,-30.88,3.57C-30.88,5.13,-30.555,6.505,-29.905,7.695C-29.255,8.885,-28.365,9.81,-27.235,10.47C-26.105,11.13,-24.83,11.46,-23.41,11.46C-21.97,11.46,-20.68,11.13,-19.54,10.47Z" /></g><g id="i27"><path fill="#bcbcbc" d="M-52.81,11.1C-52.81,11.1,-52.81,-4.62,-52.81,-4.62C-52.81,-4.62,-46.33,8.16,-46.33,8.16C-46.33,8.16,-44.02,8.16,-44.02,8.16C-44.02,8.16,-37.51,-4.65,-37.51,-4.65C-37.51,-4.65,-37.51,11.1,-37.51,11.1C-37.51,11.1,-34.51,11.1,-34.51,11.1C-34.51,11.1,-34.51,-9.9,-34.51,-9.9C-34.51,-9.9,-38.08,-9.9,-38.08,-9.9C-38.08,-9.9,-45.16,4.29,-45.16,4.29C-45.16,4.29,-52.27,-9.9,-52.27,-9.9C-52.27,-9.9,-55.81,-9.9,-55.81,-9.9C-55.81,-9.9,-55.81,11.1,-55.81,11.1C-55.81,11.1,-52.81,11.1,-52.81,11.1Z" /></g></g></g></g><g id="i28"><g transform="translate(841.5,371.5)"><animateTransform repeatCount="indefinite" type="translate" attributeName="transform" dur="7.017s" begin="0s" calcMode="spline" values="841.5 371.5; 841.5 371.5; 873.5 344.5; 873.5 344.5; 841.5 371.5; 841.5 371.5; 873.5 344.5; 873.5 344.5; 841.5 371.5; 841.5 371.5" keyTimes="0; 0.142518; 0.213774; 0.570066; 0.641325; 0.712584; 0.783841; 0.8551; 0.926359; 1" keySplines="0 0 1 1; 0.333 0 0 1; 0 0 1 1; 0.333 0 0 1; 0 0 1 1; 0.333 0 0 1; 0 0 1 1; 0.333 0 0 1; 0 0 1 1" fill="freeze" /><g filter="url(#f2)" transform="scale(1,1)"><animateTransform repeatCount="indefinite" type="scale" attributeName="transform" dur="7.017s" begin="0s" calcMode="spline" values="1 1; 1 1; 1.33 1.33; 1.33 1.33; 1 1; 1 1; 1.33 1.33; 1.33 1.33; 1 1; 1 1" keyTimes="0; 0.142518; 0.213774; 0.570066; 0.641325; 0.712584; 0.783841; 0.8551; 0.926359; 1" keySplines="0 0 1 1; 0.333 0 0 1; 0.167 0 0.667 1; 0.333 0 0 1; 0 0 1 1; 0.333 0 0 1; 0 0 1 1; 0.333 0 0 1; 0 0 1 1" fill="freeze" /><g id="i22"><path fill="#bcbcbc" d="M46.42,11.1C46.42,11.1,46.42,-10.5,46.42,-10.5C46.42,-10.5,43.42,-10.5,43.42,-10.5C43.42,-10.5,43.42,11.1,43.42,11.1C43.42,11.1,46.42,11.1,46.42,11.1Z" /></g><g id="i29"><path fill="#bcbcbc" d="M30.7,8.73C30.26,8.53,29.925,8.255,29.695,7.905C29.465,7.555,29.35,7.13,29.35,6.63C29.35,6.15,29.47,5.73,29.71,5.37C29.95,5.01,30.335,4.725,30.865,4.515C31.395,4.305,32.09,4.2,32.95,4.2C32.95,4.2,36.52,4.2,36.52,4.2C36.52,4.2,36.52,4.29,36.52,4.29C36.5,4.89,36.395,5.475,36.205,6.045C36.015,6.615,35.735,7.125,35.365,7.575C34.995,8.025,34.55,8.38,34.03,8.64C33.51,8.9,32.93,9.03,32.29,9.03C31.67,9.03,31.14,8.93,30.7,8.73ZM33.475,11.235C34.005,11.085,34.475,10.88,34.885,10.62C35.295,10.36,35.65,10.05,35.95,9.69C36.25,9.33,36.51,8.95,36.73,8.55C36.73,8.55,36.97,11.1,36.97,11.1C36.97,11.1,39.58,11.1,39.58,11.1C39.58,11.1,39.58,1.74,39.58,1.74C39.58,0.48,39.335,-0.605,38.845,-1.515C38.355,-2.425,37.63,-3.13,36.67,-3.63C35.71,-4.13,34.52,-4.38,33.1,-4.38C32.02,-4.38,31,-4.175,30.04,-3.765C29.08,-3.355,28.295,-2.775,27.685,-2.025C27.075,-1.275,26.71,-0.37,26.59,0.69C26.59,0.69,29.59,0.69,29.59,0.69C29.75,-0.15,30.15,-0.785,30.79,-1.215C31.43,-1.645,32.2,-1.86,33.1,-1.86C33.88,-1.86,34.525,-1.715,35.035,-1.425C35.545,-1.135,35.93,-0.7,36.19,-0.12C36.45,0.46,36.58,1.19,36.58,2.07C36.58,2.07,32.65,2.07,32.65,2.07C31.31,2.07,30.16,2.26,29.2,2.64C28.24,3.02,27.5,3.565,26.98,4.275C26.46,4.985,26.2,5.84,26.2,6.84C26.2,7.66,26.4,8.425,26.8,9.135C27.2,9.845,27.81,10.41,28.63,10.83C29.45,11.25,30.48,11.46,31.72,11.46C32.36,11.46,32.945,11.385,33.475,11.235Z" /></g><g id="i10"><path fill="#bcbcbc" d="M17.71,10.68C18.59,10.16,19.26,9.44,19.72,8.52C19.72,8.52,19.93,11.1,19.93,11.1C19.93,11.1,22.6,11.1,22.6,11.1C22.6,11.1,22.6,-4.02,22.6,-4.02C22.6,-4.02,19.6,-4.02,19.6,-4.02C19.6,-4.02,19.6,4.05,19.6,4.05C19.6,5.09,19.42,5.97,19.06,6.69C18.7,7.41,18.205,7.96,17.575,8.34C16.945,8.72,16.24,8.91,15.46,8.91C14.3,8.91,13.41,8.55,12.79,7.83C12.17,7.11,11.86,6.04,11.86,4.62C11.86,4.62,11.86,-4.02,11.86,-4.02C11.86,-4.02,8.86,-4.02,8.86,-4.02C8.86,-4.02,8.86,4.95,8.86,4.95C8.86,6.41,9.095,7.62,9.565,8.58C10.035,9.54,10.705,10.26,11.575,10.74C12.445,11.22,13.47,11.46,14.65,11.46C15.81,11.46,16.83,11.199,17.71,10.68Z" /></g><g id="i25"><path fill="#bcbcbc" d="M-5.51,11.1C-5.51,11.1,-5.51,3.03,-5.51,3.03C-5.51,1.99,-5.325,1.11,-4.955,0.39C-4.585,-0.33,-4.09,-0.875,-3.47,-1.245C-2.85,-1.615,-2.15,-1.8,-1.37,-1.8C-0.19,-1.8,0.71,-1.44,1.33,-0.72C1.95,0,2.26,1.06,2.26,2.46C2.26,2.46,2.26,11.1,2.26,11.1C2.26,11.1,5.26,11.1,5.26,11.1C5.26,11.1,5.26,2.16,5.26,2.16C5.26,0.7,5.02,-0.515,4.54,-1.485C4.06,-2.455,3.39,-3.18,2.53,-3.66C1.67,-4.14,0.64,-4.38,-0.56,-4.38C-1.7,-4.38,-2.71,-4.115,-3.59,-3.585C-4.47,-3.055,-5.15,-2.34,-5.63,-1.44C-5.63,-1.44,-5.81,-4.02,-5.81,-4.02C-5.81,-4.02,-8.51,-4.02,-8.51,-4.02C-8.51,-4.02,-8.51,11.1,-8.51,11.1C-8.51,11.1,-5.51,11.1,-5.51,11.1Z" /></g><g id="i25"><path fill="#bcbcbc" d="M-23.12,11.1C-23.12,11.1,-23.12,3.03,-23.12,3.03C-23.12,1.99,-22.935,1.11,-22.565,0.39C-22.195,-0.33,-21.7,-0.875,-21.08,-1.245C-20.46,-1.615,-19.76,-1.8,-18.98,-1.8C-17.8,-1.8,-16.9,-1.44,-16.28,-0.72C-15.66,0,-15.35,1.06,-15.35,2.46C-15.35,2.46,-15.35,11.1,-15.35,11.1C-15.35,11.1,-12.35,11.1,-12.35,11.1C-12.35,11.1,-12.35,2.16,-12.35,2.16C-12.35,0.7,-12.59,-0.515,-13.07,-1.485C-13.55,-2.455,-14.22,-3.18,-15.08,-3.66C-15.94,-4.14,-16.97,-4.38,-18.17,-4.38C-19.31,-4.38,-20.32,-4.115,-21.2,-3.585C-22.08,-3.055,-22.76,-2.34,-23.24,-1.44C-23.24,-1.44,-23.42,-4.02,-23.42,-4.02C-23.42,-4.02,-26.12,-4.02,-26.12,-4.02C-26.12,-4.02,-26.12,11.1,-26.12,11.1C-26.12,11.1,-23.12,11.1,-23.12,11.1Z" /></g><g id="i30"><path fill="#bcbcbc" d="M-32.63,5.91C-32.63,5.91,-33.47,3.51,-33.47,3.51C-33.47,3.51,-43.34,3.51,-43.34,3.51C-43.34,3.51,-44.18,5.91,-44.18,5.91C-44.18,5.91,-32.63,5.91,-32.63,5.91ZM-44.51,11.1C-44.51,11.1,-38.33,-6.3,-38.33,-6.3C-38.33,-6.3,-32.18,11.1,-32.18,11.1C-32.18,11.1,-28.97,11.1,-28.97,11.1C-28.97,11.1,-36.68,-9.9,-36.68,-9.9C-36.68,-9.9,-39.95,-9.9,-39.95,-9.9C-39.95,-9.9,-47.66,11.1,-47.66,11.1C-47.66,11.1,-44.51,11.1,-44.51,11.1Z" /></g></g></g></g></svg>