<svg fill="none" height="100%" width="100%" viewBox="0 0 500 500" xmlns:xlink="http://www.w3.org/1999/xlink" xmlns="http://www.w3.org/2000/svg"><g transform="matrix(1,0,0,1,250,245.5)" id="i0"><g id="i1"><path fill="#eb785c" d="M96,80.5C96,80.5,-96,80.5,-96,80.5C-140.183,80.5,-176,44.683,-176,0.5C-176,0.5,-176,-0.5,-176,-0.5C-176,-44.683,-140.183,-80.5,-96,-80.5C-96,-80.5,96,-80.5,96,-80.5C140.183,-80.5,176,-44.683,176,-0.5C176,-0.5,176,0.5,176,0.5C176,44.683,140.183,80.5,96,80.5Z" /></g></g><g opacity="0" id="i2"><animate repeatCount="indefinite" attributeName="opacity" dur="2.169s" begin="0s" fill="freeze" values="0; 1; 1; 0; 0" keyTimes="0; 0.230769; 0.538462; 0.769231; 1" keySplines="0.333 0 0.667 1; 0.333 0 0.667 1; 0.333 0 0.667 1; 0 0 1 1" calcMode="spline" /><g transform="translate(250,245.5) scale(1,1) translate(0,0)"><g id="i1"><path fill="#38be3c" d="M96,80.5C96,80.5,-96,80.5,-96,80.5C-140.183,80.5,-176,44.683,-176,0.5C-176,0.5,-176,-0.5,-176,-0.5C-176,-44.683,-140.183,-80.5,-96,-80.5C-96,-80.5,96,-80.5,96,-80.5C140.183,-80.5,176,-44.683,176,-0.5C176,-0.5,176,0.5,176,0.5C176,44.683,140.183,80.5,96,80.5Z" /></g></g></g><g id="i3"><g transform="translate(158.48,245.5)"><animateTransform repeatCount="indefinite" type="translate" attributeName="transform" dur="2.169s" begin="0s" calcMode="spline" values="158.48 245.5; 341.48 245.5; 341.48 245.5; 158.5 245.5; 158.5 245.5" keyTimes="0; 0.230769; 0.538462; 0.769231; 1" keySplines="0.333 0 0.667 1; 0.269 0 0.667 1; 0.269 0 0.667 1; 0 0 1 1" fill="freeze" /><g transform="scale(1,1) translate(0,0)"><g id="i1"><path fill="#e5e5e5" d="M68.61,0C68.61,38.346,37.892,69.431,0,69.431C-37.892,69.431,-68.61,38.346,-68.61,0C-68.61,-38.346,-37.892,-69.431,0,-69.431C37.892,-69.431,68.61,-38.346,68.61,0Z" /></g></g></g></g></svg>