<svg xmlns="http://www.w3.org/2000/svg" viewBox="0 0 100 100">
  <circle cx="50" cy="50" r="48" fill="#eef2ff" stroke="#c8d0e8" stroke-width="1.5"/>
  <!-- Hair - styled -->
  <path d="M18 48 Q18 12 50 8 Q82 12 82 48 L82 52 Q82 56 76 56 L24 56 Q18 56 18 52 Z" fill="#1a1a2e"/>
  <path d="M16 46 Q16 18 50 14 Q84 18 84 46" fill="#2d2d44"/>
  <!-- Face -->
  <ellipse cx="50" cy="58" rx="25" ry="22" fill="#f0d0b0"/>
  <!-- Eyes -->
  <ellipse cx="39" cy="54" rx="4" ry="4.5" fill="#fff"/>
  <circle cx="39" cy="54" r="2.5" fill="#1a1a2e"/>
  <ellipse cx="61" cy="54" rx="4" ry="4.5" fill="#fff"/>
  <circle cx="61" cy="54" r="2.5" fill="#1a1a2e"/>
  <!-- Eyebrows -->
  <path d="M32 47 Q39 43 46 47" fill="none" stroke="#1a1a2e" stroke-width="1.2" stroke-linecap="round"/>
  <path d="M54 47 Q61 43 68 47" fill="none" stroke="#1a1a2e" stroke-width="1.2" stroke-linecap="round"/>
  <!-- Smile -->
  <path d="M40 66 Q50 74 60 66" fill="none" stroke="#1a1a2e" stroke-width="1.5" stroke-linecap="round"/>
  <!-- Glasses - modern -->
  <rect x="30" y="49" width="18" height="12" rx="4" fill="none" stroke="#7c3aed" stroke-width="1.2"/>
  <rect x="52" y="49" width="18" height="12" rx="4" fill="none" stroke="#7c3aed" stroke-width="1.2"/>
  <line x1="48" y1="55" x2="52" y2="55" stroke="#7c3aed" stroke-width="1.2"/>
  <!-- Body -->
  <rect x="35" y="78" width="30" height="20" rx="5" fill="#7c3aed" opacity="0.6"/>
</svg>
