<svg fill="none" height="100%" width="100%" viewBox="0 0 500 500" xmlns:xlink="http://www.w3.org/1999/xlink" xmlns="http://www.w3.org/2000/svg"><defs><clipPath id="i0"><path d="M435,136C435,136,64,136,64,136C64,136,64,379,64,379C64,379,435,379,435,379C435,379,435,136,435,136Z" /></clipPath><clipPath id="i1"><path d="M435,136C435,136,64,136,64,136C64,136,64,379,64,379C64,379,435,379,435,379C435,379,435,136,435,136Z" /></clipPath><clipPath id="i2"><path d="M435,136C435,136,64,136,64,136C64,136,64,379,64,379C64,379,435,379,435,379C435,379,435,136,435,136Z" /></clipPath><clipPath id="i3"><path d="M435,136C435,136,64,136,64,136C64,136,64,379,64,379C64,379,435,379,435,379C435,379,435,136,435,136Z" /></clipPath><clipPath id="i4"><path d="M435,136C435,136,64,136,64,136C64,136,64,379,64,379C64,379,435,379,435,379C435,379,435,136,435,136Z" /></clipPath><clipPath id="i5"><path d="M435,136C435,136,64,136,64,136C64,136,64,379,64,379C64,379,435,379,435,379C435,379,435,136,435,136Z" /></clipPath><clipPath id="i6"><path d="M435,136C435,136,64,136,64,136C64,136,64,379,64,379C64,379,435,379,435,379C435,379,435,136,435,136Z" /></clipPath><clipPath id="i7"><path d="M435,136C435,136,64,136,64,136C64,136,64,379,64,379C64,379,435,379,435,379C435,379,435,136,435,136Z" /></clipPath><clipPath id="i8"><path d="M435,136C435,136,64,136,64,136C64,136,64,379,64,379C64,379,435,379,435,379C435,379,435,136,435,136Z" /></clipPath><clipPath id="i9"><path d="M435,136C435,136,64,136,64,136C64,136,64,379,64,379C64,379,435,379,435,379C435,379,435,136,435,136Z" /></clipPath><clipPath id="i10"><path d="M435,136C435,136,64,136,64,136C64,136,64,379,64,379C64,379,435,379,435,379C435,379,435,136,435,136Z" /></clipPath><clipPath id="i11"><path d="M435,136C435,136,64,136,64,136C64,136,64,379,64,379C64,379,435,379,435,379C435,379,435,136,435,136Z" /></clipPath><clipPath id="i12"><path d="M435,136C435,136,64,136,64,136C64,136,64,379,64,379C64,379,435,379,435,379C435,379,435,136,435,136Z" /></clipPath><clipPath id="i13"><path d="M435,136C435,136,64,136,64,136C64,136,64,379,64,379C64,379,435,379,435,379C435,379,435,136,435,136Z" /></clipPath><clipPath id="i14"><path d="M435,136C435,136,64,136,64,136C64,136,64,379,64,379C64,379,435,379,435,379C435,379,435,136,435,136Z" /></clipPath><clipPath id="i15"><path d="M435,136C435,136,64,136,64,136C64,136,64,379,64,379C64,379,435,379,435,379C435,379,435,136,435,136Z" /></clipPath><clipPath id="i16"><path d="M435,136C435,136,64,136,64,136C64,136,64,379,64,379C64,379,435,379,435,379C435,379,435,136,435,136Z" /></clipPath><clipPath id="i17"><path d="M435,136C435,136,64,136,64,136C64,136,64,379,64,379C64,379,435,379,435,379C435,379,435,136,435,136Z" /></clipPath><clipPath id="i18"><path d="M435,136C435,136,64,136,64,136C64,136,64,379,64,379C64,379,435,379,435,379C435,379,435,136,435,136Z" /></clipPath><clipPath id="i19"><path d="M435,136C435,136,64,136,64,136C64,136,64,379,64,379C64,379,435,379,435,379C435,379,435,136,435,136Z" /></clipPath><filter id="i20"><feColorMatrix values="0" type="saturate" /></filter><mask height="20000" width="20000" y="-10000" x="-10000" maskContentUnits="userSpaceOnUse" maskUnits="userSpaceOnUse" style="mask-type: luminance" mask-type="luminance" id="i21"><g filter="url(#i20)"><g transform="matrix(1,0,0,1,0,0)"><g clip-path="url(#i0)" id="i22"><rect y="0" x="0" fill="#ffffff" height="500" width="500" /></g></g></g></mask><filter id="i23"><feColorMatrix values="0" type="saturate" /></filter><mask height="20000" width="20000" y="-10000" x="-10000" maskContentUnits="userSpaceOnUse" maskUnits="userSpaceOnUse" style="mask-type: luminance" mask-type="luminance" id="i24"><g filter="url(#i23)"><g transform="matrix(1,0,0,1,0,0)"><g clip-path="url(#i1)" id="i22"><rect y="0" x="0" fill="#ffffff" height="500" width="500" /></g></g></g></mask><filter id="i25"><feColorMatrix values="0" type="saturate" /></filter><mask height="20000" width="20000" y="-10000" x="-10000" maskContentUnits="userSpaceOnUse" maskUnits="userSpaceOnUse" style="mask-type: luminance" mask-type="luminance" id="i26"><g filter="url(#i25)"><g transform="matrix(1,0,0,1,0,0)"><g clip-path="url(#i2)" id="i22"><rect y="0" x="0" fill="#ffffff" height="500" width="500" /></g></g></g></mask><filter id="i27"><feColorMatrix values="0" type="saturate" /></filter><mask height="20000" width="20000" y="-10000" x="-10000" maskContentUnits="userSpaceOnUse" maskUnits="userSpaceOnUse" style="mask-type: luminance" mask-type="luminance" id="i28"><g filter="url(#i27)"><g transform="matrix(1,0,0,1,0,0)"><g clip-path="url(#i3)" id="i22"><rect y="0" x="0" fill="#ffffff" height="500" width="500" /></g></g></g></mask><filter id="i29"><feColorMatrix values="0" type="saturate" /></filter><mask height="20000" width="20000" y="-10000" x="-10000" maskContentUnits="userSpaceOnUse" maskUnits="userSpaceOnUse" style="mask-type: luminance" mask-type="luminance" id="i30"><g filter="url(#i29)"><g transform="matrix(1,0,0,1,0,0)"><g clip-path="url(#i4)" id="i22"><rect y="0" x="0" fill="#ffffff" height="500" width="500" /></g></g></g></mask><filter id="i31"><feColorMatrix values="0" type="saturate" /></filter><mask height="20000" width="20000" y="-10000" x="-10000" maskContentUnits="userSpaceOnUse" maskUnits="userSpaceOnUse" style="mask-type: luminance" mask-type="luminance" id="i32"><g filter="url(#i31)"><g transform="matrix(1,0,0,1,0,0)"><g clip-path="url(#i5)" id="i22"><rect y="0" x="0" fill="#ffffff" height="500" width="500" /></g></g></g></mask><filter id="i33"><feColorMatrix values="0" type="saturate" /></filter><mask height="20000" width="20000" y="-10000" x="-10000" maskContentUnits="userSpaceOnUse" maskUnits="userSpaceOnUse" style="mask-type: luminance" mask-type="luminance" id="i34"><g filter="url(#i33)"><g transform="matrix(1,0,0,1,0,0)"><g clip-path="url(#i6)" id="i22"><rect y="0" x="0" fill="#ffffff" height="500" width="500" /></g></g></g></mask><filter id="i35"><feColorMatrix values="0" type="saturate" /></filter><mask height="20000" width="20000" y="-10000" x="-10000" maskContentUnits="userSpaceOnUse" maskUnits="userSpaceOnUse" style="mask-type: luminance" mask-type="luminance" id="i36"><g filter="url(#i35)"><g transform="matrix(1,0,0,1,0,0)"><g clip-path="url(#i7)" id="i22"><rect y="0" x="0" fill="#ffffff" height="500" width="500" /></g></g></g></mask><filter id="i37"><feColorMatrix values="0" type="saturate" /></filter><mask height="20000" width="20000" y="-10000" x="-10000" maskContentUnits="userSpaceOnUse" maskUnits="userSpaceOnUse" style="mask-type: luminance" mask-type="luminance" id="i38"><g filter="url(#i37)"><g transform="matrix(1,0,0,1,0,0)"><g clip-path="url(#i8)" id="i22"><rect y="0" x="0" fill="#ffffff" height="500" width="500" /></g></g></g></mask><filter id="i39"><feColorMatrix values="0" type="saturate" /></filter><mask height="20000" width="20000" y="-10000" x="-10000" maskContentUnits="userSpaceOnUse" maskUnits="userSpaceOnUse" style="mask-type: luminance" mask-type="luminance" id="i40"><g filter="url(#i39)"><g transform="matrix(1,0,0,1,0,0)"><g clip-path="url(#i9)" id="i22"><rect y="0" x="0" fill="#ffffff" height="500" width="500" /></g></g></g></mask><filter id="i41"><feColorMatrix values="0" type="saturate" /></filter><mask height="20000" width="20000" y="-10000" x="-10000" maskContentUnits="userSpaceOnUse" maskUnits="userSpaceOnUse" style="mask-type: luminance" mask-type="luminance" id="i42"><g filter="url(#i41)"><g transform="matrix(1,0,0,1,0,0)"><g clip-path="url(#i10)" id="i22"><rect y="0" x="0" fill="#ffffff" height="500" width="500" /></g></g></g></mask><filter id="i43"><feColorMatrix values="0" type="saturate" /></filter><mask height="20000" width="20000" y="-10000" x="-10000" maskContentUnits="userSpaceOnUse" maskUnits="userSpaceOnUse" style="mask-type: luminance" mask-type="luminance" id="i44"><g filter="url(#i43)"><g transform="matrix(1,0,0,1,0,0)"><g clip-path="url(#i11)" id="i22"><rect y="0" x="0" fill="#ffffff" height="500" width="500" /></g></g></g></mask><filter id="i45"><feColorMatrix values="0" type="saturate" /></filter><mask height="20000" width="20000" y="-10000" x="-10000" maskContentUnits="userSpaceOnUse" maskUnits="userSpaceOnUse" style="mask-type: luminance" mask-type="luminance" id="i46"><g filter="url(#i45)"><g transform="matrix(1,0,0,1,0,0)"><g clip-path="url(#i12)" id="i22"><rect y="0" x="0" fill="#ffffff" height="500" width="500" /></g></g></g></mask><filter id="i47"><feColorMatrix values="0" type="saturate" /></filter><mask height="20000" width="20000" y="-10000" x="-10000" maskContentUnits="userSpaceOnUse" maskUnits="userSpaceOnUse" style="mask-type: luminance" mask-type="luminance" id="i48"><g filter="url(#i47)"><g transform="matrix(1,0,0,1,0,0)"><g clip-path="url(#i13)" id="i22"><rect y="0" x="0" fill="#ffffff" height="500" width="500" /></g></g></g></mask><filter id="i49"><feColorMatrix values="0" type="saturate" /></filter><mask height="20000" width="20000" y="-10000" x="-10000" maskContentUnits="userSpaceOnUse" maskUnits="userSpaceOnUse" style="mask-type: luminance" mask-type="luminance" id="i50"><g filter="url(#i49)"><g transform="matrix(1,0,0,1,0,0)"><g clip-path="url(#i14)" id="i22"><rect y="0" x="0" fill="#ffffff" height="500" width="500" /></g></g></g></mask><filter id="i51"><feColorMatrix values="0" type="saturate" /></filter><mask height="20000" width="20000" y="-10000" x="-10000" maskContentUnits="userSpaceOnUse" maskUnits="userSpaceOnUse" style="mask-type: luminance" mask-type="luminance" id="i52"><g filter="url(#i51)"><g transform="matrix(1,0,0,1,0,0)"><g clip-path="url(#i15)" id="i22"><rect y="0" x="0" fill="#ffffff" height="500" width="500" /></g></g></g></mask><filter id="i53"><feColorMatrix values="0" type="saturate" /></filter><mask height="20000" width="20000" y="-10000" x="-10000" maskContentUnits="userSpaceOnUse" maskUnits="userSpaceOnUse" style="mask-type: luminance" mask-type="luminance" id="i54"><g filter="url(#i53)"><g transform="matrix(1,0,0,1,0,0)"><g clip-path="url(#i16)" id="i22"><rect y="0" x="0" fill="#ffffff" height="500" width="500" /></g></g></g></mask><filter id="i55"><feColorMatrix values="0" type="saturate" /></filter><mask height="20000" width="20000" y="-10000" x="-10000" maskContentUnits="userSpaceOnUse" maskUnits="userSpaceOnUse" style="mask-type: luminance" mask-type="luminance" id="i56"><g filter="url(#i55)"><g transform="matrix(1,0,0,1,0,0)"><g clip-path="url(#i17)" id="i22"><rect y="0" x="0" fill="#ffffff" height="500" width="500" /></g></g></g></mask><filter id="i57"><feColorMatrix values="0" type="saturate" /></filter><mask height="20000" width="20000" y="-10000" x="-10000" maskContentUnits="userSpaceOnUse" maskUnits="userSpaceOnUse" style="mask-type: luminance" mask-type="luminance" id="i58"><g filter="url(#i57)"><g transform="matrix(1,0,0,1,0,0)"><g clip-path="url(#i18)" id="i22"><rect y="0" x="0" fill="#ffffff" height="500" width="500" /></g></g></g></mask><filter id="i59"><feColorMatrix values="0" type="saturate" /></filter><mask height="20000" width="20000" y="-10000" x="-10000" maskContentUnits="userSpaceOnUse" maskUnits="userSpaceOnUse" style="mask-type: luminance" mask-type="luminance" id="i60"><g filter="url(#i59)"><g transform="matrix(1,0,0,1,0,0)"><g clip-path="url(#i19)" id="i22"><rect y="0" x="0" fill="#ffffff" height="500" width="500" /></g></g></g></mask></defs><g transform="matrix(1,0,0,1,55.104,117.594)" id="i61"><g id="i62" transform="matrix(1,0,0,1,194.843,132.405)"><path fill="#ffffff" d="M185.646,131.38C185.646,131.38,-185.102,132.146,-185.102,132.146C-190.048,132.155,-194.066,128.154,-194.077,123.208C-194.077,123.208,-194.583,-122.405,-194.583,-122.405C-194.593,-127.351,-190.592,-131.37,-185.646,-131.38C-185.646,-131.38,185.102,-132.145,185.102,-132.145C190.048,-132.155,194.066,-128.154,194.077,-123.207C194.077,-123.207,194.584,122.405,194.584,122.405C194.593,127.352,190.592,131.37,185.646,131.38Z" /></g><g id="i63" transform="matrix(1,0,0,1,194.785,9.762)"><path fill="#2f5eb2" d="M184.557,-9.499C184.557,-9.499,-184.604,-8.737,-184.604,-8.737C-189.988,-8.726,-194.344,-4.352,-194.333,1.032C-194.333,1.032,-194.316,9.51,-194.316,9.51C-194.316,9.51,194.344,8.708,194.344,8.708C194.344,8.708,194.327,0.23,194.327,0.23C194.316,-5.154,189.942,-9.51,184.557,-9.499Z" /></g><g id="i64" transform="matrix(1,0,0,1,33.386,141.849)"><path fill="#c8dbfb" d="M-22.762,122.702C-22.762,122.702,33.017,122.587,33.017,122.587C33.017,122.587,32.51,-122.712,32.51,-122.712C32.51,-122.712,-33.016,-122.577,-33.016,-122.577C-33.016,-122.577,-32.531,112.984,-32.531,112.984C-32.52,118.362,-28.146,122.713,-22.762,122.702Z" /></g><g id="i65" transform="matrix(1,0,0,1,35.495,242.198)"><path fill="#ffffff" d="M21.5,3.603C21.5,3.603,-21.485,3.691,-21.485,3.691C-23.381,3.695,-24.922,2.161,-24.926,0.264C-24.926,0.264,-24.927,-0.161,-24.927,-0.161C-24.931,-2.057,-23.396,-3.598,-21.5,-3.602C-21.5,-3.602,21.485,-3.691,21.485,-3.691C23.381,-3.695,24.922,-2.161,24.926,-0.264C24.926,-0.264,24.927,0.162,24.927,0.162C24.931,2.058,23.396,3.599,21.5,3.603Z" /></g><g id="i66" transform="matrix(1,0,0,1,33.477,54.832)"><path fill="#ffffff" d="M18.349,24.552C18.349,24.552,-18.248,24.629,-18.248,24.629C-21.722,24.636,-24.545,21.825,-24.552,18.35C-24.552,18.35,-24.628,-18.247,-24.628,-18.247C-24.635,-21.721,-21.824,-24.545,-18.349,-24.551C-18.349,-24.551,18.247,-24.628,18.247,-24.628C21.723,-24.636,24.545,-21.824,24.553,-18.349C24.553,-18.349,24.628,18.247,24.628,18.247C24.635,21.722,21.824,24.545,18.349,24.552Z" /></g><g id="i67" transform="matrix(1,0,0,1,18.629,9.961)"><path fill="#c8dbfb" d="M3.141,-0.007C3.145,1.727,1.742,3.137,0.007,3.14C-1.728,3.144,-3.138,1.741,-3.142,0.006C-3.145,-1.729,-1.742,-3.137,-0.007,-3.141C1.727,-3.144,3.138,-1.742,3.141,-0.007Z" /></g><g id="i68" transform="matrix(1,0,0,1,31.925,9.933)"><path fill="#c8dbfb" d="M3.141,-0.007C3.144,1.728,1.741,3.137,0.007,3.14C-1.728,3.144,-3.137,1.741,-3.141,0.006C-3.144,-1.729,-1.741,-3.137,-0.006,-3.14C1.728,-3.144,3.138,-1.741,3.141,-0.007Z" /></g><g id="i69" transform="matrix(1,0,0,1,45.222,9.906)"><path fill="#c8dbfb" d="M3.141,-0.007C3.144,1.728,1.741,3.137,0.007,3.14C-1.728,3.144,-3.137,1.741,-3.141,0.006C-3.144,-1.729,-1.741,-3.137,-0.006,-3.14C1.728,-3.144,3.138,-1.742,3.141,-0.007Z" /></g><g id="i70" transform="matrix(1,0,0,1,34.26,85.305)"><path fill="#ffffff" d="M20.118,1.755C20.118,1.755,-20.11,1.838,-20.11,1.838C-21.045,1.84,-21.804,1.084,-21.806,0.15C-21.806,0.15,-21.806,-0.059,-21.806,-0.059C-21.808,-0.994,-21.052,-1.754,-20.117,-1.756C-20.117,-1.756,20.11,-1.839,20.11,-1.839C21.045,-1.841,21.805,-1.085,21.806,-0.15C21.806,-0.15,21.806,0.059,21.806,0.059C21.808,0.994,21.053,1.754,20.118,1.755Z" /></g><g id="i71" transform="matrix(1,0,0,1,34.276,92.986)"><path fill="#ffffff" d="M20.118,1.755C20.118,1.755,-20.111,1.838,-20.111,1.838C-21.046,1.84,-21.803,1.084,-21.805,0.149C-21.805,0.149,-21.807,-0.059,-21.807,-0.059C-21.809,-0.994,-21.052,-1.754,-20.117,-1.756C-20.117,-1.756,20.111,-1.839,20.111,-1.839C21.045,-1.84,21.804,-1.084,21.805,-0.15C21.805,-0.15,21.807,0.059,21.807,0.059C21.809,0.994,21.053,1.753,20.118,1.755Z" /></g></g><g transform="matrix(1,0,0,1,55.195,117.606)" id="i72"><g id="i71" transform="matrix(1,0,0,1,194.843,132.395)"><path fill="#2f5eb2" fill-rule="evenodd" d="M185.121,-129.681C188.692,-129.681,191.604,-126.774,191.611,-123.202C191.611,-123.202,192.118,122.411,192.118,122.411C192.126,125.991,189.22,128.909,185.64,128.917C185.64,128.917,-185.12,129.68,-185.12,129.68C-188.692,129.68,-191.606,126.775,-191.613,123.203C-191.613,123.203,-192.119,-122.41,-192.119,-122.41C-192.126,-125.99,-189.22,-128.908,-185.64,-128.915C-185.64,-128.915,185.1,-129.681,185.1,-129.681C185.1,-129.681,185.121,-129.681,185.121,-129.681ZM185.12,-132.145C185.114,-132.145,185.107,-132.145,185.1,-132.145C185.1,-132.145,-185.646,-131.379,-185.646,-131.379C-190.592,-131.37,-194.594,-127.352,-194.584,-122.405C-194.584,-122.405,-194.076,123.208,-194.076,123.208C-194.066,128.148,-190.059,132.145,-185.12,132.145C-185.12,132.145,-185.102,132.145,-185.102,132.145C-185.102,132.145,185.644,131.38,185.644,131.38C190.591,131.371,194.593,127.352,194.583,122.406C194.583,122.406,194.076,-123.207,194.076,-123.207C194.065,-128.147,190.057,-132.145,185.12,-132.145Z" /></g></g><g mask="url(#i21)" id="i73"><g transform="translate(250,250)"><animateTransform repeatCount="indefinite" type="translate" attributeName="transform" dur="3.967s" begin="0s" calcMode="spline" values="250 250; 250 25" keyTimes="0; 1" keySplines="0 0 1 1" fill="freeze" /><g transform="scale(1,1) translate(0,0)"><g transform="matrix(1,0,0,1,26.496,38.578)" id="i74"><g id="i71" transform="matrix(1,0,0,1,71.971,35.392)"><path fill="#c8dbfb" d="M64.322,34.869C64.322,34.869,-64.177,35.135,-64.177,35.135C-68.268,35.142,-71.591,31.833,-71.6,27.742C-71.6,27.742,-71.712,-27.445,-71.712,-27.445C-71.721,-31.537,-68.412,-34.86,-64.322,-34.868C-64.322,-34.868,64.176,-35.134,64.176,-35.134C68.267,-35.142,71.591,-31.832,71.599,-27.741C71.599,-27.741,71.714,27.446,71.714,27.446C71.722,31.537,68.413,34.86,64.322,34.869Z" /></g></g></g></g></g><g display="none" transform="matrix(1,0,0,1,0,0)" id="i75"><g clip-path="url(#i0)" id="i22"><rect y="0" x="0" fill="#ffffff" height="500" width="500" /></g></g><g mask="url(#i24)" id="i73"><g transform="translate(250,250)"><animateTransform repeatCount="indefinite" type="translate" attributeName="transform" dur="3.967s" begin="0s" calcMode="spline" values="250 250; 250 25" keyTimes="0; 1" keySplines="0 0 1 1" fill="freeze" /><g transform="scale(1,1) translate(0,0)"><g transform="matrix(1,0,0,1,-118.571,86.214)" id="i76"><g id="i71" transform="matrix(1,0,0,1,68.492,5.15)"><path fill="#c8dbfb" d="M63.762,4.63C63.762,4.63,-63.741,4.895,-63.741,4.895C-66.218,4.9,-68.23,2.896,-68.236,0.419C-68.236,0.419,-68.237,-0.139,-68.237,-0.139C-68.242,-2.615,-66.238,-4.626,-63.761,-4.632C-63.761,-4.632,63.742,-4.895,63.742,-4.895C66.219,-4.9,68.232,-2.895,68.237,-0.419C68.237,-0.419,68.238,0.137,68.238,0.137C68.242,2.614,66.239,4.625,63.762,4.63Z" /></g></g></g></g></g><g display="none" transform="matrix(1,0,0,1,0,0)" id="i75"><g clip-path="url(#i1)" id="i22"><rect y="0" x="0" fill="#ffffff" height="500" width="500" /></g></g><g mask="url(#i26)" id="i73"><g transform="translate(250,250)"><animateTransform repeatCount="indefinite" type="translate" attributeName="transform" dur="3.967s" begin="0s" calcMode="spline" values="250 250; 250 25" keyTimes="0; 1" keySplines="0 0 1 1" fill="freeze" /><g transform="scale(1,1) translate(0,0)"><g transform="matrix(1,0,0,1,-118.611,66.52)" id="i77"><g id="i71" transform="matrix(1,0,0,1,68.492,5.15)"><path fill="#c8dbfb" d="M63.761,4.631C63.761,4.631,-63.742,4.894,-63.742,4.894C-66.219,4.9,-68.231,2.896,-68.236,0.418C-68.236,0.418,-68.237,-0.138,-68.237,-0.138C-68.242,-2.614,-66.239,-4.627,-63.761,-4.632C-63.761,-4.632,63.741,-4.895,63.741,-4.895C66.219,-4.9,68.231,-2.896,68.236,-0.419C68.236,-0.419,68.238,0.137,68.238,0.137C68.242,2.613,66.239,4.626,63.761,4.631Z" /></g></g></g></g></g><g display="none" transform="matrix(1,0,0,1,0,0)" id="i75"><g clip-path="url(#i2)" id="i22"><rect y="0" x="0" fill="#ffffff" height="500" width="500" /></g></g><g mask="url(#i28)" id="i73"><g transform="translate(250,250)"><animateTransform repeatCount="indefinite" type="translate" attributeName="transform" dur="3.967s" begin="0s" calcMode="spline" values="250 250; 250 25" keyTimes="0; 1" keySplines="0 0 1 1" fill="freeze" /><g transform="scale(1,1) translate(0,0)"><g transform="matrix(1,0,0,1,-118.652,46.827)" id="i78"><g id="i71" transform="matrix(1,0,0,1,68.492,5.15)"><path fill="#c8dbfb" d="M63.762,4.63C63.762,4.63,-63.741,4.895,-63.741,4.895C-66.218,4.9,-68.231,2.896,-68.236,0.419C-68.236,0.419,-68.237,-0.139,-68.237,-0.139C-68.242,-2.615,-66.238,-4.626,-63.761,-4.632C-63.761,-4.632,63.742,-4.895,63.742,-4.895C66.219,-4.9,68.232,-2.895,68.237,-0.419C68.237,-0.419,68.238,0.137,68.238,0.137C68.242,2.614,66.239,4.625,63.762,4.63Z" /></g></g></g></g></g><g display="none" transform="matrix(1,0,0,1,0,0)" id="i75"><g clip-path="url(#i3)" id="i22"><rect y="0" x="0" fill="#ffffff" height="500" width="500" /></g></g><g mask="url(#i30)" id="i73"><g transform="translate(250,250)"><animateTransform repeatCount="indefinite" type="translate" attributeName="transform" dur="3.967s" begin="0s" calcMode="spline" values="250 250; 250 25" keyTimes="0; 1" keySplines="0 0 1 1" fill="freeze" /><g transform="scale(1,1) translate(0,0)"><g transform="matrix(1,0,0,1,26.421,3.456)" id="i79"><g id="i71" transform="matrix(1,0,0,1,71.911,5.157)"><path fill="#c8dbfb" d="M67.182,4.624C67.182,4.624,-67.161,4.9,-67.161,4.9C-69.637,4.906,-71.649,2.903,-71.655,0.426C-71.655,0.426,-71.656,-0.131,-71.656,-0.131C-71.661,-2.607,-69.657,-4.62,-67.18,-4.625C-67.18,-4.625,67.161,-4.902,67.161,-4.902C69.638,-4.907,71.651,-2.903,71.656,-0.427C71.656,-0.427,71.658,0.13,71.658,0.13C71.662,2.607,69.66,4.618,67.182,4.624Z" /></g></g></g></g></g><g display="none" transform="matrix(1,0,0,1,0,0)" id="i75"><g clip-path="url(#i4)" id="i22"><rect y="0" x="0" fill="#ffffff" height="500" width="500" /></g></g><g mask="url(#i32)" id="i73"><g transform="translate(250,250)"><animateTransform repeatCount="indefinite" type="translate" attributeName="transform" dur="3.967s" begin="0s" calcMode="spline" values="250 250; 250 25" keyTimes="0; 1" keySplines="0 0 1 1" fill="freeze" /><g transform="scale(1,1) translate(0,0)"><g transform="matrix(1,0,0,1,-122.273,-74.818)" id="i80"><g id="i71" transform="matrix(1,0,0,1,54.735,50.719)"><path fill="#c8dbfb" fill-rule="evenodd" d="M46.892,-50.469C46.892,-50.469,46.892,-49.236,46.892,-49.236C50.29,-49.236,53.058,-46.471,53.066,-43.073C53.066,-43.073,53.243,42.854,53.243,42.854C53.246,44.504,52.607,46.056,51.443,47.225C50.28,48.393,48.731,49.039,47.081,49.043C47.081,49.043,-46.892,49.236,-46.892,49.236C-50.29,49.236,-53.06,46.472,-53.066,43.074C-53.066,43.074,-53.244,-42.854,-53.244,-42.854C-53.247,-44.504,-52.608,-46.055,-51.444,-47.224C-50.28,-48.393,-48.731,-49.038,-47.082,-49.042C-47.082,-49.042,46.88,-49.236,46.88,-49.236C46.88,-49.236,46.892,-50.469,46.892,-50.469ZM46.892,-50.469C46.892,-50.469,46.876,-50.469,46.876,-50.469C46.876,-50.469,-47.084,-50.275,-47.084,-50.275C-51.175,-50.267,-54.484,-46.944,-54.476,-42.852C-54.476,-42.852,-54.299,43.077,-54.299,43.077C-54.29,47.163,-50.976,50.469,-46.892,50.469C-46.892,50.469,-46.876,50.469,-46.876,50.469C-46.876,50.469,47.083,50.274,47.083,50.274C51.174,50.266,54.485,46.943,54.476,42.852C54.476,42.852,54.299,-43.076,54.299,-43.076C54.29,-47.162,50.976,-50.469,46.892,-50.469Z" /></g></g></g></g></g><g display="none" transform="matrix(1,0,0,1,0,0)" id="i75"><g clip-path="url(#i5)" id="i22"><rect y="0" x="0" fill="#ffffff" height="500" width="500" /></g></g><g mask="url(#i34)" id="i73"><g transform="translate(250,250)"><animateTransform repeatCount="indefinite" type="translate" attributeName="transform" dur="3.967s" begin="0s" calcMode="spline" values="250 250; 250 25" keyTimes="0; 1" keySplines="0 0 1 1" fill="freeze" /><g transform="scale(1,1) translate(0,0)"><g transform="matrix(1,0,0,1,-122.274,-74.676)" id="i81"><g id="i71" transform="matrix(1,0,0,1,14.041,50.653)"><path fill="#c8dbfb" d="M13.792,50.351C13.792,50.351,-7.316,50.395,-7.316,50.395C-10.78,50.402,-13.595,47.599,-13.603,44.135C-13.603,44.135,-13.784,-43.996,-13.784,-43.996C-13.792,-47.497,-10.958,-50.341,-7.458,-50.348C-7.458,-50.348,13.667,-50.402,13.667,-50.402C13.667,-50.402,13.792,50.351,13.792,50.351Z" /></g></g></g></g></g><g display="none" transform="matrix(1,0,0,1,0,0)" id="i75"><g clip-path="url(#i6)" id="i22"><rect y="0" x="0" fill="#ffffff" height="500" width="500" /></g></g><g mask="url(#i36)" id="i73"><g transform="translate(250,250)"><animateTransform repeatCount="indefinite" type="translate" attributeName="transform" dur="3.967s" begin="0s" calcMode="spline" values="250 250; 250 25" keyTimes="0; 1" keySplines="0 0 1 1" fill="freeze" /><g transform="scale(1,1) translate(0,0)"><g transform="matrix(1,0,0,1,26.216,-98.873)" id="i82"><g id="i71" transform="matrix(1,0,0,1,71.971,35.393)"><path fill="#c8dbfb" d="M64.321,34.868C64.321,34.868,-64.176,35.135,-64.176,35.135C-68.267,35.143,-71.59,31.833,-71.599,27.743C-71.599,27.743,-71.713,-27.446,-71.713,-27.446C-71.721,-31.537,-68.411,-34.861,-64.321,-34.869C-64.321,-34.869,64.176,-35.133,64.176,-35.133C68.268,-35.142,71.592,-31.833,71.599,-27.742C71.599,-27.742,71.714,27.446,71.714,27.446C71.722,31.536,68.413,34.86,64.321,34.868Z" /></g></g></g></g></g><g display="none" transform="matrix(1,0,0,1,0,0)" id="i75"><g clip-path="url(#i7)" id="i22"><rect y="0" x="0" fill="#ffffff" height="500" width="500" /></g></g><g mask="url(#i38)" id="i73"><g transform="translate(250,250)"><animateTransform repeatCount="indefinite" type="translate" attributeName="transform" dur="3.967s" begin="0s" calcMode="spline" values="250 250; 250 25" keyTimes="0; 1" keySplines="0 0 1 1" fill="freeze" /><g transform="scale(1,1) translate(0,0)"><g transform="matrix(1,0,0,1,-99.279,-98.446)" id="i83"><g id="i71" transform="matrix(1,0,0,1,55.121,5.122)"><path fill="#c8dbfb" d="M50.39,4.659C50.39,4.659,-50.37,4.867,-50.37,4.867C-52.847,4.872,-54.86,2.868,-54.864,0.391C-54.864,0.391,-54.866,-0.165,-54.866,-0.165C-54.871,-2.641,-52.867,-4.654,-50.39,-4.659C-50.39,-4.659,50.37,-4.867,50.37,-4.867C52.848,-4.872,54.86,-2.868,54.866,-0.391C54.866,-0.391,54.867,0.165,54.867,0.165C54.871,2.642,52.868,4.654,50.39,4.659Z" /></g></g></g></g></g><g display="none" transform="matrix(1,0,0,1,0,0)" id="i75"><g clip-path="url(#i8)" id="i22"><rect y="0" x="0" fill="#ffffff" height="500" width="500" /></g></g><g mask="url(#i40)" id="i73"><g transform="translate(250,250)"><animateTransform repeatCount="indefinite" type="translate" attributeName="transform" dur="3.967s" begin="0s" calcMode="spline" values="250 250; 250 25" keyTimes="0; 1" keySplines="0 0 1 1" fill="freeze" /><g transform="scale(1,1) translate(0,0)"><g transform="matrix(1,0,0,1,-122.329,-102.524)" id="i84"><g id="i71" transform="matrix(1,0,0,1,9.342,9.343)"><path fill="#c8dbfb" d="M9.082,-0.019C9.092,4.997,5.035,9.072,0.019,9.082C-4.997,9.092,-9.071,5.036,-9.082,0.02C-9.092,-4.996,-5.035,-9.072,-0.019,-9.082C4.997,-9.093,9.072,-5.035,9.082,-0.019Z" /></g></g></g></g></g><g display="none" transform="matrix(1,0,0,1,0,0)" id="i75"><g clip-path="url(#i9)" id="i22"><rect y="0" x="0" fill="#ffffff" height="500" width="500" /></g></g><g opacity="0" id="i73"><g transform="translate(250,250)"><animateTransform repeatCount="indefinite" type="translate" attributeName="transform" dur="3.967s" begin="0s" calcMode="spline" values="250 250; 250 25" keyTimes="0; 1" keySplines="0 0 1 1" fill="freeze" /><g transform="scale(1,1) translate(0,0)" /></g></g><g mask="url(#i42)" id="i73"><g transform="translate(250,250)"><animateTransform repeatCount="indefinite" type="translate" attributeName="transform" dur="3.967s" begin="0s" calcMode="spline" values="250 250; 250 25" keyTimes="0; 1" keySplines="0 0 1 1" fill="freeze" /><g transform="scale(1,1) translate(0,0)"><g id="i85"><g transform="translate(98.468,243.97)"><animateTransform repeatCount="indefinite" type="translate" attributeName="transform" dur="3.967s" begin="0s" calcMode="spline" values="98.468 243.97; 98.468 243.97; 98.468 298.97; 98.468 298.97" keyTimes="0; 0.773109; 0.941177; 1" keySplines="0 0 1 1; 0.333 0 0.667 1; 0 0 1 1" fill="freeze" /><g transform="scale(1,0)"><animateTransform repeatCount="indefinite" type="scale" attributeName="transform" dur="3.967s" begin="0s" calcMode="spline" values="1 0; 1 0; 1 1; 1 1" keyTimes="0; 0.773109; 0.941177; 1" keySplines="0 0 1 1; 0.333 0 0.667 1; 0 0 1 1" fill="freeze" /><g transform="translate(-71.972,-35.392)"><g id="i71" transform="matrix(1,0,0,1,71.971,35.392)"><path fill="#c8dbfb" d="M64.322,34.869C64.322,34.869,-64.177,35.135,-64.177,35.135C-68.268,35.142,-71.591,31.833,-71.6,27.742C-71.6,27.742,-71.712,-27.445,-71.712,-27.445C-71.721,-31.537,-68.412,-34.86,-64.322,-34.868C-64.322,-34.868,64.176,-35.134,64.176,-35.134C68.267,-35.142,71.591,-31.832,71.599,-27.741C71.599,-27.741,71.714,27.446,71.714,27.446C71.722,31.537,68.413,34.86,64.322,34.869Z" /></g></g></g></g></g></g></g></g><g display="none" transform="matrix(1,0,0,1,0,0)" id="i75"><g clip-path="url(#i10)" id="i22"><rect y="0" x="0" fill="#ffffff" height="500" width="500" /></g></g><g mask="url(#i44)" id="i73"><g transform="translate(250,250)"><animateTransform repeatCount="indefinite" type="translate" attributeName="transform" dur="3.967s" begin="0s" calcMode="spline" values="250 250; 250 25" keyTimes="0; 1" keySplines="0 0 1 1" fill="freeze" /><g transform="scale(1,1) translate(0,0)"><g visibility="hidden" id="i86"><animate repeatCount="indefinite" begin="0s" calcMode="discrete" dur="3.967s" values="hidden; visible; visible" keyTimes="0; 0.849071; 1" attributeName="visibility" /><g transform="translate(-50.079,316.364)"><g transform="scale(0,1)"><animateTransform repeatCount="indefinite" type="scale" attributeName="transform" dur="3.967s" begin="0s" calcMode="spline" values="0 1; 0 1; 1 1; 1 1" keyTimes="0; 0.84874; 0.932773; 1" keySplines="0 0 1 1; 0.651 0 0.341 1; 0 0 1 1" fill="freeze" /><g transform="translate(-68.492,-5.15)"><g id="i71" transform="matrix(1,0,0,1,68.492,5.15)"><path fill="#c8dbfb" d="M63.762,4.63C63.762,4.63,-63.741,4.895,-63.741,4.895C-66.218,4.9,-68.23,2.896,-68.236,0.419C-68.236,0.419,-68.237,-0.139,-68.237,-0.139C-68.242,-2.615,-66.238,-4.626,-63.761,-4.632C-63.761,-4.632,63.742,-4.895,63.742,-4.895C66.219,-4.9,68.232,-2.895,68.237,-0.419C68.237,-0.419,68.238,0.137,68.238,0.137C68.242,2.614,66.239,4.625,63.762,4.63Z" /></g></g></g></g></g></g></g></g><g display="none" transform="matrix(1,0,0,1,0,0)" id="i75"><g clip-path="url(#i11)" id="i22"><rect y="0" x="0" fill="#ffffff" height="500" width="500" /></g></g><g mask="url(#i46)" id="i73"><g transform="translate(250,250)"><animateTransform repeatCount="indefinite" type="translate" attributeName="transform" dur="3.967s" begin="0s" calcMode="spline" values="250 250; 250 25" keyTimes="0; 1" keySplines="0 0 1 1" fill="freeze" /><g transform="scale(1,1) translate(0,0)"><g visibility="hidden" id="i87"><animate repeatCount="indefinite" begin="0s" calcMode="discrete" dur="3.967s" values="hidden; visible; visible" keyTimes="0; 0.773065; 1" attributeName="visibility" /><g transform="translate(-50.119,296.67)"><g transform="scale(0,1)"><animateTransform repeatCount="indefinite" type="scale" attributeName="transform" dur="3.967s" begin="0s" calcMode="spline" values="0 1; 0 1; 1 1; 1 1" keyTimes="0; 0.773109; 0.857143; 1" keySplines="0 0 1 1; 0.651 0 0.341 1; 0 0 1 1" fill="freeze" /><g transform="translate(-68.492,-5.15)"><g id="i71" transform="matrix(1,0,0,1,68.492,5.15)"><path fill="#c8dbfb" d="M63.761,4.631C63.761,4.631,-63.742,4.894,-63.742,4.894C-66.219,4.9,-68.231,2.896,-68.236,0.418C-68.236,0.418,-68.237,-0.138,-68.237,-0.138C-68.242,-2.614,-66.239,-4.627,-63.761,-4.632C-63.761,-4.632,63.741,-4.895,63.741,-4.895C66.219,-4.9,68.231,-2.896,68.236,-0.419C68.236,-0.419,68.238,0.137,68.238,0.137C68.242,2.613,66.239,4.626,63.761,4.631Z" /></g></g></g></g></g></g></g></g><g display="none" transform="matrix(1,0,0,1,0,0)" id="i75"><g clip-path="url(#i12)" id="i22"><rect y="0" x="0" fill="#ffffff" height="500" width="500" /></g></g><g mask="url(#i48)" id="i73"><g transform="translate(250,250)"><animateTransform repeatCount="indefinite" type="translate" attributeName="transform" dur="3.967s" begin="0s" calcMode="spline" values="250 250; 250 25" keyTimes="0; 1" keySplines="0 0 1 1" fill="freeze" /><g transform="scale(1,1) translate(0,0)"><g visibility="hidden" id="i88"><animate repeatCount="indefinite" begin="0s" calcMode="discrete" dur="3.967s" values="hidden; visible; visible" keyTimes="0; 0.706059; 1" attributeName="visibility" /><g transform="translate(-50.16,276.976)"><g transform="scale(0,1)"><animateTransform repeatCount="indefinite" type="scale" attributeName="transform" dur="3.967s" begin="0s" calcMode="spline" values="0 1; 0 1; 1 1; 1 1" keyTimes="0; 0.705882; 0.789916; 1" keySplines="0 0 1 1; 0.651 0 0.341 1; 0 0 1 1" fill="freeze" /><g transform="translate(-68.492,-5.149)"><g id="i71" transform="matrix(1,0,0,1,68.492,5.15)"><path fill="#c8dbfb" d="M63.762,4.63C63.762,4.63,-63.741,4.895,-63.741,4.895C-66.218,4.9,-68.231,2.896,-68.236,0.419C-68.236,0.419,-68.237,-0.139,-68.237,-0.139C-68.242,-2.615,-66.238,-4.626,-63.761,-4.632C-63.761,-4.632,63.742,-4.895,63.742,-4.895C66.219,-4.9,68.232,-2.895,68.237,-0.419C68.237,-0.419,68.238,0.137,68.238,0.137C68.242,2.614,66.239,4.625,63.762,4.63Z" /></g></g></g></g></g></g></g></g><g display="none" transform="matrix(1,0,0,1,0,0)" id="i75"><g clip-path="url(#i13)" id="i22"><rect y="0" x="0" fill="#ffffff" height="500" width="500" /></g></g><g mask="url(#i50)" id="i73"><g transform="translate(250,250)"><animateTransform repeatCount="indefinite" type="translate" attributeName="transform" dur="3.967s" begin="0s" calcMode="spline" values="250 250; 250 25" keyTimes="0; 1" keySplines="0 0 1 1" fill="freeze" /><g transform="scale(1,1) translate(0,0)"><g visibility="hidden" id="i89"><animate repeatCount="indefinite" begin="0s" calcMode="discrete" dur="3.967s" values="hidden; visible; visible" keyTimes="0; 0.504042; 1" attributeName="visibility" /><g transform="translate(98.332,233.613)"><g transform="scale(0,1)"><animateTransform repeatCount="indefinite" type="scale" attributeName="transform" dur="3.967s" begin="0s" calcMode="spline" values="0 1; 0 1; 1 1; 1 1" keyTimes="0; 0.504202; 0.588235; 1" keySplines="0 0 1 1; 0.651 0 0.341 1; 0 0 1 1" fill="freeze" /><g transform="translate(-71.911,-5.157)"><g id="i71" transform="matrix(1,0,0,1,71.911,5.157)"><path fill="#c8dbfb" d="M67.182,4.624C67.182,4.624,-67.161,4.9,-67.161,4.9C-69.637,4.906,-71.649,2.903,-71.655,0.426C-71.655,0.426,-71.656,-0.131,-71.656,-0.131C-71.661,-2.607,-69.657,-4.62,-67.18,-4.625C-67.18,-4.625,67.161,-4.902,67.161,-4.902C69.638,-4.907,71.651,-2.903,71.656,-0.427C71.656,-0.427,71.658,0.13,71.658,0.13C71.662,2.607,69.66,4.618,67.182,4.624Z" /></g></g></g></g></g></g></g></g><g display="none" transform="matrix(1,0,0,1,0,0)" id="i75"><g clip-path="url(#i14)" id="i22"><rect y="0" x="0" fill="#ffffff" height="500" width="500" /></g></g><g mask="url(#i52)" id="i73"><g transform="translate(250,250)"><animateTransform repeatCount="indefinite" type="translate" attributeName="transform" dur="3.967s" begin="0s" calcMode="spline" values="250 250; 250 25" keyTimes="0; 1" keySplines="0 0 1 1" fill="freeze" /><g transform="scale(1,1) translate(0,0)"><g transform="matrix(1,0,0,1,-122.273,150.182)" id="i90"><g id="i71" transform="matrix(1,0,0,1,54.735,50.719)"><path fill="#c8dbfb" fill-rule="evenodd" d="M46.892,-50.469C46.892,-50.469,46.892,-49.236,46.892,-49.236C50.29,-49.236,53.058,-46.471,53.066,-43.073C53.066,-43.073,53.243,42.854,53.243,42.854C53.246,44.504,52.607,46.056,51.443,47.225C50.28,48.393,48.731,49.039,47.081,49.043C47.081,49.043,-46.892,49.236,-46.892,49.236C-50.29,49.236,-53.06,46.472,-53.066,43.074C-53.066,43.074,-53.244,-42.854,-53.244,-42.854C-53.247,-44.504,-52.608,-46.055,-51.444,-47.224C-50.28,-48.393,-48.731,-49.038,-47.082,-49.042C-47.082,-49.042,46.88,-49.236,46.88,-49.236C46.88,-49.236,46.892,-50.469,46.892,-50.469ZM46.892,-50.469C46.892,-50.469,46.876,-50.469,46.876,-50.469C46.876,-50.469,-47.084,-50.275,-47.084,-50.275C-51.175,-50.267,-54.484,-46.944,-54.476,-42.852C-54.476,-42.852,-54.299,43.077,-54.299,43.077C-54.29,47.163,-50.976,50.469,-46.892,50.469C-46.892,50.469,-46.876,50.469,-46.876,50.469C-46.876,50.469,47.083,50.274,47.083,50.274C51.174,50.266,54.485,46.943,54.476,42.852C54.476,42.852,54.299,-43.076,54.299,-43.076C54.29,-47.162,50.976,-50.469,46.892,-50.469Z" /></g></g></g></g></g><g display="none" transform="matrix(1,0,0,1,0,0)" id="i75"><g clip-path="url(#i15)" id="i22"><rect y="0" x="0" fill="#ffffff" height="500" width="500" /></g></g><g mask="url(#i54)" id="i73"><g transform="translate(250,250)"><animateTransform repeatCount="indefinite" type="translate" attributeName="transform" dur="3.967s" begin="0s" calcMode="spline" values="250 250; 250 25" keyTimes="0; 1" keySplines="0 0 1 1" fill="freeze" /><g transform="scale(1,1) translate(0,0)"><g transform="matrix(1,0,0,1,-122.274,150.324)" id="i91"><g id="i71" transform="matrix(1,0,0,1,14.041,50.653)"><path fill="#c8dbfb" d="M13.792,50.351C13.792,50.351,-7.316,50.395,-7.316,50.395C-10.78,50.402,-13.595,47.599,-13.603,44.135C-13.603,44.135,-13.784,-43.996,-13.784,-43.996C-13.792,-47.497,-10.958,-50.341,-7.458,-50.348C-7.458,-50.348,13.667,-50.402,13.667,-50.402C13.667,-50.402,13.792,50.351,13.792,50.351Z" /></g></g></g></g></g><g display="none" transform="matrix(1,0,0,1,0,0)" id="i75"><g clip-path="url(#i16)" id="i22"><rect y="0" x="0" fill="#ffffff" height="500" width="500" /></g></g><g mask="url(#i56)" id="i73"><g transform="translate(250,250)"><animateTransform repeatCount="indefinite" type="translate" attributeName="transform" dur="3.967s" begin="0s" calcMode="spline" values="250 250; 250 25" keyTimes="0; 1" keySplines="0 0 1 1" fill="freeze" /><g transform="scale(1,1) translate(0,0)"><g visibility="hidden" id="i92"><animate repeatCount="indefinite" begin="0s" calcMode="discrete" dur="3.967s" values="hidden; visible; visible" keyTimes="0; 0.151013; 1" attributeName="visibility" /><g transform="translate(98.188,117.519)"><animateTransform repeatCount="indefinite" type="translate" attributeName="transform" dur="3.967s" begin="0s" calcMode="spline" values="98.188 117.519; 98.188 117.519; 98.188 161.519; 98.188 161.519" keyTimes="0; 0.151261; 0.319328; 1" keySplines="0 0 1 1; 0.333 0 0.667 1; 0 0 1 1" fill="freeze" /><g transform="scale(1,0)"><animateTransform repeatCount="indefinite" type="scale" attributeName="transform" dur="3.967s" begin="0s" calcMode="spline" values="1 0; 1 0; 1 1; 1 1" keyTimes="0; 0.151261; 0.319328; 1" keySplines="0 0 1 1; 0.333 0 0.667 1; 0 0 1 1" fill="freeze" /><g transform="translate(-71.972,-35.392)"><g id="i71" transform="matrix(1,0,0,1,71.971,35.393)"><path fill="#c8dbfb" d="M64.321,34.868C64.321,34.868,-64.176,35.135,-64.176,35.135C-68.267,35.143,-71.59,31.833,-71.599,27.743C-71.599,27.743,-71.713,-27.446,-71.713,-27.446C-71.721,-31.537,-68.411,-34.861,-64.321,-34.869C-64.321,-34.869,64.176,-35.133,64.176,-35.133C68.268,-35.142,71.592,-31.833,71.599,-27.742C71.599,-27.742,71.714,27.446,71.714,27.446C71.722,31.536,68.413,34.86,64.321,34.868Z" /></g></g></g></g></g></g></g></g><g display="none" transform="matrix(1,0,0,1,0,0)" id="i75"><g clip-path="url(#i17)" id="i22"><rect y="0" x="0" fill="#ffffff" height="500" width="500" /></g></g><g mask="url(#i58)" id="i73"><g transform="translate(250,250)"><animateTransform repeatCount="indefinite" type="translate" attributeName="transform" dur="3.967s" begin="0s" calcMode="spline" values="250 250; 250 25" keyTimes="0; 1" keySplines="0 0 1 1" fill="freeze" /><g transform="scale(1,1) translate(0,0)"><g visibility="hidden" id="i93"><animate repeatCount="indefinite" begin="0s" calcMode="discrete" dur="3.967s" values="hidden; visible; visible" keyTimes="0; 0.042004; 1" attributeName="visibility" /><g transform="translate(-44.158,131.676)"><g transform="scale(0,1)"><animateTransform repeatCount="indefinite" type="scale" attributeName="transform" dur="3.967s" begin="0s" calcMode="spline" values="0 1; 0 1; 1 1; 1 1" keyTimes="0; 0.042017; 0.12605; 1" keySplines="0 0 1 1; 0.651 0 0.341 1; 0 0 1 1" fill="freeze" /><g transform="translate(-55.121,-5.122)"><g id="i71" transform="matrix(1,0,0,1,55.121,5.122)"><path fill="#c8dbfb" d="M50.39,4.659C50.39,4.659,-50.37,4.867,-50.37,4.867C-52.847,4.872,-54.86,2.868,-54.864,0.391C-54.864,0.391,-54.866,-0.165,-54.866,-0.165C-54.871,-2.641,-52.867,-4.654,-50.39,-4.659C-50.39,-4.659,50.37,-4.867,50.37,-4.867C52.848,-4.872,54.86,-2.868,54.866,-0.391C54.866,-0.391,54.867,0.165,54.867,0.165C54.871,2.642,52.868,4.654,50.39,4.659Z" /></g></g></g></g></g></g></g></g><g display="none" transform="matrix(1,0,0,1,0,0)" id="i75"><g clip-path="url(#i18)" id="i22"><rect y="0" x="0" fill="#ffffff" height="500" width="500" /></g></g><g mask="url(#i60)" id="i73"><g transform="translate(250,250)"><animateTransform repeatCount="indefinite" type="translate" attributeName="transform" dur="3.967s" begin="0s" calcMode="spline" values="250 250; 250 25" keyTimes="0; 1" keySplines="0 0 1 1" fill="freeze" /><g transform="scale(1,1) translate(0,0)"><g visibility="hidden" id="i94"><animate repeatCount="indefinite" begin="0s" calcMode="discrete" dur="3.967s" values="hidden; visible; visible" keyTimes="0; 0.034003; 1" attributeName="visibility" /><g transform="translate(-112.987,131.818)"><g transform="scale(0,0)"><animateTransform repeatCount="indefinite" type="scale" attributeName="transform" dur="3.967s" begin="0s" calcMode="spline" values="0 0; 0 0; 1 1; 1 1" keyTimes="0; 0.033613; 0.067227; 1" keySplines="0 0 1 1; 0 0 1 1; 0 0 1 1" fill="freeze" /><g transform="translate(-9.342,-9.342)"><g id="i71" transform="matrix(1,0,0,1,9.342,9.343)"><path fill="#c8dbfb" d="M9.082,-0.019C9.092,4.997,5.035,9.072,0.019,9.082C-4.997,9.092,-9.071,5.036,-9.082,0.02C-9.092,-4.996,-5.035,-9.072,-0.019,-9.082C4.997,-9.093,9.072,-5.035,9.082,-0.019Z" /></g></g></g></g></g></g></g></g><g display="none" transform="matrix(1,0,0,1,0,0)" id="i75"><g clip-path="url(#i19)" id="i22"><rect y="0" x="0" fill="#ffffff" height="500" width="500" /></g></g></svg>